<?xml version="1.0" standalone="no"?><?xml-stylesheet type="text/css" href="https://wps.processon.com/themes/default/wps/mind/icons/icons.css" ?><!DOCTYPE svg PUBLIC "-//W3C//DTD SVG 1.1//EN" "http://www.w3.org/Graphics/SVG/1.1/DTD/svg11.dtd"><svg xmlns="http://www.w3.org/2000/svg" xmlns:xlink="http://www.w3.org/1999/xlink" version="1.1" width="619.7999877929688" height="789.5" style="outline: none; background: none; top: 0px; left: 0px; display: block; z-index: 1; font-size: 12px;" id="mind-svg-con"><defs></defs><g id="svgbackgroundid"><defs></defs><rect width="619.7999877929688" height="789.5" fill="#ffffff"></rect></g><g id="export-watermark"><defs><pattern patternUnits="userSpaceOnUse" id="pattern_mark_0" width="300" height="300"><text x="150" y="100" fill="rgb(235,235,235)" font-size="18" transform="rotate(-45, 150, 150)" style="dominant-baseline: middle; text-anchor: middle;"></text></pattern></defs><rect fill="url(#pattern_mark_0)" x="0" y="0" width="619.797" height="789.5" id="rect_mark_0" pointer-events="none"></rect></g><g class="po-mind-container" transform="matrix(1,0,0,1,176,394.5)"><g class="po-mind-line-container"><g from="root" to="41031435-745f-415d-a276-3238191b2720"><path d="M0 0L89 0L89 -336C89 -336 89 -344 97 -344L217 -344" stroke-linecap="butt" stroke-width="3" stroke="#3b1084" fill="none"></path></g><g from="root" to="1ffda4cc-dbb6-4c83-81ed-5c72b4c31d54"><path d="M0 0L89 0L89 -250C89 -250 89 -258 97 -258L217 -258" stroke-linecap="butt" stroke-width="3" stroke="#3b1084" fill="none"></path></g><g from="root" to="8f63971a-cf80-45ea-bc4c-c54e907d76ed"><path d="M0 0L89 0L89 -164C89 -164 89 -172 97 -172L217 -172" stroke-linecap="butt" stroke-width="3" stroke="#3b1084" fill="none"></path></g><g from="root" to="ce65f24d-551b-4b0b-897c-bb8aac6633f7"><path d="M0 0L89 0L89 -78C89 -78 89 -86 97 -86L217 -86" stroke-linecap="butt" stroke-width="3" stroke="#3b1084" fill="none"></path></g><g from="root" to="49a64273-f47e-4dd1-8fec-3d427bb37d2d"><path d="M0 0L89 0L89 0C89 0 89 0 89 0L217 0" stroke-linecap="butt" stroke-width="3" stroke="#3b1084" fill="none"></path></g><g from="root" to="669442d9-5bca-4777-bdb8-f3be37d7f95f"><path d="M0 0L89 0L89 78C89 78 89 86 97 86L217 86" stroke-linecap="butt" stroke-width="3" stroke="#3b1084" fill="none"></path></g><g from="root" to="7beb375f-6767-4ac3-aaad-be8bfbcbd8c7"><path d="M0 0L89 0L89 164C89 164 89 172 97 172L217 172" stroke-linecap="butt" stroke-width="3" stroke="#3b1084" fill="none"></path></g><g from="root" to="63b04d64-97bc-4eac-b5ed-63c89d3fb809"><path d="M0 0L89 0L89 250C89 250 89 258 97 258L217 258" stroke-linecap="butt" stroke-width="3" stroke="#3b1084" fill="none"></path></g><g from="root" to="f84a5498-c3b9-4006-9beb-fbf7d87673c7"><path d="M0 0L89 0L89 336C89 336 89 344 97 344L217 344" stroke-linecap="butt" stroke-width="3" stroke="#3b1084" fill="none"></path></g></g><g class="po-mind-generalize-container"></g><g class="po-mind-associative-line-container"></g><g class="po-mind-node-container"><g class="po-mind-topic" id="topic-root" transform="matrix(1,0,0,1,-153,-43)" opacity="1"><path d="M0,0 L296,0 C296,0 296,0 296,0                           L296,76 C296,76 296,76 296,76                           L0,76 C0,76 0,76 0,76 L0,0                           C0,0 0,0 0,0 Z" class="po-mind-topic-shape-fill" transform="matrix(1,0,0,1,2,2)" fill="#ffffff"></path><path d="M0,0 L294,0 L294,74 L0,74 L0,0 Z M8,74 L8,82 L302,82 L302,8 L294,8" class="po-mind-topic-shape" transform="matrix(1,0,0,1,2,2)" fill="none" stroke-width="4" stroke="#3b1084"></path><g transform="matrix(1,0,0,1,32,18)"><g data-width="234" data-height="42" data-offsetx="0" transform="matrix(1,0,0,1,0,0)"><g><text text-anchor="start" align="top" anchor="start" font-size="30px" font-weight="bold" fill="rgb(59, 16, 132)" style="font-family: 思源宋体;font-size: 30px;font-weight: bold;font-style: normal;line-height: 140%;max-width: 900px;overflow-wrap: break-word;word-break: break-word;text-size-adjust: 100%;color: rgb(59, 16, 132);"><tspan x="0" y="30"><tspan dx="0">Python语言基础</tspan></tspan></text></g></g></g></g><g class="po-mind-topic" id="topic-41031435-745f-415d-a276-3238191b2720" transform="matrix(1,0,0,1,217,-371)" opacity="1"><path d="M0,0 L176.8,0 C176.8,0 176.8,0 176.8,0                           L176.8,46 C176.8,46 176.8,46 176.8,46                           L0,46 C0,46 0,46 0,46 L0,0                           C0,0 0,0 0,0 Z" class="po-mind-topic-shape-fill" transform="matrix(1,0,0,1,2.5,3.5)" fill="rgba(0, 0, 0, 0.1)" stroke-width="4" stroke="rgba(0, 0, 0, 0.1)"></path><path d="M0,0 L176.8,0 C176.8,0 176.8,0 176.8,0                           L176.8,46 C176.8,46 176.8,46 176.8,46                           L0,46 C0,46 0,46 0,46 L0,0                           C0,0 0,0 0,0 Z" class="po-mind-topic-shape-fill" transform="matrix(1,0,0,1,1.5,1.5)" fill="#ffffff" stroke-width="0"></path><path d="M0,0 L175.3,0 L175.3,44.5 L0,44.5 L0,0 Z M7,44.5 L7,51.5 L182.3,51.5 L182.3,7 L175.3,7" class="po-mind-topic-shape" transform="matrix(1,0,0,1,1.5,1.5)" fill="none" stroke-width="3" stroke="#3b1084"></path><g transform="matrix(1,0,0,1,18.5,10.5)"><g data-width="140.8" data-height="26" data-offsetx="0" transform="matrix(1,0,0,1,0,0)"><g><text text-anchor="start" align="top" anchor="start" font-size="18px" font-weight="bold" fill="rgb(59, 16, 132)" style="font-family: 思源宋体;font-size: 18px;font-weight: bold;font-style: normal;line-height: 140%;max-width: 900px;overflow-wrap: break-word;word-break: break-word;text-size-adjust: 100%;color: rgb(59, 16, 132);"><tspan x="0" y="18"><tspan dx="0">Python程序概述</tspan></tspan></text></g></g></g></g><g class="po-mind-topic" id="topic-1ffda4cc-dbb6-4c83-81ed-5c72b4c31d54" transform="matrix(1,0,0,1,217,-285)" opacity="1"><path d="M0,0 L194.8,0 C194.8,0 194.8,0 194.8,0                           L194.8,46 C194.8,46 194.8,46 194.8,46                           L0,46 C0,46 0,46 0,46 L0,0                           C0,0 0,0 0,0 Z" class="po-mind-topic-shape-fill" transform="matrix(1,0,0,1,2.5,3.5)" fill="rgba(0, 0, 0, 0.1)" stroke-width="4" stroke="rgba(0, 0, 0, 0.1)"></path><path d="M0,0 L194.8,0 C194.8,0 194.8,0 194.8,0                           L194.8,46 C194.8,46 194.8,46 194.8,46                           L0,46 C0,46 0,46 0,46 L0,0                           C0,0 0,0 0,0 Z" class="po-mind-topic-shape-fill" transform="matrix(1,0,0,1,1.5,1.5)" fill="#ffffff" stroke-width="0"></path><path d="M0,0 L193.3,0 L193.3,44.5 L0,44.5 L0,0 Z M7,44.5 L7,51.5 L200.3,51.5 L200.3,7 L193.3,7" class="po-mind-topic-shape" transform="matrix(1,0,0,1,1.5,1.5)" fill="none" stroke-width="3" stroke="#3b1084"></path><g transform="matrix(1,0,0,1,18.5,10.5)"><g data-width="158.8" data-height="26" data-offsetx="0" transform="matrix(1,0,0,1,0,0)"><g><text text-anchor="start" align="top" anchor="start" font-size="18px" font-weight="bold" fill="rgb(59, 16, 132)" style="font-family: 思源宋体;font-size: 18px;font-weight: bold;font-style: normal;line-height: 140%;max-width: 900px;overflow-wrap: break-word;word-break: break-word;text-size-adjust: 100%;color: rgb(59, 16, 132);"><tspan x="0" y="18"><tspan dx="0">Python对象和引用</tspan></tspan></text></g></g></g></g><g class="po-mind-topic" id="topic-8f63971a-cf80-45ea-bc4c-c54e907d76ed" transform="matrix(1,0,0,1,217,-199)" opacity="1"><path d="M0,0 L182.8,0 C182.8,0 182.8,0 182.8,0                           L182.8,46 C182.8,46 182.8,46 182.8,46                           L0,46 C0,46 0,46 0,46 L0,0                           C0,0 0,0 0,0 Z" class="po-mind-topic-shape-fill" transform="matrix(1,0,0,1,2.5,3.5)" fill="rgba(0, 0, 0, 0.1)" stroke-width="4" stroke="rgba(0, 0, 0, 0.1)"></path><path d="M0,0 L182.8,0 C182.8,0 182.8,0 182.8,0                           L182.8,46 C182.8,46 182.8,46 182.8,46                           L0,46 C0,46 0,46 0,46 L0,0                           C0,0 0,0 0,0 Z" class="po-mind-topic-shape-fill" transform="matrix(1,0,0,1,1.5,1.5)" fill="#ffffff" stroke-width="0"></path><path d="M0,0 L181.3,0 L181.3,44.5 L0,44.5 L0,0 Z M7,44.5 L7,51.5 L188.3,51.5 L188.3,7 L181.3,7" class="po-mind-topic-shape" transform="matrix(1,0,0,1,1.5,1.5)" fill="none" stroke-width="3" stroke="#3b1084"></path><g transform="matrix(1,0,0,1,18.5,10.5)"><g data-width="146.8" data-height="26" data-offsetx="0" transform="matrix(1,0,0,1,0,0)"><g><text text-anchor="start" align="top" anchor="start" font-size="18px" font-weight="bold" fill="rgb(59, 16, 132)" style="font-family: 思源宋体;font-size: 18px;font-weight: bold;font-style: normal;line-height: 140%;max-width: 900px;overflow-wrap: break-word;word-break: break-word;text-size-adjust: 100%;color: rgb(59, 16, 132);"><tspan x="0" y="18"><tspan dx="0">标识符和命名规则</tspan></tspan></text></g></g></g></g><g class="po-mind-topic" id="topic-ce65f24d-551b-4b0b-897c-bb8aac6633f7" transform="matrix(1,0,0,1,217,-113)" opacity="1"><path d="M0,0 L164.8,0 C164.8,0 164.8,0 164.8,0                           L164.8,46 C164.8,46 164.8,46 164.8,46                           L0,46 C0,46 0,46 0,46 L0,0                           C0,0 0,0 0,0 Z" class="po-mind-topic-shape-fill" transform="matrix(1,0,0,1,2.5,3.5)" fill="rgba(0, 0, 0, 0.1)" stroke-width="4" stroke="rgba(0, 0, 0, 0.1)"></path><path d="M0,0 L164.8,0 C164.8,0 164.8,0 164.8,0                           L164.8,46 C164.8,46 164.8,46 164.8,46                           L0,46 C0,46 0,46 0,46 L0,0                           C0,0 0,0 0,0 Z" class="po-mind-topic-shape-fill" transform="matrix(1,0,0,1,1.5,1.5)" fill="#ffffff" stroke-width="0"></path><path d="M0,0 L163.3,0 L163.3,44.5 L0,44.5 L0,0 Z M7,44.5 L7,51.5 L170.3,51.5 L170.3,7 L163.3,7" class="po-mind-topic-shape" transform="matrix(1,0,0,1,1.5,1.5)" fill="none" stroke-width="3" stroke="#3b1084"></path><g transform="matrix(1,0,0,1,18.5,10.5)"><g data-width="128.8" data-height="26" data-offsetx="0" transform="matrix(1,0,0,1,0,0)"><g><text text-anchor="start" align="top" anchor="start" font-size="18px" font-weight="bold" fill="rgb(59, 16, 132)" style="font-family: 思源宋体;font-size: 18px;font-weight: bold;font-style: normal;line-height: 140%;max-width: 900px;overflow-wrap: break-word;word-break: break-word;text-size-adjust: 100%;color: rgb(59, 16, 132);"><tspan x="0" y="18"><tspan dx="0">变量和赋值语句</tspan></tspan></text></g></g></g></g><g class="po-mind-topic" id="topic-49a64273-f47e-4dd1-8fec-3d427bb37d2d" transform="matrix(1,0,0,1,217,-27)" opacity="1"><path d="M0,0 L164.8,0 C164.8,0 164.8,0 164.8,0                           L164.8,46 C164.8,46 164.8,46 164.8,46                           L0,46 C0,46 0,46 0,46 L0,0                           C0,0 0,0 0,0 Z" class="po-mind-topic-shape-fill" transform="matrix(1,0,0,1,2.5,3.5)" fill="rgba(0, 0, 0, 0.1)" stroke-width="4" stroke="rgba(0, 0, 0, 0.1)"></path><path d="M0,0 L164.8,0 C164.8,0 164.8,0 164.8,0                           L164.8,46 C164.8,46 164.8,46 164.8,46                           L0,46 C0,46 0,46 0,46 L0,0                           C0,0 0,0 0,0 Z" class="po-mind-topic-shape-fill" transform="matrix(1,0,0,1,1.5,1.5)" fill="#ffffff" stroke-width="0"></path><path d="M0,0 L163.3,0 L163.3,44.5 L0,44.5 L0,0 Z M7,44.5 L7,51.5 L170.3,51.5 L170.3,7 L163.3,7" class="po-mind-topic-shape" transform="matrix(1,0,0,1,1.5,1.5)" fill="none" stroke-width="3" stroke="#3b1084"></path><g transform="matrix(1,0,0,1,18.5,10.5)"><g data-width="128.8" data-height="26" data-offsetx="0" transform="matrix(1,0,0,1,0,0)"><g><text text-anchor="start" align="top" anchor="start" font-size="18px" font-weight="bold" fill="rgb(59, 16, 132)" style="font-family: 思源宋体;font-size: 18px;font-weight: bold;font-style: normal;line-height: 140%;max-width: 900px;overflow-wrap: break-word;word-break: break-word;text-size-adjust: 100%;color: rgb(59, 16, 132);"><tspan x="0" y="18"><tspan dx="0">表达式和运算符</tspan></tspan></text></g></g></g></g><g class="po-mind-topic" id="topic-669442d9-5bca-4777-bdb8-f3be37d7f95f" transform="matrix(1,0,0,1,217,59)" opacity="1"><path d="M0,0 L74.8,0 C74.8,0 74.8,0 74.8,0                           L74.8,46 C74.8,46 74.8,46 74.8,46                           L0,46 C0,46 0,46 0,46 L0,0                           C0,0 0,0 0,0 Z" class="po-mind-topic-shape-fill" transform="matrix(1,0,0,1,2.5,3.5)" fill="rgba(0, 0, 0, 0.1)" stroke-width="4" stroke="rgba(0, 0, 0, 0.1)"></path><path d="M0,0 L74.8,0 C74.8,0 74.8,0 74.8,0                           L74.8,46 C74.8,46 74.8,46 74.8,46                           L0,46 C0,46 0,46 0,46 L0,0                           C0,0 0,0 0,0 Z" class="po-mind-topic-shape-fill" transform="matrix(1,0,0,1,1.5,1.5)" fill="#ffffff" stroke-width="0"></path><path d="M0,0 L73.3,0 L73.3,44.5 L0,44.5 L0,0 Z M7,44.5 L7,51.5 L80.3,51.5 L80.3,7 L73.3,7" class="po-mind-topic-shape" transform="matrix(1,0,0,1,1.5,1.5)" fill="none" stroke-width="3" stroke="#3b1084"></path><g transform="matrix(1,0,0,1,18.5,10.5)"><g data-width="38.8" data-height="26" data-offsetx="0" transform="matrix(1,0,0,1,0,0)"><g><text text-anchor="start" align="top" anchor="start" font-size="18px" font-weight="bold" fill="rgb(59, 16, 132)" style="font-family: 思源宋体;font-size: 18px;font-weight: bold;font-style: normal;line-height: 140%;max-width: 900px;overflow-wrap: break-word;word-break: break-word;text-size-adjust: 100%;color: rgb(59, 16, 132);"><tspan x="0" y="18"><tspan dx="0">语句</tspan></tspan></text></g></g></g></g><g class="po-mind-topic" id="topic-7beb375f-6767-4ac3-aaad-be8bfbcbd8c7" transform="matrix(1,0,0,1,217,145)" opacity="1"><path d="M0,0 L74.8,0 C74.8,0 74.8,0 74.8,0                           L74.8,46 C74.8,46 74.8,46 74.8,46                           L0,46 C0,46 0,46 0,46 L0,0                           C0,0 0,0 0,0 Z" class="po-mind-topic-shape-fill" transform="matrix(1,0,0,1,2.5,3.5)" fill="rgba(0, 0, 0, 0.1)" stroke-width="4" stroke="rgba(0, 0, 0, 0.1)"></path><path d="M0,0 L74.8,0 C74.8,0 74.8,0 74.8,0                           L74.8,46 C74.8,46 74.8,46 74.8,46                           L0,46 C0,46 0,46 0,46 L0,0                           C0,0 0,0 0,0 Z" class="po-mind-topic-shape-fill" transform="matrix(1,0,0,1,1.5,1.5)" fill="#ffffff" stroke-width="0"></path><path d="M0,0 L73.3,0 L73.3,44.5 L0,44.5 L0,0 Z M7,44.5 L7,51.5 L80.3,51.5 L80.3,7 L73.3,7" class="po-mind-topic-shape" transform="matrix(1,0,0,1,1.5,1.5)" fill="none" stroke-width="3" stroke="#3b1084"></path><g transform="matrix(1,0,0,1,18.5,10.5)"><g data-width="38.8" data-height="26" data-offsetx="0" transform="matrix(1,0,0,1,0,0)"><g><text text-anchor="start" align="top" anchor="start" font-size="18px" font-weight="bold" fill="rgb(59, 16, 132)" style="font-family: 思源宋体;font-size: 18px;font-weight: bold;font-style: normal;line-height: 140%;max-width: 900px;overflow-wrap: break-word;word-break: break-word;text-size-adjust: 100%;color: rgb(59, 16, 132);"><tspan x="0" y="18"><tspan dx="0">函数</tspan></tspan></text></g></g></g></g><g class="po-mind-topic" id="topic-63b04d64-97bc-4eac-b5ed-63c89d3fb809" transform="matrix(1,0,0,1,217,231)" opacity="1"><path d="M0,0 L110.8,0 C110.8,0 110.8,0 110.8,0                           L110.8,46 C110.8,46 110.8,46 110.8,46                           L0,46 C0,46 0,46 0,46 L0,0                           C0,0 0,0 0,0 Z" class="po-mind-topic-shape-fill" transform="matrix(1,0,0,1,2.5,3.5)" fill="rgba(0, 0, 0, 0.1)" stroke-width="4" stroke="rgba(0, 0, 0, 0.1)"></path><path d="M0,0 L110.8,0 C110.8,0 110.8,0 110.8,0                           L110.8,46 C110.8,46 110.8,46 110.8,46                           L0,46 C0,46 0,46 0,46 L0,0                           C0,0 0,0 0,0 Z" class="po-mind-topic-shape-fill" transform="matrix(1,0,0,1,1.5,1.5)" fill="#ffffff" stroke-width="0"></path><path d="M0,0 L109.3,0 L109.3,44.5 L0,44.5 L0,0 Z M7,44.5 L7,51.5 L116.3,51.5 L116.3,7 L109.3,7" class="po-mind-topic-shape" transform="matrix(1,0,0,1,1.5,1.5)" fill="none" stroke-width="3" stroke="#3b1084"></path><g transform="matrix(1,0,0,1,18.5,10.5)"><g data-width="74.8" data-height="26" data-offsetx="0" transform="matrix(1,0,0,1,0,0)"><g><text text-anchor="start" align="top" anchor="start" font-size="18px" font-weight="bold" fill="rgb(59, 16, 132)" style="font-family: 思源宋体;font-size: 18px;font-weight: bold;font-style: normal;line-height: 140%;max-width: 900px;overflow-wrap: break-word;word-break: break-word;text-size-adjust: 100%;color: rgb(59, 16, 132);"><tspan x="0" y="18"><tspan dx="0">类和对象</tspan></tspan></text></g></g></g></g><g class="po-mind-topic" id="topic-f84a5498-c3b9-4006-9beb-fbf7d87673c7" transform="matrix(1,0,0,1,217,317)" opacity="1"><path d="M0,0 L110.8,0 C110.8,0 110.8,0 110.8,0                           L110.8,46 C110.8,46 110.8,46 110.8,46                           L0,46 C0,46 0,46 0,46 L0,0                           C0,0 0,0 0,0 Z" class="po-mind-topic-shape-fill" transform="matrix(1,0,0,1,2.5,3.5)" fill="rgba(0, 0, 0, 0.1)" stroke-width="4" stroke="rgba(0, 0, 0, 0.1)"></path><path d="M0,0 L110.8,0 C110.8,0 110.8,0 110.8,0                           L110.8,46 C110.8,46 110.8,46 110.8,46                           L0,46 C0,46 0,46 0,46 L0,0                           C0,0 0,0 0,0 Z" class="po-mind-topic-shape-fill" transform="matrix(1,0,0,1,1.5,1.5)" fill="#ffffff" stroke-width="0"></path><path d="M0,0 L109.3,0 L109.3,44.5 L0,44.5 L0,0 Z M7,44.5 L7,51.5 L116.3,51.5 L116.3,7 L109.3,7" class="po-mind-topic-shape" transform="matrix(1,0,0,1,1.5,1.5)" fill="none" stroke-width="3" stroke="#3b1084"></path><g transform="matrix(1,0,0,1,18.5,10.5)"><g data-width="74.8" data-height="26" data-offsetx="0" transform="matrix(1,0,0,1,0,0)"><g><text text-anchor="start" align="top" anchor="start" font-size="18px" font-weight="bold" fill="rgb(59, 16, 132)" style="font-family: 思源宋体;font-size: 18px;font-weight: bold;font-style: normal;line-height: 140%;max-width: 900px;overflow-wrap: break-word;word-break: break-word;text-size-adjust: 100%;color: rgb(59, 16, 132);"><tspan x="0" y="18"><tspan dx="0">模块和包</tspan></tspan></text></g></g></g></g></g><g class="po-mind-associative-line-label-container"></g></g><g id="wpsexport-watermark"><defs><pattern patternUnits="userSpaceOnUse" id="wpspattern_mark_0" width="300" height="300"><text x="150" y="100" fill="#0000004d" font-size="18" transform="rotate(-45, 150, 150)" style="dominant-baseline: middle; text-anchor: middle;"></text></pattern></defs><rect fill="url(#wpspattern_mark_0)" x="0" y="0" width="619.797" height="789.5" id="rect_mark_0" pointer-events="none"></rect></g><style>
    .connection-svg{
        outline: none;
        box-shadow: none;
        -webkit-tap-highlight-color: transparent;
    }
    .connection-line {
        cursor: pointer;
    }

    .connection-line-bg {
        cursor: pointer;
    }

    .node-add-btn {
        cursor: pointer;
    }

    .po-richtext-node-wrap ol,
    .area_box ol,
    .po-measureCustomNode ol {
        padding-left: 20px;
        margin: 0;
    }
    .po-richtext-node-wrap ol li,
    .area_box ol li,
    .po-measureCustomNode ol li {
        list-style: decimal;
    }
    .po-richtext-node-wrap ul,
    .area_box ul,
    .po-measureCustomNode ul {
        padding-left: calc(15px + 0.5em);
        list-style: none;
        margin: 0;
    }
    .po-richtext-node-wrap ul li,
    .area_box ul li,
    .po-measureCustomNode ul li {
        list-style: disc;
    }
    .po-richtext-node-wrap p,
    .po-richtext-node-wrap h1,
    .po-richtext-node-wrap h2,
    .po-richtext-node-wrap h3,
    .po-richtext-node-wrap h4,
    .po-richtext-node-wrap h5,
    .po-richtext-node-wrap h6,
    .area_box p,
    .area_box h1,
    .area_box h2,
    .area_box h3,
    .area_box h4,
    .area_box h5,
    .area_box h6,
    .po-measureCustomNode p,
    .po-measureCustomNode h1,
    .po-measureCustomNode h2,
    .po-measureCustomNode h3,
    .po-measureCustomNode h4,
    .po-measureCustomNode h5,
    .po-measureCustomNode h6 {
        margin: 0;
    }
    .po-safari-fixed {
        position: fixed;
    }
</style></svg>