<?xml version="1.0" standalone="no"?><?xml-stylesheet type="text/css" href="https://wps.processon.com/themes/default/wps/mind/icons/icons.css" ?><!DOCTYPE svg PUBLIC "-//W3C//DTD SVG 1.1//EN" "http://www.w3.org/Graphics/SVG/1.1/DTD/svg11.dtd"><svg xmlns="http://www.w3.org/2000/svg" xmlns:xlink="http://www.w3.org/1999/xlink" version="1.1" width="890" height="941.5" style="outline: none; background: none; top: 0px; left: 0px; display: block; z-index: 1; font-size: 12px;" id="mind-svg-con"><defs></defs><g id="svgbackgroundid"><defs transform="matrix(0.7091633466135459,0,0,0.5174498488595768,0,0)"></defs><rect width="1255" height="1819.5" fill="#ffffff" transform="matrix(0.7091633466135459,0,0,0.5174498488595768,0,0)"></rect></g><g id="export-watermark"><defs><pattern patternUnits="userSpaceOnUse" id="pattern_mark_0" width="300" height="300"><text x="150" y="100" fill="rgb(235,235,235)" font-size="18" transform="rotate(-45, 150, 150)" style="dominant-baseline: middle; text-anchor: middle;"></text></pattern></defs><rect fill="url(#pattern_mark_0)" x="0" y="0" width="890" height="941.5" id="rect_mark_0" pointer-events="none"></rect></g><g class="po-mind-container" transform="matrix(1,0,0,1,-189,681)"><g class="po-mind-line-container" style=""><g from="1ffda4cc-dbb6-4c83-81ed-5c72b4c31d54" to="7e8f9849-c128-4e87-8525-0f12500c0aac" opacity="1"><path d="M419.8 -173L431.8 -173L431.8 -554.5C431.8 -554.5 431.8 -560.5 437.8 -560.5L443.8 -560.5" stroke-linecap="butt" stroke-width="3" stroke="#3b1084" fill="none"></path></g><g from="1ffda4cc-dbb6-4c83-81ed-5c72b4c31d54" to="30b9a136-08c8-4fc4-b883-2e8e37e91147" opacity="1"><path d="M419.8 -173L431.8 -173L431.8 -404.5C431.8 -404.5 431.8 -410.5 437.8 -410.5L443.8 -410.5" stroke-linecap="butt" stroke-width="3" stroke="#3b1084" fill="none"></path></g><g from="1ffda4cc-dbb6-4c83-81ed-5c72b4c31d54" to="5a180658-48a8-4dda-a535-ca37bd53ad61" opacity="1"><path d="M419.8 -173L431.8 -173L431.8 -172.75C431.8 -172.75 431.8 -166.75 437.8 -166.75L443.8 -166.75" stroke-linecap="butt" stroke-width="3" stroke="#3b1084" fill="none"></path></g><g from="5a180658-48a8-4dda-a535-ca37bd53ad61" to="68cffc2a-e340-46a2-8298-1d2eccf142b9" opacity="1"><path d="M622.2 -166.75L634.2 -166.75L634.2 -267C634.2 -267 634.2 -273 640.2 -273L646.2 -273" stroke-linecap="butt" stroke-width="3" stroke="#3b1084" fill="none"></path></g><g from="68cffc2a-e340-46a2-8298-1d2eccf142b9" to="ed5403e3-2fcc-4dc6-865d-36e282b3465b" opacity="1"><path d="M740.6 -273L752.6 -273L752.6 -216.5C752.6 -216.5 752.6 -210.5 758.6 -210.5L764.6 -210.5" stroke-linecap="butt" stroke-width="3" stroke="#3b1084" fill="none"></path></g><g from="5a180658-48a8-4dda-a535-ca37bd53ad61" to="44ffcf3e-742f-4f47-9316-9abcdb9f20c5" opacity="1"><path d="M622.2 -166.75L634.2 -166.75L634.2 -141.5C634.2 -141.5 634.2 -135.5 640.2 -135.5L646.2 -135.5" stroke-linecap="butt" stroke-width="3" stroke="#3b1084" fill="none"></path></g><g from="5a180658-48a8-4dda-a535-ca37bd53ad61" to="959d144f-8fa7-4c04-996d-a637e183802b" opacity="1"><path d="M622.2 -166.75L634.2 -166.75L634.2 -66.5C634.2 -66.5 634.2 -60.5 640.2 -60.5L646.2 -60.5" stroke-linecap="butt" stroke-width="3" stroke="#3b1084" fill="none"></path></g><g from="959d144f-8fa7-4c04-996d-a637e183802b" to="78436df0-0fda-4ea6-be22-3f5e804360c1" opacity="1"><path d="M768.6 -60.5L780.6 -60.5L780.6 -79.5C780.6 -79.5 780.6 -85.5 786.6 -85.5L792.6 -85.5" stroke-linecap="butt" stroke-width="3" stroke="#3b1084" fill="none"></path></g><g from="959d144f-8fa7-4c04-996d-a637e183802b" to="7f65366a-a0b5-4cdf-9649-f385d4b15e5e" opacity="1"><path d="M768.6 -60.5L780.6 -60.5L780.6 -41.5C780.6 -41.5 780.6 -35.5 786.6 -35.5L792.6 -35.5" stroke-linecap="butt" stroke-width="3" stroke="#3b1084" fill="none"></path></g><g from="ed5403e3-2fcc-4dc6-865d-36e282b3465b" to="29249eba-8ebe-411e-a8dc-4bd6ef7ac435" opacity="1"><path d="M845 -210.5L857 -210.5L857 -229.5C857 -229.5 857 -235.5 863 -235.5L869 -235.5" stroke-linecap="butt" stroke-width="3" stroke="#3b1084" fill="none"></path></g><g from="ed5403e3-2fcc-4dc6-865d-36e282b3465b" to="ca9bf386-53ec-4fb9-9294-aa1ca964a6cb" opacity="1"><path d="M845 -210.5L857 -210.5L857 -191.5C857 -191.5 857 -185.5 863 -185.5L869 -185.5" stroke-linecap="butt" stroke-width="3" stroke="#3b1084" fill="none"></path></g><g from="1ffda4cc-dbb6-4c83-81ed-5c72b4c31d54" to="83e8e791-e1f9-45f1-b281-c8a0ccaef1bf" opacity="1"><path d="M419.8 -173L431.8 -173L431.8 8.5C431.8 8.5 431.8 14.5 437.8 14.5L443.8 14.5" stroke-linecap="butt" stroke-width="3" stroke="#3b1084" fill="none"></path></g><g from="1ffda4cc-dbb6-4c83-81ed-5c72b4c31d54" to="c3a756f0-71a0-4b9e-b022-09b3d5c347e5" opacity="1"><path d="M419.8 -173L431.8 -173L431.8 83.5C431.8 83.5 431.8 89.5 437.8 89.5L443.8 89.5" stroke-linecap="butt" stroke-width="3" stroke="#3b1084" fill="none"></path></g><g from="1ffda4cc-dbb6-4c83-81ed-5c72b4c31d54" to="c4f04f34-9012-43d8-82d0-ebc74a664395" opacity="1"><path d="M419.8 -173L431.8 -173L431.8 158.5C431.8 158.5 431.8 164.5 437.8 164.5L443.8 164.5" stroke-linecap="butt" stroke-width="3" stroke="#3b1084" fill="none"></path></g><g from="1ffda4cc-dbb6-4c83-81ed-5c72b4c31d54" to="37cdf37d-96b7-43da-b193-0a5e125a1682" opacity="1"><path d="M419.8 -173L431.8 -173L431.8 208.5C431.8 208.5 431.8 214.5 437.8 214.5L443.8 214.5" stroke-linecap="butt" stroke-width="3" stroke="#3b1084" fill="none"></path></g><g from="85b32737-dbd1-44ec-8987-4c9a5563d789" to="43d1d3cf-86fd-4f19-a28f-ccfd13a936cb" opacity="1"><path d="M670.6 -385.5L682.6 -385.5L682.6 -385.5C682.6 -385.5 682.6 -385.5 682.6 -385.5L694.6 -385.5" stroke-linecap="butt" stroke-width="3" stroke="#3b1084" fill="none"></path></g><g from="68cffc2a-e340-46a2-8298-1d2eccf142b9" to="7c5942c1-5f91-4812-a352-1fe4c862f6bf" opacity="1"><path d="M740.6 -273L752.6 -273L752.6 -329.5C752.6 -329.5 752.6 -335.5 758.6 -335.5L764.6 -335.5" stroke-linecap="butt" stroke-width="3" stroke="#3b1084" fill="none"></path></g><g from="68cffc2a-e340-46a2-8298-1d2eccf142b9" to="13c2817c-7498-46f5-a415-28432f3c82d9" opacity="1"><path d="M740.6 -273L752.6 -273L752.6 -279.5C752.6 -279.5 752.6 -285.5 758.6 -285.5L764.6 -285.5" stroke-linecap="butt" stroke-width="3" stroke="#3b1084" fill="none"></path></g><g from="7e8f9849-c128-4e87-8525-0f12500c0aac" to="40082898-c684-43c1-a18d-b2d2a07b0091" opacity="1"><path d="M575.2 -560.5L587.2 -560.5L587.2 -629.5C587.2 -629.5 587.2 -635.5 593.2 -635.5L599.2 -635.5" stroke-linecap="butt" stroke-width="3" stroke="#3b1084" fill="none"></path></g><g from="7e8f9849-c128-4e87-8525-0f12500c0aac" to="1cfa3e96-5f00-4583-8a7f-b450b6a124a7" opacity="1"><path d="M575.2 -560.5L587.2 -560.5L587.2 -579.5C587.2 -579.5 587.2 -585.5 593.2 -585.5L599.2 -585.5" stroke-linecap="butt" stroke-width="3" stroke="#3b1084" fill="none"></path></g><g from="7e8f9849-c128-4e87-8525-0f12500c0aac" to="da1c3198-4782-4781-936d-21808511378e" opacity="1"><path d="M575.2 -560.5L587.2 -560.5L587.2 -541.5C587.2 -541.5 587.2 -535.5 593.2 -535.5L599.2 -535.5" stroke-linecap="butt" stroke-width="3" stroke="#3b1084" fill="none"></path></g><g from="7e8f9849-c128-4e87-8525-0f12500c0aac" to="e7f8bcd5-0a9c-48d9-a4c7-f0823fbe5372" opacity="1"><path d="M575.2 -560.5L587.2 -560.5L587.2 -491.5C587.2 -491.5 587.2 -485.5 593.2 -485.5L599.2 -485.5" stroke-linecap="butt" stroke-width="3" stroke="#3b1084" fill="none"></path></g><g from="30b9a136-08c8-4fc4-b883-2e8e37e91147" to="88b4205b-9a34-48a9-b9a5-63e172482a9b" opacity="1"><path d="M524.2 -410.5L536.2 -410.5L536.2 -429.5C536.2 -429.5 536.2 -435.5 542.2 -435.5L548.2 -435.5" stroke-linecap="butt" stroke-width="3" stroke="#3b1084" fill="none"></path></g><g from="30b9a136-08c8-4fc4-b883-2e8e37e91147" to="85b32737-dbd1-44ec-8987-4c9a5563d789" opacity="1"><path d="M524.2 -410.5L536.2 -410.5L536.2 -391.5C536.2 -391.5 536.2 -385.5 542.2 -385.5L548.2 -385.5" stroke-linecap="butt" stroke-width="3" stroke="#3b1084" fill="none"></path></g><g from="c3a756f0-71a0-4b9e-b022-09b3d5c347e5" to="7f5e6c49-2a84-42a8-ba94-836812402f17" opacity="1"><path d="M622.2 89.5L634.2 89.5L634.2 70.5C634.2 70.5 634.2 64.5 640.2 64.5L646.2 64.5" stroke-linecap="butt" stroke-width="3" stroke="#3b1084" fill="none"></path></g><g from="c3a756f0-71a0-4b9e-b022-09b3d5c347e5" to="3f40df03-d5f2-45e7-a52d-3c41d37cc8a1" opacity="1"><path d="M622.2 89.5L634.2 89.5L634.2 108.5C634.2 108.5 634.2 114.5 640.2 114.5L646.2 114.5" stroke-linecap="butt" stroke-width="3" stroke="#3b1084" fill="none"></path></g><g from="37cdf37d-96b7-43da-b193-0a5e125a1682" to="cac6bd0f-ef2a-4a09-9505-86fc9ea68d9b" opacity="1"><path d="M608.2 214.5L620.2 214.5L620.2 214.5C620.2 214.5 620.2 214.5 620.2 214.5L632.2 214.5" stroke-linecap="butt" stroke-width="3" stroke="#3b1084" fill="none"></path></g></g><g class="po-mind-generalize-container"></g><g class="po-mind-associative-line-container"></g><g class="po-mind-node-container"><g class="po-mind-topic" id="topic-1ffda4cc-dbb6-4c83-81ed-5c72b4c31d54" transform="matrix(1,0,0,1,217,-200)" opacity="1"><path d="M0,0 L194.8,0 C194.8,0 194.8,0 194.8,0                           L194.8,46 C194.8,46 194.8,46 194.8,46                           L0,46 C0,46 0,46 0,46 L0,0                           C0,0 0,0 0,0 Z" class="po-mind-topic-shape-fill" transform="matrix(1,0,0,1,2.5,3.5)" fill="rgba(0, 0, 0, 0.1)" stroke-width="4" stroke="rgba(0, 0, 0, 0.1)"></path><path d="M0,0 L194.8,0 C194.8,0 194.8,0 194.8,0                           L194.8,46 C194.8,46 194.8,46 194.8,46                           L0,46 C0,46 0,46 0,46 L0,0                           C0,0 0,0 0,0 Z" class="po-mind-topic-shape-fill" transform="matrix(1,0,0,1,1.5,1.5)" fill="#ffffff" stroke-width="0"></path><path d="M0,0 L193.3,0 L193.3,44.5 L0,44.5 L0,0 Z M7,44.5 L7,51.5 L200.3,51.5 L200.3,7 L193.3,7" class="po-mind-topic-shape" transform="matrix(1,0,0,1,1.5,1.5)" fill="none" stroke-width="3" stroke="#3b1084"></path><g transform="matrix(1,0,0,1,18.5,10.5)"><g data-width="158.8" data-height="26" data-offsetx="0" transform="matrix(1,0,0,1,0,0)"><g><text text-anchor="start" align="top" anchor="start" font-size="18px" font-weight="bold" fill="rgb(59, 16, 132)" style="font-family: 思源宋体;font-size: 18px;font-weight: bold;font-style: normal;line-height: 140%;max-width: 900px;overflow-wrap: break-word;word-break: break-word;text-size-adjust: 100%;color: rgb(59, 16, 132);"><tspan x="0" y="18"><tspan dx="0">Python对象和引用</tspan></tspan></text></g></g></g><g><rect width="4" height="54" x="-3" y="0" resize="1" fill="none" style="cursor: ew-resize;"></rect><rect width="4" height="54" x="203.8" y="0" resize="2" fill="none" style="cursor: ew-resize;"></rect></g></g><g class="po-mind-topic" id="topic-7e8f9849-c128-4e87-8525-0f12500c0aac" transform="matrix(1,0,0,1,443.8,-582.5)" opacity="1"><path d="M0,0 L123.4,0 C123.4,0 123.4,0 123.4,0                           L123.4,36 C123.4,36 123.4,36 123.4,36                           L0,36 C0,36 0,36 0,36 L0,0                           C0,0 0,0 0,0 Z" class="po-mind-topic-shape-fill" transform="matrix(1,0,0,1,1.5,1.5)" fill="none"></path><path d="M0,0 L121.9,0 L121.9,34.5 L0,34.5 L0,0 Z M7,34.5 L7,41.5 L128.9,41.5 L128.9,7 L121.9,7" class="po-mind-topic-shape" transform="matrix(1,0,0,1,1.5,1.5)" fill="none" stroke-width="3" stroke="#3b1084"></path><g transform="matrix(1,0,0,1,7.5,8.5)"><g data-width="109.4" data-height="20" data-offsetx="0" transform="matrix(1,0,0,1,0,0)"><g><text text-anchor="start" align="top" anchor="start" font-size="14px" font-weight="bold" fill="rgb(59, 16, 132)" style="font-family: 思源宋体;font-size: 14px;font-weight: bold;font-style: normal;line-height: 140%;max-width: 896px;overflow-wrap: break-word;word-break: break-word;text-size-adjust: 100%;color: rgb(59, 16, 132);"><tspan x="0" y="13.999999999999996"><tspan dx="0">Python对象概述</tspan></tspan></text></g></g></g></g><g class="po-mind-topic" id="topic-40082898-c684-43c1-a18d-b2d2a07b0091" transform="matrix(1,0,0,1,599.2,-657.5)" opacity="1"><path d="M0,0 L114.4,0 C114.4,0 114.4,0 114.4,0                           L114.4,36 C114.4,36 114.4,36 114.4,36                           L0,36 C0,36 0,36 0,36 L0,0                           C0,0 0,0 0,0 Z" class="po-mind-topic-shape-fill" transform="matrix(1,0,0,1,1.5,1.5)" fill="none"></path><path d="M0,0 L112.9,0 L112.9,34.5 L0,34.5 L0,0 Z M7,34.5 L7,41.5 L119.9,41.5 L119.9,7 L112.9,7" class="po-mind-topic-shape" transform="matrix(1,0,0,1,1.5,1.5)" fill="none" stroke-width="3" stroke="#3b1084"></path><g transform="matrix(1,0,0,1,7.5,8.5)"><g data-width="100.4" data-height="20" data-offsetx="0" transform="matrix(1,0,0,1,0,0)"><g><text text-anchor="start" align="top" anchor="start" font-size="14px" font-weight="bold" fill="rgb(59, 16, 132)" style="font-family: 思源宋体;font-size: 14px;font-weight: bold;font-style: normal;line-height: 140%;max-width: 896px;overflow-wrap: break-word;word-break: break-word;text-size-adjust: 100%;color: rgb(59, 16, 132);"><tspan x="0" y="13.999999999999996"><tspan dx="0">数据表示为对象</tspan></tspan></text></g></g></g></g><g class="po-mind-topic" id="topic-1cfa3e96-5f00-4583-8a7f-b450b6a124a7" transform="matrix(1,0,0,1,599.2,-607.5)" opacity="1"><path d="M0,0 L114.4,0 C114.4,0 114.4,0 114.4,0                           L114.4,36 C114.4,36 114.4,36 114.4,36                           L0,36 C0,36 0,36 0,36 L0,0                           C0,0 0,0 0,0 Z" class="po-mind-topic-shape-fill" transform="matrix(1,0,0,1,1.5,1.5)" fill="none"></path><path d="M0,0 L112.9,0 L112.9,34.5 L0,34.5 L0,0 Z M7,34.5 L7,41.5 L119.9,41.5 L119.9,7 L112.9,7" class="po-mind-topic-shape" transform="matrix(1,0,0,1,1.5,1.5)" fill="none" stroke-width="3" stroke="#3b1084"></path><g transform="matrix(1,0,0,1,7.5,8.5)"><g data-width="100.4" data-height="20" data-offsetx="0" transform="matrix(1,0,0,1,0,0)"><g><text text-anchor="start" align="top" anchor="start" font-size="14px" font-weight="bold" fill="rgb(59, 16, 132)" style="font-family: 思源宋体;font-size: 14px;font-weight: bold;font-style: normal;line-height: 140%;max-width: 896px;overflow-wrap: break-word;word-break: break-word;text-size-adjust: 100%;color: rgb(59, 16, 132);"><tspan x="0" y="13.999999999999996"><tspan dx="0">对象是类的实例</tspan></tspan></text></g></g></g></g><g class="po-mind-topic" id="topic-da1c3198-4782-4781-936d-21808511378e" transform="matrix(1,0,0,1,599.2,-557.5)" opacity="1"><path d="M0,0 L142.4,0 C142.4,0 142.4,0 142.4,0                           L142.4,36 C142.4,36 142.4,36 142.4,36                           L0,36 C0,36 0,36 0,36 L0,0                           C0,0 0,0 0,0 Z" class="po-mind-topic-shape-fill" transform="matrix(1,0,0,1,1.5,1.5)" fill="none"></path><path d="M0,0 L140.9,0 L140.9,34.5 L0,34.5 L0,0 Z M7,34.5 L7,41.5 L147.9,41.5 L147.9,7 L140.9,7" class="po-mind-topic-shape" transform="matrix(1,0,0,1,1.5,1.5)" fill="none" stroke-width="3" stroke="#3b1084"></path><g transform="matrix(1,0,0,1,7.5,8.5)"><g data-width="128.4" data-height="20" data-offsetx="0" transform="matrix(1,0,0,1,0,0)"><g><text text-anchor="start" align="top" anchor="start" font-size="14px" font-weight="bold" fill="rgb(59, 16, 132)" style="font-family: 思源宋体;font-size: 14px;font-weight: bold;font-style: normal;line-height: 140%;max-width: 896px;overflow-wrap: break-word;word-break: break-word;text-size-adjust: 100%;color: rgb(59, 16, 132);"><tspan x="0" y="13.999999999999996"><tspan dx="0">对象本质上是内存块</tspan></tspan></text></g></g></g></g><g class="po-mind-topic" id="topic-e7f8bcd5-0a9c-48d9-a4c7-f0823fbe5372" transform="matrix(1,0,0,1,599.2,-507.5)" opacity="1"><path d="M0,0 L184.4,0 C184.4,0 184.4,0 184.4,0                           L184.4,36 C184.4,36 184.4,36 184.4,36                           L0,36 C0,36 0,36 0,36 L0,0                           C0,0 0,0 0,0 Z" class="po-mind-topic-shape-fill" transform="matrix(1,0,0,1,1.5,1.5)" fill="none"></path><path d="M0,0 L182.9,0 L182.9,34.5 L0,34.5 L0,0 Z M7,34.5 L7,41.5 L189.9,41.5 L189.9,7 L182.9,7" class="po-mind-topic-shape" transform="matrix(1,0,0,1,1.5,1.5)" fill="none" stroke-width="3" stroke="#3b1084"></path><g transform="matrix(1,0,0,1,7.5,8.5)"><g data-width="170.4" data-height="20" data-offsetx="0" transform="matrix(1,0,0,1,0,0)"><g><text text-anchor="start" align="top" anchor="start" font-size="14px" font-weight="bold" fill="rgb(59, 16, 132)" style="font-family: 思源宋体;font-size: 14px;font-weight: bold;font-style: normal;line-height: 140%;max-width: 896px;overflow-wrap: break-word;word-break: break-word;text-size-adjust: 100%;color: rgb(59, 16, 132);"><tspan x="0" y="13.999999999999996"><tspan dx="0">三个要素：标识、类型和值</tspan></tspan></text></g></g></g></g><g class="po-mind-topic" id="topic-30b9a136-08c8-4fc4-b883-2e8e37e91147" transform="matrix(1,0,0,1,443.8,-432.5)" opacity="1"><path d="M0,0 L72.4,0 C72.4,0 72.4,0 72.4,0                           L72.4,36 C72.4,36 72.4,36 72.4,36                           L0,36 C0,36 0,36 0,36 L0,0                           C0,0 0,0 0,0 Z" class="po-mind-topic-shape-fill" transform="matrix(1,0,0,1,1.5,1.5)" fill="none"></path><path d="M0,0 L70.9,0 L70.9,34.5 L0,34.5 L0,0 Z M7,34.5 L7,41.5 L77.9,41.5 L77.9,7 L70.9,7" class="po-mind-topic-shape" transform="matrix(1,0,0,1,1.5,1.5)" fill="none" stroke-width="3" stroke="#3b1084"></path><g transform="matrix(1,0,0,1,7.5,8.5)"><g data-width="58.4" data-height="20" data-offsetx="0" transform="matrix(1,0,0,1,0,0)"><g><text text-anchor="start" align="top" anchor="start" font-size="14px" font-weight="bold" fill="rgb(59, 16, 132)" style="font-family: 思源宋体;font-size: 14px;font-weight: bold;font-style: normal;line-height: 140%;max-width: 896px;overflow-wrap: break-word;word-break: break-word;text-size-adjust: 100%;color: rgb(59, 16, 132);"><tspan x="0" y="13.999999999999996"><tspan dx="0">数据类型</tspan></tspan></text></g></g></g></g><g class="po-mind-topic" id="topic-88b4205b-9a34-48a9-b9a5-63e172482a9b" transform="matrix(1,0,0,1,548.2,-457.5)" opacity="1"><path d="M0,0 L100.4,0 C100.4,0 100.4,0 100.4,0                           L100.4,36 C100.4,36 100.4,36 100.4,36                           L0,36 C0,36 0,36 0,36 L0,0                           C0,0 0,0 0,0 Z" class="po-mind-topic-shape-fill" transform="matrix(1,0,0,1,1.5,1.5)" fill="none"></path><path d="M0,0 L98.9,0 L98.9,34.5 L0,34.5 L0,0 Z M7,34.5 L7,41.5 L105.9,41.5 L105.9,7 L98.9,7" class="po-mind-topic-shape" transform="matrix(1,0,0,1,1.5,1.5)" fill="none" stroke-width="3" stroke="#3b1084"></path><g transform="matrix(1,0,0,1,7.5,8.5)"><g data-width="86.4" data-height="20" data-offsetx="0" transform="matrix(1,0,0,1,0,0)"><g><text text-anchor="start" align="top" anchor="start" font-size="14px" font-weight="bold" fill="rgb(59, 16, 132)" style="font-family: 思源宋体;font-size: 14px;font-weight: bold;font-style: normal;line-height: 140%;max-width: 896px;overflow-wrap: break-word;word-break: break-word;text-size-adjust: 100%;color: rgb(59, 16, 132);"><tspan x="0" y="13.999999999999996"><tspan dx="0">内置数据类型</tspan></tspan></text></g></g></g></g><g class="po-mind-topic" id="topic-85b32737-dbd1-44ec-8987-4c9a5563d789" transform="matrix(1,0,0,1,548.2,-407.5)" opacity="1"><path d="M0,0 L114.4,0 C114.4,0 114.4,0 114.4,0                           L114.4,36 C114.4,36 114.4,36 114.4,36                           L0,36 C0,36 0,36 0,36 L0,0                           C0,0 0,0 0,0 Z" class="po-mind-topic-shape-fill" transform="matrix(1,0,0,1,1.5,1.5)" fill="none"></path><path d="M0,0 L112.9,0 L112.9,34.5 L0,34.5 L0,0 Z M7,34.5 L7,41.5 L119.9,41.5 L119.9,7 L112.9,7" class="po-mind-topic-shape" transform="matrix(1,0,0,1,1.5,1.5)" fill="none" stroke-width="3" stroke="#3b1084"></path><g transform="matrix(1,0,0,1,7.5,8.5)"><g data-width="100.4" data-height="20" data-offsetx="0" transform="matrix(1,0,0,1,0,0)"><g><text text-anchor="start" align="top" anchor="start" font-size="14px" font-weight="bold" fill="rgb(59, 16, 132)" style="font-family: 思源宋体;font-size: 14px;font-weight: bold;font-style: normal;line-height: 140%;max-width: 896px;overflow-wrap: break-word;word-break: break-word;text-size-adjust: 100%;color: rgb(59, 16, 132);"><tspan x="0" y="13.999999999999996"><tspan dx="0">自定义数据类型</tspan></tspan></text></g></g></g></g><g class="po-mind-topic" id="topic-43d1d3cf-86fd-4f19-a28f-ccfd13a936cb" transform="matrix(1,0,0,1,694.6,-407.5)" opacity="1"><path d="M0,0 L142.4,0 C142.4,0 142.4,0 142.4,0                           L142.4,36 C142.4,36 142.4,36 142.4,36                           L0,36 C0,36 0,36 0,36 L0,0                           C0,0 0,0 0,0 Z" class="po-mind-topic-shape-fill" transform="matrix(1,0,0,1,1.5,1.5)" fill="none"></path><path d="M0,0 L140.9,0 L140.9,34.5 L0,34.5 L0,0 Z M7,34.5 L7,41.5 L147.9,41.5 L147.9,7 L140.9,7" class="po-mind-topic-shape" transform="matrix(1,0,0,1,1.5,1.5)" fill="none" stroke-width="3" stroke="#3b1084"></path><g transform="matrix(1,0,0,1,7.5,8.5)"><g data-width="128.4" data-height="20" data-offsetx="0" transform="matrix(1,0,0,1,0,0)"><g><text text-anchor="start" align="top" anchor="start" font-size="14px" font-weight="bold" fill="rgb(59, 16, 132)" style="font-family: 思源宋体;font-size: 14px;font-weight: bold;font-style: normal;line-height: 140%;max-width: 896px;overflow-wrap: break-word;word-break: break-word;text-size-adjust: 100%;color: rgb(59, 16, 132);"><tspan x="0" y="13.999999999999996"><tspan dx="0">类、函数、模块和包</tspan></tspan></text></g></g></g></g><g class="po-mind-topic" id="topic-5a180658-48a8-4dda-a535-ca37bd53ad61" transform="matrix(1,0,0,1,443.8,-188.75)" opacity="1"><path d="M0,0 L170.4,0 C170.4,0 170.4,0 170.4,0                           L170.4,36 C170.4,36 170.4,36 170.4,36                           L0,36 C0,36 0,36 0,36 L0,0                           C0,0 0,0 0,0 Z" class="po-mind-topic-shape-fill" transform="matrix(1,0,0,1,1.5,1.5)" fill="none"></path><path d="M0,0 L168.9,0 L168.9,34.5 L0,34.5 L0,0 Z M7,34.5 L7,41.5 L175.9,41.5 L175.9,7 L168.9,7" class="po-mind-topic-shape" transform="matrix(1,0,0,1,1.5,1.5)" fill="none" stroke-width="3" stroke="#3b1084"></path><g transform="matrix(1,0,0,1,7.5,8.5)"><g data-width="156.4" data-height="20" data-offsetx="0" transform="matrix(1,0,0,1,0,0)"><g><text text-anchor="start" align="top" anchor="start" font-size="14px" font-weight="bold" fill="rgb(59, 16, 132)" style="font-family: 思源宋体;font-size: 14px;font-weight: bold;font-style: normal;line-height: 140%;max-width: 896px;overflow-wrap: break-word;word-break: break-word;text-size-adjust: 100%;color: rgb(59, 16, 132);"><tspan x="0" y="13.999999999999996"><tspan dx="0">对象的创建、引用和删除</tspan></tspan></text></g></g></g></g><g class="po-mind-topic" id="topic-68cffc2a-e340-46a2-8298-1d2eccf142b9" transform="matrix(1,0,0,1,646.2,-295)" opacity="1"><path d="M0,0 L86.4,0 C86.4,0 86.4,0 86.4,0                           L86.4,36 C86.4,36 86.4,36 86.4,36                           L0,36 C0,36 0,36 0,36 L0,0                           C0,0 0,0 0,0 Z" class="po-mind-topic-shape-fill" transform="matrix(1,0,0,1,1.5,1.5)" fill="none"></path><path d="M0,0 L84.9,0 L84.9,34.5 L0,34.5 L0,0 Z M7,34.5 L7,41.5 L91.9,41.5 L91.9,7 L84.9,7" class="po-mind-topic-shape" transform="matrix(1,0,0,1,1.5,1.5)" fill="none" stroke-width="3" stroke="#3b1084"></path><g transform="matrix(1,0,0,1,7.5,8.5)"><g data-width="72.4" data-height="20" data-offsetx="0" transform="matrix(1,0,0,1,0,0)"><g><text text-anchor="start" align="top" anchor="start" font-size="14px" font-weight="bold" fill="rgb(59, 16, 132)" style="font-family: 思源宋体;font-size: 14px;font-weight: bold;font-style: normal;line-height: 140%;max-width: 896px;overflow-wrap: break-word;word-break: break-word;text-size-adjust: 100%;color: rgb(59, 16, 132);"><tspan x="0" y="13.999999999999996"><tspan dx="0">对象的创建</tspan></tspan></text></g></g></g></g><g class="po-mind-topic" id="topic-7c5942c1-5f91-4812-a352-1fe4c862f6bf" transform="matrix(1,0,0,1,764.6,-357.5)" opacity="1"><path d="M0,0 L86.4,0 C86.4,0 86.4,0 86.4,0                           L86.4,36 C86.4,36 86.4,36 86.4,36                           L0,36 C0,36 0,36 0,36 L0,0                           C0,0 0,0 0,0 Z" class="po-mind-topic-shape-fill" transform="matrix(1,0,0,1,1.5,1.5)" fill="none"></path><path d="M0,0 L84.9,0 L84.9,34.5 L0,34.5 L0,0 Z M7,34.5 L7,41.5 L91.9,41.5 L91.9,7 L84.9,7" class="po-mind-topic-shape" transform="matrix(1,0,0,1,1.5,1.5)" fill="none" stroke-width="3" stroke="#3b1084"></path><g transform="matrix(1,0,0,1,7.5,8.5)"><g data-width="72.4" data-height="20" data-offsetx="0" transform="matrix(1,0,0,1,0,0)"><g><text text-anchor="start" align="top" anchor="start" font-size="14px" font-weight="bold" fill="rgb(59, 16, 132)" style="font-family: 思源宋体;font-size: 14px;font-weight: bold;font-style: normal;line-height: 140%;max-width: 896px;overflow-wrap: break-word;word-break: break-word;text-size-adjust: 100%;color: rgb(59, 16, 132);"><tspan x="0" y="13.999999999999996"><tspan dx="0">利用字面量</tspan></tspan></text></g></g></g></g><g class="po-mind-topic" id="topic-13c2817c-7498-46f5-a415-28432f3c82d9" transform="matrix(1,0,0,1,764.6,-307.5)" opacity="1"><path d="M0,0 L114.4,0 C114.4,0 114.4,0 114.4,0                           L114.4,36 C114.4,36 114.4,36 114.4,36                           L0,36 C0,36 0,36 0,36 L0,0                           C0,0 0,0 0,0 Z" class="po-mind-topic-shape-fill" transform="matrix(1,0,0,1,1.5,1.5)" fill="none"></path><path d="M0,0 L112.9,0 L112.9,34.5 L0,34.5 L0,0 Z M7,34.5 L7,41.5 L119.9,41.5 L119.9,7 L112.9,7" class="po-mind-topic-shape" transform="matrix(1,0,0,1,1.5,1.5)" fill="none" stroke-width="3" stroke="#3b1084"></path><g transform="matrix(1,0,0,1,7.5,8.5)"><g data-width="100.4" data-height="20" data-offsetx="0" transform="matrix(1,0,0,1,0,0)"><g><text text-anchor="start" align="top" anchor="start" font-size="14px" font-weight="bold" fill="rgb(59, 16, 132)" style="font-family: 思源宋体;font-size: 14px;font-weight: bold;font-style: normal;line-height: 140%;max-width: 896px;overflow-wrap: break-word;word-break: break-word;text-size-adjust: 100%;color: rgb(59, 16, 132);"><tspan x="0" y="13.999999999999996"><tspan dx="0">直接调用类对象</tspan></tspan></text></g></g></g></g><g class="po-mind-topic" id="topic-ed5403e3-2fcc-4dc6-865d-36e282b3465b" transform="matrix(1,0,0,1,764.6,-232.5)" opacity="1"><path d="M0,0 L72.4,0 C72.4,0 72.4,0 72.4,0                           L72.4,36 C72.4,36 72.4,36 72.4,36                           L0,36 C0,36 0,36 0,36 L0,0                           C0,0 0,0 0,0 Z" class="po-mind-topic-shape-fill" transform="matrix(1,0,0,1,1.5,1.5)" fill="none"></path><path d="M0,0 L70.9,0 L70.9,34.5 L0,34.5 L0,0 Z M7,34.5 L7,41.5 L77.9,41.5 L77.9,7 L70.9,7" class="po-mind-topic-shape" transform="matrix(1,0,0,1,1.5,1.5)" fill="none" stroke-width="3" stroke="#3b1084"></path><g transform="matrix(1,0,0,1,7.5,8.5)"><g data-width="58.4" data-height="20" data-offsetx="0" transform="matrix(1,0,0,1,0,0)"><g><text text-anchor="start" align="top" anchor="start" font-size="14px" font-weight="bold" fill="rgb(59, 16, 132)" style="font-family: 思源宋体;font-size: 14px;font-weight: bold;font-style: normal;line-height: 140%;max-width: 896px;overflow-wrap: break-word;word-break: break-word;text-size-adjust: 100%;color: rgb(59, 16, 132);"><tspan x="0" y="13.999999999999996"><tspan dx="0">其他方式</tspan></tspan></text></g></g></g></g><g class="po-mind-topic" id="topic-29249eba-8ebe-411e-a8dc-4bd6ef7ac435" transform="matrix(1,0,0,1,869,-257.5)" opacity="1"><path d="M0,0 L83.4,0 C83.4,0 83.4,0 83.4,0                           L83.4,36 C83.4,36 83.4,36 83.4,36                           L0,36 C0,36 0,36 0,36 L0,0                           C0,0 0,0 0,0 Z" class="po-mind-topic-shape-fill" transform="matrix(1,0,0,1,1.5,1.5)" fill="none"></path><path d="M0,0 L81.9,0 L81.9,34.5 L0,34.5 L0,0 Z M7,34.5 L7,41.5 L88.9,41.5 L88.9,7 L81.9,7" class="po-mind-topic-shape" transform="matrix(1,0,0,1,1.5,1.5)" fill="none" stroke-width="3" stroke="#3b1084"></path><g transform="matrix(1,0,0,1,7.5,8.5)"><g data-width="69.4" data-height="20" data-offsetx="0" transform="matrix(1,0,0,1,0,0)"><g><text text-anchor="start" align="top" anchor="start" font-size="14px" font-weight="bold" fill="rgb(59, 16, 132)" style="font-family: 思源宋体;font-size: 14px;font-weight: bold;font-style: normal;line-height: 140%;max-width: 896px;overflow-wrap: break-word;word-break: break-word;text-size-adjust: 100%;color: rgb(59, 16, 132);"><tspan x="0" y="13.999999999999996"><tspan dx="0">input输入</tspan></tspan></text></g></g></g></g><g class="po-mind-topic" id="topic-ca9bf386-53ec-4fb9-9294-aa1ca964a6cb" transform="matrix(1,0,0,1,869,-207.5)" opacity="1"><path d="M0,0 L142.4,0 C142.4,0 142.4,0 142.4,0                           L142.4,36 C142.4,36 142.4,36 142.4,36                           L0,36 C0,36 0,36 0,36 L0,0                           C0,0 0,0 0,0 Z" class="po-mind-topic-shape-fill" transform="matrix(1,0,0,1,1.5,1.5)" fill="none"></path><path d="M0,0 L140.9,0 L140.9,34.5 L0,34.5 L0,0 Z M7,34.5 L7,41.5 L147.9,41.5 L147.9,7 L140.9,7" class="po-mind-topic-shape" transform="matrix(1,0,0,1,1.5,1.5)" fill="none" stroke-width="3" stroke="#3b1084"></path><g transform="matrix(1,0,0,1,7.5,8.5)"><g data-width="128.4" data-height="20" data-offsetx="0" transform="matrix(1,0,0,1,0,0)"><g><text text-anchor="start" align="top" anchor="start" font-size="14px" font-weight="bold" fill="rgb(59, 16, 132)" style="font-family: 思源宋体;font-size: 14px;font-weight: bold;font-style: normal;line-height: 140%;max-width: 896px;overflow-wrap: break-word;word-break: break-word;text-size-adjust: 100%;color: rgb(59, 16, 132);"><tspan x="0" y="13.999999999999996"><tspan dx="0">通过计算创建新对象</tspan></tspan></text></g></g></g></g><g class="po-mind-topic" id="topic-44ffcf3e-742f-4f47-9316-9abcdb9f20c5" transform="matrix(1,0,0,1,646.2,-157.5)" opacity="1"><path d="M0,0 L114.4,0 C114.4,0 114.4,0 114.4,0                           L114.4,36 C114.4,36 114.4,36 114.4,36                           L0,36 C0,36 0,36 0,36 L0,0                           C0,0 0,0 0,0 Z" class="po-mind-topic-shape-fill" transform="matrix(1,0,0,1,1.5,1.5)" fill="none"></path><path d="M0,0 L112.9,0 L112.9,34.5 L0,34.5 L0,0 Z M7,34.5 L7,41.5 L119.9,41.5 L119.9,7 L112.9,7" class="po-mind-topic-shape" transform="matrix(1,0,0,1,1.5,1.5)" fill="none" stroke-width="3" stroke="#3b1084"></path><g transform="matrix(1,0,0,1,7.5,8.5)"><g data-width="100.4" data-height="20" data-offsetx="0" transform="matrix(1,0,0,1,0,0)"><g><text text-anchor="start" align="top" anchor="start" font-size="14px" font-weight="bold" fill="rgb(59, 16, 132)" style="font-family: 思源宋体;font-size: 14px;font-weight: bold;font-style: normal;line-height: 140%;max-width: 896px;overflow-wrap: break-word;word-break: break-word;text-size-adjust: 100%;color: rgb(59, 16, 132);"><tspan x="0" y="13.999999999999996"><tspan dx="0">变量对象的引用</tspan></tspan></text></g></g></g></g><g class="po-mind-topic" id="topic-959d144f-8fa7-4c04-996d-a637e183802b" transform="matrix(1,0,0,1,646.2,-82.5)" opacity="1"><path d="M0,0 L114.4,0 C114.4,0 114.4,0 114.4,0                           L114.4,36 C114.4,36 114.4,36 114.4,36                           L0,36 C0,36 0,36 0,36 L0,0                           C0,0 0,0 0,0 Z" class="po-mind-topic-shape-fill" transform="matrix(1,0,0,1,1.5,1.5)" fill="none"></path><path d="M0,0 L112.9,0 L112.9,34.5 L0,34.5 L0,0 Z M7,34.5 L7,41.5 L119.9,41.5 L119.9,7 L112.9,7" class="po-mind-topic-shape" transform="matrix(1,0,0,1,1.5,1.5)" fill="none" stroke-width="3" stroke="#3b1084"></path><g transform="matrix(1,0,0,1,7.5,8.5)"><g data-width="100.4" data-height="20" data-offsetx="0" transform="matrix(1,0,0,1,0,0)"><g><text text-anchor="start" align="top" anchor="start" font-size="14px" font-weight="bold" fill="rgb(59, 16, 132)" style="font-family: 思源宋体;font-size: 14px;font-weight: bold;font-style: normal;line-height: 140%;max-width: 896px;overflow-wrap: break-word;word-break: break-word;text-size-adjust: 100%;color: rgb(59, 16, 132);"><tspan x="0" y="13.999999999999996"><tspan dx="0">删除对象和变量</tspan></tspan></text></g></g></g></g><g class="po-mind-topic" id="topic-78436df0-0fda-4ea6-be22-3f5e804360c1" transform="matrix(1,0,0,1,792.6,-107.5)" opacity="1"><path d="M0,0 L66.4,0 C66.4,0 66.4,0 66.4,0                           L66.4,36 C66.4,36 66.4,36 66.4,36                           L0,36 C0,36 0,36 0,36 L0,0                           C0,0 0,0 0,0 Z" class="po-mind-topic-shape-fill" transform="matrix(1,0,0,1,1.5,1.5)" fill="none"></path><path d="M0,0 L64.9,0 L64.9,34.5 L0,34.5 L0,0 Z M7,34.5 L7,41.5 L71.9,41.5 L71.9,7 L64.9,7" class="po-mind-topic-shape" transform="matrix(1,0,0,1,1.5,1.5)" fill="none" stroke-width="3" stroke="#3b1084"></path><g transform="matrix(1,0,0,1,7.5,8.5)"><g data-width="52.4" data-height="20" data-offsetx="0" transform="matrix(1,0,0,1,0,0)"><g><text text-anchor="start" align="top" anchor="start" font-size="14px" font-weight="bold" fill="rgb(59, 16, 132)" style="font-family: 思源宋体;font-size: 14px;font-weight: bold;font-style: normal;line-height: 140%;max-width: 896px;overflow-wrap: break-word;word-break: break-word;text-size-adjust: 100%;color: rgb(59, 16, 132);"><tspan x="0" y="13.999999999999996"><tspan dx="0">del语句</tspan></tspan></text></g></g></g></g><g class="po-mind-topic" id="topic-7f65366a-a0b5-4cdf-9649-f385d4b15e5e" transform="matrix(1,0,0,1,792.6,-57.5)" opacity="1"><path d="M0,0 L254.39999999999998,0 C254.39999999999998,0 254.39999999999998,0 254.39999999999998,0                           L254.39999999999998,36 C254.39999999999998,36 254.39999999999998,36 254.39999999999998,36                           L0,36 C0,36 0,36 0,36 L0,0                           C0,0 0,0 0,0 Z" class="po-mind-topic-shape-fill" transform="matrix(1,0,0,1,1.5,1.5)" fill="none"></path><path d="M0,0 L252.89999999999998,0 L252.89999999999998,34.5 L0,34.5 L0,0 Z M7,34.5 L7,41.5 L259.9,41.5 L259.9,7 L252.89999999999998,7" class="po-mind-topic-shape" transform="matrix(1,0,0,1,1.5,1.5)" fill="none" stroke-width="3" stroke="#3b1084"></path><g transform="matrix(1,0,0,1,7.5,8.5)"><g data-width="240.4" data-height="20" data-offsetx="0" transform="matrix(1,0,0,1,0,0)"><g><text text-anchor="start" align="top" anchor="start" font-size="14px" font-weight="bold" fill="rgb(59, 16, 132)" style="font-family: 思源宋体;font-size: 14px;font-weight: bold;font-style: normal;line-height: 140%;max-width: 896px;overflow-wrap: break-word;word-break: break-word;text-size-adjust: 100%;color: rgb(59, 16, 132);"><tspan x="0" y="13.999999999999996"><tspan dx="0">对象的删除：引用计数、垃圾回收机制</tspan></tspan></text></g></g></g></g><g class="po-mind-topic" id="topic-83e8e791-e1f9-45f1-b281-c8a0ccaef1bf" transform="matrix(1,0,0,1,443.8,-7.5)" opacity="1"><path d="M0,0 L184.4,0 C184.4,0 184.4,0 184.4,0                           L184.4,36 C184.4,36 184.4,36 184.4,36                           L0,36 C0,36 0,36 0,36 L0,0                           C0,0 0,0 0,0 Z" class="po-mind-topic-shape-fill" transform="matrix(1,0,0,1,1.5,1.5)" fill="none"></path><path d="M0,0 L182.9,0 L182.9,34.5 L0,34.5 L0,0 Z M7,34.5 L7,41.5 L189.9,41.5 L189.9,7 L182.9,7" class="po-mind-topic-shape" transform="matrix(1,0,0,1,1.5,1.5)" fill="none" stroke-width="3" stroke="#3b1084"></path><g transform="matrix(1,0,0,1,7.5,8.5)"><g data-width="170.4" data-height="20" data-offsetx="0" transform="matrix(1,0,0,1,0,0)"><g><text text-anchor="start" align="top" anchor="start" font-size="14px" font-weight="bold" fill="rgb(59, 16, 132)" style="font-family: 思源宋体;font-size: 14px;font-weight: bold;font-style: normal;line-height: 140%;max-width: 896px;overflow-wrap: break-word;word-break: break-word;text-size-adjust: 100%;color: rgb(59, 16, 132);"><tspan x="0" y="13.999999999999996"><tspan dx="0">动态类型语言和强类型语言</tspan></tspan></text></g></g></g></g><g class="po-mind-topic" id="topic-c3a756f0-71a0-4b9e-b022-09b3d5c347e5" transform="matrix(1,0,0,1,443.8,67.5)" opacity="1"><path d="M0,0 L170.4,0 C170.4,0 170.4,0 170.4,0                           L170.4,36 C170.4,36 170.4,36 170.4,36                           L0,36 C0,36 0,36 0,36 L0,0                           C0,0 0,0 0,0 Z" class="po-mind-topic-shape-fill" transform="matrix(1,0,0,1,1.5,1.5)" fill="none"></path><path d="M0,0 L168.9,0 L168.9,34.5 L0,34.5 L0,0 Z M7,34.5 L7,41.5 L175.9,41.5 L175.9,7 L168.9,7" class="po-mind-topic-shape" transform="matrix(1,0,0,1,1.5,1.5)" fill="none" stroke-width="3" stroke="#3b1084"></path><g transform="matrix(1,0,0,1,7.5,8.5)"><g data-width="156.4" data-height="20" data-offsetx="0" transform="matrix(1,0,0,1,0,0)"><g><text text-anchor="start" align="top" anchor="start" font-size="14px" font-weight="bold" fill="rgb(59, 16, 132)" style="font-family: 思源宋体;font-size: 14px;font-weight: bold;font-style: normal;line-height: 140%;max-width: 896px;overflow-wrap: break-word;word-break: break-word;text-size-adjust: 100%;color: rgb(59, 16, 132);"><tspan x="0" y="13.999999999999996"><tspan dx="0">对象值的比较和引用判别</tspan></tspan></text></g></g></g></g><g class="po-mind-topic" id="topic-7f5e6c49-2a84-42a8-ba94-836812402f17" transform="matrix(1,0,0,1,646.2,42.5)" opacity="1"><path d="M0,0 L79.4,0 C79.4,0 79.4,0 79.4,0                           L79.4,36 C79.4,36 79.4,36 79.4,36                           L0,36 C0,36 0,36 0,36 L0,0                           C0,0 0,0 0,0 Z" class="po-mind-topic-shape-fill" transform="matrix(1,0,0,1,1.5,1.5)" fill="none"></path><path d="M0,0 L77.9,0 L77.9,34.5 L0,34.5 L0,0 Z M7,34.5 L7,41.5 L84.9,41.5 L84.9,7 L77.9,7" class="po-mind-topic-shape" transform="matrix(1,0,0,1,1.5,1.5)" fill="none" stroke-width="3" stroke="#3b1084"></path><g transform="matrix(1,0,0,1,7.5,8.5)"><g data-width="65.4" data-height="20" data-offsetx="0" transform="matrix(1,0,0,1,0,0)"><g><text text-anchor="start" align="top" anchor="start" font-size="14px" font-weight="bold" fill="rgb(59, 16, 132)" style="font-family: 思源宋体;font-size: 14px;font-weight: bold;font-style: normal;line-height: 140%;max-width: 896px;overflow-wrap: break-word;word-break: break-word;text-size-adjust: 100%;color: rgb(59, 16, 132);"><tspan x="0" y="13.999999999999996"><tspan dx="0">比较： ==</tspan></tspan></text></g></g></g></g><g class="po-mind-topic" id="topic-3f40df03-d5f2-45e7-a52d-3c41d37cc8a1" transform="matrix(1,0,0,1,646.2,92.5)" opacity="1"><path d="M0,0 L102.4,0 C102.4,0 102.4,0 102.4,0                           L102.4,36 C102.4,36 102.4,36 102.4,36                           L0,36 C0,36 0,36 0,36 L0,0                           C0,0 0,0 0,0 Z" class="po-mind-topic-shape-fill" transform="matrix(1,0,0,1,1.5,1.5)" fill="none"></path><path d="M0,0 L100.9,0 L100.9,34.5 L0,34.5 L0,0 Z M7,34.5 L7,41.5 L107.9,41.5 L107.9,7 L100.9,7" class="po-mind-topic-shape" transform="matrix(1,0,0,1,1.5,1.5)" fill="none" stroke-width="3" stroke="#3b1084"></path><g transform="matrix(1,0,0,1,7.5,8.5)"><g data-width="88.4" data-height="20" data-offsetx="0" transform="matrix(1,0,0,1,0,0)"><g><text text-anchor="start" align="top" anchor="start" font-size="14px" font-weight="bold" fill="rgb(59, 16, 132)" style="font-family: 思源宋体;font-size: 14px;font-weight: bold;font-style: normal;line-height: 140%;max-width: 896px;overflow-wrap: break-word;word-break: break-word;text-size-adjust: 100%;color: rgb(59, 16, 132);"><tspan x="0" y="13.999999999999996"><tspan dx="0">引用判别： is</tspan></tspan></text></g></g></g></g><g class="po-mind-topic" id="topic-c4f04f34-9012-43d8-82d0-ebc74a664395" transform="matrix(1,0,0,1,443.8,142.5)" opacity="1"><path d="M0,0 L156.4,0 C156.4,0 156.4,0 156.4,0                           L156.4,36 C156.4,36 156.4,36 156.4,36                           L0,36 C0,36 0,36 0,36 L0,0                           C0,0 0,0 0,0 Z" class="po-mind-topic-shape-fill" transform="matrix(1,0,0,1,1.5,1.5)" fill="none"></path><path d="M0,0 L154.9,0 L154.9,34.5 L0,34.5 L0,0 Z M7,34.5 L7,41.5 L161.9,41.5 L161.9,7 L154.9,7" class="po-mind-topic-shape" transform="matrix(1,0,0,1,1.5,1.5)" fill="none" stroke-width="3" stroke="#3b1084"></path><g transform="matrix(1,0,0,1,7.5,8.5)"><g data-width="142.4" data-height="20" data-offsetx="0" transform="matrix(1,0,0,1,0,0)"><g><text text-anchor="start" align="top" anchor="start" font-size="14px" font-weight="bold" fill="rgb(59, 16, 132)" style="font-family: 思源宋体;font-size: 14px;font-weight: bold;font-style: normal;line-height: 140%;max-width: 896px;overflow-wrap: break-word;word-break: break-word;text-size-adjust: 100%;color: rgb(59, 16, 132);"><tspan x="0" y="13.999999999999996"><tspan dx="0">可变对象和不可变对象</tspan></tspan></text></g></g></g></g><g class="po-mind-topic" id="topic-37cdf37d-96b7-43da-b193-0a5e125a1682" transform="matrix(1,0,0,1,443.8,192.5)" opacity="1"><path d="M0,0 L156.4,0 C156.4,0 156.4,0 156.4,0                           L156.4,36 C156.4,36 156.4,36 156.4,36                           L0,36 C0,36 0,36 0,36 L0,0                           C0,0 0,0 0,0 Z" class="po-mind-topic-shape-fill" transform="matrix(1,0,0,1,1.5,1.5)" fill="none"></path><path d="M0,0 L154.9,0 L154.9,34.5 L0,34.5 L0,0 Z M7,34.5 L7,41.5 L161.9,41.5 L161.9,7 L154.9,7" class="po-mind-topic-shape" transform="matrix(1,0,0,1,1.5,1.5)" fill="none" stroke-width="3" stroke="#3b1084"></path><g transform="matrix(1,0,0,1,7.5,8.5)"><g data-width="142.4" data-height="20" data-offsetx="0" transform="matrix(1,0,0,1,0,0)"><g><text text-anchor="start" align="top" anchor="start" font-size="14px" font-weight="bold" fill="rgb(59, 16, 132)" style="font-family: 思源宋体;font-size: 14px;font-weight: bold;font-style: normal;line-height: 140%;max-width: 896px;overflow-wrap: break-word;word-break: break-word;text-size-adjust: 100%;color: rgb(59, 16, 132);"><tspan x="0" y="13.999999999999996"><tspan dx="0">内置对象和非内置对象</tspan></tspan></text></g></g></g></g><g class="po-mind-topic" id="topic-cac6bd0f-ef2a-4a09-9505-86fc9ea68d9b" transform="matrix(1,0,0,1,632.2,192.5)" opacity="1"><path d="M0,0 L148.4,0 C148.4,0 148.4,0 148.4,0                           L148.4,36 C148.4,36 148.4,36 148.4,36                           L0,36 C0,36 0,36 0,36 L0,0                           C0,0 0,0 0,0 Z" class="po-mind-topic-shape-fill" transform="matrix(1,0,0,1,1.5,1.5)" fill="none"></path><path d="M0,0 L146.9,0 L146.9,34.5 L0,34.5 L0,0 Z M7,34.5 L7,41.5 L153.9,41.5 L153.9,7 L146.9,7" class="po-mind-topic-shape" transform="matrix(1,0,0,1,1.5,1.5)" fill="none" stroke-width="3" stroke="#3b1084"></path><g transform="matrix(1,0,0,1,7.5,8.5)"><g data-width="134.4" data-height="20" data-offsetx="0" transform="matrix(1,0,0,1,0,0)"><g><text text-anchor="start" align="top" anchor="start" font-size="14px" font-weight="bold" fill="rgb(59, 16, 132)" style="font-family: 思源宋体;font-size: 14px;font-weight: bold;font-style: normal;line-height: 140%;max-width: 896px;overflow-wrap: break-word;word-break: break-word;text-size-adjust: 100%;color: rgb(59, 16, 132);"><tspan x="0" y="13.999999999999996"><tspan dx="0">dir(__builybins__)</tspan></tspan></text></g></g></g></g></g><g class="po-mind-associative-line-label-container"></g></g><g id="wpsexport-watermark"><defs><pattern patternUnits="userSpaceOnUse" id="wpspattern_mark_0" width="300" height="300"><text x="150" y="100" fill="#0000004d" font-size="18" transform="rotate(-45, 150, 150)" style="dominant-baseline: middle; text-anchor: middle;"></text></pattern></defs><rect fill="url(#wpspattern_mark_0)" x="0" y="0" width="890" height="941.5" id="rect_mark_0" pointer-events="none"></rect></g><style>
    .connection-svg{
        outline: none;
        box-shadow: none;
        -webkit-tap-highlight-color: transparent;
    }
    .connection-line {
        cursor: pointer;
    }

    .connection-line-bg {
        cursor: pointer;
    }

    .node-add-btn {
        cursor: pointer;
    }

    .po-richtext-node-wrap ol,
    .area_box ol,
    .po-measureCustomNode ol {
        padding-left: 20px;
        margin: 0;
    }
    .po-richtext-node-wrap ol li,
    .area_box ol li,
    .po-measureCustomNode ol li {
        list-style: decimal;
    }
    .po-richtext-node-wrap ul,
    .area_box ul,
    .po-measureCustomNode ul {
        padding-left: calc(15px + 0.5em);
        list-style: none;
        margin: 0;
    }
    .po-richtext-node-wrap ul li,
    .area_box ul li,
    .po-measureCustomNode ul li {
        list-style: disc;
    }
    .po-richtext-node-wrap p,
    .po-richtext-node-wrap h1,
    .po-richtext-node-wrap h2,
    .po-richtext-node-wrap h3,
    .po-richtext-node-wrap h4,
    .po-richtext-node-wrap h5,
    .po-richtext-node-wrap h6,
    .area_box p,
    .area_box h1,
    .area_box h2,
    .area_box h3,
    .area_box h4,
    .area_box h5,
    .area_box h6,
    .po-measureCustomNode p,
    .po-measureCustomNode h1,
    .po-measureCustomNode h2,
    .po-measureCustomNode h3,
    .po-measureCustomNode h4,
    .po-measureCustomNode h5,
    .po-measureCustomNode h6 {
        margin: 0;
    }
    .po-safari-fixed {
        position: fixed;
    }
</style></svg>