<?xml version="1.0" standalone="no"?><?xml-stylesheet type="text/css" href="https://wps.processon.com/themes/default/wps/mind/icons/icons.css" ?><!DOCTYPE svg PUBLIC "-//W3C//DTD SVG 1.1//EN" "http://www.w3.org/Graphics/SVG/1.1/DTD/svg11.dtd"><svg xmlns="http://www.w3.org/2000/svg" xmlns:xlink="http://www.w3.org/1999/xlink" version="1.1" width="587.5999755859375" height="291.5" style="outline: none; background: none; top: 0px; left: 0px; display: block; z-index: 1; font-size: 12px;" id="mind-svg-con"><defs></defs><g id="svgbackgroundid"><defs transform="matrix(0.4682071518613048,0,0,0.1295843520782396,0,0)"></defs><rect width="1255" height="2249.5" fill="#ffffff" transform="matrix(0.4682071518613048,0,0,0.1295843520782396,0,0)"></rect></g><g id="export-watermark"><defs><pattern patternUnits="userSpaceOnUse" id="pattern_mark_0" width="300" height="300"><text x="150" y="100" fill="rgb(224,224,224)" font-size="18" transform="rotate(-45, 150, 150)" style="dominant-baseline: middle; text-anchor: middle;"></text></pattern></defs><rect fill="url(#pattern_mark_0)" x="0" y="0" width="587.594" height="291.5" id="rect_mark_0" pointer-events="none"></rect></g><g class="po-mind-container" transform="matrix(1,0,0,1,-189,-356)"><g class="po-mind-line-container" style=""><g from="ce65f24d-551b-4b0b-897c-bb8aac6633f7" to="e7a8e9c2-b70b-434c-990d-bb9c9fc74c58" opacity="1"><path d="M389.8 501.5L401.8 501.5L401.8 407.5C401.8 407.5 401.8 401.5 407.8 401.5L413.8 401.5" stroke-linecap="butt" stroke-width="3" stroke="#3b1084" fill="none"></path></g><g from="ce65f24d-551b-4b0b-897c-bb8aac6633f7" to="2e2c7ff1-559a-4880-92e9-fcb9eed70d64" opacity="1"><path d="M389.8 501.5L401.8 501.5L401.8 457.5C401.8 457.5 401.8 451.5 407.8 451.5L413.8 451.5" stroke-linecap="butt" stroke-width="3" stroke="#3b1084" fill="none"></path></g><g from="ce65f24d-551b-4b0b-897c-bb8aac6633f7" to="58ec744d-7145-4726-94cb-ef12af06ad20" opacity="1"><path d="M389.8 501.5L401.8 501.5L401.8 501.5C401.8 501.5 401.8 501.5 401.8 501.5L413.8 501.5" stroke-linecap="butt" stroke-width="3" stroke="#3b1084" fill="none"></path></g><g from="ce65f24d-551b-4b0b-897c-bb8aac6633f7" to="4f425b34-9be8-4fa4-939d-9369c4828190" opacity="1"><path d="M389.8 501.5L401.8 501.5L401.8 545.5C401.8 545.5 401.8 551.5 407.8 551.5L413.8 551.5" stroke-linecap="butt" stroke-width="3" stroke="#3b1084" fill="none"></path></g><g from="ce65f24d-551b-4b0b-897c-bb8aac6633f7" to="022bb1f2-26f2-4f0f-9ab0-06adb4df83a8" opacity="1"><path d="M389.8 501.5L401.8 501.5L401.8 595.5C401.8 595.5 401.8 601.5 407.8 601.5L413.8 601.5" stroke-linecap="butt" stroke-width="3" stroke="#3b1084" fill="none"></path></g><g from="4f425b34-9be8-4fa4-939d-9369c4828190" to="87de8903-debb-4774-9572-34c53a3dafe8" opacity="1"><path d="M522.2 551.5L534.2 551.5L534.2 551.5C534.2 551.5 534.2 551.5 534.2 551.5L546.2 551.5" stroke-linecap="butt" stroke-width="3" stroke="#3b1084" fill="none"></path></g><g from="2e2c7ff1-559a-4880-92e9-fcb9eed70d64" to="a575d09a-e47c-4b59-b010-f4761a314ef3" opacity="1"><path d="M522.2 451.5L534.2 451.5L534.2 451.5C534.2 451.5 534.2 451.5 534.2 451.5L546.2 451.5" stroke-linecap="butt" stroke-width="3" stroke="#3b1084" fill="none"></path></g></g><g class="po-mind-generalize-container"></g><g class="po-mind-associative-line-container"></g><g class="po-mind-node-container"><g class="po-mind-topic" id="topic-ce65f24d-551b-4b0b-897c-bb8aac6633f7" transform="matrix(1,0,0,1,217,474.5)" opacity="1"><path d="M0,0 L164.8,0 C164.8,0 164.8,0 164.8,0                           L164.8,46 C164.8,46 164.8,46 164.8,46                           L0,46 C0,46 0,46 0,46 L0,0                           C0,0 0,0 0,0 Z" class="po-mind-topic-shape-fill" transform="matrix(1,0,0,1,2.5,3.5)" fill="rgba(0, 0, 0, 0.1)" stroke-width="4" stroke="rgba(0, 0, 0, 0.1)"></path><path d="M0,0 L164.8,0 C164.8,0 164.8,0 164.8,0                           L164.8,46 C164.8,46 164.8,46 164.8,46                           L0,46 C0,46 0,46 0,46 L0,0                           C0,0 0,0 0,0 Z" class="po-mind-topic-shape-fill" transform="matrix(1,0,0,1,1.5,1.5)" fill="#ffffff" stroke-width="0"></path><path d="M0,0 L163.3,0 L163.3,44.5 L0,44.5 L0,0 Z M7,44.5 L7,51.5 L170.3,51.5 L170.3,7 L163.3,7" class="po-mind-topic-shape" transform="matrix(1,0,0,1,1.5,1.5)" fill="none" stroke-width="3" stroke="#3b1084"></path><g transform="matrix(1,0,0,1,18.5,10.5)"><g data-width="128.8" data-height="26" data-offsetx="0" transform="matrix(1,0,0,1,0,0)"><g><text text-anchor="start" align="top" anchor="start" font-size="18px" font-weight="bold" fill="rgb(59, 16, 132)" style="font-family: 思源宋体;font-size: 18px;font-weight: bold;font-style: normal;line-height: 140%;max-width: 900px;overflow-wrap: break-word;word-break: break-word;text-size-adjust: 100%;color: rgb(59, 16, 132);"><tspan x="0" y="18"><tspan dx="0">变量和赋值语句</tspan></tspan></text></g></g></g><g><rect width="4" height="54" x="-3" y="0" resize="1" fill="none" style="cursor: ew-resize;"></rect><rect width="4" height="54" x="173.8" y="0" resize="2" fill="none" style="cursor: ew-resize;"></rect></g></g><g class="po-mind-topic" id="topic-e7a8e9c2-b70b-434c-990d-bb9c9fc74c58" transform="matrix(1,0,0,1,413.8,379.5)" opacity="1"><path d="M0,0 L128.4,0 C128.4,0 128.4,0 128.4,0                           L128.4,36 C128.4,36 128.4,36 128.4,36                           L0,36 C0,36 0,36 0,36 L0,0                           C0,0 0,0 0,0 Z" class="po-mind-topic-shape-fill" transform="matrix(1,0,0,1,1.5,1.5)" fill="none"></path><path d="M0,0 L126.9,0 L126.9,34.5 L0,34.5 L0,0 Z M7,34.5 L7,41.5 L133.9,41.5 L133.9,7 L126.9,7" class="po-mind-topic-shape" transform="matrix(1,0,0,1,1.5,1.5)" fill="none" stroke-width="3" stroke="#3b1084"></path><g transform="matrix(1,0,0,1,7.5,8.5)"><g data-width="114.4" data-height="20" data-offsetx="0" transform="matrix(1,0,0,1,0,0)"><g><text text-anchor="start" align="top" anchor="start" font-size="14px" font-weight="bold" fill="rgb(59, 16, 132)" style="font-family: 思源宋体;font-size: 14px;font-weight: bold;font-style: normal;line-height: 140%;max-width: 896px;overflow-wrap: break-word;word-break: break-word;text-size-adjust: 100%;color: rgb(59, 16, 132);"><tspan x="0" y="13.999999999999996"><tspan dx="0">变量的声明和赋值</tspan></tspan></text></g></g></g></g><g class="po-mind-topic" id="topic-2e2c7ff1-559a-4880-92e9-fcb9eed70d64" transform="matrix(1,0,0,1,413.8,429.5)" opacity="1"><path d="M0,0 L100.4,0 C100.4,0 100.4,0 100.4,0                           L100.4,36 C100.4,36 100.4,36 100.4,36                           L0,36 C0,36 0,36 0,36 L0,0                           C0,0 0,0 0,0 Z" class="po-mind-topic-shape-fill" transform="matrix(1,0,0,1,1.5,1.5)" fill="none"></path><path d="M0,0 L98.9,0 L98.9,34.5 L0,34.5 L0,0 Z M7,34.5 L7,41.5 L105.9,41.5 L105.9,7 L98.9,7" class="po-mind-topic-shape" transform="matrix(1,0,0,1,1.5,1.5)" fill="none" stroke-width="3" stroke="#3b1084"></path><g transform="matrix(1,0,0,1,7.5,8.5)"><g data-width="86.4" data-height="20" data-offsetx="0" transform="matrix(1,0,0,1,0,0)"><g><text text-anchor="start" align="top" anchor="start" font-size="14px" font-weight="bold" fill="rgb(59, 16, 132)" style="font-family: 思源宋体;font-size: 14px;font-weight: bold;font-style: normal;line-height: 140%;max-width: 896px;overflow-wrap: break-word;word-break: break-word;text-size-adjust: 100%;color: rgb(59, 16, 132);"><tspan x="0" y="13.999999999999996"><tspan dx="0">链式赋值语句</tspan></tspan></text></g></g></g></g><g class="po-mind-topic" id="topic-a575d09a-e47c-4b59-b010-f4761a314ef3" transform="matrix(1,0,0,1,546.2,429.5)" opacity="1"><path d="M0,0 L184.4,0 C184.4,0 184.4,0 184.4,0                           L184.4,36 C184.4,36 184.4,36 184.4,36                           L0,36 C0,36 0,36 0,36 L0,0                           C0,0 0,0 0,0 Z" class="po-mind-topic-shape-fill" transform="matrix(1,0,0,1,1.5,1.5)" fill="none"></path><path d="M0,0 L182.9,0 L182.9,34.5 L0,34.5 L0,0 Z M7,34.5 L7,41.5 L189.9,41.5 L189.9,7 L182.9,7" class="po-mind-topic-shape" transform="matrix(1,0,0,1,1.5,1.5)" fill="none" stroke-width="3" stroke="#3b1084"></path><g transform="matrix(1,0,0,1,7.5,8.5)"><g data-width="170.4" data-height="20" data-offsetx="0" transform="matrix(1,0,0,1,0,0)"><g><text text-anchor="start" align="top" anchor="start" font-size="14px" font-weight="bold" fill="rgb(59, 16, 132)" style="font-family: 思源宋体;font-size: 14px;font-weight: bold;font-style: normal;line-height: 140%;max-width: 896px;overflow-wrap: break-word;word-break: break-word;text-size-adjust: 100%;color: rgb(59, 16, 132);"><tspan x="0" y="13.999999999999996"><tspan dx="0">变量1,变量2,···,变量n = 值</tspan></tspan></text></g></g></g></g><g class="po-mind-topic" id="topic-58ec744d-7145-4726-94cb-ef12af06ad20" transform="matrix(1,0,0,1,413.8,479.5)" opacity="1"><path d="M0,0 L100.4,0 C100.4,0 100.4,0 100.4,0                           L100.4,36 C100.4,36 100.4,36 100.4,36                           L0,36 C0,36 0,36 0,36 L0,0                           C0,0 0,0 0,0 Z" class="po-mind-topic-shape-fill" transform="matrix(1,0,0,1,1.5,1.5)" fill="none"></path><path d="M0,0 L98.9,0 L98.9,34.5 L0,34.5 L0,0 Z M7,34.5 L7,41.5 L105.9,41.5 L105.9,7 L98.9,7" class="po-mind-topic-shape" transform="matrix(1,0,0,1,1.5,1.5)" fill="none" stroke-width="3" stroke="#3b1084"></path><g transform="matrix(1,0,0,1,7.5,8.5)"><g data-width="86.4" data-height="20" data-offsetx="0" transform="matrix(1,0,0,1,0,0)"><g><text text-anchor="start" align="top" anchor="start" font-size="14px" font-weight="bold" fill="rgb(59, 16, 132)" style="font-family: 思源宋体;font-size: 14px;font-weight: bold;font-style: normal;line-height: 140%;max-width: 896px;overflow-wrap: break-word;word-break: break-word;text-size-adjust: 100%;color: rgb(59, 16, 132);"><tspan x="0" y="13.999999999999996"><tspan dx="0">复合赋值语句</tspan></tspan></text></g></g></g></g><g class="po-mind-topic" id="topic-4f425b34-9be8-4fa4-939d-9369c4828190" transform="matrix(1,0,0,1,413.8,529.5)" opacity="1"><path d="M0,0 L100.4,0 C100.4,0 100.4,0 100.4,0                           L100.4,36 C100.4,36 100.4,36 100.4,36                           L0,36 C0,36 0,36 0,36 L0,0                           C0,0 0,0 0,0 Z" class="po-mind-topic-shape-fill" transform="matrix(1,0,0,1,1.5,1.5)" fill="none"></path><path d="M0,0 L98.9,0 L98.9,34.5 L0,34.5 L0,0 Z M7,34.5 L7,41.5 L105.9,41.5 L105.9,7 L98.9,7" class="po-mind-topic-shape" transform="matrix(1,0,0,1,1.5,1.5)" fill="none" stroke-width="3" stroke="#3b1084"></path><g transform="matrix(1,0,0,1,7.5,8.5)"><g data-width="86.4" data-height="20" data-offsetx="0" transform="matrix(1,0,0,1,0,0)"><g><text text-anchor="start" align="top" anchor="start" font-size="14px" font-weight="bold" fill="rgb(59, 16, 132)" style="font-family: 思源宋体;font-size: 14px;font-weight: bold;font-style: normal;line-height: 140%;max-width: 896px;overflow-wrap: break-word;word-break: break-word;text-size-adjust: 100%;color: rgb(59, 16, 132);"><tspan x="0" y="13.999999999999996"><tspan dx="0">序列解包赋值</tspan></tspan></text></g></g></g></g><g class="po-mind-topic" id="topic-87de8903-debb-4774-9572-34c53a3dafe8" transform="matrix(1,0,0,1,546.2,529.5)" opacity="1"><path d="M0,0 L198.4,0 C198.4,0 198.4,0 198.4,0                           L198.4,36 C198.4,36 198.4,36 198.4,36                           L0,36 C0,36 0,36 0,36 L0,0                           C0,0 0,0 0,0 Z" class="po-mind-topic-shape-fill" transform="matrix(1,0,0,1,1.5,1.5)" fill="none"></path><path d="M0,0 L196.9,0 L196.9,34.5 L0,34.5 L0,0 Z M7,34.5 L7,41.5 L203.9,41.5 L203.9,7 L196.9,7" class="po-mind-topic-shape" transform="matrix(1,0,0,1,1.5,1.5)" fill="none" stroke-width="3" stroke="#3b1084"></path><g transform="matrix(1,0,0,1,7.5,8.5)"><g data-width="184.4" data-height="20" data-offsetx="0" transform="matrix(1,0,0,1,0,0)"><g><text text-anchor="start" align="top" anchor="start" font-size="14px" font-weight="bold" fill="rgb(59, 16, 132)" style="font-family: 思源宋体;font-size: 14px;font-weight: bold;font-style: normal;line-height: 140%;max-width: 896px;overflow-wrap: break-word;word-break: break-word;text-size-adjust: 100%;color: rgb(59, 16, 132);"><tspan x="0" y="13.999999999999996"><tspan dx="0">变量1,变量2,···,变量n = 序列</tspan></tspan></text></g></g></g></g><g class="po-mind-topic" id="topic-022bb1f2-26f2-4f0f-9ab0-06adb4df83a8" transform="matrix(1,0,0,1,413.8,579.5)" opacity="1"><path d="M0,0 L44.4,0 C44.4,0 44.4,0 44.4,0                           L44.4,36 C44.4,36 44.4,36 44.4,36                           L0,36 C0,36 0,36 0,36 L0,0                           C0,0 0,0 0,0 Z" class="po-mind-topic-shape-fill" transform="matrix(1,0,0,1,1.5,1.5)" fill="none"></path><path d="M0,0 L42.9,0 L42.9,34.5 L0,34.5 L0,0 Z M7,34.5 L7,41.5 L49.9,41.5 L49.9,7 L42.9,7" class="po-mind-topic-shape" transform="matrix(1,0,0,1,1.5,1.5)" fill="none" stroke-width="3" stroke="#3b1084"></path><g transform="matrix(1,0,0,1,7.5,8.5)"><g data-width="30.4" data-height="20" data-offsetx="0" transform="matrix(1,0,0,1,0,0)"><g><text text-anchor="start" align="top" anchor="start" font-size="14px" font-weight="bold" fill="rgb(59, 16, 132)" style="font-family: 思源宋体;font-size: 14px;font-weight: bold;font-style: normal;line-height: 140%;max-width: 896px;overflow-wrap: break-word;word-break: break-word;text-size-adjust: 100%;color: rgb(59, 16, 132);"><tspan x="0" y="13.999999999999996"><tspan dx="0">常量</tspan></tspan></text></g></g></g></g></g><g class="po-mind-associative-line-label-container"></g></g><g id="wpsexport-watermark"><defs><pattern patternUnits="userSpaceOnUse" id="wpspattern_mark_0" width="300" height="300"><text x="150" y="100" fill="#0000004d" font-size="18" transform="rotate(-45, 150, 150)" style="dominant-baseline: middle; text-anchor: middle;"></text></pattern></defs><rect fill="url(#wpspattern_mark_0)" x="0" y="0" width="587.594" height="291.5" id="rect_mark_0" pointer-events="none"></rect></g><style>
    .connection-svg{
        outline: none;
        box-shadow: none;
        -webkit-tap-highlight-color: transparent;
    }
    .connection-line {
        cursor: pointer;
    }

    .connection-line-bg {
        cursor: pointer;
    }

    .node-add-btn {
        cursor: pointer;
    }

    .po-richtext-node-wrap ol,
    .area_box ol,
    .po-measureCustomNode ol {
        padding-left: 20px;
        margin: 0;
    }
    .po-richtext-node-wrap ol li,
    .area_box ol li,
    .po-measureCustomNode ol li {
        list-style: decimal;
    }
    .po-richtext-node-wrap ul,
    .area_box ul,
    .po-measureCustomNode ul {
        padding-left: calc(15px + 0.5em);
        list-style: none;
        margin: 0;
    }
    .po-richtext-node-wrap ul li,
    .area_box ul li,
    .po-measureCustomNode ul li {
        list-style: disc;
    }
    .po-richtext-node-wrap p,
    .po-richtext-node-wrap h1,
    .po-richtext-node-wrap h2,
    .po-richtext-node-wrap h3,
    .po-richtext-node-wrap h4,
    .po-richtext-node-wrap h5,
    .po-richtext-node-wrap h6,
    .area_box p,
    .area_box h1,
    .area_box h2,
    .area_box h3,
    .area_box h4,
    .area_box h5,
    .area_box h6,
    .po-measureCustomNode p,
    .po-measureCustomNode h1,
    .po-measureCustomNode h2,
    .po-measureCustomNode h3,
    .po-measureCustomNode h4,
    .po-measureCustomNode h5,
    .po-measureCustomNode h6 {
        margin: 0;
    }
    .po-safari-fixed {
        position: fixed;
    }
</style></svg>