<?xml version="1.0" standalone="no"?><?xml-stylesheet type="text/css" href="https://wps.processon.com/themes/default/wps/mind/icons/icons.css" ?><!DOCTYPE svg PUBLIC "-//W3C//DTD SVG 1.1//EN" "http://www.w3.org/Graphics/SVG/1.1/DTD/svg11.dtd"><svg xmlns="http://www.w3.org/2000/svg" xmlns:xlink="http://www.w3.org/1999/xlink" version="1.1" width="591.5999755859375" height="341.5" style="outline: none; background: none; top: 0px; left: 0px; display: block; z-index: 1; font-size: 12px;" id="mind-svg-con"><defs></defs><g id="svgbackgroundid"><defs transform="matrix(0.4713944028573207,0,0,0.1658169458606458,0,0)"></defs><rect width="1255" height="2059.5" fill="#ffffff" transform="matrix(0.4713944028573207,0,0,0.1658169458606458,0,0)"></rect></g><g id="export-watermark"><defs><pattern patternUnits="userSpaceOnUse" id="pattern_mark_0" width="300" height="300"><text x="150" y="100" fill="rgb(235,235,235)" font-size="18" transform="rotate(-45, 150, 150)" style="dominant-baseline: middle; text-anchor: middle;"></text></pattern></defs><rect fill="url(#pattern_mark_0)" x="0" y="0" width="591.594" height="341.5" id="rect_mark_0" pointer-events="none"></rect></g><g class="po-mind-container" transform="matrix(1,0,0,1,-189,-125)"><g class="po-mind-line-container" style=""><g from="8f63971a-cf80-45ea-bc4c-c54e907d76ed" to="83955627-08a0-46bd-9ff9-2c89f52a8291" opacity="1"><path d="M407.8 333L419.8 333L419.8 251.5C419.8 251.5 419.8 245.5 425.8 245.5L431.8 245.5" stroke-linecap="butt" stroke-width="3" stroke="#3b1084" fill="none"></path></g><g from="8f63971a-cf80-45ea-bc4c-c54e907d76ed" to="4a5c3efa-4f7b-45fa-8f61-e1f43884f8c0" opacity="1"><path d="M407.8 333L419.8 333L419.8 364.5C419.8 364.5 419.8 370.5 425.8 370.5L431.8 370.5" stroke-linecap="butt" stroke-width="3" stroke="#3b1084" fill="none"></path></g><g from="8f63971a-cf80-45ea-bc4c-c54e907d76ed" to="05f385f3-651e-4e25-b572-55949f899196" opacity="1"><path d="M407.8 333L419.8 333L419.8 414.5C419.8 414.5 419.8 420.5 425.8 420.5L431.8 420.5" stroke-linecap="butt" stroke-width="3" stroke="#3b1084" fill="none"></path></g><g from="83955627-08a0-46bd-9ff9-2c89f52a8291" to="ce0ea72a-bb79-4a1d-aa38-881920933ac0" opacity="1"><path d="M498.20000000000005 245.5L510.20000000000005 245.5L510.20000000000005 176.5C510.20000000000005 176.5 510.20000000000005 170.5 516.2 170.5L522.2 170.5" stroke-linecap="butt" stroke-width="3" stroke="#3b1084" fill="none"></path></g><g from="83955627-08a0-46bd-9ff9-2c89f52a8291" to="f60f9a49-16bf-4b71-8af3-080caa48f442" opacity="1"><path d="M498.20000000000005 245.5L510.20000000000005 245.5L510.20000000000005 226.5C510.20000000000005 226.5 510.20000000000005 220.5 516.2 220.5L522.2 220.5" stroke-linecap="butt" stroke-width="3" stroke="#3b1084" fill="none"></path></g><g from="83955627-08a0-46bd-9ff9-2c89f52a8291" to="bada1478-ad62-4ab0-8943-6aee34ecea08" opacity="1"><path d="M498.20000000000005 245.5L510.20000000000005 245.5L510.20000000000005 264.5C510.20000000000005 264.5 510.20000000000005 270.5 516.2 270.5L522.2 270.5" stroke-linecap="butt" stroke-width="3" stroke="#3b1084" fill="none"></path></g><g from="83955627-08a0-46bd-9ff9-2c89f52a8291" to="2ab04ae0-cea0-425f-a1d9-d9a3c6cf1290" opacity="1"><path d="M498.20000000000005 245.5L510.20000000000005 245.5L510.20000000000005 314.5C510.20000000000005 314.5 510.20000000000005 320.5 516.2 320.5L522.2 320.5" stroke-linecap="butt" stroke-width="3" stroke="#3b1084" fill="none"></path></g></g><g class="po-mind-generalize-container"></g><g class="po-mind-associative-line-container"></g><g class="po-mind-node-container"><g class="po-mind-topic" id="topic-8f63971a-cf80-45ea-bc4c-c54e907d76ed" transform="matrix(1,0,0,1,217,306)" opacity="1"><path d="M0,0 L182.8,0 C182.8,0 182.8,0 182.8,0                           L182.8,46 C182.8,46 182.8,46 182.8,46                           L0,46 C0,46 0,46 0,46 L0,0                           C0,0 0,0 0,0 Z" class="po-mind-topic-shape-fill" transform="matrix(1,0,0,1,2.5,3.5)" fill="rgba(0, 0, 0, 0.1)" stroke-width="4" stroke="rgba(0, 0, 0, 0.1)"></path><path d="M0,0 L182.8,0 C182.8,0 182.8,0 182.8,0                           L182.8,46 C182.8,46 182.8,46 182.8,46                           L0,46 C0,46 0,46 0,46 L0,0                           C0,0 0,0 0,0 Z" class="po-mind-topic-shape-fill" transform="matrix(1,0,0,1,1.5,1.5)" fill="#ffffff" stroke-width="0"></path><path d="M0,0 L181.3,0 L181.3,44.5 L0,44.5 L0,0 Z M7,44.5 L7,51.5 L188.3,51.5 L188.3,7 L181.3,7" class="po-mind-topic-shape" transform="matrix(1,0,0,1,1.5,1.5)" fill="none" stroke-width="3" stroke="#3b1084"></path><g transform="matrix(1,0,0,1,18.5,10.5)"><g data-width="146.8" data-height="26" data-offsetx="0" transform="matrix(1,0,0,1,0,0)"><g><text text-anchor="start" align="top" anchor="start" font-size="18px" font-weight="bold" fill="rgb(59, 16, 132)" style="font-family: 思源宋体;font-size: 18px;font-weight: bold;font-style: normal;line-height: 140%;max-width: 900px;overflow-wrap: break-word;word-break: break-word;text-size-adjust: 100%;color: rgb(59, 16, 132);"><tspan x="0" y="18"><tspan dx="0">标识符和命名规则</tspan></tspan></text></g></g></g><g><rect width="4" height="54" x="-3" y="0" resize="1" fill="none" style="cursor: ew-resize;"></rect><rect width="4" height="54" x="191.8" y="0" resize="2" fill="none" style="cursor: ew-resize;"></rect></g></g><g class="po-mind-topic" id="topic-83955627-08a0-46bd-9ff9-2c89f52a8291" transform="matrix(1,0,0,1,431.8,223.5)" opacity="1"><path d="M0,0 L58.400000000000006,0 C58.400000000000006,0 58.400000000000006,0 58.400000000000006,0                           L58.400000000000006,36 C58.400000000000006,36 58.400000000000006,36 58.400000000000006,36                           L0,36 C0,36 0,36 0,36 L0,0                           C0,0 0,0 0,0 Z" class="po-mind-topic-shape-fill" transform="matrix(1,0,0,1,1.5,1.5)" fill="none"></path><path d="M0,0 L56.900000000000006,0 L56.900000000000006,34.5 L0,34.5 L0,0 Z M7,34.5 L7,41.5 L63.900000000000006,41.5 L63.900000000000006,7 L56.900000000000006,7" class="po-mind-topic-shape" transform="matrix(1,0,0,1,1.5,1.5)" fill="none" stroke-width="3" stroke="#3b1084"></path><g transform="matrix(1,0,0,1,7.5,8.5)"><g data-width="44.4" data-height="20" data-offsetx="0" transform="matrix(1,0,0,1,0,0)"><g><text text-anchor="start" align="top" anchor="start" font-size="14px" font-weight="bold" fill="rgb(59, 16, 132)" style="font-family: 思源宋体;font-size: 14px;font-weight: bold;font-style: normal;line-height: 140%;max-width: 896px;overflow-wrap: break-word;word-break: break-word;text-size-adjust: 100%;color: rgb(59, 16, 132);"><tspan x="0" y="13.999999999999996"><tspan dx="0">标识符</tspan></tspan></text></g></g></g></g><g class="po-mind-topic" id="topic-ce0ea72a-bb79-4a1d-aa38-881920933ac0" transform="matrix(1,0,0,1,522.2,148.5)" opacity="1"><path d="M0,0 L226.4,0 C226.4,0 226.4,0 226.4,0                           L226.4,36 C226.4,36 226.4,36 226.4,36                           L0,36 C0,36 0,36 0,36 L0,0                           C0,0 0,0 0,0 Z" class="po-mind-topic-shape-fill" transform="matrix(1,0,0,1,1.5,1.5)" fill="none"></path><path d="M0,0 L224.9,0 L224.9,34.5 L0,34.5 L0,0 Z M7,34.5 L7,41.5 L231.9,41.5 L231.9,7 L224.9,7" class="po-mind-topic-shape" transform="matrix(1,0,0,1,1.5,1.5)" fill="none" stroke-width="3" stroke="#3b1084"></path><g transform="matrix(1,0,0,1,7.5,8.5)"><g data-width="212.4" data-height="20" data-offsetx="0" transform="matrix(1,0,0,1,0,0)"><g><text text-anchor="start" align="top" anchor="start" font-size="14px" font-weight="bold" fill="rgb(59, 16, 132)" style="font-family: 思源宋体;font-size: 14px;font-weight: bold;font-style: normal;line-height: 140%;max-width: 896px;overflow-wrap: break-word;word-break: break-word;text-size-adjust: 100%;color: rgb(59, 16, 132);"><tspan x="0" y="13.999999999999996"><tspan dx="0">字母、数字和下划线组成的字符串</tspan></tspan></text></g></g></g></g><g class="po-mind-topic" id="topic-f60f9a49-16bf-4b71-8af3-080caa48f442" transform="matrix(1,0,0,1,522.2,198.5)" opacity="1"><path d="M0,0 L114.4,0 C114.4,0 114.4,0 114.4,0                           L114.4,36 C114.4,36 114.4,36 114.4,36                           L0,36 C0,36 0,36 0,36 L0,0                           C0,0 0,0 0,0 Z" class="po-mind-topic-shape-fill" transform="matrix(1,0,0,1,1.5,1.5)" fill="none"></path><path d="M0,0 L112.9,0 L112.9,34.5 L0,34.5 L0,0 Z M7,34.5 L7,41.5 L119.9,41.5 L119.9,7 L112.9,7" class="po-mind-topic-shape" transform="matrix(1,0,0,1,1.5,1.5)" fill="none" stroke-width="3" stroke="#3b1084"></path><g transform="matrix(1,0,0,1,7.5,8.5)"><g data-width="100.4" data-height="20" data-offsetx="0" transform="matrix(1,0,0,1,0,0)"><g><text text-anchor="start" align="top" anchor="start" font-size="14px" font-weight="bold" fill="rgb(59, 16, 132)" style="font-family: 思源宋体;font-size: 14px;font-weight: bold;font-style: normal;line-height: 140%;max-width: 896px;overflow-wrap: break-word;word-break: break-word;text-size-adjust: 100%;color: rgb(59, 16, 132);"><tspan x="0" y="13.999999999999996"><tspan dx="0">不能以数字开头</tspan></tspan></text></g></g></g></g><g class="po-mind-topic" id="topic-bada1478-ad62-4ab0-8943-6aee34ecea08" transform="matrix(1,0,0,1,522.2,248.5)" opacity="1"><path d="M0,0 L170.4,0 C170.4,0 170.4,0 170.4,0                           L170.4,36 C170.4,36 170.4,36 170.4,36                           L0,36 C0,36 0,36 0,36 L0,0                           C0,0 0,0 0,0 Z" class="po-mind-topic-shape-fill" transform="matrix(1,0,0,1,1.5,1.5)" fill="none"></path><path d="M0,0 L168.9,0 L168.9,34.5 L0,34.5 L0,0 Z M7,34.5 L7,41.5 L175.9,41.5 L175.9,7 L168.9,7" class="po-mind-topic-shape" transform="matrix(1,0,0,1,1.5,1.5)" fill="none" stroke-width="3" stroke="#3b1084"></path><g transform="matrix(1,0,0,1,7.5,8.5)"><g data-width="156.4" data-height="20" data-offsetx="0" transform="matrix(1,0,0,1,0,0)"><g><text text-anchor="start" align="top" anchor="start" font-size="14px" font-weight="bold" fill="rgb(59, 16, 132)" style="font-family: 思源宋体;font-size: 14px;font-weight: bold;font-style: normal;line-height: 140%;max-width: 896px;overflow-wrap: break-word;word-break: break-word;text-size-adjust: 100%;color: rgb(59, 16, 132);"><tspan x="0" y="13.999999999999996"><tspan dx="0">不能包含空格和特殊字符</tspan></tspan></text></g></g></g></g><g class="po-mind-topic" id="topic-2ab04ae0-cea0-425f-a1d9-d9a3c6cf1290" transform="matrix(1,0,0,1,522.2,298.5)" opacity="1"><path d="M0,0 L114.4,0 C114.4,0 114.4,0 114.4,0                           L114.4,36 C114.4,36 114.4,36 114.4,36                           L0,36 C0,36 0,36 0,36 L0,0                           C0,0 0,0 0,0 Z" class="po-mind-topic-shape-fill" transform="matrix(1,0,0,1,1.5,1.5)" fill="none"></path><path d="M0,0 L112.9,0 L112.9,34.5 L0,34.5 L0,0 Z M7,34.5 L7,41.5 L119.9,41.5 L119.9,7 L112.9,7" class="po-mind-topic-shape" transform="matrix(1,0,0,1,1.5,1.5)" fill="none" stroke-width="3" stroke="#3b1084"></path><g transform="matrix(1,0,0,1,7.5,8.5)"><g data-width="100.4" data-height="20" data-offsetx="0" transform="matrix(1,0,0,1,0,0)"><g><text text-anchor="start" align="top" anchor="start" font-size="14px" font-weight="bold" fill="rgb(59, 16, 132)" style="font-family: 思源宋体;font-size: 14px;font-weight: bold;font-style: normal;line-height: 140%;max-width: 896px;overflow-wrap: break-word;word-break: break-word;text-size-adjust: 100%;color: rgb(59, 16, 132);"><tspan x="0" y="13.999999999999996"><tspan dx="0">不能使用关键字</tspan></tspan></text></g></g></g></g><g class="po-mind-topic" id="topic-4a5c3efa-4f7b-45fa-8f61-e1f43884f8c0" transform="matrix(1,0,0,1,431.8,348.5)" opacity="1"><path d="M0,0 L86.4,0 C86.4,0 86.4,0 86.4,0                           L86.4,36 C86.4,36 86.4,36 86.4,36                           L0,36 C0,36 0,36 0,36 L0,0                           C0,0 0,0 0,0 Z" class="po-mind-topic-shape-fill" transform="matrix(1,0,0,1,1.5,1.5)" fill="none"></path><path d="M0,0 L84.9,0 L84.9,34.5 L0,34.5 L0,0 Z M7,34.5 L7,41.5 L91.9,41.5 L91.9,7 L84.9,7" class="po-mind-topic-shape" transform="matrix(1,0,0,1,1.5,1.5)" fill="none" stroke-width="3" stroke="#3b1084"></path><g transform="matrix(1,0,0,1,7.5,8.5)"><g data-width="72.4" data-height="20" data-offsetx="0" transform="matrix(1,0,0,1,0,0)"><g><text text-anchor="start" align="top" anchor="start" font-size="14px" font-weight="bold" fill="rgb(59, 16, 132)" style="font-family: 思源宋体;font-size: 14px;font-weight: bold;font-style: normal;line-height: 140%;max-width: 896px;overflow-wrap: break-word;word-break: break-word;text-size-adjust: 100%;color: rgb(59, 16, 132);"><tspan x="0" y="13.999999999999996"><tspan dx="0">保留关键字</tspan></tspan></text></g></g></g></g><g class="po-mind-topic" id="topic-05f385f3-651e-4e25-b572-55949f899196" transform="matrix(1,0,0,1,431.8,398.5)" opacity="1"><path d="M0,0 L72.4,0 C72.4,0 72.4,0 72.4,0                           L72.4,36 C72.4,36 72.4,36 72.4,36                           L0,36 C0,36 0,36 0,36 L0,0                           C0,0 0,0 0,0 Z" class="po-mind-topic-shape-fill" transform="matrix(1,0,0,1,1.5,1.5)" fill="none"></path><path d="M0,0 L70.9,0 L70.9,34.5 L0,34.5 L0,0 Z M7,34.5 L7,41.5 L77.9,41.5 L77.9,7 L70.9,7" class="po-mind-topic-shape" transform="matrix(1,0,0,1,1.5,1.5)" fill="none" stroke-width="3" stroke="#3b1084"></path><g transform="matrix(1,0,0,1,7.5,8.5)"><g data-width="58.4" data-height="20" data-offsetx="0" transform="matrix(1,0,0,1,0,0)"><g><text text-anchor="start" align="top" anchor="start" font-size="14px" font-weight="bold" fill="rgb(59, 16, 132)" style="font-family: 思源宋体;font-size: 14px;font-weight: bold;font-style: normal;line-height: 140%;max-width: 896px;overflow-wrap: break-word;word-break: break-word;text-size-adjust: 100%;color: rgb(59, 16, 132);"><tspan x="0" y="13.999999999999996"><tspan dx="0">命名规则</tspan></tspan></text></g></g></g></g></g><g class="po-mind-associative-line-label-container"></g></g><g id="wpsexport-watermark"><defs><pattern patternUnits="userSpaceOnUse" id="wpspattern_mark_0" width="300" height="300"><text x="150" y="100" fill="#0000004d" font-size="18" transform="rotate(-45, 150, 150)" style="dominant-baseline: middle; text-anchor: middle;"></text></pattern></defs><rect fill="url(#wpspattern_mark_0)" x="0" y="0" width="591.594" height="341.5" id="rect_mark_0" pointer-events="none"></rect></g><style>
    .connection-svg{
        outline: none;
        box-shadow: none;
        -webkit-tap-highlight-color: transparent;
    }
    .connection-line {
        cursor: pointer;
    }

    .connection-line-bg {
        cursor: pointer;
    }

    .node-add-btn {
        cursor: pointer;
    }

    .po-richtext-node-wrap ol,
    .area_box ol,
    .po-measureCustomNode ol {
        padding-left: 20px;
        margin: 0;
    }
    .po-richtext-node-wrap ol li,
    .area_box ol li,
    .po-measureCustomNode ol li {
        list-style: decimal;
    }
    .po-richtext-node-wrap ul,
    .area_box ul,
    .po-measureCustomNode ul {
        padding-left: calc(15px + 0.5em);
        list-style: none;
        margin: 0;
    }
    .po-richtext-node-wrap ul li,
    .area_box ul li,
    .po-measureCustomNode ul li {
        list-style: disc;
    }
    .po-richtext-node-wrap p,
    .po-richtext-node-wrap h1,
    .po-richtext-node-wrap h2,
    .po-richtext-node-wrap h3,
    .po-richtext-node-wrap h4,
    .po-richtext-node-wrap h5,
    .po-richtext-node-wrap h6,
    .area_box p,
    .area_box h1,
    .area_box h2,
    .area_box h3,
    .area_box h4,
    .area_box h5,
    .area_box h6,
    .po-measureCustomNode p,
    .po-measureCustomNode h1,
    .po-measureCustomNode h2,
    .po-measureCustomNode h3,
    .po-measureCustomNode h4,
    .po-measureCustomNode h5,
    .po-measureCustomNode h6 {
        margin: 0;
    }
    .po-safari-fixed {
        position: fixed;
    }
</style></svg>