<?xml version="1.0" standalone="no"?><?xml-stylesheet type="text/css" href="https://wps.processon.com/themes/default/wps/mind/icons/icons.css" ?><!DOCTYPE svg PUBLIC "-//W3C//DTD SVG 1.1//EN" "http://www.w3.org/Graphics/SVG/1.1/DTD/svg11.dtd"><svg xmlns="http://www.w3.org/2000/svg" xmlns:xlink="http://www.w3.org/1999/xlink" version="1.1" width="851" height="441.5" style="outline: none; background: none; top: 0px; left: 0px; display: block; z-index: 1; font-size: 12px;" id="mind-svg-con"><defs></defs><g id="svgbackgroundid"><defs transform="matrix(0.6780876494023904,0,0,0.14621626097035934,0,0)"></defs><rect width="1255" height="3019.5" fill="#ffffff" transform="matrix(0.6780876494023904,0,0,0.14621626097035934,0,0)"></rect></g><g id="export-watermark"><defs><pattern patternUnits="userSpaceOnUse" id="pattern_mark_0" width="300" height="300"><text x="150" y="100" fill="rgb(224,224,224)" font-size="18" transform="rotate(-45, 150, 150)" style="dominant-baseline: middle; text-anchor: middle;"></text></pattern></defs><rect fill="url(#pattern_mark_0)" x="0" y="0" width="851" height="441.5" id="rect_mark_0" pointer-events="none"></rect></g><g class="po-mind-container" transform="matrix(1,0,0,1,-189,-1168)"><g class="po-mind-line-container" style=""><g from="f84a5498-c3b9-4006-9beb-fbf7d87673c7" to="fcb0b29e-7bd0-4a13-aa7a-99d4bc49963a" opacity="1"><path d="M335.8 1357.25L347.8 1357.25L347.8 1244.5C347.8 1244.5 347.8 1238.5 353.8 1238.5L359.8 1238.5" stroke-linecap="butt" stroke-width="3" stroke="#3b1084" fill="none"></path></g><g from="f84a5498-c3b9-4006-9beb-fbf7d87673c7" to="e7c10e3b-fa61-402f-9b08-eccc427625ba" opacity="1"><path d="M335.8 1357.25L347.8 1357.25L347.8 1470C347.8 1470 347.8 1476 353.8 1476L359.8 1476" stroke-linecap="butt" stroke-width="3" stroke="#3b1084" fill="none"></path></g><g from="fcb0b29e-7bd0-4a13-aa7a-99d4bc49963a" to="c3d20b1e-be3c-4344-8eb5-80bb736b1d5e" opacity="1"><path d="M412.2 1238.5L424.2 1238.5L424.2 1219.5C424.2 1219.5 424.2 1213.5 430.2 1213.5L436.2 1213.5" stroke-linecap="butt" stroke-width="3" stroke="#3b1084" fill="none"></path></g><g from="fcb0b29e-7bd0-4a13-aa7a-99d4bc49963a" to="995c308f-b35a-49cd-a771-fd31ce398ce9" opacity="1"><path d="M412.2 1238.5L424.2 1238.5L424.2 1257.5C424.2 1257.5 424.2 1263.5 430.2 1263.5L436.2 1263.5" stroke-linecap="butt" stroke-width="3" stroke="#3b1084" fill="none"></path></g><g from="e7c10e3b-fa61-402f-9b08-eccc427625ba" to="5719737b-a1ba-43c8-83f8-cc3cf3718f5a" opacity="1"><path d="M496.20000000000005 1476L508.20000000000005 1476L508.20000000000005 1394.5C508.20000000000005 1394.5 508.20000000000005 1388.5 514.2 1388.5L520.2 1388.5" stroke-linecap="butt" stroke-width="3" stroke="#3b1084" fill="none"></path></g><g from="e7c10e3b-fa61-402f-9b08-eccc427625ba" to="66bfb218-a478-4529-b550-69f1747a3c83" opacity="1"><path d="M496.20000000000005 1476L508.20000000000005 1476L508.20000000000005 1507.5C508.20000000000005 1507.5 508.20000000000005 1513.5 514.2 1513.5L520.2 1513.5" stroke-linecap="butt" stroke-width="3" stroke="#3b1084" fill="none"></path></g><g from="e7c10e3b-fa61-402f-9b08-eccc427625ba" to="751c6461-634f-4b7d-bf4f-819d51c9ea94" opacity="1"><path d="M496.20000000000005 1476L508.20000000000005 1476L508.20000000000005 1557.5C508.20000000000005 1557.5 508.20000000000005 1563.5 514.2 1563.5L520.2 1563.5" stroke-linecap="butt" stroke-width="3" stroke="#3b1084" fill="none"></path></g><g from="5719737b-a1ba-43c8-83f8-cc3cf3718f5a" to="74f258bf-493a-4e28-b3a2-ef9456791e5d" opacity="1"><path d="M600.6 1388.5L612.6 1388.5L612.6 1319.5C612.6 1319.5 612.6 1313.5 618.6 1313.5L624.6 1313.5" stroke-linecap="butt" stroke-width="3" stroke="#3b1084" fill="none"></path></g><g from="5719737b-a1ba-43c8-83f8-cc3cf3718f5a" to="9ea36621-3841-47ed-bdb7-c973ea3ecd4a" opacity="1"><path d="M600.6 1388.5L612.6 1388.5L612.6 1369.5C612.6 1369.5 612.6 1363.5 618.6 1363.5L624.6 1363.5" stroke-linecap="butt" stroke-width="3" stroke="#3b1084" fill="none"></path></g><g from="5719737b-a1ba-43c8-83f8-cc3cf3718f5a" to="f22544a1-3e02-475d-9cef-ed6d5cacb9a0" opacity="1"><path d="M600.6 1388.5L612.6 1388.5L612.6 1407.5C612.6 1407.5 612.6 1413.5 618.6 1413.5L624.6 1413.5" stroke-linecap="butt" stroke-width="3" stroke="#3b1084" fill="none"></path></g><g from="5719737b-a1ba-43c8-83f8-cc3cf3718f5a" to="58e94e8c-1bea-4f4a-9616-79fe327c73c8" opacity="1"><path d="M600.6 1388.5L612.6 1388.5L612.6 1457.5C612.6 1457.5 612.6 1463.5 618.6 1463.5L624.6 1463.5" stroke-linecap="butt" stroke-width="3" stroke="#3b1084" fill="none"></path></g><g from="66bfb218-a478-4529-b550-69f1747a3c83" to="11effd74-424e-4cb4-8f13-c97e496afdd0" opacity="1"><path d="M642.6 1513.5L654.6 1513.5L654.6 1513.5C654.6 1513.5 654.6 1513.5 654.6 1513.5L666.6 1513.5" stroke-linecap="butt" stroke-width="3" stroke="#3b1084" fill="none"></path></g></g><g class="po-mind-generalize-container"></g><g class="po-mind-associative-line-container"></g><g class="po-mind-node-container"><g class="po-mind-topic" id="topic-f84a5498-c3b9-4006-9beb-fbf7d87673c7" transform="matrix(1,0,0,1,217,1330.25)" opacity="1"><path d="M0,0 L110.8,0 C110.8,0 110.8,0 110.8,0                           L110.8,46 C110.8,46 110.8,46 110.8,46                           L0,46 C0,46 0,46 0,46 L0,0                           C0,0 0,0 0,0 Z" class="po-mind-topic-shape-fill" transform="matrix(1,0,0,1,2.5,3.5)" fill="rgba(0, 0, 0, 0.1)" stroke-width="4" stroke="rgba(0, 0, 0, 0.1)"></path><path d="M0,0 L110.8,0 C110.8,0 110.8,0 110.8,0                           L110.8,46 C110.8,46 110.8,46 110.8,46                           L0,46 C0,46 0,46 0,46 L0,0                           C0,0 0,0 0,0 Z" class="po-mind-topic-shape-fill" transform="matrix(1,0,0,1,1.5,1.5)" fill="#ffffff" stroke-width="0"></path><path d="M0,0 L109.3,0 L109.3,44.5 L0,44.5 L0,0 Z M7,44.5 L7,51.5 L116.3,51.5 L116.3,7 L109.3,7" class="po-mind-topic-shape" transform="matrix(1,0,0,1,1.5,1.5)" fill="none" stroke-width="3" stroke="#3b1084"></path><g transform="matrix(1,0,0,1,18.5,10.5)"><g data-width="74.8" data-height="26" data-offsetx="0" transform="matrix(1,0,0,1,0,0)"><g><text text-anchor="start" align="top" anchor="start" font-size="18px" font-weight="bold" fill="rgb(59, 16, 132)" style="font-family: 思源宋体;font-size: 18px;font-weight: bold;font-style: normal;line-height: 140%;max-width: 900px;overflow-wrap: break-word;word-break: break-word;text-size-adjust: 100%;color: rgb(59, 16, 132);"><tspan x="0" y="18"><tspan dx="0">模块和包</tspan></tspan></text></g></g></g><g><rect width="4" height="54" x="-3" y="0" resize="1" fill="none" style="cursor: ew-resize;"></rect><rect width="4" height="54" x="119.8" y="0" resize="2" fill="none" style="cursor: ew-resize;"></rect></g></g><g class="po-mind-topic" id="topic-fcb0b29e-7bd0-4a13-aa7a-99d4bc49963a" transform="matrix(1,0,0,1,359.8,1216.5)" opacity="1"><path d="M0,0 L44.4,0 C44.4,0 44.4,0 44.4,0                           L44.4,36 C44.4,36 44.4,36 44.4,36                           L0,36 C0,36 0,36 0,36 L0,0                           C0,0 0,0 0,0 Z" class="po-mind-topic-shape-fill" transform="matrix(1,0,0,1,1.5,1.5)" fill="none"></path><path d="M0,0 L42.9,0 L42.9,34.5 L0,34.5 L0,0 Z M7,34.5 L7,41.5 L49.9,41.5 L49.9,7 L42.9,7" class="po-mind-topic-shape" transform="matrix(1,0,0,1,1.5,1.5)" fill="none" stroke-width="3" stroke="#3b1084"></path><g transform="matrix(1,0,0,1,7.5,8.5)"><g data-width="30.4" data-height="20" data-offsetx="0" transform="matrix(1,0,0,1,0,0)"><g><text text-anchor="start" align="top" anchor="start" font-size="14px" font-weight="bold" fill="rgb(59, 16, 132)" style="font-family: 思源宋体;font-size: 14px;font-weight: bold;font-style: normal;line-height: 140%;max-width: 896px;overflow-wrap: break-word;word-break: break-word;text-size-adjust: 100%;color: rgb(59, 16, 132);"><tspan x="0" y="13.999999999999996"><tspan dx="0">概念</tspan></tspan></text></g></g></g></g><g class="po-mind-topic" id="topic-c3d20b1e-be3c-4344-8eb5-80bb736b1d5e" transform="matrix(1,0,0,1,436.2,1191.5)" opacity="1"><path d="M0,0 L81.4,0 C81.4,0 81.4,0 81.4,0                           L81.4,36 C81.4,36 81.4,36 81.4,36                           L0,36 C0,36 0,36 0,36 L0,0                           C0,0 0,0 0,0 Z" class="po-mind-topic-shape-fill" transform="matrix(1,0,0,1,1.5,1.5)" fill="none"></path><path d="M0,0 L79.9,0 L79.9,34.5 L0,34.5 L0,0 Z M7,34.5 L7,41.5 L86.9,41.5 L86.9,7 L79.9,7" class="po-mind-topic-shape" transform="matrix(1,0,0,1,1.5,1.5)" fill="none" stroke-width="3" stroke="#3b1084"></path><g transform="matrix(1,0,0,1,7.5,8.5)"><g data-width="67.4" data-height="20" data-offsetx="0" transform="matrix(1,0,0,1,0,0)"><g><text text-anchor="start" align="top" anchor="start" font-size="14px" font-weight="bold" fill="rgb(59, 16, 132)" style="font-family: 思源宋体;font-size: 14px;font-weight: bold;font-style: normal;line-height: 140%;max-width: 896px;overflow-wrap: break-word;word-break: break-word;text-size-adjust: 100%;color: rgb(59, 16, 132);"><tspan x="0" y="13.999999999999996"><tspan dx="0">模块：.py</tspan></tspan></text></g></g></g></g><g class="po-mind-topic" id="topic-995c308f-b35a-49cd-a771-fd31ce398ce9" transform="matrix(1,0,0,1,436.2,1241.5)" opacity="1"><path d="M0,0 L156.4,0 C156.4,0 156.4,0 156.4,0                           L156.4,36 C156.4,36 156.4,36 156.4,36                           L0,36 C0,36 0,36 0,36 L0,0                           C0,0 0,0 0,0 Z" class="po-mind-topic-shape-fill" transform="matrix(1,0,0,1,1.5,1.5)" fill="none"></path><path d="M0,0 L154.9,0 L154.9,34.5 L0,34.5 L0,0 Z M7,34.5 L7,41.5 L161.9,41.5 L161.9,7 L154.9,7" class="po-mind-topic-shape" transform="matrix(1,0,0,1,1.5,1.5)" fill="none" stroke-width="3" stroke="#3b1084"></path><g transform="matrix(1,0,0,1,7.5,8.5)"><g data-width="142.4" data-height="20" data-offsetx="0" transform="matrix(1,0,0,1,0,0)"><g><text text-anchor="start" align="top" anchor="start" font-size="14px" font-weight="bold" fill="rgb(59, 16, 132)" style="font-family: 思源宋体;font-size: 14px;font-weight: bold;font-style: normal;line-height: 140%;max-width: 896px;overflow-wrap: break-word;word-break: break-word;text-size-adjust: 100%;color: rgb(59, 16, 132);"><tspan x="0" y="13.999999999999996"><tspan dx="0">包：包含模块的文件夹</tspan></tspan></text></g></g></g></g><g class="po-mind-topic" id="topic-e7c10e3b-fa61-402f-9b08-eccc427625ba" transform="matrix(1,0,0,1,359.8,1454)" opacity="1"><path d="M0,0 L128.4,0 C128.4,0 128.4,0 128.4,0                           L128.4,36 C128.4,36 128.4,36 128.4,36                           L0,36 C0,36 0,36 0,36 L0,0                           C0,0 0,0 0,0 Z" class="po-mind-topic-shape-fill" transform="matrix(1,0,0,1,1.5,1.5)" fill="none"></path><path d="M0,0 L126.9,0 L126.9,34.5 L0,34.5 L0,0 Z M7,34.5 L7,41.5 L133.9,41.5 L133.9,7 L126.9,7" class="po-mind-topic-shape" transform="matrix(1,0,0,1,1.5,1.5)" fill="none" stroke-width="3" stroke="#3b1084"></path><g transform="matrix(1,0,0,1,7.5,8.5)"><g data-width="114.4" data-height="20" data-offsetx="0" transform="matrix(1,0,0,1,0,0)"><g><text text-anchor="start" align="top" anchor="start" font-size="14px" font-weight="bold" fill="rgb(59, 16, 132)" style="font-family: 思源宋体;font-size: 14px;font-weight: bold;font-style: normal;line-height: 140%;max-width: 896px;overflow-wrap: break-word;word-break: break-word;text-size-adjust: 100%;color: rgb(59, 16, 132);"><tspan x="0" y="13.999999999999996"><tspan dx="0">模块的导入和使用</tspan></tspan></text></g></g></g></g><g class="po-mind-topic" id="topic-5719737b-a1ba-43c8-83f8-cc3cf3718f5a" transform="matrix(1,0,0,1,520.2,1366.5)" opacity="1"><path d="M0,0 L72.4,0 C72.4,0 72.4,0 72.4,0                           L72.4,36 C72.4,36 72.4,36 72.4,36                           L0,36 C0,36 0,36 0,36 L0,0                           C0,0 0,0 0,0 Z" class="po-mind-topic-shape-fill" transform="matrix(1,0,0,1,1.5,1.5)" fill="none"></path><path d="M0,0 L70.9,0 L70.9,34.5 L0,34.5 L0,0 Z M7,34.5 L7,41.5 L77.9,41.5 L77.9,7 L70.9,7" class="po-mind-topic-shape" transform="matrix(1,0,0,1,1.5,1.5)" fill="none" stroke-width="3" stroke="#3b1084"></path><g transform="matrix(1,0,0,1,7.5,8.5)"><g data-width="58.4" data-height="20" data-offsetx="0" transform="matrix(1,0,0,1,0,0)"><g><text text-anchor="start" align="top" anchor="start" font-size="14px" font-weight="bold" fill="rgb(59, 16, 132)" style="font-family: 思源宋体;font-size: 14px;font-weight: bold;font-style: normal;line-height: 140%;max-width: 896px;overflow-wrap: break-word;word-break: break-word;text-size-adjust: 100%;color: rgb(59, 16, 132);"><tspan x="0" y="13.999999999999996"><tspan dx="0">导入模块</tspan></tspan></text></g></g></g></g><g class="po-mind-topic" id="topic-74f258bf-493a-4e28-b3a2-ef9456791e5d" transform="matrix(1,0,0,1,624.6,1291.5)" opacity="1"><path d="M0,0 L100.4,0 C100.4,0 100.4,0 100.4,0                           L100.4,36 C100.4,36 100.4,36 100.4,36                           L0,36 C0,36 0,36 0,36 L0,0                           C0,0 0,0 0,0 Z" class="po-mind-topic-shape-fill" transform="matrix(1,0,0,1,1.5,1.5)" fill="none"></path><path d="M0,0 L98.9,0 L98.9,34.5 L0,34.5 L0,0 Z M7,34.5 L7,41.5 L105.9,41.5 L105.9,7 L98.9,7" class="po-mind-topic-shape" transform="matrix(1,0,0,1,1.5,1.5)" fill="none" stroke-width="3" stroke="#3b1084"></path><g transform="matrix(1,0,0,1,7.5,8.5)"><g data-width="86.4" data-height="20" data-offsetx="0" transform="matrix(1,0,0,1,0,0)"><g><text text-anchor="start" align="top" anchor="start" font-size="14px" font-weight="bold" fill="rgb(59, 16, 132)" style="font-family: 思源宋体;font-size: 14px;font-weight: bold;font-style: normal;line-height: 140%;max-width: 896px;overflow-wrap: break-word;word-break: break-word;text-size-adjust: 100%;color: rgb(59, 16, 132);"><tspan x="0" y="13.999999999999996"><tspan dx="0">导入整个模块</tspan></tspan></text></g></g></g></g><g class="po-mind-topic" id="topic-9ea36621-3841-47ed-bdb7-c973ea3ecd4a" transform="matrix(1,0,0,1,624.6,1341.5)" opacity="1"><path d="M0,0 L156.4,0 C156.4,0 156.4,0 156.4,0                           L156.4,36 C156.4,36 156.4,36 156.4,36                           L0,36 C0,36 0,36 0,36 L0,0                           C0,0 0,0 0,0 Z" class="po-mind-topic-shape-fill" transform="matrix(1,0,0,1,1.5,1.5)" fill="none"></path><path d="M0,0 L154.9,0 L154.9,34.5 L0,34.5 L0,0 Z M7,34.5 L7,41.5 L161.9,41.5 L161.9,7 L154.9,7" class="po-mind-topic-shape" transform="matrix(1,0,0,1,1.5,1.5)" fill="none" stroke-width="3" stroke="#3b1084"></path><g transform="matrix(1,0,0,1,7.5,8.5)"><g data-width="142.4" data-height="20" data-offsetx="0" transform="matrix(1,0,0,1,0,0)"><g><text text-anchor="start" align="top" anchor="start" font-size="14px" font-weight="bold" fill="rgb(59, 16, 132)" style="font-family: 思源宋体;font-size: 14px;font-weight: bold;font-style: normal;line-height: 140%;max-width: 896px;overflow-wrap: break-word;word-break: break-word;text-size-adjust: 100%;color: rgb(59, 16, 132);"><tspan x="0" y="13.999999999999996"><tspan dx="0">导入模块中的特定内容</tspan></tspan></text></g></g></g></g><g class="po-mind-topic" id="topic-f22544a1-3e02-475d-9cef-ed6d5cacb9a0" transform="matrix(1,0,0,1,624.6,1391.5)" opacity="1"><path d="M0,0 L156.4,0 C156.4,0 156.4,0 156.4,0                           L156.4,36 C156.4,36 156.4,36 156.4,36                           L0,36 C0,36 0,36 0,36 L0,0                           C0,0 0,0 0,0 Z" class="po-mind-topic-shape-fill" transform="matrix(1,0,0,1,1.5,1.5)" fill="none"></path><path d="M0,0 L154.9,0 L154.9,34.5 L0,34.5 L0,0 Z M7,34.5 L7,41.5 L161.9,41.5 L161.9,7 L154.9,7" class="po-mind-topic-shape" transform="matrix(1,0,0,1,1.5,1.5)" fill="none" stroke-width="3" stroke="#3b1084"></path><g transform="matrix(1,0,0,1,7.5,8.5)"><g data-width="142.4" data-height="20" data-offsetx="0" transform="matrix(1,0,0,1,0,0)"><g><text text-anchor="start" align="top" anchor="start" font-size="14px" font-weight="bold" fill="rgb(59, 16, 132)" style="font-family: 思源宋体;font-size: 14px;font-weight: bold;font-style: normal;line-height: 140%;max-width: 896px;overflow-wrap: break-word;word-break: break-word;text-size-adjust: 100%;color: rgb(59, 16, 132);"><tspan x="0" y="13.999999999999996"><tspan dx="0">导入模块中的所有内容</tspan></tspan></text></g></g></g></g><g class="po-mind-topic" id="topic-58e94e8c-1bea-4f4a-9616-79fe327c73c8" transform="matrix(1,0,0,1,624.6,1441.5)" opacity="1"><path d="M0,0 L184.4,0 C184.4,0 184.4,0 184.4,0                           L184.4,36 C184.4,36 184.4,36 184.4,36                           L0,36 C0,36 0,36 0,36 L0,0                           C0,0 0,0 0,0 Z" class="po-mind-topic-shape-fill" transform="matrix(1,0,0,1,1.5,1.5)" fill="none"></path><path d="M0,0 L182.9,0 L182.9,34.5 L0,34.5 L0,0 Z M7,34.5 L7,41.5 L189.9,41.5 L189.9,7 L182.9,7" class="po-mind-topic-shape" transform="matrix(1,0,0,1,1.5,1.5)" fill="none" stroke-width="3" stroke="#3b1084"></path><g transform="matrix(1,0,0,1,7.5,8.5)"><g data-width="170.4" data-height="20" data-offsetx="0" transform="matrix(1,0,0,1,0,0)"><g><text text-anchor="start" align="top" anchor="start" font-size="14px" font-weight="bold" fill="rgb(59, 16, 132)" style="font-family: 思源宋体;font-size: 14px;font-weight: bold;font-style: normal;line-height: 140%;max-width: 896px;overflow-wrap: break-word;word-break: break-word;text-size-adjust: 100%;color: rgb(59, 16, 132);"><tspan x="0" y="13.999999999999996"><tspan dx="0">给导入的模块或内容起别名</tspan></tspan></text></g></g></g></g><g class="po-mind-topic" id="topic-66bfb218-a478-4529-b550-69f1747a3c83" transform="matrix(1,0,0,1,520.2,1491.5)" opacity="1"><path d="M0,0 L114.4,0 C114.4,0 114.4,0 114.4,0                           L114.4,36 C114.4,36 114.4,36 114.4,36                           L0,36 C0,36 0,36 0,36 L0,0                           C0,0 0,0 0,0 Z" class="po-mind-topic-shape-fill" transform="matrix(1,0,0,1,1.5,1.5)" fill="none"></path><path d="M0,0 L112.9,0 L112.9,34.5 L0,34.5 L0,0 Z M7,34.5 L7,41.5 L119.9,41.5 L119.9,7 L112.9,7" class="po-mind-topic-shape" transform="matrix(1,0,0,1,1.5,1.5)" fill="none" stroke-width="3" stroke="#3b1084"></path><g transform="matrix(1,0,0,1,7.5,8.5)"><g data-width="100.4" data-height="20" data-offsetx="0" transform="matrix(1,0,0,1,0,0)"><g><text text-anchor="start" align="top" anchor="start" font-size="14px" font-weight="bold" fill="rgb(59, 16, 132)" style="font-family: 思源宋体;font-size: 14px;font-weight: bold;font-style: normal;line-height: 140%;max-width: 896px;overflow-wrap: break-word;word-break: break-word;text-size-adjust: 100%;color: rgb(59, 16, 132);"><tspan x="0" y="13.999999999999996"><tspan dx="0">模块的搜索路径</tspan></tspan></text></g></g></g></g><g class="po-mind-topic" id="topic-11effd74-424e-4cb4-8f13-c97e496afdd0" transform="matrix(1,0,0,1,666.6,1491.5)" opacity="1"><path d="M0,0 L341.4,0 C341.4,0 341.4,0 341.4,0                           L341.4,36 C341.4,36 341.4,36 341.4,36                           L0,36 C0,36 0,36 0,36 L0,0                           C0,0 0,0 0,0 Z" class="po-mind-topic-shape-fill" transform="matrix(1,0,0,1,1.5,1.5)" fill="none"></path><path d="M0,0 L339.9,0 L339.9,34.5 L0,34.5 L0,0 Z M7,34.5 L7,41.5 L346.9,41.5 L346.9,7 L339.9,7" class="po-mind-topic-shape" transform="matrix(1,0,0,1,1.5,1.5)" fill="none" stroke-width="3" stroke="#3b1084"></path><g transform="matrix(1,0,0,1,7.5,8.5)"><g data-width="327.4" data-height="20" data-offsetx="0" transform="matrix(1,0,0,1,0,0)"><g><text text-anchor="start" align="top" anchor="start" font-size="14px" font-weight="bold" fill="rgb(59, 16, 132)" style="font-family: 思源宋体;font-size: 14px;font-weight: bold;font-style: normal;line-height: 140%;max-width: 896px;overflow-wrap: break-word;word-break: break-word;text-size-adjust: 100%;color: rgb(59, 16, 132);"><tspan x="0" y="13.999999999999996"><tspan dx="0">当前目录&gt;操作系统环境变量的指定目录&gt;标准库目录</tspan></tspan></text></g></g></g></g><g class="po-mind-topic" id="topic-751c6461-634f-4b7d-bf4f-819d51c9ea94" transform="matrix(1,0,0,1,520.2,1541.5)" opacity="1"><path d="M0,0 L152.4,0 C152.4,0 152.4,0 152.4,0                           L152.4,36 C152.4,36 152.4,36 152.4,36                           L0,36 C0,36 0,36 0,36 L0,0                           C0,0 0,0 0,0 Z" class="po-mind-topic-shape-fill" transform="matrix(1,0,0,1,1.5,1.5)" fill="none"></path><path d="M0,0 L150.9,0 L150.9,34.5 L0,34.5 L0,0 Z M7,34.5 L7,41.5 L157.9,41.5 L157.9,7 L150.9,7" class="po-mind-topic-shape" transform="matrix(1,0,0,1,1.5,1.5)" fill="none" stroke-width="3" stroke="#3b1084"></path><g transform="matrix(1,0,0,1,7.5,8.5)"><g data-width="138.4" data-height="20" data-offsetx="0" transform="matrix(1,0,0,1,0,0)"><g><text text-anchor="start" align="top" anchor="start" font-size="14px" font-weight="bold" fill="rgb(59, 16, 132)" style="font-family: 思源宋体;font-size: 14px;font-weight: bold;font-style: normal;line-height: 140%;max-width: 896px;overflow-wrap: break-word;word-break: break-word;text-size-adjust: 100%;color: rgb(59, 16, 132);"><tspan x="0" y="13.999999999999996"><tspan dx="0">模块 __name__ 属性</tspan></tspan></text></g></g></g></g></g><g class="po-mind-associative-line-label-container"></g></g><g id="wpsexport-watermark"><defs><pattern patternUnits="userSpaceOnUse" id="wpspattern_mark_0" width="300" height="300"><text x="150" y="100" fill="#0000004d" font-size="18" transform="rotate(-45, 150, 150)" style="dominant-baseline: middle; text-anchor: middle;"></text></pattern></defs><rect fill="url(#wpspattern_mark_0)" x="0" y="0" width="851" height="441.5" id="rect_mark_0" pointer-events="none"></rect></g><style>
    .connection-svg{
        outline: none;
        box-shadow: none;
        -webkit-tap-highlight-color: transparent;
    }
    .connection-line {
        cursor: pointer;
    }

    .connection-line-bg {
        cursor: pointer;
    }

    .node-add-btn {
        cursor: pointer;
    }

    .po-richtext-node-wrap ol,
    .area_box ol,
    .po-measureCustomNode ol {
        padding-left: 20px;
        margin: 0;
    }
    .po-richtext-node-wrap ol li,
    .area_box ol li,
    .po-measureCustomNode ol li {
        list-style: decimal;
    }
    .po-richtext-node-wrap ul,
    .area_box ul,
    .po-measureCustomNode ul {
        padding-left: calc(15px + 0.5em);
        list-style: none;
        margin: 0;
    }
    .po-richtext-node-wrap ul li,
    .area_box ul li,
    .po-measureCustomNode ul li {
        list-style: disc;
    }
    .po-richtext-node-wrap p,
    .po-richtext-node-wrap h1,
    .po-richtext-node-wrap h2,
    .po-richtext-node-wrap h3,
    .po-richtext-node-wrap h4,
    .po-richtext-node-wrap h5,
    .po-richtext-node-wrap h6,
    .area_box p,
    .area_box h1,
    .area_box h2,
    .area_box h3,
    .area_box h4,
    .area_box h5,
    .area_box h6,
    .po-measureCustomNode p,
    .po-measureCustomNode h1,
    .po-measureCustomNode h2,
    .po-measureCustomNode h3,
    .po-measureCustomNode h4,
    .po-measureCustomNode h5,
    .po-measureCustomNode h6 {
        margin: 0;
    }
    .po-safari-fixed {
        position: fixed;
    }
</style></svg>