<?xml version="1.0" standalone="no"?><?xml-stylesheet type="text/css" href="https://wps.processon.com/themes/default/wps/mind/icons/icons.css" ?><!DOCTYPE svg PUBLIC "-//W3C//DTD SVG 1.1//EN" "http://www.w3.org/Graphics/SVG/1.1/DTD/svg11.dtd"><svg xmlns="http://www.w3.org/2000/svg" xmlns:xlink="http://www.w3.org/1999/xlink" version="1.1" width="755.5999755859375" height="391.5" style="outline: none; background: none; top: 0px; left: 0px; display: block; z-index: 1; font-size: 12px;" id="mind-svg-con"><defs></defs><g id="svgbackgroundid"><defs transform="matrix(0.6020716936939741,0,0,0.15416420555227406,0,0)"></defs><rect width="1255" height="2539.5" fill="#ffffff" transform="matrix(0.6020716936939741,0,0,0.15416420555227406,0,0)"></rect></g><g id="export-watermark"><defs><pattern patternUnits="userSpaceOnUse" id="pattern_mark_0" width="300" height="300"><text x="150" y="100" fill="rgb(224,224,224)" font-size="18" transform="rotate(-45, 150, 150)" style="dominant-baseline: middle; text-anchor: middle;"></text></pattern></defs><rect fill="url(#pattern_mark_0)" x="0" y="0" width="755.594" height="391.5" id="rect_mark_0" pointer-events="none"></rect></g><g class="po-mind-container" transform="matrix(1,0,0,1,-189,-487)"><g class="po-mind-line-container" style=""><g from="49a64273-f47e-4dd1-8fec-3d427bb37d2d" to="24dc8ee9-5811-455a-8d55-65a10c3ba30d" opacity="1"><path d="M389.8 670L401.8 670L401.8 588.5C401.8 588.5 401.8 582.5 407.8 582.5L413.8 582.5" stroke-linecap="butt" stroke-width="3" stroke="#3b1084" fill="none"></path></g><g from="49a64273-f47e-4dd1-8fec-3d427bb37d2d" to="affa9763-8af0-4ae9-b259-e3babd2033e8" opacity="1"><path d="M389.8 670L401.8 670L401.8 751.5C401.8 751.5 401.8 757.5 407.8 757.5L413.8 757.5" stroke-linecap="butt" stroke-width="3" stroke="#3b1084" fill="none"></path></g><g from="affa9763-8af0-4ae9-b259-e3babd2033e8" to="5a028cb2-f969-4cb5-a017-d20ec504f02f" opacity="1"><path d="M480.20000000000005 757.5L492.20000000000005 757.5L492.20000000000005 688.5C492.20000000000005 688.5 492.20000000000005 682.5 498.20000000000005 682.5L504.20000000000005 682.5" stroke-linecap="butt" stroke-width="3" stroke="#3b1084" fill="none"></path></g><g from="affa9763-8af0-4ae9-b259-e3babd2033e8" to="f1b384cb-61c0-4606-9976-8be5af0246f5" opacity="1"><path d="M480.20000000000005 757.5L492.20000000000005 757.5L492.20000000000005 738.5C492.20000000000005 738.5 492.20000000000005 732.5 498.20000000000005 732.5L504.20000000000005 732.5" stroke-linecap="butt" stroke-width="3" stroke="#3b1084" fill="none"></path></g><g from="affa9763-8af0-4ae9-b259-e3babd2033e8" to="16c615bd-11a3-4822-89a9-6f1fabdcc534" opacity="1"><path d="M480.20000000000005 757.5L492.20000000000005 757.5L492.20000000000005 776.5C492.20000000000005 776.5 492.20000000000005 782.5 498.20000000000005 782.5L504.20000000000005 782.5" stroke-linecap="butt" stroke-width="3" stroke="#3b1084" fill="none"></path></g><g from="affa9763-8af0-4ae9-b259-e3babd2033e8" to="87498137-7f71-4377-99b4-f0b89bbe9dd9" opacity="1"><path d="M480.20000000000005 757.5L492.20000000000005 757.5L492.20000000000005 826.5C492.20000000000005 826.5 492.20000000000005 832.5 498.20000000000005 832.5L504.20000000000005 832.5" stroke-linecap="butt" stroke-width="3" stroke="#3b1084" fill="none"></path></g><g from="24dc8ee9-5811-455a-8d55-65a10c3ba30d" to="83f18451-d963-448e-9b7d-a1a08f72a9cc" opacity="1"><path d="M480.20000000000005 582.5L492.20000000000005 582.5L492.20000000000005 538.5C492.20000000000005 538.5 492.20000000000005 532.5 498.20000000000005 532.5L504.20000000000005 532.5" stroke-linecap="butt" stroke-width="3" stroke="#3b1084" fill="none"></path></g><g from="24dc8ee9-5811-455a-8d55-65a10c3ba30d" to="2dcf3c82-fd81-4993-8ab2-112d327710f0" opacity="1"><path d="M480.20000000000005 582.5L492.20000000000005 582.5L492.20000000000005 582.5C492.20000000000005 582.5 492.20000000000005 582.5 492.20000000000005 582.5L504.20000000000005 582.5" stroke-linecap="butt" stroke-width="3" stroke="#3b1084" fill="none"></path></g><g from="24dc8ee9-5811-455a-8d55-65a10c3ba30d" to="c9662447-ed43-4cc7-99cb-4b2d147bc2ca" opacity="1"><path d="M480.20000000000005 582.5L492.20000000000005 582.5L492.20000000000005 626.5C492.20000000000005 626.5 492.20000000000005 632.5 498.20000000000005 632.5L504.20000000000005 632.5" stroke-linecap="butt" stroke-width="3" stroke="#3b1084" fill="none"></path></g></g><g class="po-mind-generalize-container"></g><g class="po-mind-associative-line-container"></g><g class="po-mind-node-container"><g class="po-mind-topic" id="topic-49a64273-f47e-4dd1-8fec-3d427bb37d2d" transform="matrix(1,0,0,1,217,643)" opacity="1"><path d="M0,0 L164.8,0 C164.8,0 164.8,0 164.8,0                           L164.8,46 C164.8,46 164.8,46 164.8,46                           L0,46 C0,46 0,46 0,46 L0,0                           C0,0 0,0 0,0 Z" class="po-mind-topic-shape-fill" transform="matrix(1,0,0,1,2.5,3.5)" fill="rgba(0, 0, 0, 0.1)" stroke-width="4" stroke="rgba(0, 0, 0, 0.1)"></path><path d="M0,0 L164.8,0 C164.8,0 164.8,0 164.8,0                           L164.8,46 C164.8,46 164.8,46 164.8,46                           L0,46 C0,46 0,46 0,46 L0,0                           C0,0 0,0 0,0 Z" class="po-mind-topic-shape-fill" transform="matrix(1,0,0,1,1.5,1.5)" fill="#ffffff" stroke-width="0"></path><path d="M0,0 L163.3,0 L163.3,44.5 L0,44.5 L0,0 Z M7,44.5 L7,51.5 L170.3,51.5 L170.3,7 L163.3,7" class="po-mind-topic-shape" transform="matrix(1,0,0,1,1.5,1.5)" fill="none" stroke-width="3" stroke="#3b1084"></path><g transform="matrix(1,0,0,1,18.5,10.5)"><g data-width="128.8" data-height="26" data-offsetx="0" transform="matrix(1,0,0,1,0,0)"><g><text text-anchor="start" align="top" anchor="start" font-size="18px" font-weight="bold" fill="rgb(59, 16, 132)" style="font-family: 思源宋体;font-size: 18px;font-weight: bold;font-style: normal;line-height: 140%;max-width: 900px;overflow-wrap: break-word;word-break: break-word;text-size-adjust: 100%;color: rgb(59, 16, 132);"><tspan x="0" y="18"><tspan dx="0">表达式和运算符</tspan></tspan></text></g></g></g><g><rect width="4" height="54" x="-3" y="0" resize="1" fill="none" style="cursor: ew-resize;"></rect><rect width="4" height="54" x="173.8" y="0" resize="2" fill="none" style="cursor: ew-resize;"></rect></g></g><g class="po-mind-topic" id="topic-24dc8ee9-5811-455a-8d55-65a10c3ba30d" transform="matrix(1,0,0,1,413.8,560.5)" opacity="1"><path d="M0,0 L58.400000000000006,0 C58.400000000000006,0 58.400000000000006,0 58.400000000000006,0                           L58.400000000000006,36 C58.400000000000006,36 58.400000000000006,36 58.400000000000006,36                           L0,36 C0,36 0,36 0,36 L0,0                           C0,0 0,0 0,0 Z" class="po-mind-topic-shape-fill" transform="matrix(1,0,0,1,1.5,1.5)" fill="none"></path><path d="M0,0 L56.900000000000006,0 L56.900000000000006,34.5 L0,34.5 L0,0 Z M7,34.5 L7,41.5 L63.900000000000006,41.5 L63.900000000000006,7 L56.900000000000006,7" class="po-mind-topic-shape" transform="matrix(1,0,0,1,1.5,1.5)" fill="none" stroke-width="3" stroke="#3b1084"></path><g transform="matrix(1,0,0,1,7.5,8.5)"><g data-width="44.4" data-height="20" data-offsetx="0" transform="matrix(1,0,0,1,0,0)"><g><text text-anchor="start" align="top" anchor="start" font-size="14px" font-weight="bold" fill="rgb(59, 16, 132)" style="font-family: 思源宋体;font-size: 14px;font-weight: bold;font-style: normal;line-height: 140%;max-width: 896px;overflow-wrap: break-word;word-break: break-word;text-size-adjust: 100%;color: rgb(59, 16, 132);"><tspan x="0" y="13.999999999999996"><tspan dx="0">表达式</tspan></tspan></text></g></g></g></g><g class="po-mind-topic" id="topic-83f18451-d963-448e-9b7d-a1a08f72a9cc" transform="matrix(1,0,0,1,504.20000000000005,510.5)" opacity="1"><path d="M0,0 L58.400000000000006,0 C58.400000000000006,0 58.400000000000006,0 58.400000000000006,0                           L58.400000000000006,36 C58.400000000000006,36 58.400000000000006,36 58.400000000000006,36                           L0,36 C0,36 0,36 0,36 L0,0                           C0,0 0,0 0,0 Z" class="po-mind-topic-shape-fill" transform="matrix(1,0,0,1,1.5,1.5)" fill="none"></path><path d="M0,0 L56.900000000000006,0 L56.900000000000006,34.5 L0,34.5 L0,0 Z M7,34.5 L7,41.5 L63.900000000000006,41.5 L63.900000000000006,7 L56.900000000000006,7" class="po-mind-topic-shape" transform="matrix(1,0,0,1,1.5,1.5)" fill="none" stroke-width="3" stroke="#3b1084"></path><g transform="matrix(1,0,0,1,7.5,8.5)"><g data-width="44.4" data-height="20" data-offsetx="0" transform="matrix(1,0,0,1,0,0)"><g><text text-anchor="start" align="top" anchor="start" font-size="14px" font-weight="bold" fill="rgb(59, 16, 132)" style="font-family: 思源宋体;font-size: 14px;font-weight: bold;font-style: normal;line-height: 140%;max-width: 896px;overflow-wrap: break-word;word-break: break-word;text-size-adjust: 100%;color: rgb(59, 16, 132);"><tspan x="0" y="13.999999999999996"><tspan dx="0">操作数</tspan></tspan></text></g></g></g></g><g class="po-mind-topic" id="topic-2dcf3c82-fd81-4993-8ab2-112d327710f0" transform="matrix(1,0,0,1,504.20000000000005,560.5)" opacity="1"><path d="M0,0 L72.4,0 C72.4,0 72.4,0 72.4,0                           L72.4,36 C72.4,36 72.4,36 72.4,36                           L0,36 C0,36 0,36 0,36 L0,0                           C0,0 0,0 0,0 Z" class="po-mind-topic-shape-fill" transform="matrix(1,0,0,1,1.5,1.5)" fill="none"></path><path d="M0,0 L70.9,0 L70.9,34.5 L0,34.5 L0,0 Z M7,34.5 L7,41.5 L77.9,41.5 L77.9,7 L70.9,7" class="po-mind-topic-shape" transform="matrix(1,0,0,1,1.5,1.5)" fill="none" stroke-width="3" stroke="#3b1084"></path><g transform="matrix(1,0,0,1,7.5,8.5)"><g data-width="58.4" data-height="20" data-offsetx="0" transform="matrix(1,0,0,1,0,0)"><g><text text-anchor="start" align="top" anchor="start" font-size="14px" font-weight="bold" fill="rgb(59, 16, 132)" style="font-family: 思源宋体;font-size: 14px;font-weight: bold;font-style: normal;line-height: 140%;max-width: 896px;overflow-wrap: break-word;word-break: break-word;text-size-adjust: 100%;color: rgb(59, 16, 132);"><tspan x="0" y="13.999999999999996"><tspan dx="0">书写规则</tspan></tspan></text></g></g></g></g><g class="po-mind-topic" id="topic-c9662447-ed43-4cc7-99cb-4b2d147bc2ca" transform="matrix(1,0,0,1,504.20000000000005,610.5)" opacity="1"><path d="M0,0 L58.400000000000006,0 C58.400000000000006,0 58.400000000000006,0 58.400000000000006,0                           L58.400000000000006,36 C58.400000000000006,36 58.400000000000006,36 58.400000000000006,36                           L0,36 C0,36 0,36 0,36 L0,0                           C0,0 0,0 0,0 Z" class="po-mind-topic-shape-fill" transform="matrix(1,0,0,1,1.5,1.5)" fill="none"></path><path d="M0,0 L56.900000000000006,0 L56.900000000000006,34.5 L0,34.5 L0,0 Z M7,34.5 L7,41.5 L63.900000000000006,41.5 L63.900000000000006,7 L56.900000000000006,7" class="po-mind-topic-shape" transform="matrix(1,0,0,1,1.5,1.5)" fill="none" stroke-width="3" stroke="#3b1084"></path><g transform="matrix(1,0,0,1,7.5,8.5)"><g data-width="44.4" data-height="20" data-offsetx="0" transform="matrix(1,0,0,1,0,0)"><g><text text-anchor="start" align="top" anchor="start" font-size="14px" font-weight="bold" fill="rgb(59, 16, 132)" style="font-family: 思源宋体;font-size: 14px;font-weight: bold;font-style: normal;line-height: 140%;max-width: 896px;overflow-wrap: break-word;word-break: break-word;text-size-adjust: 100%;color: rgb(59, 16, 132);"><tspan x="0" y="13.999999999999996"><tspan dx="0">圆括号</tspan></tspan></text></g></g></g></g><g class="po-mind-topic" id="topic-affa9763-8af0-4ae9-b259-e3babd2033e8" transform="matrix(1,0,0,1,413.8,735.5)" opacity="1"><path d="M0,0 L58.400000000000006,0 C58.400000000000006,0 58.400000000000006,0 58.400000000000006,0                           L58.400000000000006,36 C58.400000000000006,36 58.400000000000006,36 58.400000000000006,36                           L0,36 C0,36 0,36 0,36 L0,0                           C0,0 0,0 0,0 Z" class="po-mind-topic-shape-fill" transform="matrix(1,0,0,1,1.5,1.5)" fill="none"></path><path d="M0,0 L56.900000000000006,0 L56.900000000000006,34.5 L0,34.5 L0,0 Z M7,34.5 L7,41.5 L63.900000000000006,41.5 L63.900000000000006,7 L56.900000000000006,7" class="po-mind-topic-shape" transform="matrix(1,0,0,1,1.5,1.5)" fill="none" stroke-width="3" stroke="#3b1084"></path><g transform="matrix(1,0,0,1,7.5,8.5)"><g data-width="44.4" data-height="20" data-offsetx="0" transform="matrix(1,0,0,1,0,0)"><g><text text-anchor="start" align="top" anchor="start" font-size="14px" font-weight="bold" fill="rgb(59, 16, 132)" style="font-family: 思源宋体;font-size: 14px;font-weight: bold;font-style: normal;line-height: 140%;max-width: 896px;overflow-wrap: break-word;word-break: break-word;text-size-adjust: 100%;color: rgb(59, 16, 132);"><tspan x="0" y="13.999999999999996"><tspan dx="0">运算符</tspan></tspan></text></g></g></g></g><g class="po-mind-topic" id="topic-5a028cb2-f969-4cb5-a017-d20ec504f02f" transform="matrix(1,0,0,1,504.20000000000005,660.5)" opacity="1"><path d="M0,0 L86.4,0 C86.4,0 86.4,0 86.4,0                           L86.4,36 C86.4,36 86.4,36 86.4,36                           L0,36 C0,36 0,36 0,36 L0,0                           C0,0 0,0 0,0 Z" class="po-mind-topic-shape-fill" transform="matrix(1,0,0,1,1.5,1.5)" fill="none"></path><path d="M0,0 L84.9,0 L84.9,34.5 L0,34.5 L0,0 Z M7,34.5 L7,41.5 L91.9,41.5 L91.9,7 L84.9,7" class="po-mind-topic-shape" transform="matrix(1,0,0,1,1.5,1.5)" fill="none" stroke-width="3" stroke="#3b1084"></path><g transform="matrix(1,0,0,1,7.5,8.5)"><g data-width="72.4" data-height="20" data-offsetx="0" transform="matrix(1,0,0,1,0,0)"><g><text text-anchor="start" align="top" anchor="start" font-size="14px" font-weight="bold" fill="rgb(59, 16, 132)" style="font-family: 思源宋体;font-size: 14px;font-weight: bold;font-style: normal;line-height: 140%;max-width: 896px;overflow-wrap: break-word;word-break: break-word;text-size-adjust: 100%;color: rgb(59, 16, 132);"><tspan x="0" y="13.999999999999996"><tspan dx="0">算术运算符</tspan></tspan></text></g></g></g></g><g class="po-mind-topic" id="topic-f1b384cb-61c0-4606-9976-8be5af0246f5" transform="matrix(1,0,0,1,504.20000000000005,710.5)" opacity="1"><path d="M0,0 L86.4,0 C86.4,0 86.4,0 86.4,0                           L86.4,36 C86.4,36 86.4,36 86.4,36                           L0,36 C0,36 0,36 0,36 L0,0                           C0,0 0,0 0,0 Z" class="po-mind-topic-shape-fill" transform="matrix(1,0,0,1,1.5,1.5)" fill="none"></path><path d="M0,0 L84.9,0 L84.9,34.5 L0,34.5 L0,0 Z M7,34.5 L7,41.5 L91.9,41.5 L91.9,7 L84.9,7" class="po-mind-topic-shape" transform="matrix(1,0,0,1,1.5,1.5)" fill="none" stroke-width="3" stroke="#3b1084"></path><g transform="matrix(1,0,0,1,7.5,8.5)"><g data-width="72.4" data-height="20" data-offsetx="0" transform="matrix(1,0,0,1,0,0)"><g><text text-anchor="start" align="top" anchor="start" font-size="14px" font-weight="bold" fill="rgb(59, 16, 132)" style="font-family: 思源宋体;font-size: 14px;font-weight: bold;font-style: normal;line-height: 140%;max-width: 896px;overflow-wrap: break-word;word-break: break-word;text-size-adjust: 100%;color: rgb(59, 16, 132);"><tspan x="0" y="13.999999999999996"><tspan dx="0">比较运算符</tspan></tspan></text></g></g></g></g><g class="po-mind-topic" id="topic-16c615bd-11a3-4822-89a9-6f1fabdcc534" transform="matrix(1,0,0,1,504.20000000000005,760.5)" opacity="1"><path d="M0,0 L86.4,0 C86.4,0 86.4,0 86.4,0                           L86.4,36 C86.4,36 86.4,36 86.4,36                           L0,36 C0,36 0,36 0,36 L0,0                           C0,0 0,0 0,0 Z" class="po-mind-topic-shape-fill" transform="matrix(1,0,0,1,1.5,1.5)" fill="none"></path><path d="M0,0 L84.9,0 L84.9,34.5 L0,34.5 L0,0 Z M7,34.5 L7,41.5 L91.9,41.5 L91.9,7 L84.9,7" class="po-mind-topic-shape" transform="matrix(1,0,0,1,1.5,1.5)" fill="none" stroke-width="3" stroke="#3b1084"></path><g transform="matrix(1,0,0,1,7.5,8.5)"><g data-width="72.4" data-height="20" data-offsetx="0" transform="matrix(1,0,0,1,0,0)"><g><text text-anchor="start" align="top" anchor="start" font-size="14px" font-weight="bold" fill="rgb(59, 16, 132)" style="font-family: 思源宋体;font-size: 14px;font-weight: bold;font-style: normal;line-height: 140%;max-width: 896px;overflow-wrap: break-word;word-break: break-word;text-size-adjust: 100%;color: rgb(59, 16, 132);"><tspan x="0" y="13.999999999999996"><tspan dx="0">逻辑运算符</tspan></tspan></text></g></g></g></g><g class="po-mind-topic" id="topic-87498137-7f71-4377-99b4-f0b89bbe9dd9" transform="matrix(1,0,0,1,504.20000000000005,810.5)" opacity="1"><path d="M0,0 L408.4,0 C408.4,0 408.4,0 408.4,0                           L408.4,36 C408.4,36 408.4,36 408.4,36                           L0,36 C0,36 0,36 0,36 L0,0                           C0,0 0,0 0,0 Z" class="po-mind-topic-shape-fill" transform="matrix(1,0,0,1,1.5,1.5)" fill="none"></path><path d="M0,0 L406.9,0 L406.9,34.5 L0,34.5 L0,0 Z M7,34.5 L7,41.5 L413.9,41.5 L413.9,7 L406.9,7" class="po-mind-topic-shape" transform="matrix(1,0,0,1,1.5,1.5)" fill="none" stroke-width="3" stroke="#3b1084"></path><g transform="matrix(1,0,0,1,7.5,8.5)"><g data-width="394.4" data-height="20" data-offsetx="0" transform="matrix(1,0,0,1,0,0)"><g><text text-anchor="start" align="top" anchor="start" font-size="14px" font-weight="bold" fill="rgb(59, 16, 132)" style="font-family: 思源宋体;font-size: 14px;font-weight: bold;font-style: normal;line-height: 140%;max-width: 896px;overflow-wrap: break-word;word-break: break-word;text-size-adjust: 100%;color: rgb(59, 16, 132);"><tspan x="0" y="13.999999999999996"><tspan dx="0">优先级：括号&gt;幂&gt;整除、取模和乘除&gt;加减&gt;比较&gt;not&gt;and&gt;or</tspan></tspan></text></g></g></g></g></g><g class="po-mind-associative-line-label-container"></g></g><g id="wpsexport-watermark"><defs><pattern patternUnits="userSpaceOnUse" id="wpspattern_mark_0" width="300" height="300"><text x="150" y="100" fill="#0000004d" font-size="18" transform="rotate(-45, 150, 150)" style="dominant-baseline: middle; text-anchor: middle;"></text></pattern></defs><rect fill="url(#wpspattern_mark_0)" x="0" y="0" width="755.594" height="391.5" id="rect_mark_0" pointer-events="none"></rect></g><style>
    .connection-svg{
        outline: none;
        box-shadow: none;
        -webkit-tap-highlight-color: transparent;
    }
    .connection-line {
        cursor: pointer;
    }

    .connection-line-bg {
        cursor: pointer;
    }

    .node-add-btn {
        cursor: pointer;
    }

    .po-richtext-node-wrap ol,
    .area_box ol,
    .po-measureCustomNode ol {
        padding-left: 20px;
        margin: 0;
    }
    .po-richtext-node-wrap ol li,
    .area_box ol li,
    .po-measureCustomNode ol li {
        list-style: decimal;
    }
    .po-richtext-node-wrap ul,
    .area_box ul,
    .po-measureCustomNode ul {
        padding-left: calc(15px + 0.5em);
        list-style: none;
        margin: 0;
    }
    .po-richtext-node-wrap ul li,
    .area_box ul li,
    .po-measureCustomNode ul li {
        list-style: disc;
    }
    .po-richtext-node-wrap p,
    .po-richtext-node-wrap h1,
    .po-richtext-node-wrap h2,
    .po-richtext-node-wrap h3,
    .po-richtext-node-wrap h4,
    .po-richtext-node-wrap h5,
    .po-richtext-node-wrap h6,
    .area_box p,
    .area_box h1,
    .area_box h2,
    .area_box h3,
    .area_box h4,
    .area_box h5,
    .area_box h6,
    .po-measureCustomNode p,
    .po-measureCustomNode h1,
    .po-measureCustomNode h2,
    .po-measureCustomNode h3,
    .po-measureCustomNode h4,
    .po-measureCustomNode h5,
    .po-measureCustomNode h6 {
        margin: 0;
    }
    .po-safari-fixed {
        position: fixed;
    }
</style></svg>