<?xml version="1.0" standalone="no"?><?xml-stylesheet type="text/css" href="https://wps.processon.com/themes/default/wps/mind/icons/icons.css" ?><!DOCTYPE svg PUBLIC "-//W3C//DTD SVG 1.1//EN" "http://www.w3.org/Graphics/SVG/1.1/DTD/svg11.dtd"><svg xmlns="http://www.w3.org/2000/svg" xmlns:xlink="http://www.w3.org/1999/xlink" version="1.1" width="751.5999755859375" height="245.5" style="outline: none; background: none; top: 0px; left: 0px; display: block; z-index: 1; font-size: 12px;" id="mind-svg-con"><defs></defs><g id="svgbackgroundid"><defs transform="matrix(0.6671400602463489,0,0,0.2896755162241888,0,0)"></defs><rect width="1126.5999755859375" height="847.5" fill="#ffffff" transform="matrix(0.6671400602463489,0,0,0.2896755162241888,0,0)"></rect></g><g id="export-watermark"><defs><pattern patternUnits="userSpaceOnUse" id="pattern_mark_0" width="300" height="300"><text x="150" y="100" fill="rgb(235,235,235)" font-size="18" transform="rotate(-45, 150, 150)" style="dominant-baseline: middle; text-anchor: middle;"></text></pattern></defs><rect fill="url(#pattern_mark_0)" x="0" y="0" width="751.594" height="245.5" id="rect_mark_0" pointer-events="none"></rect></g><g class="po-mind-container" transform="matrix(1,0,0,1,-194,337.5)"><g class="po-mind-line-container" style=""><g from="a7db89e0-6e33-479d-b5bb-b53e38bfd9aa" to="43252ed5-bd68-4393-a851-220ae8baeb0e" opacity="1"><path d="M412.8 -215L424.8 -215L424.8 -285.5C424.8 -285.5 424.8 -291.5 430.8 -291.5L436.8 -291.5" stroke-linecap="butt" stroke-width="3" stroke="#3b1084" fill="none"></path></g><g from="43252ed5-bd68-4393-a851-220ae8baeb0e" to="f7336312-488c-47cc-aeef-b81846557d83" opacity="1"><path d="M566.3 -291.5L578.3 -291.5L578.3 -291.5C578.3 -291.5 578.3 -291.5 578.3 -291.5L590.3 -291.5" stroke-linecap="butt" stroke-width="3" stroke="#3b1084" fill="none"></path></g><g from="a7db89e0-6e33-479d-b5bb-b53e38bfd9aa" to="00ab59d8-fa29-49c6-a662-21156a34d05e" opacity="1"><path d="M412.8 -215L424.8 -215L424.8 -234.5C424.8 -234.5 424.8 -240.5 430.8 -240.5L436.8 -240.5" stroke-linecap="butt" stroke-width="3" stroke="#3b1084" fill="none"></path></g><g from="a7db89e0-6e33-479d-b5bb-b53e38bfd9aa" to="00b4c514-e95f-4158-87a5-b55cc5f7d086" opacity="1"><path d="M412.8 -215L424.8 -215L424.8 -195.5C424.8 -195.5 424.8 -189.5 430.8 -189.5L436.8 -189.5" stroke-linecap="butt" stroke-width="3" stroke="#3b1084" fill="none"></path></g><g from="a7db89e0-6e33-479d-b5bb-b53e38bfd9aa" to="7ad657d4-ccf7-42af-90fe-2e3f5b0f1f99" opacity="1"><path d="M412.8 -215L424.8 -215L424.8 -144.5C424.8 -144.5 424.8 -138.5 430.8 -138.5L436.8 -138.5" stroke-linecap="butt" stroke-width="3" stroke="#3b1084" fill="none"></path></g><g from="7ad657d4-ccf7-42af-90fe-2e3f5b0f1f99" to="c4629065-8a30-4e2d-94f9-921a93cc9564" opacity="1"><path d="M639.3 -138.5L651.3 -138.5L651.3 -138.5C651.3 -138.5 651.3 -138.5 651.3 -138.5L663.3 -138.5" stroke-linecap="butt" stroke-width="3" stroke="#3b1084" fill="none"></path></g><g from="00ab59d8-fa29-49c6-a662-21156a34d05e" to="7339d96d-582b-4ee9-a492-e9a84081dcac" opacity="1"><path d="M536.3 -240.5L548.3 -240.5L548.3 -240.5C548.3 -240.5 548.3 -240.5 548.3 -240.5L560.3 -240.5" stroke-linecap="butt" stroke-width="3" stroke="#3b1084" fill="none"></path></g></g><g class="po-mind-generalize-container"></g><g class="po-mind-associative-line-container"></g><g class="po-mind-node-container"><g class="po-mind-topic" id="topic-a7db89e0-6e33-479d-b5bb-b53e38bfd9aa" transform="matrix(1,0,0,1,222,-242)" opacity="1"><path d="M0,0 L182.8,0 C182.8,0 182.8,0 182.8,0                           L182.8,46 C182.8,46 182.8,46 182.8,46                           L0,46 C0,46 0,46 0,46 L0,0                           C0,0 0,0 0,0 Z" class="po-mind-topic-shape-fill" transform="matrix(1,0,0,1,2.5,3.5)" fill="rgba(0, 0, 0, 0.1)" stroke-width="4" stroke="rgba(0, 0, 0, 0.1)"></path><path d="M0,0 L182.8,0 C182.8,0 182.8,0 182.8,0                           L182.8,46 C182.8,46 182.8,46 182.8,46                           L0,46 C0,46 0,46 0,46 L0,0                           C0,0 0,0 0,0 Z" class="po-mind-topic-shape-fill" transform="matrix(1,0,0,1,1.5,1.5)" fill="#ffffff" stroke-width="0"></path><path d="M0,0 L181.3,0 L181.3,44.5 L0,44.5 L0,0 Z M7,44.5 L7,51.5 L188.3,51.5 L188.3,7 L181.3,7" class="po-mind-topic-shape" transform="matrix(1,0,0,1,1.5,1.5)" fill="none" stroke-width="3" stroke="#3b1084"></path><g transform="matrix(1,0,0,1,18.5,10.5)"><g data-width="146.8" data-height="26" data-offsetx="0" transform="matrix(1,0,0,1,0,0)"><g><text text-anchor="start" align="top" anchor="start" font-size="18px" font-weight="bold" fill="rgb(59, 16, 132)" style="font-family: 思源宋体;font-size: 18px;font-weight: bold;font-style: normal;line-height: 140%;max-width: 900px;overflow-wrap: break-word;word-break: break-word;text-size-adjust: 100%;color: rgb(59, 16, 132);"><tspan x="0" y="18"><tspan dx="0">函数的声明和调用</tspan></tspan></text></g></g></g><g><rect width="4" height="54" x="-3" y="0" resize="1" fill="none" style="cursor: ew-resize;"></rect><rect width="4" height="54" x="191.8" y="0" resize="2" fill="none" style="cursor: ew-resize;"></rect></g></g><g class="po-mind-topic" id="topic-43252ed5-bd68-4393-a851-220ae8baeb0e" transform="matrix(1,0,0,1,436.8,-314)" opacity="1"><path d="M0,0 L121.5,0 C121.5,0 121.5,0 121.5,0                           L121.5,37 C121.5,37 121.5,37 121.5,37                           L0,37 C0,37 0,37 0,37 L0,0                           C0,0 0,0 0,0 Z" class="po-mind-topic-shape-fill" transform="matrix(1,0,0,1,2.5,3.5)" fill="rgba(0, 0, 0, 0.1)" stroke-width="4" stroke="rgba(0, 0, 0, 0.1)"></path><path d="M0,0 L121.5,0 C121.5,0 121.5,0 121.5,0                           L121.5,37 C121.5,37 121.5,37 121.5,37                           L0,37 C0,37 0,37 0,37 L0,0                           C0,0 0,0 0,0 Z" class="po-mind-topic-shape-fill" transform="matrix(1,0,0,1,1.5,1.5)" fill="#ffffff" stroke-width="0"></path><path d="M0,0 L120,0 L120,35.5 L0,35.5 L0,0 Z M7,35.5 L7,42.5 L127,42.5 L127,7 L120,7" class="po-mind-topic-shape" transform="matrix(1,0,0,1,1.5,1.5)" fill="none" stroke-width="3" stroke="#3b1084"></path><g transform="matrix(1,0,0,1,7.5,8.5)"><g data-width="107.5" data-height="21" data-offsetx="0" transform="matrix(1,0,0,1,0,0)"><g><text text-anchor="start" align="top" anchor="start" font-size="15px" font-weight="bold" fill="rgb(59, 16, 132)" style="font-family: 思源宋体;font-size: 15px;font-weight: bold;font-style: normal;line-height: 140%;max-width: 900px;overflow-wrap: break-word;word-break: break-word;text-size-adjust: 100%;color: rgb(59, 16, 132);"><tspan x="0" y="15"><tspan dx="0">函数对象的创建</tspan></tspan></text></g></g></g></g><g class="po-mind-topic" id="topic-f7336312-488c-47cc-aeef-b81846557d83" transform="matrix(1,0,0,1,590.3,-313)" opacity="1"><path d="M0,0 L197.3,0 C197.3,0 197.3,0 197.3,0                           L197.3,35 C197.3,35 197.3,35 197.3,35                           L0,35 C0,35 0,35 0,35 L0,0                           C0,0 0,0 0,0 Z" class="po-mind-topic-shape-fill" transform="matrix(1,0,0,1,2.5,3.5)" fill="rgba(0, 0, 0, 0.1)" stroke-width="4" stroke="rgba(0, 0, 0, 0.1)"></path><path d="M0,0 L197.3,0 C197.3,0 197.3,0 197.3,0                           L197.3,35 C197.3,35 197.3,35 197.3,35                           L0,35 C0,35 0,35 0,35 L0,0                           C0,0 0,0 0,0 Z" class="po-mind-topic-shape-fill" transform="matrix(1,0,0,1,1.5,1.5)" fill="#ffffff" stroke-width="0"></path><path d="M0,0 L195.8,0 L195.8,33.5 L0,33.5 L0,0 Z M7,33.5 L7,40.5 L202.8,40.5 L202.8,7 L195.8,7" class="po-mind-topic-shape" transform="matrix(1,0,0,1,1.5,1.5)" fill="none" stroke-width="3" stroke="#3b1084"></path><g transform="matrix(1,0,0,1,7.5,8.5)"><g data-width="183.3" data-height="19" data-offsetx="0" transform="matrix(1,0,0,1,0,0)"><g><text text-anchor="start" align="top" anchor="start" font-size="13px" font-weight="bold" fill="rgb(59, 16, 132)" style="font-family: 思源宋体;font-size: 13px;font-weight: bold;font-style: normal;line-height: 140%;max-width: 897px;overflow-wrap: break-word;word-break: break-word;text-size-adjust: 100%;color: rgb(59, 16, 132);"><tspan x="0" y="13"><tspan dx="0">def 函数名([形参列表]): 函数体</tspan></tspan></text></g></g></g></g><g class="po-mind-topic" id="topic-00ab59d8-fa29-49c6-a662-21156a34d05e" transform="matrix(1,0,0,1,436.8,-263)" opacity="1"><path d="M0,0 L91.5,0 C91.5,0 91.5,0 91.5,0                           L91.5,37 C91.5,37 91.5,37 91.5,37                           L0,37 C0,37 0,37 0,37 L0,0                           C0,0 0,0 0,0 Z" class="po-mind-topic-shape-fill" transform="matrix(1,0,0,1,2.5,3.5)" fill="rgba(0, 0, 0, 0.1)" stroke-width="4" stroke="rgba(0, 0, 0, 0.1)"></path><path d="M0,0 L91.5,0 C91.5,0 91.5,0 91.5,0                           L91.5,37 C91.5,37 91.5,37 91.5,37                           L0,37 C0,37 0,37 0,37 L0,0                           C0,0 0,0 0,0 Z" class="po-mind-topic-shape-fill" transform="matrix(1,0,0,1,1.5,1.5)" fill="#ffffff" stroke-width="0"></path><path d="M0,0 L90,0 L90,35.5 L0,35.5 L0,0 Z M7,35.5 L7,42.5 L97,42.5 L97,7 L90,7" class="po-mind-topic-shape" transform="matrix(1,0,0,1,1.5,1.5)" fill="none" stroke-width="3" stroke="#3b1084"></path><g transform="matrix(1,0,0,1,7.5,8.5)"><g data-width="77.5" data-height="21" data-offsetx="0" transform="matrix(1,0,0,1,0,0)"><g><text text-anchor="start" align="top" anchor="start" font-size="15px" font-weight="bold" fill="rgb(59, 16, 132)" style="font-family: 思源宋体;font-size: 15px;font-weight: bold;font-style: normal;line-height: 140%;max-width: 900px;overflow-wrap: break-word;word-break: break-word;text-size-adjust: 100%;color: rgb(59, 16, 132);"><tspan x="0" y="15"><tspan dx="0">函数的调用</tspan></tspan></text></g></g></g></g><g class="po-mind-topic" id="topic-7339d96d-582b-4ee9-a492-e9a84081dcac" transform="matrix(1,0,0,1,560.3,-262)" opacity="1"><path d="M0,0 L126.30000000000001,0 C126.30000000000001,0 126.30000000000001,0 126.30000000000001,0                           L126.30000000000001,35 C126.30000000000001,35 126.30000000000001,35 126.30000000000001,35                           L0,35 C0,35 0,35 0,35 L0,0                           C0,0 0,0 0,0 Z" class="po-mind-topic-shape-fill" transform="matrix(1,0,0,1,2.5,3.5)" fill="rgba(0, 0, 0, 0.1)" stroke-width="4" stroke="rgba(0, 0, 0, 0.1)"></path><path d="M0,0 L126.30000000000001,0 C126.30000000000001,0 126.30000000000001,0 126.30000000000001,0                           L126.30000000000001,35 C126.30000000000001,35 126.30000000000001,35 126.30000000000001,35                           L0,35 C0,35 0,35 0,35 L0,0                           C0,0 0,0 0,0 Z" class="po-mind-topic-shape-fill" transform="matrix(1,0,0,1,1.5,1.5)" fill="#ffffff" stroke-width="0"></path><path d="M0,0 L124.80000000000001,0 L124.80000000000001,33.5 L0,33.5 L0,0 Z M7,33.5 L7,40.5 L131.8,40.5 L131.8,7 L124.80000000000001,7" class="po-mind-topic-shape" transform="matrix(1,0,0,1,1.5,1.5)" fill="none" stroke-width="3" stroke="#3b1084"></path><g transform="matrix(1,0,0,1,7.5,8.5)"><g data-width="112.3" data-height="19" data-offsetx="0" transform="matrix(1,0,0,1,0,0)"><g><text text-anchor="start" align="top" anchor="start" font-size="13px" font-weight="bold" fill="rgb(59, 16, 132)" style="font-family: 思源宋体;font-size: 13px;font-weight: bold;font-style: normal;line-height: 140%;max-width: 897px;overflow-wrap: break-word;word-break: break-word;text-size-adjust: 100%;color: rgb(59, 16, 132);"><tspan x="0" y="13"><tspan dx="0">函数名([实参列表])</tspan></tspan></text></g></g></g></g><g class="po-mind-topic" id="topic-00b4c514-e95f-4158-87a5-b55cc5f7d086" transform="matrix(1,0,0,1,436.8,-212)" opacity="1"><path d="M0,0 L106.5,0 C106.5,0 106.5,0 106.5,0                           L106.5,37 C106.5,37 106.5,37 106.5,37                           L0,37 C0,37 0,37 0,37 L0,0                           C0,0 0,0 0,0 Z" class="po-mind-topic-shape-fill" transform="matrix(1,0,0,1,2.5,3.5)" fill="rgba(0, 0, 0, 0.1)" stroke-width="4" stroke="rgba(0, 0, 0, 0.1)"></path><path d="M0,0 L106.5,0 C106.5,0 106.5,0 106.5,0                           L106.5,37 C106.5,37 106.5,37 106.5,37                           L0,37 C0,37 0,37 0,37 L0,0                           C0,0 0,0 0,0 Z" class="po-mind-topic-shape-fill" transform="matrix(1,0,0,1,1.5,1.5)" fill="#ffffff" stroke-width="0"></path><path d="M0,0 L105,0 L105,35.5 L0,35.5 L0,0 Z M7,35.5 L7,42.5 L112,42.5 L112,7 L105,7" class="po-mind-topic-shape" transform="matrix(1,0,0,1,1.5,1.5)" fill="none" stroke-width="3" stroke="#3b1084"></path><g transform="matrix(1,0,0,1,7.5,8.5)"><g data-width="92.5" data-height="21" data-offsetx="0" transform="matrix(1,0,0,1,0,0)"><g><text text-anchor="start" align="top" anchor="start" font-size="15px" font-weight="bold" fill="rgb(59, 16, 132)" style="font-family: 思源宋体;font-size: 15px;font-weight: bold;font-style: normal;line-height: 140%;max-width: 900px;overflow-wrap: break-word;word-break: break-word;text-size-adjust: 100%;color: rgb(59, 16, 132);"><tspan x="0" y="15"><tspan dx="0">函数的副作用</tspan></tspan></text></g></g></g></g><g class="po-mind-topic" id="topic-7ad657d4-ccf7-42af-90fe-2e3f5b0f1f99" transform="matrix(1,0,0,1,436.8,-161)" opacity="1"><path d="M0,0 L194.5,0 C194.5,0 194.5,0 194.5,0                           L194.5,37 C194.5,37 194.5,37 194.5,37                           L0,37 C0,37 0,37 0,37 L0,0                           C0,0 0,0 0,0 Z" class="po-mind-topic-shape-fill" transform="matrix(1,0,0,1,2.5,3.5)" fill="rgba(0, 0, 0, 0.1)" stroke-width="4" stroke="rgba(0, 0, 0, 0.1)"></path><path d="M0,0 L194.5,0 C194.5,0 194.5,0 194.5,0                           L194.5,37 C194.5,37 194.5,37 194.5,37                           L0,37 C0,37 0,37 0,37 L0,0                           C0,0 0,0 0,0 Z" class="po-mind-topic-shape-fill" transform="matrix(1,0,0,1,1.5,1.5)" fill="#ffffff" stroke-width="0"></path><path d="M0,0 L193,0 L193,35.5 L0,35.5 L0,0 Z M7,35.5 L7,42.5 L200,42.5 L200,7 L193,7" class="po-mind-topic-shape" transform="matrix(1,0,0,1,1.5,1.5)" fill="none" stroke-width="3" stroke="#3b1084"></path><g transform="matrix(1,0,0,1,7.5,8.5)"><g data-width="180.5" data-height="21" data-offsetx="0" transform="matrix(1,0,0,1,0,0)"><g><text text-anchor="start" align="top" anchor="start" font-size="15px" font-weight="bold" fill="rgb(59, 16, 132)" style="font-family: 思源宋体;font-size: 15px;font-weight: bold;font-style: normal;line-height: 140%;max-width: 900px;overflow-wrap: break-word;word-break: break-word;text-size-adjust: 100%;color: rgb(59, 16, 132);"><tspan x="0" y="15"><tspan dx="0">lambda表达式和匿名函数</tspan></tspan></text></g></g></g></g><g class="po-mind-topic" id="topic-c4629065-8a30-4e2d-94f9-921a93cc9564" transform="matrix(1,0,0,1,663.3,-160)" opacity="1"><path d="M0,0 L250.3,0 C250.3,0 250.3,0 250.3,0                           L250.3,35 C250.3,35 250.3,35 250.3,35                           L0,35 C0,35 0,35 0,35 L0,0                           C0,0 0,0 0,0 Z" class="po-mind-topic-shape-fill" transform="matrix(1,0,0,1,2.5,3.5)" fill="rgba(0, 0, 0, 0.1)" stroke-width="4" stroke="rgba(0, 0, 0, 0.1)"></path><path d="M0,0 L250.3,0 C250.3,0 250.3,0 250.3,0                           L250.3,35 C250.3,35 250.3,35 250.3,35                           L0,35 C0,35 0,35 0,35 L0,0                           C0,0 0,0 0,0 Z" class="po-mind-topic-shape-fill" transform="matrix(1,0,0,1,1.5,1.5)" fill="#ffffff" stroke-width="0"></path><path d="M0,0 L248.8,0 L248.8,33.5 L0,33.5 L0,0 Z M7,33.5 L7,40.5 L255.8,40.5 L255.8,7 L248.8,7" class="po-mind-topic-shape" transform="matrix(1,0,0,1,1.5,1.5)" fill="none" stroke-width="3" stroke="#3b1084"></path><g transform="matrix(1,0,0,1,7.5,8.5)"><g data-width="236.3" data-height="19" data-offsetx="0" transform="matrix(1,0,0,1,0,0)"><g><text text-anchor="start" align="top" anchor="start" font-size="13px" font-weight="bold" fill="rgb(59, 16, 132)" style="font-family: 思源宋体;font-size: 13px;font-weight: bold;font-style: normal;line-height: 140%;max-width: 897px;overflow-wrap: break-word;word-break: break-word;text-size-adjust: 100%;color: rgb(59, 16, 132);"><tspan x="0" y="13"><tspan dx="0">lambda  arg1 arg2 ····: &lt;expression&gt;</tspan></tspan></text></g></g></g></g></g><g class="po-mind-associative-line-label-container"></g></g><g id="wpsexport-watermark"><defs><pattern patternUnits="userSpaceOnUse" id="wpspattern_mark_0" width="300" height="300"><text x="150" y="100" fill="#0000004d" font-size="18" transform="rotate(-45, 150, 150)" style="dominant-baseline: middle; text-anchor: middle;"></text></pattern></defs><rect fill="url(#wpspattern_mark_0)" x="0" y="0" width="751.594" height="245.5" id="rect_mark_0" pointer-events="none"></rect></g><style>
    .connection-svg{
        outline: none;
        box-shadow: none;
        -webkit-tap-highlight-color: transparent;
    }
    .connection-line {
        cursor: pointer;
    }

    .connection-line-bg {
        cursor: pointer;
    }

    .node-add-btn {
        cursor: pointer;
    }

    .po-richtext-node-wrap ol,
    .area_box ol,
    .po-measureCustomNode ol {
        padding-left: 20px;
        margin: 0;
    }
    .po-richtext-node-wrap ol li,
    .area_box ol li,
    .po-measureCustomNode ol li {
        list-style: decimal;
    }
    .po-richtext-node-wrap ul,
    .area_box ul,
    .po-measureCustomNode ul {
        padding-left: calc(15px + 0.5em);
        list-style: none;
        margin: 0;
    }
    .po-richtext-node-wrap ul li,
    .area_box ul li,
    .po-measureCustomNode ul li {
        list-style: disc;
    }
    .po-richtext-node-wrap p,
    .po-richtext-node-wrap h1,
    .po-richtext-node-wrap h2,
    .po-richtext-node-wrap h3,
    .po-richtext-node-wrap h4,
    .po-richtext-node-wrap h5,
    .po-richtext-node-wrap h6,
    .area_box p,
    .area_box h1,
    .area_box h2,
    .area_box h3,
    .area_box h4,
    .area_box h5,
    .area_box h6,
    .po-measureCustomNode p,
    .po-measureCustomNode h1,
    .po-measureCustomNode h2,
    .po-measureCustomNode h3,
    .po-measureCustomNode h4,
    .po-measureCustomNode h5,
    .po-measureCustomNode h6 {
        margin: 0;
    }
    .po-safari-fixed {
        position: fixed;
    }
</style></svg>