<?xml version="1.0" standalone="no"?><?xml-stylesheet type="text/css" href="https://wps.processon.com/themes/default/wps/mind/icons/icons.css" ?><!DOCTYPE svg PUBLIC "-//W3C//DTD SVG 1.1//EN" "http://www.w3.org/Graphics/SVG/1.1/DTD/svg11.dtd"><svg xmlns="http://www.w3.org/2000/svg" xmlns:xlink="http://www.w3.org/1999/xlink" version="1.1" width="617.7999877929688" height="703.5" style="outline: none; background: none; top: 0px; left: 0px; display: block; z-index: 1; font-size: 12px;" id="mind-svg-con"><defs></defs><g id="svgbackgroundid"><defs></defs><rect width="617.7999877929688" height="703.5" fill="#ffffff"></rect></g><g id="export-watermark"><defs><pattern patternUnits="userSpaceOnUse" id="pattern_mark_0" width="300" height="300"><text x="150" y="100" fill="rgb(235,235,235)" font-size="18" transform="rotate(-45, 150, 150)" style="dominant-baseline: middle; text-anchor: middle;"></text></pattern></defs><rect fill="url(#pattern_mark_0)" x="0" y="0" width="617.797" height="703.5" id="rect_mark_0" pointer-events="none"></rect></g><g class="po-mind-container" transform="matrix(1,0,0,1,181,351.5)"><g class="po-mind-line-container"><g from="root" to="a5bd2a36-e073-4491-b07e-c67d859bb297" opacity="1"><path d="M0 0L94 0L94 -293C94 -293 94 -301 102 -301L222 -301" stroke-linecap="butt" stroke-width="3" stroke="#3b1084" fill="none"></path></g><g from="root" to="a7db89e0-6e33-479d-b5bb-b53e38bfd9aa" opacity="1"><path d="M0 0L94 0L94 -207C94 -207 94 -215 102 -215L222 -215" stroke-linecap="butt" stroke-width="3" stroke="#3b1084" fill="none"></path></g><g from="root" to="d2afc498-1370-4805-b385-0e500cbe7d0d"><path d="M0 0L94 0L94 -121C94 -121 94 -129 102 -129L222 -129" stroke-linecap="butt" stroke-width="3" stroke="#3b1084" fill="none"></path></g><g from="root" to="86ca8428-c6e5-4d65-9a89-b909d5d31820"><path d="M0 0L94 0L94 -35C94 -35 94 -43 102 -43L222 -43" stroke-linecap="butt" stroke-width="3" stroke="#3b1084" fill="none"></path></g><g from="root" to="7b2ff24c-2e35-429a-81a0-c4c8e0cad669"><path d="M0 0L94 0L94 35C94 35 94 43 102 43L222 43" stroke-linecap="butt" stroke-width="3" stroke="#3b1084" fill="none"></path></g><g from="root" to="ebd23d94-199a-486a-8a46-703233715c0e"><path d="M0 0L94 0L94 121C94 121 94 129 102 129L222 129" stroke-linecap="butt" stroke-width="3" stroke="#3b1084" fill="none"></path></g><g from="root" to="37557555-3592-4141-ae78-fab4d023ddd0"><path d="M0 0L94 0L94 207C94 207 94 215 102 215L222 215" stroke-linecap="butt" stroke-width="3" stroke="#3b1084" fill="none"></path></g><g from="root" to="4c1cf188-c9f1-4177-916f-995e1d269269"><path d="M0 0L94 0L94 293C94 293 94 301 102 301L222 301" stroke-linecap="butt" stroke-width="3" stroke="#3b1084" fill="none"></path></g></g><g class="po-mind-generalize-container"></g><g class="po-mind-associative-line-container"></g><g class="po-mind-node-container"><g class="po-mind-topic" id="topic-root" transform="matrix(1,0,0,1,-158,-43)" opacity="1"><path d="M0,0 L306,0 C306,0 306,0 306,0                           L306,76 C306,76 306,76 306,76                           L0,76 C0,76 0,76 0,76 L0,0                           C0,0 0,0 0,0 Z" class="po-mind-topic-shape-fill" transform="matrix(1,0,0,1,2,2)" fill="#ffffff"></path><path d="M0,0 L304,0 L304,74 L0,74 L0,0 Z M8,74 L8,82 L312,82 L312,8 L304,8" class="po-mind-topic-shape" transform="matrix(1,0,0,1,2,2)" fill="none" stroke-width="4" stroke="#3b1084"></path><g transform="matrix(1,0,0,1,32,18)"><g data-width="244" data-height="42" data-offsetx="0" transform="matrix(1,0,0,1,0,0)"><g><text text-anchor="start" align="top" anchor="start" font-size="30px" font-weight="bold" fill="rgb(59, 16, 132)" style="font-family: 思源宋体;font-size: 30px;font-weight: bold;font-style: normal;line-height: 140%;max-width: 900px;overflow-wrap: break-word;word-break: break-word;text-size-adjust: 100%;color: rgb(59, 16, 132);"><tspan x="0" y="30"><tspan dx="0">函数和函数式编程</tspan></tspan></text></g></g></g></g><g class="po-mind-topic" id="topic-a5bd2a36-e073-4491-b07e-c67d859bb297" transform="matrix(1,0,0,1,222,-328)" opacity="1"><path d="M0,0 L110.8,0 C110.8,0 110.8,0 110.8,0                           L110.8,46 C110.8,46 110.8,46 110.8,46                           L0,46 C0,46 0,46 0,46 L0,0                           C0,0 0,0 0,0 Z" class="po-mind-topic-shape-fill" transform="matrix(1,0,0,1,2.5,3.5)" fill="rgba(0, 0, 0, 0.1)" stroke-width="4" stroke="rgba(0, 0, 0, 0.1)"></path><path d="M0,0 L110.8,0 C110.8,0 110.8,0 110.8,0                           L110.8,46 C110.8,46 110.8,46 110.8,46                           L0,46 C0,46 0,46 0,46 L0,0                           C0,0 0,0 0,0 Z" class="po-mind-topic-shape-fill" transform="matrix(1,0,0,1,1.5,1.5)" fill="#ffffff" stroke-width="0"></path><path d="M0,0 L109.3,0 L109.3,44.5 L0,44.5 L0,0 Z M7,44.5 L7,51.5 L116.3,51.5 L116.3,7 L109.3,7" class="po-mind-topic-shape" transform="matrix(1,0,0,1,1.5,1.5)" fill="none" stroke-width="3" stroke="#3b1084"></path><g transform="matrix(1,0,0,1,18.5,10.5)"><g data-width="74.8" data-height="26" data-offsetx="0" transform="matrix(1,0,0,1,0,0)"><g><text text-anchor="start" align="top" anchor="start" font-size="18px" font-weight="bold" fill="rgb(59, 16, 132)" style="font-family: 思源宋体;font-size: 18px;font-weight: bold;font-style: normal;line-height: 140%;max-width: 900px;overflow-wrap: break-word;word-break: break-word;text-size-adjust: 100%;color: rgb(59, 16, 132);"><tspan x="0" y="18"><tspan dx="0">函数概述</tspan></tspan></text></g></g></g></g><g class="po-mind-topic" id="topic-a7db89e0-6e33-479d-b5bb-b53e38bfd9aa" transform="matrix(1,0,0,1,222,-242)" opacity="1"><path d="M0,0 L182.8,0 C182.8,0 182.8,0 182.8,0                           L182.8,46 C182.8,46 182.8,46 182.8,46                           L0,46 C0,46 0,46 0,46 L0,0                           C0,0 0,0 0,0 Z" class="po-mind-topic-shape-fill" transform="matrix(1,0,0,1,2.5,3.5)" fill="rgba(0, 0, 0, 0.1)" stroke-width="4" stroke="rgba(0, 0, 0, 0.1)"></path><path d="M0,0 L182.8,0 C182.8,0 182.8,0 182.8,0                           L182.8,46 C182.8,46 182.8,46 182.8,46                           L0,46 C0,46 0,46 0,46 L0,0                           C0,0 0,0 0,0 Z" class="po-mind-topic-shape-fill" transform="matrix(1,0,0,1,1.5,1.5)" fill="#ffffff" stroke-width="0"></path><path d="M0,0 L181.3,0 L181.3,44.5 L0,44.5 L0,0 Z M7,44.5 L7,51.5 L188.3,51.5 L188.3,7 L181.3,7" class="po-mind-topic-shape" transform="matrix(1,0,0,1,1.5,1.5)" fill="none" stroke-width="3" stroke="#3b1084"></path><g transform="matrix(1,0,0,1,18.5,10.5)"><g data-width="146.8" data-height="26" data-offsetx="0" transform="matrix(1,0,0,1,0,0)"><g><text text-anchor="start" align="top" anchor="start" font-size="18px" font-weight="bold" fill="rgb(59, 16, 132)" style="font-family: 思源宋体;font-size: 18px;font-weight: bold;font-style: normal;line-height: 140%;max-width: 900px;overflow-wrap: break-word;word-break: break-word;text-size-adjust: 100%;color: rgb(59, 16, 132);"><tspan x="0" y="18"><tspan dx="0">函数的声明和调用</tspan></tspan></text></g></g></g></g><g class="po-mind-topic" id="topic-d2afc498-1370-4805-b385-0e500cbe7d0d" transform="matrix(1,0,0,1,222,-156)" opacity="1"><path d="M0,0 L128.8,0 C128.8,0 128.8,0 128.8,0                           L128.8,46 C128.8,46 128.8,46 128.8,46                           L0,46 C0,46 0,46 0,46 L0,0                           C0,0 0,0 0,0 Z" class="po-mind-topic-shape-fill" transform="matrix(1,0,0,1,2.5,3.5)" fill="rgba(0, 0, 0, 0.1)" stroke-width="4" stroke="rgba(0, 0, 0, 0.1)"></path><path d="M0,0 L128.8,0 C128.8,0 128.8,0 128.8,0                           L128.8,46 C128.8,46 128.8,46 128.8,46                           L0,46 C0,46 0,46 0,46 L0,0                           C0,0 0,0 0,0 Z" class="po-mind-topic-shape-fill" transform="matrix(1,0,0,1,1.5,1.5)" fill="#ffffff" stroke-width="0"></path><path d="M0,0 L127.30000000000001,0 L127.30000000000001,44.5 L0,44.5 L0,0 Z M7,44.5 L7,51.5 L134.3,51.5 L134.3,7 L127.30000000000001,7" class="po-mind-topic-shape" transform="matrix(1,0,0,1,1.5,1.5)" fill="none" stroke-width="3" stroke="#3b1084"></path><g transform="matrix(1,0,0,1,18.5,10.5)"><g data-width="92.8" data-height="26" data-offsetx="0" transform="matrix(1,0,0,1,0,0)"><g><text text-anchor="start" align="top" anchor="start" font-size="18px" font-weight="bold" fill="rgb(59, 16, 132)" style="font-family: 思源宋体;font-size: 18px;font-weight: bold;font-style: normal;line-height: 140%;max-width: 900px;overflow-wrap: break-word;word-break: break-word;text-size-adjust: 100%;color: rgb(59, 16, 132);"><tspan x="0" y="18"><tspan dx="0">参数的传递</tspan></tspan></text></g></g></g></g><g class="po-mind-topic" id="topic-86ca8428-c6e5-4d65-9a89-b909d5d31820" transform="matrix(1,0,0,1,222,-70)" opacity="1"><path d="M0,0 L146.8,0 C146.8,0 146.8,0 146.8,0                           L146.8,46 C146.8,46 146.8,46 146.8,46                           L0,46 C0,46 0,46 0,46 L0,0                           C0,0 0,0 0,0 Z" class="po-mind-topic-shape-fill" transform="matrix(1,0,0,1,2.5,3.5)" fill="rgba(0, 0, 0, 0.1)" stroke-width="4" stroke="rgba(0, 0, 0, 0.1)"></path><path d="M0,0 L146.8,0 C146.8,0 146.8,0 146.8,0                           L146.8,46 C146.8,46 146.8,46 146.8,46                           L0,46 C0,46 0,46 0,46 L0,0                           C0,0 0,0 0,0 Z" class="po-mind-topic-shape-fill" transform="matrix(1,0,0,1,1.5,1.5)" fill="#ffffff" stroke-width="0"></path><path d="M0,0 L145.3,0 L145.3,44.5 L0,44.5 L0,0 Z M7,44.5 L7,51.5 L152.3,51.5 L152.3,7 L145.3,7" class="po-mind-topic-shape" transform="matrix(1,0,0,1,1.5,1.5)" fill="none" stroke-width="3" stroke="#3b1084"></path><g transform="matrix(1,0,0,1,18.5,10.5)"><g data-width="110.8" data-height="26" data-offsetx="0" transform="matrix(1,0,0,1,0,0)"><g><text text-anchor="start" align="top" anchor="start" font-size="18px" font-weight="bold" fill="rgb(59, 16, 132)" style="font-family: 思源宋体;font-size: 18px;font-weight: bold;font-style: normal;line-height: 140%;max-width: 900px;overflow-wrap: break-word;word-break: break-word;text-size-adjust: 100%;color: rgb(59, 16, 132);"><tspan x="0" y="18"><tspan dx="0">函数的返回值</tspan></tspan></text></g></g></g></g><g class="po-mind-topic" id="topic-7b2ff24c-2e35-429a-81a0-c4c8e0cad669" transform="matrix(1,0,0,1,222,16)" opacity="1"><path d="M0,0 L146.8,0 C146.8,0 146.8,0 146.8,0                           L146.8,46 C146.8,46 146.8,46 146.8,46                           L0,46 C0,46 0,46 0,46 L0,0                           C0,0 0,0 0,0 Z" class="po-mind-topic-shape-fill" transform="matrix(1,0,0,1,2.5,3.5)" fill="rgba(0, 0, 0, 0.1)" stroke-width="4" stroke="rgba(0, 0, 0, 0.1)"></path><path d="M0,0 L146.8,0 C146.8,0 146.8,0 146.8,0                           L146.8,46 C146.8,46 146.8,46 146.8,46                           L0,46 C0,46 0,46 0,46 L0,0                           C0,0 0,0 0,0 Z" class="po-mind-topic-shape-fill" transform="matrix(1,0,0,1,1.5,1.5)" fill="#ffffff" stroke-width="0"></path><path d="M0,0 L145.3,0 L145.3,44.5 L0,44.5 L0,0 Z M7,44.5 L7,51.5 L152.3,51.5 L152.3,7 L145.3,7" class="po-mind-topic-shape" transform="matrix(1,0,0,1,1.5,1.5)" fill="none" stroke-width="3" stroke="#3b1084"></path><g transform="matrix(1,0,0,1,18.5,10.5)"><g data-width="110.8" data-height="26" data-offsetx="0" transform="matrix(1,0,0,1,0,0)"><g><text text-anchor="start" align="top" anchor="start" font-size="18px" font-weight="bold" fill="rgb(59, 16, 132)" style="font-family: 思源宋体;font-size: 18px;font-weight: bold;font-style: normal;line-height: 140%;max-width: 900px;overflow-wrap: break-word;word-break: break-word;text-size-adjust: 100%;color: rgb(59, 16, 132);"><tspan x="0" y="18"><tspan dx="0">变量的作用域</tspan></tspan></text></g></g></g></g><g class="po-mind-topic" id="topic-ebd23d94-199a-486a-8a46-703233715c0e" transform="matrix(1,0,0,1,222,102)" opacity="1"><path d="M0,0 L110.8,0 C110.8,0 110.8,0 110.8,0                           L110.8,46 C110.8,46 110.8,46 110.8,46                           L0,46 C0,46 0,46 0,46 L0,0                           C0,0 0,0 0,0 Z" class="po-mind-topic-shape-fill" transform="matrix(1,0,0,1,2.5,3.5)" fill="rgba(0, 0, 0, 0.1)" stroke-width="4" stroke="rgba(0, 0, 0, 0.1)"></path><path d="M0,0 L110.8,0 C110.8,0 110.8,0 110.8,0                           L110.8,46 C110.8,46 110.8,46 110.8,46                           L0,46 C0,46 0,46 0,46 L0,0                           C0,0 0,0 0,0 Z" class="po-mind-topic-shape-fill" transform="matrix(1,0,0,1,1.5,1.5)" fill="#ffffff" stroke-width="0"></path><path d="M0,0 L109.3,0 L109.3,44.5 L0,44.5 L0,0 Z M7,44.5 L7,51.5 L116.3,51.5 L116.3,7 L109.3,7" class="po-mind-topic-shape" transform="matrix(1,0,0,1,1.5,1.5)" fill="none" stroke-width="3" stroke="#3b1084"></path><g transform="matrix(1,0,0,1,18.5,10.5)"><g data-width="74.8" data-height="26" data-offsetx="0" transform="matrix(1,0,0,1,0,0)"><g><text text-anchor="start" align="top" anchor="start" font-size="18px" font-weight="bold" fill="rgb(59, 16, 132)" style="font-family: 思源宋体;font-size: 18px;font-weight: bold;font-style: normal;line-height: 140%;max-width: 900px;overflow-wrap: break-word;word-break: break-word;text-size-adjust: 100%;color: rgb(59, 16, 132);"><tspan x="0" y="18"><tspan dx="0">递归函数</tspan></tspan></text></g></g></g></g><g class="po-mind-topic" id="topic-37557555-3592-4141-ae78-fab4d023ddd0" transform="matrix(1,0,0,1,222,188)" opacity="1"><path d="M0,0 L164.8,0 C164.8,0 164.8,0 164.8,0                           L164.8,46 C164.8,46 164.8,46 164.8,46                           L0,46 C0,46 0,46 0,46 L0,0                           C0,0 0,0 0,0 Z" class="po-mind-topic-shape-fill" transform="matrix(1,0,0,1,2.5,3.5)" fill="rgba(0, 0, 0, 0.1)" stroke-width="4" stroke="rgba(0, 0, 0, 0.1)"></path><path d="M0,0 L164.8,0 C164.8,0 164.8,0 164.8,0                           L164.8,46 C164.8,46 164.8,46 164.8,46                           L0,46 C0,46 0,46 0,46 L0,0                           C0,0 0,0 0,0 Z" class="po-mind-topic-shape-fill" transform="matrix(1,0,0,1,1.5,1.5)" fill="#ffffff" stroke-width="0"></path><path d="M0,0 L163.3,0 L163.3,44.5 L0,44.5 L0,0 Z M7,44.5 L7,51.5 L170.3,51.5 L170.3,7 L163.3,7" class="po-mind-topic-shape" transform="matrix(1,0,0,1,1.5,1.5)" fill="none" stroke-width="3" stroke="#3b1084"></path><g transform="matrix(1,0,0,1,18.5,10.5)"><g data-width="128.8" data-height="26" data-offsetx="0" transform="matrix(1,0,0,1,0,0)"><g><text text-anchor="start" align="top" anchor="start" font-size="18px" font-weight="bold" fill="rgb(59, 16, 132)" style="font-family: 思源宋体;font-size: 18px;font-weight: bold;font-style: normal;line-height: 140%;max-width: 900px;overflow-wrap: break-word;word-break: break-word;text-size-adjust: 100%;color: rgb(59, 16, 132);"><tspan x="0" y="18"><tspan dx="0">内置函数的使用</tspan></tspan></text></g></g></g></g><g class="po-mind-topic" id="topic-4c1cf188-c9f1-4177-916f-995e1d269269" transform="matrix(1,0,0,1,222,274)" opacity="1"><path d="M0,0 L128.8,0 C128.8,0 128.8,0 128.8,0                           L128.8,46 C128.8,46 128.8,46 128.8,46                           L0,46 C0,46 0,46 0,46 L0,0                           C0,0 0,0 0,0 Z" class="po-mind-topic-shape-fill" transform="matrix(1,0,0,1,2.5,3.5)" fill="rgba(0, 0, 0, 0.1)" stroke-width="4" stroke="rgba(0, 0, 0, 0.1)"></path><path d="M0,0 L128.8,0 C128.8,0 128.8,0 128.8,0                           L128.8,46 C128.8,46 128.8,46 128.8,46                           L0,46 C0,46 0,46 0,46 L0,0                           C0,0 0,0 0,0 Z" class="po-mind-topic-shape-fill" transform="matrix(1,0,0,1,1.5,1.5)" fill="#ffffff" stroke-width="0"></path><path d="M0,0 L127.30000000000001,0 L127.30000000000001,44.5 L0,44.5 L0,0 Z M7,44.5 L7,51.5 L134.3,51.5 L134.3,7 L127.30000000000001,7" class="po-mind-topic-shape" transform="matrix(1,0,0,1,1.5,1.5)" fill="none" stroke-width="3" stroke="#3b1084"></path><g transform="matrix(1,0,0,1,18.5,10.5)"><g data-width="92.8" data-height="26" data-offsetx="0" transform="matrix(1,0,0,1,0,0)"><g><text text-anchor="start" align="top" anchor="start" font-size="18px" font-weight="bold" fill="rgb(59, 16, 132)" style="font-family: 思源宋体;font-size: 18px;font-weight: bold;font-style: normal;line-height: 140%;max-width: 900px;overflow-wrap: break-word;word-break: break-word;text-size-adjust: 100%;color: rgb(59, 16, 132);"><tspan x="0" y="18"><tspan dx="0">函数式编程</tspan></tspan></text></g></g></g></g></g><g class="po-mind-associative-line-label-container"></g></g><g id="wpsexport-watermark"><defs><pattern patternUnits="userSpaceOnUse" id="wpspattern_mark_0" width="300" height="300"><text x="150" y="100" fill="#0000004d" font-size="18" transform="rotate(-45, 150, 150)" style="dominant-baseline: middle; text-anchor: middle;"></text></pattern></defs><rect fill="url(#wpspattern_mark_0)" x="0" y="0" width="617.797" height="703.5" id="rect_mark_0" pointer-events="none"></rect></g><style>
    .connection-svg{
        outline: none;
        box-shadow: none;
        -webkit-tap-highlight-color: transparent;
    }
    .connection-line {
        cursor: pointer;
    }

    .connection-line-bg {
        cursor: pointer;
    }

    .node-add-btn {
        cursor: pointer;
    }

    .po-richtext-node-wrap ol,
    .area_box ol,
    .po-measureCustomNode ol {
        padding-left: 20px;
        margin: 0;
    }
    .po-richtext-node-wrap ol li,
    .area_box ol li,
    .po-measureCustomNode ol li {
        list-style: decimal;
    }
    .po-richtext-node-wrap ul,
    .area_box ul,
    .po-measureCustomNode ul {
        padding-left: calc(15px + 0.5em);
        list-style: none;
        margin: 0;
    }
    .po-richtext-node-wrap ul li,
    .area_box ul li,
    .po-measureCustomNode ul li {
        list-style: disc;
    }
    .po-richtext-node-wrap p,
    .po-richtext-node-wrap h1,
    .po-richtext-node-wrap h2,
    .po-richtext-node-wrap h3,
    .po-richtext-node-wrap h4,
    .po-richtext-node-wrap h5,
    .po-richtext-node-wrap h6,
    .area_box p,
    .area_box h1,
    .area_box h2,
    .area_box h3,
    .area_box h4,
    .area_box h5,
    .area_box h6,
    .po-measureCustomNode p,
    .po-measureCustomNode h1,
    .po-measureCustomNode h2,
    .po-measureCustomNode h3,
    .po-measureCustomNode h4,
    .po-measureCustomNode h5,
    .po-measureCustomNode h6 {
        margin: 0;
    }
    .po-safari-fixed {
        position: fixed;
    }
</style></svg>