<?xml version="1.0" standalone="no"?><?xml-stylesheet type="text/css" href="https://wps.processon.com/themes/default/wps/mind/icons/icons.css" ?><!DOCTYPE svg PUBLIC "-//W3C//DTD SVG 1.1//EN" "http://www.w3.org/Graphics/SVG/1.1/DTD/svg11.dtd"><svg xmlns="http://www.w3.org/2000/svg" xmlns:xlink="http://www.w3.org/1999/xlink" version="1.1" width="420.29998779296875" height="347.5" style="outline: none; background: none; top: 0px; left: 0px; display: block; z-index: 1; font-size: 12px;" id="mind-svg-con"><defs></defs><g id="svgbackgroundid"><defs transform="matrix(0.30791207896920786,0,0,0.1849880223582646,0,0)"></defs><rect width="1365" height="1878.5" fill="#ffffff" transform="matrix(0.30791207896920786,0,0,0.1849880223582646,0,0)"></rect></g><g id="export-watermark"><defs><pattern patternUnits="userSpaceOnUse" id="pattern_mark_0" width="300" height="300"><text x="150" y="100" fill="rgb(235,235,235)" font-size="18" transform="rotate(-45, 150, 150)" style="dominant-baseline: middle; text-anchor: middle;"></text></pattern></defs><rect fill="url(#pattern_mark_0)" x="0" y="0" width="420.297" height="347.5" id="rect_mark_0" pointer-events="none"></rect></g><g class="po-mind-container" transform="matrix(1,0,0,1,-194,-334)"><g class="po-mind-line-container" style=""><g from="7b2ff24c-2e35-429a-81a0-c4c8e0cad669" to="67795e18-12f9-4957-a954-54bc7436aa95"><path d="M376.8 507.5L388.8 507.5L388.8 386C388.8 386 388.8 380 394.8 380L400.8 380" stroke-linecap="butt" stroke-width="3" stroke="#3b1084" fill="none"></path></g><g from="7b2ff24c-2e35-429a-81a0-c4c8e0cad669" to="b14663d5-4214-43a7-9d15-1fc0bb1e1bbb"><path d="M376.8 507.5L388.8 507.5L388.8 437C388.8 437 388.8 431 394.8 431L400.8 431" stroke-linecap="butt" stroke-width="3" stroke="#3b1084" fill="none"></path></g><g from="7b2ff24c-2e35-429a-81a0-c4c8e0cad669" to="9994003b-40a8-4cc3-a470-3f13a0f53ed6"><path d="M376.8 507.5L388.8 507.5L388.8 488C388.8 488 388.8 482 394.8 482L400.8 482" stroke-linecap="butt" stroke-width="3" stroke="#3b1084" fill="none"></path></g><g from="7b2ff24c-2e35-429a-81a0-c4c8e0cad669" to="b5b097cc-fdfd-4d53-9c3c-ddfccbf61742"><path d="M376.8 507.5L388.8 507.5L388.8 527C388.8 527 388.8 533 394.8 533L400.8 533" stroke-linecap="butt" stroke-width="3" stroke="#3b1084" fill="none"></path></g><g from="7b2ff24c-2e35-429a-81a0-c4c8e0cad669" to="b75b3b8c-f3de-405b-8603-54c688bd7a5b"><path d="M376.8 507.5L388.8 507.5L388.8 578C388.8 578 388.8 584 394.8 584L400.8 584" stroke-linecap="butt" stroke-width="3" stroke="#3b1084" fill="none"></path></g><g from="7b2ff24c-2e35-429a-81a0-c4c8e0cad669" to="bd3e40b7-ee69-4519-8531-b5f49f70df8f"><path d="M376.8 507.5L388.8 507.5L388.8 629C388.8 629 388.8 635 394.8 635L400.8 635" stroke-linecap="butt" stroke-width="3" stroke="#3b1084" fill="none"></path></g></g><g class="po-mind-generalize-container"></g><g class="po-mind-associative-line-container"></g><g class="po-mind-node-container"><g class="po-mind-topic" id="topic-7b2ff24c-2e35-429a-81a0-c4c8e0cad669" transform="matrix(1,0,0,1,222,480.5)" opacity="1"><path d="M0,0 L146.8,0 C146.8,0 146.8,0 146.8,0                           L146.8,46 C146.8,46 146.8,46 146.8,46                           L0,46 C0,46 0,46 0,46 L0,0                           C0,0 0,0 0,0 Z" class="po-mind-topic-shape-fill" transform="matrix(1,0,0,1,2.5,3.5)" fill="rgba(0, 0, 0, 0.1)" stroke-width="4" stroke="rgba(0, 0, 0, 0.1)"></path><path d="M0,0 L146.8,0 C146.8,0 146.8,0 146.8,0                           L146.8,46 C146.8,46 146.8,46 146.8,46                           L0,46 C0,46 0,46 0,46 L0,0                           C0,0 0,0 0,0 Z" class="po-mind-topic-shape-fill" transform="matrix(1,0,0,1,1.5,1.5)" fill="#ffffff" stroke-width="0"></path><path d="M0,0 L145.3,0 L145.3,44.5 L0,44.5 L0,0 Z M7,44.5 L7,51.5 L152.3,51.5 L152.3,7 L145.3,7" class="po-mind-topic-shape" transform="matrix(1,0,0,1,1.5,1.5)" fill="none" stroke-width="3" stroke="#3b1084"></path><g transform="matrix(1,0,0,1,18.5,10.5)"><g data-width="110.8" data-height="26" data-offsetx="0" transform="matrix(1,0,0,1,0,0)"><g><text text-anchor="start" align="top" anchor="start" font-size="18px" font-weight="bold" fill="rgb(59, 16, 132)" style="font-family: 思源宋体;font-size: 18px;font-weight: bold;font-style: normal;line-height: 140%;max-width: 900px;overflow-wrap: break-word;word-break: break-word;text-size-adjust: 100%;color: rgb(59, 16, 132);"><tspan x="0" y="18"><tspan dx="0">变量的作用域</tspan></tspan></text></g></g></g><g><rect width="4" height="54" x="-3" y="0" resize="1" fill="none" style="cursor: ew-resize;"></rect><rect width="4" height="54" x="155.8" y="0" resize="2" fill="none" style="cursor: ew-resize;"></rect></g></g><g class="po-mind-topic" id="topic-67795e18-12f9-4957-a954-54bc7436aa95" transform="matrix(1,0,0,1,400.8,357.5)" opacity="1"><path d="M0,0 L76.5,0 C76.5,0 76.5,0 76.5,0                           L76.5,37 C76.5,37 76.5,37 76.5,37                           L0,37 C0,37 0,37 0,37 L0,0                           C0,0 0,0 0,0 Z" class="po-mind-topic-shape-fill" transform="matrix(1,0,0,1,2.5,3.5)" fill="rgba(0, 0, 0, 0.1)" stroke-width="4" stroke="rgba(0, 0, 0, 0.1)"></path><path d="M0,0 L76.5,0 C76.5,0 76.5,0 76.5,0                           L76.5,37 C76.5,37 76.5,37 76.5,37                           L0,37 C0,37 0,37 0,37 L0,0                           C0,0 0,0 0,0 Z" class="po-mind-topic-shape-fill" transform="matrix(1,0,0,1,1.5,1.5)" fill="#ffffff" stroke-width="0"></path><path d="M0,0 L75,0 L75,35.5 L0,35.5 L0,0 Z M7,35.5 L7,42.5 L82,42.5 L82,7 L75,7" class="po-mind-topic-shape" transform="matrix(1,0,0,1,1.5,1.5)" fill="none" stroke-width="3" stroke="#3b1084"></path><g transform="matrix(1,0,0,1,7.5,8.5)"><g data-width="62.5" data-height="21" data-offsetx="0" transform="matrix(1,0,0,1,0,0)"><g><text text-anchor="start" align="top" anchor="start" font-size="15px" font-weight="bold" fill="rgb(59, 16, 132)" style="font-family: 思源宋体;font-size: 15px;font-weight: bold;font-style: normal;line-height: 140%;max-width: 900px;overflow-wrap: break-word;word-break: break-word;text-size-adjust: 100%;color: rgb(59, 16, 132);"><tspan x="0" y="15"><tspan dx="0">全局变量</tspan></tspan></text></g></g></g></g><g class="po-mind-topic" id="topic-b14663d5-4214-43a7-9d15-1fc0bb1e1bbb" transform="matrix(1,0,0,1,400.8,408.5)" opacity="1"><path d="M0,0 L76.5,0 C76.5,0 76.5,0 76.5,0                           L76.5,37 C76.5,37 76.5,37 76.5,37                           L0,37 C0,37 0,37 0,37 L0,0                           C0,0 0,0 0,0 Z" class="po-mind-topic-shape-fill" transform="matrix(1,0,0,1,2.5,3.5)" fill="rgba(0, 0, 0, 0.1)" stroke-width="4" stroke="rgba(0, 0, 0, 0.1)"></path><path d="M0,0 L76.5,0 C76.5,0 76.5,0 76.5,0                           L76.5,37 C76.5,37 76.5,37 76.5,37                           L0,37 C0,37 0,37 0,37 L0,0                           C0,0 0,0 0,0 Z" class="po-mind-topic-shape-fill" transform="matrix(1,0,0,1,1.5,1.5)" fill="#ffffff" stroke-width="0"></path><path d="M0,0 L75,0 L75,35.5 L0,35.5 L0,0 Z M7,35.5 L7,42.5 L82,42.5 L82,7 L75,7" class="po-mind-topic-shape" transform="matrix(1,0,0,1,1.5,1.5)" fill="none" stroke-width="3" stroke="#3b1084"></path><g transform="matrix(1,0,0,1,7.5,8.5)"><g data-width="62.5" data-height="21" data-offsetx="0" transform="matrix(1,0,0,1,0,0)"><g><text text-anchor="start" align="top" anchor="start" font-size="15px" font-weight="bold" fill="rgb(59, 16, 132)" style="font-family: 思源宋体;font-size: 15px;font-weight: bold;font-style: normal;line-height: 140%;max-width: 900px;overflow-wrap: break-word;word-break: break-word;text-size-adjust: 100%;color: rgb(59, 16, 132);"><tspan x="0" y="15"><tspan dx="0">局部变量</tspan></tspan></text></g></g></g></g><g class="po-mind-topic" id="topic-9994003b-40a8-4cc3-a470-3f13a0f53ed6" transform="matrix(1,0,0,1,400.8,459.5)" opacity="1"><path d="M0,0 L124.5,0 C124.5,0 124.5,0 124.5,0                           L124.5,37 C124.5,37 124.5,37 124.5,37                           L0,37 C0,37 0,37 0,37 L0,0                           C0,0 0,0 0,0 Z" class="po-mind-topic-shape-fill" transform="matrix(1,0,0,1,2.5,3.5)" fill="rgba(0, 0, 0, 0.1)" stroke-width="4" stroke="rgba(0, 0, 0, 0.1)"></path><path d="M0,0 L124.5,0 C124.5,0 124.5,0 124.5,0                           L124.5,37 C124.5,37 124.5,37 124.5,37                           L0,37 C0,37 0,37 0,37 L0,0                           C0,0 0,0 0,0 Z" class="po-mind-topic-shape-fill" transform="matrix(1,0,0,1,1.5,1.5)" fill="#ffffff" stroke-width="0"></path><path d="M0,0 L123,0 L123,35.5 L0,35.5 L0,0 Z M7,35.5 L7,42.5 L130,42.5 L130,7 L123,7" class="po-mind-topic-shape" transform="matrix(1,0,0,1,1.5,1.5)" fill="none" stroke-width="3" stroke="#3b1084"></path><g transform="matrix(1,0,0,1,7.5,8.5)"><g data-width="110.5" data-height="21" data-offsetx="0" transform="matrix(1,0,0,1,0,0)"><g><text text-anchor="start" align="top" anchor="start" font-size="15px" font-weight="bold" fill="rgb(59, 16, 132)" style="font-family: 思源宋体;font-size: 15px;font-weight: bold;font-style: normal;line-height: 140%;max-width: 900px;overflow-wrap: break-word;word-break: break-word;text-size-adjust: 100%;color: rgb(59, 16, 132);"><tspan x="0" y="15"><tspan dx="0">全局语句global</tspan></tspan></text></g></g></g></g><g class="po-mind-topic" id="topic-b5b097cc-fdfd-4d53-9c3c-ddfccbf61742" transform="matrix(1,0,0,1,400.8,510.5)" opacity="1"><path d="M0,0 L158.5,0 C158.5,0 158.5,0 158.5,0                           L158.5,37 C158.5,37 158.5,37 158.5,37                           L0,37 C0,37 0,37 0,37 L0,0                           C0,0 0,0 0,0 Z" class="po-mind-topic-shape-fill" transform="matrix(1,0,0,1,2.5,3.5)" fill="rgba(0, 0, 0, 0.1)" stroke-width="4" stroke="rgba(0, 0, 0, 0.1)"></path><path d="M0,0 L158.5,0 C158.5,0 158.5,0 158.5,0                           L158.5,37 C158.5,37 158.5,37 158.5,37                           L0,37 C0,37 0,37 0,37 L0,0                           C0,0 0,0 0,0 Z" class="po-mind-topic-shape-fill" transform="matrix(1,0,0,1,1.5,1.5)" fill="#ffffff" stroke-width="0"></path><path d="M0,0 L157,0 L157,35.5 L0,35.5 L0,0 Z M7,35.5 L7,42.5 L164,42.5 L164,7 L157,7" class="po-mind-topic-shape" transform="matrix(1,0,0,1,1.5,1.5)" fill="none" stroke-width="3" stroke="#3b1084"></path><g transform="matrix(1,0,0,1,7.5,8.5)"><g data-width="144.5" data-height="21" data-offsetx="0" transform="matrix(1,0,0,1,0,0)"><g><text text-anchor="start" align="top" anchor="start" font-size="15px" font-weight="bold" fill="rgb(59, 16, 132)" style="font-family: 思源宋体;font-size: 15px;font-weight: bold;font-style: normal;line-height: 140%;max-width: 900px;overflow-wrap: break-word;word-break: break-word;text-size-adjust: 100%;color: rgb(59, 16, 132);"><tspan x="0" y="15"><tspan dx="0">非局部语句nonlocal</tspan></tspan></text></g></g></g></g><g class="po-mind-topic" id="topic-b75b3b8c-f3de-405b-8603-54c688bd7a5b" transform="matrix(1,0,0,1,400.8,561.5)" opacity="1"><path d="M0,0 L91.5,0 C91.5,0 91.5,0 91.5,0                           L91.5,37 C91.5,37 91.5,37 91.5,37                           L0,37 C0,37 0,37 0,37 L0,0                           C0,0 0,0 0,0 Z" class="po-mind-topic-shape-fill" transform="matrix(1,0,0,1,2.5,3.5)" fill="rgba(0, 0, 0, 0.1)" stroke-width="4" stroke="rgba(0, 0, 0, 0.1)"></path><path d="M0,0 L91.5,0 C91.5,0 91.5,0 91.5,0                           L91.5,37 C91.5,37 91.5,37 91.5,37                           L0,37 C0,37 0,37 0,37 L0,0                           C0,0 0,0 0,0 Z" class="po-mind-topic-shape-fill" transform="matrix(1,0,0,1,1.5,1.5)" fill="#ffffff" stroke-width="0"></path><path d="M0,0 L90,0 L90,35.5 L0,35.5 L0,0 Z M7,35.5 L7,42.5 L97,42.5 L97,7 L90,7" class="po-mind-topic-shape" transform="matrix(1,0,0,1,1.5,1.5)" fill="none" stroke-width="3" stroke="#3b1084"></path><g transform="matrix(1,0,0,1,7.5,8.5)"><g data-width="77.5" data-height="21" data-offsetx="0" transform="matrix(1,0,0,1,0,0)"><g><text text-anchor="start" align="top" anchor="start" font-size="15px" font-weight="bold" fill="rgb(59, 16, 132)" style="font-family: 思源宋体;font-size: 15px;font-weight: bold;font-style: normal;line-height: 140%;max-width: 900px;overflow-wrap: break-word;word-break: break-word;text-size-adjust: 100%;color: rgb(59, 16, 132);"><tspan x="0" y="15"><tspan dx="0">类成员变量</tspan></tspan></text></g></g></g></g><g class="po-mind-topic" id="topic-bd3e40b7-ee69-4519-8531-b5f49f70df8f" transform="matrix(1,0,0,1,400.8,612.5)" opacity="1"><path d="M0,0 L181.5,0 C181.5,0 181.5,0 181.5,0                           L181.5,37 C181.5,37 181.5,37 181.5,37                           L0,37 C0,37 0,37 0,37 L0,0                           C0,0 0,0 0,0 Z" class="po-mind-topic-shape-fill" transform="matrix(1,0,0,1,2.5,3.5)" fill="rgba(0, 0, 0, 0.1)" stroke-width="4" stroke="rgba(0, 0, 0, 0.1)"></path><path d="M0,0 L181.5,0 C181.5,0 181.5,0 181.5,0                           L181.5,37 C181.5,37 181.5,37 181.5,37                           L0,37 C0,37 0,37 0,37 L0,0                           C0,0 0,0 0,0 Z" class="po-mind-topic-shape-fill" transform="matrix(1,0,0,1,1.5,1.5)" fill="#ffffff" stroke-width="0"></path><path d="M0,0 L180,0 L180,35.5 L0,35.5 L0,0 Z M7,35.5 L7,42.5 L187,42.5 L187,7 L180,7" class="po-mind-topic-shape" transform="matrix(1,0,0,1,1.5,1.5)" fill="none" stroke-width="3" stroke="#3b1084"></path><g transform="matrix(1,0,0,1,7.5,8.5)"><g data-width="167.5" data-height="21" data-offsetx="0" transform="matrix(1,0,0,1,0,0)"><g><text text-anchor="start" align="top" anchor="start" font-size="15px" font-weight="bold" fill="rgb(59, 16, 132)" style="font-family: 思源宋体;font-size: 15px;font-weight: bold;font-style: normal;line-height: 140%;max-width: 900px;overflow-wrap: break-word;word-break: break-word;text-size-adjust: 100%;color: rgb(59, 16, 132);"><tspan x="0" y="15"><tspan dx="0">查看局部变量和全局变量</tspan></tspan></text></g></g></g></g></g><g class="po-mind-associative-line-label-container"></g></g><g id="wpsexport-watermark"><defs><pattern patternUnits="userSpaceOnUse" id="wpspattern_mark_0" width="300" height="300"><text x="150" y="100" fill="#0000004d" font-size="18" transform="rotate(-45, 150, 150)" style="dominant-baseline: middle; text-anchor: middle;"></text></pattern></defs><rect fill="url(#wpspattern_mark_0)" x="0" y="0" width="420.297" height="347.5" id="rect_mark_0" pointer-events="none"></rect></g><style>
    .connection-svg{
        outline: none;
        box-shadow: none;
        -webkit-tap-highlight-color: transparent;
    }
    .connection-line {
        cursor: pointer;
    }

    .connection-line-bg {
        cursor: pointer;
    }

    .node-add-btn {
        cursor: pointer;
    }

    .po-richtext-node-wrap ol,
    .area_box ol,
    .po-measureCustomNode ol {
        padding-left: 20px;
        margin: 0;
    }
    .po-richtext-node-wrap ol li,
    .area_box ol li,
    .po-measureCustomNode ol li {
        list-style: decimal;
    }
    .po-richtext-node-wrap ul,
    .area_box ul,
    .po-measureCustomNode ul {
        padding-left: calc(15px + 0.5em);
        list-style: none;
        margin: 0;
    }
    .po-richtext-node-wrap ul li,
    .area_box ul li,
    .po-measureCustomNode ul li {
        list-style: disc;
    }
    .po-richtext-node-wrap p,
    .po-richtext-node-wrap h1,
    .po-richtext-node-wrap h2,
    .po-richtext-node-wrap h3,
    .po-richtext-node-wrap h4,
    .po-richtext-node-wrap h5,
    .po-richtext-node-wrap h6,
    .area_box p,
    .area_box h1,
    .area_box h2,
    .area_box h3,
    .area_box h4,
    .area_box h5,
    .area_box h6,
    .po-measureCustomNode p,
    .po-measureCustomNode h1,
    .po-measureCustomNode h2,
    .po-measureCustomNode h3,
    .po-measureCustomNode h4,
    .po-measureCustomNode h5,
    .po-measureCustomNode h6 {
        margin: 0;
    }
    .po-safari-fixed {
        position: fixed;
    }
</style></svg>