<?xml version="1.0" standalone="no"?><?xml-stylesheet type="text/css" href="https://wps.processon.com/themes/default/wps/mind/icons/icons.css" ?><!DOCTYPE svg PUBLIC "-//W3C//DTD SVG 1.1//EN" "http://www.w3.org/Graphics/SVG/1.1/DTD/svg11.dtd"><svg xmlns="http://www.w3.org/2000/svg" xmlns:xlink="http://www.w3.org/1999/xlink" version="1.1" width="756.0999755859375" height="295" style="outline: none; background: none; top: 0px; left: 0px; display: block; z-index: 1; font-size: 12px;" id="mind-svg-con"><defs></defs><g id="svgbackgroundid"><defs></defs><rect width="756.0999755859375" height="295" fill="#ffffff"></rect></g><g id="export-watermark"><defs><pattern patternUnits="userSpaceOnUse" id="pattern_mark_0" width="300" height="300"><text x="150" y="100" fill="rgb(235,235,235)" font-size="18" transform="rotate(-45, 150, 150)" style="dominant-baseline: middle; text-anchor: middle;"></text></pattern></defs><rect fill="url(#pattern_mark_0)" x="0" y="0" width="756.094" height="295" id="rect_mark_0" pointer-events="none"></rect></g><g class="po-mind-container" transform="matrix(1,0,0,1,377.79998779296875,66)"><g class="po-mind-line-container"><g from="root" to="3fc71ab7-8bf3-43a7-ae2e-b0bc9664fcc7" opacity="1"><path d="M 0 43 L 0 59 L -290.40000000000003 59 C -290.40000000000003 59 -298.40000000000003 59 -298.40000000000003 67 L -298.40000000000003 83" stroke-linecap="butt" stroke-width="3" stroke="#3b1084" fill="none"></path></g><g from="root" to="5ec3a5b7-b114-4ee1-9620-ab63eb4aec7e" opacity="1"><path d="M 0 43 L 0 59 L -146.6 59 C -146.6 59 -154.6 59 -154.6 67 L -154.6 83" stroke-linecap="butt" stroke-width="3" stroke="#3b1084" fill="none"></path></g><g from="root" to="71a44e85-43c7-44d7-a564-19187d6a3c6d" opacity="1"><path d="M 0 43 L 0 59 L 63.900000000000034 59 C 63.900000000000034 59 71.90000000000003 59 71.90000000000003 67 L 71.90000000000003 83" stroke-linecap="butt" stroke-width="3" stroke="#3b1084" fill="none"></path></g><g from="root" to="d00710c1-92c2-4ef8-9226-1ccab615b968" opacity="1"><path d="M 0 43 L 0 59 L 290.40000000000003 59 C 290.40000000000003 59 298.40000000000003 59 298.40000000000003 67 L 298.40000000000003 83" stroke-linecap="butt" stroke-width="3" stroke="#3b1084" fill="none"></path></g><g from="71a44e85-43c7-44d7-a564-19187d6a3c6d" to="ecdbd9b3-3ae6-4552-a1bb-38efc8031fe3" opacity="1"><path d="M 71.90000000000003 137 L 71.90000000000003 149 L -18.499999999999986 149 C -18.499999999999986 149 -22.499999999999986 149 -22.499999999999986 153 L -22.499999999999986 161" stroke-linecap="butt" stroke-width="3" stroke="#3b1084" fill="none"></path></g><g from="71a44e85-43c7-44d7-a564-19187d6a3c6d" to="fde97c29-5a11-44a3-a2e8-53f4400f932d" opacity="1"><path d="M 71.90000000000003 137 L 71.90000000000003 149 L 71.90000000000003 149 C 71.90000000000003 149 71.90000000000002 149 71.90000000000002 149 L 71.90000000000002 161" stroke-linecap="butt" stroke-width="3" stroke="#3b1084" fill="none"></path></g><g from="71a44e85-43c7-44d7-a564-19187d6a3c6d" to="4400af7d-fbe4-41eb-bece-8cd4c253a063"><path d="M 71.90000000000003 137 L 71.90000000000003 149 L 162.3 149 C 162.3 149 166.3 149 166.3 153 L 166.3 161" stroke-linecap="butt" stroke-width="3" stroke="#3b1084" fill="none"></path></g></g><g class="po-mind-generalize-container"></g><g class="po-mind-associative-line-container"></g><g class="po-mind-node-container"><g class="po-mind-topic" id="topic-root" transform="matrix(1,0,0,1,-83,-43)" opacity="1"><path d="M0,0 L156,0 C156,0 156,0 156,0                           L156,76 C156,76 156,76 156,76                           L0,76 C0,76 0,76 0,76 L0,0                           C0,0 0,0 0,0 Z" class="po-mind-topic-shape-fill" transform="matrix(1,0,0,1,2,2)" fill="#ffffff"></path><path d="M0,0 L154,0 L154,74 L0,74 L0,0 Z M8,74 L8,82 L162,82 L162,8 L154,8" class="po-mind-topic-shape" transform="matrix(1,0,0,1,2,2)" fill="none" stroke-width="4" stroke="#3b1084"></path><g transform="matrix(1,0,0,1,32,18)"><g data-width="94" data-height="42" data-offsetx="0" transform="matrix(1,0,0,1,0,0)"><g><text text-anchor="start" align="top" anchor="start" font-size="30px" font-weight="bold" fill="rgb(59, 16, 132)" style="font-family: 思源宋体;font-size: 30px;font-weight: bold;font-style: normal;line-height: 140%;max-width: 900px;overflow-wrap: break-word;word-break: break-word;text-size-adjust: 100%;color: rgb(59, 16, 132);"><tspan x="0" y="30"><tspan dx="0">主模块</tspan></tspan></text></g></g></g></g><g class="po-mind-topic" id="topic-3fc71ab7-8bf3-43a7-ae2e-b0bc9664fcc7" transform="matrix(1,0,0,1,-354.3,83)" opacity="1"><path d="M0,0 L103.8,0 C103.8,0 103.8,0 103.8,0                           L103.8,46 C103.8,46 103.8,46 103.8,46                           L0,46 C0,46 0,46 0,46 L0,0                           C0,0 0,0 0,0 Z" class="po-mind-topic-shape-fill" transform="matrix(1,0,0,1,2.5,3.5)" fill="rgba(0, 0, 0, 0.1)" stroke-width="4" stroke="rgba(0, 0, 0, 0.1)"></path><path d="M0,0 L103.8,0 C103.8,0 103.8,0 103.8,0                           L103.8,46 C103.8,46 103.8,46 103.8,46                           L0,46 C0,46 0,46 0,46 L0,0                           C0,0 0,0 0,0 Z" class="po-mind-topic-shape-fill" transform="matrix(1,0,0,1,1.5,1.5)" fill="#ffffff" stroke-width="0"></path><path d="M0,0 L102.3,0 L102.3,44.5 L0,44.5 L0,0 Z M7,44.5 L7,51.5 L109.3,51.5 L109.3,7 L102.3,7" class="po-mind-topic-shape" transform="matrix(1,0,0,1,1.5,1.5)" fill="none" stroke-width="3" stroke="#3b1084"></path><g transform="matrix(1,0,0,1,18.5,10.5)"><g data-width="67.8" data-height="26" data-offsetx="0" transform="matrix(1,0,0,1,0,0)"><g><text text-anchor="start" align="top" anchor="start" font-size="18px" font-weight="bold" fill="rgb(59, 16, 132)" style="font-family: 思源宋体;font-size: 18px;font-weight: bold;font-style: normal;line-height: 140%;max-width: 900px;overflow-wrap: break-word;word-break: break-word;text-size-adjust: 100%;color: rgb(59, 16, 132);"><tspan x="0" y="18"><tspan dx="0">子模块1</tspan></tspan></text></g></g></g></g><g class="po-mind-topic" id="topic-5ec3a5b7-b114-4ee1-9620-ab63eb4aec7e" transform="matrix(1,0,0,1,-210.5,83)" opacity="1"><path d="M0,0 L103.8,0 C103.8,0 103.8,0 103.8,0                           L103.8,46 C103.8,46 103.8,46 103.8,46                           L0,46 C0,46 0,46 0,46 L0,0                           C0,0 0,0 0,0 Z" class="po-mind-topic-shape-fill" transform="matrix(1,0,0,1,2.5,3.5)" fill="rgba(0, 0, 0, 0.1)" stroke-width="4" stroke="rgba(0, 0, 0, 0.1)"></path><path d="M0,0 L103.8,0 C103.8,0 103.8,0 103.8,0                           L103.8,46 C103.8,46 103.8,46 103.8,46                           L0,46 C0,46 0,46 0,46 L0,0                           C0,0 0,0 0,0 Z" class="po-mind-topic-shape-fill" transform="matrix(1,0,0,1,1.5,1.5)" fill="#ffffff" stroke-width="0"></path><path d="M0,0 L102.3,0 L102.3,44.5 L0,44.5 L0,0 Z M7,44.5 L7,51.5 L109.3,51.5 L109.3,7 L102.3,7" class="po-mind-topic-shape" transform="matrix(1,0,0,1,1.5,1.5)" fill="none" stroke-width="3" stroke="#3b1084"></path><g transform="matrix(1,0,0,1,18.5,10.5)"><g data-width="67.8" data-height="26" data-offsetx="0" transform="matrix(1,0,0,1,0,0)"><g><text text-anchor="start" align="top" anchor="start" font-size="18px" font-weight="bold" fill="rgb(59, 16, 132)" style="font-family: 思源宋体;font-size: 18px;font-weight: bold;font-style: normal;line-height: 140%;max-width: 900px;overflow-wrap: break-word;word-break: break-word;text-size-adjust: 100%;color: rgb(59, 16, 132);"><tspan x="0" y="18"><tspan dx="0">子模块2</tspan></tspan></text></g></g></g></g><g class="po-mind-topic" id="topic-71a44e85-43c7-44d7-a564-19187d6a3c6d" transform="matrix(1,0,0,1,16.00000000000003,83)" opacity="1"><path d="M0,0 L103.8,0 C103.8,0 103.8,0 103.8,0                           L103.8,46 C103.8,46 103.8,46 103.8,46                           L0,46 C0,46 0,46 0,46 L0,0                           C0,0 0,0 0,0 Z" class="po-mind-topic-shape-fill" transform="matrix(1,0,0,1,2.5,3.5)" fill="rgba(0, 0, 0, 0.1)" stroke-width="4" stroke="rgba(0, 0, 0, 0.1)"></path><path d="M0,0 L103.8,0 C103.8,0 103.8,0 103.8,0                           L103.8,46 C103.8,46 103.8,46 103.8,46                           L0,46 C0,46 0,46 0,46 L0,0                           C0,0 0,0 0,0 Z" class="po-mind-topic-shape-fill" transform="matrix(1,0,0,1,1.5,1.5)" fill="#ffffff" stroke-width="0"></path><path d="M0,0 L102.3,0 L102.3,44.5 L0,44.5 L0,0 Z M7,44.5 L7,51.5 L109.3,51.5 L109.3,7 L102.3,7" class="po-mind-topic-shape" transform="matrix(1,0,0,1,1.5,1.5)" fill="none" stroke-width="3" stroke="#3b1084"></path><g transform="matrix(1,0,0,1,18.5,10.5)"><g data-width="67.8" data-height="26" data-offsetx="0" transform="matrix(1,0,0,1,0,0)"><g><text text-anchor="start" align="top" anchor="start" font-size="18px" font-weight="bold" fill="rgb(59, 16, 132)" style="font-family: 思源宋体;font-size: 18px;font-weight: bold;font-style: normal;line-height: 140%;max-width: 900px;overflow-wrap: break-word;word-break: break-word;text-size-adjust: 100%;color: rgb(59, 16, 132);"><tspan x="0" y="18"><tspan dx="0">子模块3</tspan></tspan></text></g></g></g><rect fill="none" width="111.8" height="18" x="0" y="54"></rect></g><g class="po-mind-topic" id="topic-ecdbd9b3-3ae6-4552-a1bb-38efc8031fe3" transform="matrix(1,0,0,1,-66.69999999999999,161)" opacity="1"><path d="M0,0 L80.4,0 C80.4,0 80.4,0 80.4,0                           L80.4,36 C80.4,36 80.4,36 80.4,36                           L0,36 C0,36 0,36 0,36 L0,0                           C0,0 0,0 0,0 Z" class="po-mind-topic-shape-fill" transform="matrix(1,0,0,1,1.5,1.5)" fill="none"></path><path d="M0,0 L78.9,0 L78.9,34.5 L0,34.5 L0,0 Z M7,34.5 L7,41.5 L85.9,41.5 L85.9,7 L78.9,7" class="po-mind-topic-shape" transform="matrix(1,0,0,1,1.5,1.5)" fill="none" stroke-width="3" stroke="#3b1084"></path><g transform="matrix(1,0,0,1,7.5,8.5)"><g data-width="66.4" data-height="20" data-offsetx="0" transform="matrix(1,0,0,1,0,0)"><g><text text-anchor="start" align="top" anchor="start" font-size="14px" font-weight="bold" fill="rgb(59, 16, 132)" style="font-family: 思源宋体;font-size: 14px;font-weight: bold;font-style: normal;line-height: 140%;max-width: 896px;overflow-wrap: break-word;word-break: break-word;text-size-adjust: 100%;color: rgb(59, 16, 132);"><tspan x="0" y="13.999999999999996"><tspan dx="0">子模块3.1</tspan></tspan></text></g></g></g></g><g class="po-mind-topic" id="topic-fde97c29-5a11-44a3-a2e8-53f4400f932d" transform="matrix(1,0,0,1,27.700000000000017,161)" opacity="1"><path d="M0,0 L80.4,0 C80.4,0 80.4,0 80.4,0                           L80.4,36 C80.4,36 80.4,36 80.4,36                           L0,36 C0,36 0,36 0,36 L0,0                           C0,0 0,0 0,0 Z" class="po-mind-topic-shape-fill" transform="matrix(1,0,0,1,1.5,1.5)" fill="none"></path><path d="M0,0 L78.9,0 L78.9,34.5 L0,34.5 L0,0 Z M7,34.5 L7,41.5 L85.9,41.5 L85.9,7 L78.9,7" class="po-mind-topic-shape" transform="matrix(1,0,0,1,1.5,1.5)" fill="none" stroke-width="3" stroke="#3b1084"></path><g transform="matrix(1,0,0,1,7.5,8.5)"><g data-width="66.4" data-height="20" data-offsetx="0" transform="matrix(1,0,0,1,0,0)"><g><text text-anchor="start" align="top" anchor="start" font-size="14px" font-weight="bold" fill="rgb(59, 16, 132)" style="font-family: 思源宋体;font-size: 14px;font-weight: bold;font-style: normal;line-height: 140%;max-width: 896px;overflow-wrap: break-word;word-break: break-word;text-size-adjust: 100%;color: rgb(59, 16, 132);"><tspan x="0" y="13.999999999999996"><tspan dx="0">子模块3.2</tspan></tspan></text></g></g></g></g><g class="po-mind-topic" id="topic-4400af7d-fbe4-41eb-bece-8cd4c253a063" transform="matrix(1,0,0,1,122.10000000000002,161)" opacity="1"><path d="M0,0 L80.4,0 C80.4,0 80.4,0 80.4,0                           L80.4,36 C80.4,36 80.4,36 80.4,36                           L0,36 C0,36 0,36 0,36 L0,0                           C0,0 0,0 0,0 Z" class="po-mind-topic-shape-fill" transform="matrix(1,0,0,1,1.5,1.5)" fill="none"></path><path d="M0,0 L78.9,0 L78.9,34.5 L0,34.5 L0,0 Z M7,34.5 L7,41.5 L85.9,41.5 L85.9,7 L78.9,7" class="po-mind-topic-shape" transform="matrix(1,0,0,1,1.5,1.5)" fill="none" stroke-width="3" stroke="#3b1084"></path><g transform="matrix(1,0,0,1,7.5,8.5)"><g data-width="66.4" data-height="20" data-offsetx="0" transform="matrix(1,0,0,1,0,0)"><g><text text-anchor="start" align="top" anchor="start" font-size="14px" font-weight="bold" fill="rgb(59, 16, 132)" style="font-family: 思源宋体;font-size: 14px;font-weight: bold;font-style: normal;line-height: 140%;max-width: 896px;overflow-wrap: break-word;word-break: break-word;text-size-adjust: 100%;color: rgb(59, 16, 132);"><tspan x="0" y="13.999999999999996"><tspan dx="0">子模块3.3</tspan></tspan></text></g></g></g></g><g class="po-mind-topic" id="topic-d00710c1-92c2-4ef8-9226-1ccab615b968" transform="matrix(1,0,0,1,242.50000000000006,83)" opacity="1"><path d="M0,0 L103.8,0 C103.8,0 103.8,0 103.8,0                           L103.8,46 C103.8,46 103.8,46 103.8,46                           L0,46 C0,46 0,46 0,46 L0,0                           C0,0 0,0 0,0 Z" class="po-mind-topic-shape-fill" transform="matrix(1,0,0,1,2.5,3.5)" fill="rgba(0, 0, 0, 0.1)" stroke-width="4" stroke="rgba(0, 0, 0, 0.1)"></path><path d="M0,0 L103.8,0 C103.8,0 103.8,0 103.8,0                           L103.8,46 C103.8,46 103.8,46 103.8,46                           L0,46 C0,46 0,46 0,46 L0,0                           C0,0 0,0 0,0 Z" class="po-mind-topic-shape-fill" transform="matrix(1,0,0,1,1.5,1.5)" fill="#ffffff" stroke-width="0"></path><path d="M0,0 L102.3,0 L102.3,44.5 L0,44.5 L0,0 Z M7,44.5 L7,51.5 L109.3,51.5 L109.3,7 L102.3,7" class="po-mind-topic-shape" transform="matrix(1,0,0,1,1.5,1.5)" fill="none" stroke-width="3" stroke="#3b1084"></path><g transform="matrix(1,0,0,1,18.5,10.5)"><g data-width="67.8" data-height="26" data-offsetx="0" transform="matrix(1,0,0,1,0,0)"><g><text text-anchor="start" align="top" anchor="start" font-size="18px" font-weight="bold" fill="rgb(59, 16, 132)" style="font-family: 思源宋体;font-size: 18px;font-weight: bold;font-style: normal;line-height: 140%;max-width: 900px;overflow-wrap: break-word;word-break: break-word;text-size-adjust: 100%;color: rgb(59, 16, 132);"><tspan x="0" y="18"><tspan dx="0">子模块4</tspan></tspan></text></g></g></g></g></g><g class="po-mind-associative-line-label-container"></g></g><g id="wpsexport-watermark"><defs><pattern patternUnits="userSpaceOnUse" id="wpspattern_mark_0" width="300" height="300"><text x="150" y="100" fill="#0000004d" font-size="18" transform="rotate(-45, 150, 150)" style="dominant-baseline: middle; text-anchor: middle;"></text></pattern></defs><rect fill="url(#wpspattern_mark_0)" x="0" y="0" width="756.094" height="295" id="rect_mark_0" pointer-events="none"></rect></g><style>
    .connection-svg{
        outline: none;
        box-shadow: none;
        -webkit-tap-highlight-color: transparent;
    }
    .connection-line {
        cursor: pointer;
    }

    .connection-line-bg {
        cursor: pointer;
    }

    .node-add-btn {
        cursor: pointer;
    }

    .po-richtext-node-wrap ol,
    .area_box ol,
    .po-measureCustomNode ol {
        padding-left: 20px;
        margin: 0;
    }
    .po-richtext-node-wrap ol li,
    .area_box ol li,
    .po-measureCustomNode ol li {
        list-style: decimal;
    }
    .po-richtext-node-wrap ul,
    .area_box ul,
    .po-measureCustomNode ul {
        padding-left: calc(15px + 0.5em);
        list-style: none;
        margin: 0;
    }
    .po-richtext-node-wrap ul li,
    .area_box ul li,
    .po-measureCustomNode ul li {
        list-style: disc;
    }
    .po-richtext-node-wrap p,
    .po-richtext-node-wrap h1,
    .po-richtext-node-wrap h2,
    .po-richtext-node-wrap h3,
    .po-richtext-node-wrap h4,
    .po-richtext-node-wrap h5,
    .po-richtext-node-wrap h6,
    .area_box p,
    .area_box h1,
    .area_box h2,
    .area_box h3,
    .area_box h4,
    .area_box h5,
    .area_box h6,
    .po-measureCustomNode p,
    .po-measureCustomNode h1,
    .po-measureCustomNode h2,
    .po-measureCustomNode h3,
    .po-measureCustomNode h4,
    .po-measureCustomNode h5,
    .po-measureCustomNode h6 {
        margin: 0;
    }
    .po-safari-fixed {
        position: fixed;
    }
</style></svg>