<?xml version="1.0" standalone="no"?><?xml-stylesheet type="text/css" href="https://wps.processon.com/themes/default/wps/mind/icons/icons.css" ?><!DOCTYPE svg PUBLIC "-//W3C//DTD SVG 1.1//EN" "http://www.w3.org/Graphics/SVG/1.1/DTD/svg11.dtd"><svg xmlns="http://www.w3.org/2000/svg" xmlns:xlink="http://www.w3.org/1999/xlink" version="1.1" width="589.5999755859375" height="388" style="outline: none; background: none; top: 0px; left: 0px; display: block; z-index: 1; font-size: 12px;" id="mind-svg-con"><defs></defs><g id="svgbackgroundid"><defs transform="matrix(0.4319413740556319,0,0,0.17933903397272938,0,0)"></defs><rect width="1365" height="2163.5" fill="#ffffff" transform="matrix(0.4319413740556319,0,0,0.17933903397272938,0,0)"></rect></g><g id="export-watermark"><defs><pattern patternUnits="userSpaceOnUse" id="pattern_mark_0" width="300" height="300"><text x="150" y="100" fill="rgb(235,235,235)" font-size="18" transform="rotate(-45, 150, 150)" style="dominant-baseline: middle; text-anchor: middle;"></text></pattern></defs><rect fill="url(#pattern_mark_0)" x="0" y="0" width="589.594" height="388" id="rect_mark_0" pointer-events="none"></rect></g><g class="po-mind-container" transform="matrix(1,0,0,1,-194,-522)"><g class="po-mind-line-container" style=""><g from="15faca4a-4898-4769-9d3d-a0d588f9bb7e" to="315f9743-9e3b-47f2-8e95-2b1e8d5123e9" opacity="1"><path d="M519.6 616L531.6 616L531.6 597C531.6 597 531.6 591 537.6 591L543.6 591" stroke-linecap="butt" stroke-width="3" stroke="#3b1084" fill="none"></path></g><g from="15faca4a-4898-4769-9d3d-a0d588f9bb7e" to="facea5e0-5de4-4d5f-843e-42370864ed0c" opacity="1"><path d="M519.6 616L531.6 616L531.6 635C531.6 635 531.6 641 537.6 641L543.6 641" stroke-linecap="butt" stroke-width="3" stroke="#3b1084" fill="none"></path></g><g from="ebd23d94-199a-486a-8a46-703233715c0e" to="7dc069bf-2e8c-4e35-a35c-64503caaa040" opacity="1"><path d="M340.8 741.125L352.8 741.125L352.8 672.75C352.8 672.75 352.8 666.75 358.8 666.75L364.8 666.75" stroke-linecap="butt" stroke-width="3" stroke="#3b1084" fill="none"></path></g><g from="ebd23d94-199a-486a-8a46-703233715c0e" to="eace223f-36bd-41a8-b93a-9491a1749b0a" opacity="1"><path d="M340.8 741.125L352.8 741.125L352.8 809.5C352.8 809.5 352.8 815.5 358.8 815.5L364.8 815.5" stroke-linecap="butt" stroke-width="3" stroke="#3b1084" fill="none"></path></g><g from="7dc069bf-2e8c-4e35-a35c-64503caaa040" to="15faca4a-4898-4769-9d3d-a0d588f9bb7e" opacity="1"><path d="M419.3 666.75L431.3 666.75L431.3 622C431.3 622 431.3 616 437.3 616L443.3 616" stroke-linecap="butt" stroke-width="3" stroke="#3b1084" fill="none"></path></g><g from="7dc069bf-2e8c-4e35-a35c-64503caaa040" to="f672f0fd-e30b-4228-b659-e806e0cd8c98" opacity="1"><path d="M419.3 666.75L431.3 666.75L431.3 666.75C431.3 666.75 431.3 668.5 433.05 668.5L443.3 668.5" stroke-linecap="butt" stroke-width="3" stroke="#3b1084" fill="none"></path></g><g from="7dc069bf-2e8c-4e35-a35c-64503caaa040" to="8726bbaf-a59d-49d4-b7e2-2caf37ba478d" opacity="1"><path d="M419.3 666.75L431.3 666.75L431.3 711.5C431.3 711.5 431.3 717.5 437.3 717.5L443.3 717.5" stroke-linecap="butt" stroke-width="3" stroke="#3b1084" fill="none"></path></g><g from="eace223f-36bd-41a8-b93a-9491a1749b0a" to="c758dcbd-7a75-41ca-a126-6099dcd7544a" opacity="1"><path d="M464.3 815.5L476.3 815.5L476.3 772.5C476.3 772.5 476.3 766.5 482.3 766.5L488.3 766.5" stroke-linecap="butt" stroke-width="3" stroke="#3b1084" fill="none"></path></g><g from="eace223f-36bd-41a8-b93a-9491a1749b0a" to="d4bce19b-f62d-44c1-8870-9f6894a1f2e1" opacity="1"><path d="M464.3 815.5L476.3 815.5L476.3 815.5C476.3 815.5 476.3 815.5 476.3 815.5L488.3 815.5" stroke-linecap="butt" stroke-width="3" stroke="#3b1084" fill="none"></path></g><g from="eace223f-36bd-41a8-b93a-9491a1749b0a" to="6b857674-65d1-42f6-969d-638e9932f712" opacity="1"><path d="M464.3 815.5L476.3 815.5L476.3 858.5C476.3 858.5 476.3 864.5 482.3 864.5L488.3 864.5" stroke-linecap="butt" stroke-width="3" stroke="#3b1084" fill="none"></path></g></g><g class="po-mind-generalize-container"></g><g class="po-mind-associative-line-container"></g><g class="po-mind-node-container"><g class="po-mind-topic" id="topic-ebd23d94-199a-486a-8a46-703233715c0e" transform="matrix(1,0,0,1,222,714.125)" opacity="1"><path d="M0,0 L110.8,0 C110.8,0 110.8,0 110.8,0                           L110.8,46 C110.8,46 110.8,46 110.8,46                           L0,46 C0,46 0,46 0,46 L0,0                           C0,0 0,0 0,0 Z" class="po-mind-topic-shape-fill" transform="matrix(1,0,0,1,2.5,3.5)" fill="rgba(0, 0, 0, 0.1)" stroke-width="4" stroke="rgba(0, 0, 0, 0.1)"></path><path d="M0,0 L110.8,0 C110.8,0 110.8,0 110.8,0                           L110.8,46 C110.8,46 110.8,46 110.8,46                           L0,46 C0,46 0,46 0,46 L0,0                           C0,0 0,0 0,0 Z" class="po-mind-topic-shape-fill" transform="matrix(1,0,0,1,1.5,1.5)" fill="#ffffff" stroke-width="0"></path><path d="M0,0 L109.3,0 L109.3,44.5 L0,44.5 L0,0 Z M7,44.5 L7,51.5 L116.3,51.5 L116.3,7 L109.3,7" class="po-mind-topic-shape" transform="matrix(1,0,0,1,1.5,1.5)" fill="none" stroke-width="3" stroke="#3b1084"></path><g transform="matrix(1,0,0,1,18.5,10.5)"><g data-width="74.8" data-height="26" data-offsetx="0" transform="matrix(1,0,0,1,0,0)"><g><text text-anchor="start" align="top" anchor="start" font-size="18px" font-weight="bold" fill="rgb(59, 16, 132)" style="font-family: 思源宋体;font-size: 18px;font-weight: bold;font-style: normal;line-height: 140%;max-width: 900px;overflow-wrap: break-word;word-break: break-word;text-size-adjust: 100%;color: rgb(59, 16, 132);"><tspan x="0" y="18"><tspan dx="0">递归函数</tspan></tspan></text></g></g></g><g><rect width="4" height="54" x="-3" y="0" resize="1" fill="none" style="cursor: ew-resize;"></rect><rect width="4" height="54" x="119.8" y="0" resize="2" fill="none" style="cursor: ew-resize;"></rect></g></g><g class="po-mind-topic" id="topic-7dc069bf-2e8c-4e35-a35c-64503caaa040" transform="matrix(1,0,0,1,364.8,644.25)" opacity="1"><path d="M0,0 L46.5,0 C46.5,0 46.5,0 46.5,0                           L46.5,37 C46.5,37 46.5,37 46.5,37                           L0,37 C0,37 0,37 0,37 L0,0                           C0,0 0,0 0,0 Z" class="po-mind-topic-shape-fill" transform="matrix(1,0,0,1,2.5,3.5)" fill="rgba(0, 0, 0, 0.1)" stroke-width="4" stroke="rgba(0, 0, 0, 0.1)"></path><path d="M0,0 L46.5,0 C46.5,0 46.5,0 46.5,0                           L46.5,37 C46.5,37 46.5,37 46.5,37                           L0,37 C0,37 0,37 0,37 L0,0                           C0,0 0,0 0,0 Z" class="po-mind-topic-shape-fill" transform="matrix(1,0,0,1,1.5,1.5)" fill="#ffffff" stroke-width="0"></path><path d="M0,0 L45,0 L45,35.5 L0,35.5 L0,0 Z M7,35.5 L7,42.5 L52,42.5 L52,7 L45,7" class="po-mind-topic-shape" transform="matrix(1,0,0,1,1.5,1.5)" fill="none" stroke-width="3" stroke="#3b1084"></path><g transform="matrix(1,0,0,1,7.5,8.5)"><g data-width="32.5" data-height="21" data-offsetx="0" transform="matrix(1,0,0,1,0,0)"><g><text text-anchor="start" align="top" anchor="start" font-size="15px" font-weight="bold" fill="rgb(59, 16, 132)" style="font-family: 思源宋体;font-size: 15px;font-weight: bold;font-style: normal;line-height: 140%;max-width: 900px;overflow-wrap: break-word;word-break: break-word;text-size-adjust: 100%;color: rgb(59, 16, 132);"><tspan x="0" y="15"><tspan dx="0">原理</tspan></tspan></text></g></g></g></g><g class="po-mind-topic" id="topic-15faca4a-4898-4769-9d3d-a0d588f9bb7e" transform="matrix(1,0,0,1,443.3,594.5)" opacity="1"><path d="M0,0 L68.3,0 C68.3,0 68.3,0 68.3,0                           L68.3,35 C68.3,35 68.3,35 68.3,35                           L0,35 C0,35 0,35 0,35 L0,0                           C0,0 0,0 0,0 Z" class="po-mind-topic-shape-fill" transform="matrix(1,0,0,1,2.5,3.5)" fill="rgba(0, 0, 0, 0.1)" stroke-width="4" stroke="rgba(0, 0, 0, 0.1)"></path><path d="M0,0 L68.3,0 C68.3,0 68.3,0 68.3,0                           L68.3,35 C68.3,35 68.3,35 68.3,35                           L0,35 C0,35 0,35 0,35 L0,0                           C0,0 0,0 0,0 Z" class="po-mind-topic-shape-fill" transform="matrix(1,0,0,1,1.5,1.5)" fill="#ffffff" stroke-width="0"></path><path d="M0,0 L66.8,0 L66.8,33.5 L0,33.5 L0,0 Z M7,33.5 L7,40.5 L73.8,40.5 L73.8,7 L66.8,7" class="po-mind-topic-shape" transform="matrix(1,0,0,1,1.5,1.5)" fill="none" stroke-width="3" stroke="#3b1084"></path><g transform="matrix(1,0,0,1,7.5,8.5)"><g data-width="54.3" data-height="19" data-offsetx="0" transform="matrix(1,0,0,1,0,0)"><g><text text-anchor="start" align="top" anchor="start" font-size="13px" font-weight="bold" fill="rgb(59, 16, 132)" style="font-family: 思源宋体;font-size: 13px;font-weight: bold;font-style: normal;line-height: 140%;max-width: 897px;overflow-wrap: break-word;word-break: break-word;text-size-adjust: 100%;color: rgb(59, 16, 132);"><tspan x="0" y="13"><tspan dx="0">两个部分</tspan></tspan></text></g></g></g></g><g class="po-mind-topic" id="topic-315f9743-9e3b-47f2-8e95-2b1e8d5123e9" transform="matrix(1,0,0,1,543.6,547)" opacity="1"><path d="M0,0 L71.4,0 C71.4,0 71.4,0 71.4,0                           L71.4,44 C71.4,44 71.4,44 71.4,44                           L0,44 C0,44 0,44 0,44 L0,0                           C0,0 0,0 0,0 Z" class="po-mind-topic-shape-fill" fill="none"></path><path d="M0,44  L71.4 44 M0,37 L71.4 37" class="po-mind-topic-shape" fill="none" stroke-width="3" stroke="#3b1084"></path><g transform="matrix(1,0,0,1,6.5,12)"><g data-width="58.4" data-height="20" data-offsetx="0" transform="matrix(1,0,0,1,0,0)"><g><text text-anchor="start" align="top" anchor="start" font-size="14px" font-weight="bold" fill="rgb(59, 16, 132)" style="font-family: 思源宋体;font-size: 14px;font-weight: bold;font-style: normal;line-height: 140%;max-width: 896px;overflow-wrap: break-word;word-break: break-word;text-size-adjust: 100%;color: rgb(59, 16, 132);"><tspan x="0" y="13.999999999999996"><tspan dx="0">终止条件</tspan></tspan></text></g></g></g></g><g class="po-mind-topic" id="topic-facea5e0-5de4-4d5f-843e-42370864ed0c" transform="matrix(1,0,0,1,543.6,597)" opacity="1"><path d="M0,0 L71.4,0 C71.4,0 71.4,0 71.4,0                           L71.4,44 C71.4,44 71.4,44 71.4,44                           L0,44 C0,44 0,44 0,44 L0,0                           C0,0 0,0 0,0 Z" class="po-mind-topic-shape-fill" fill="none"></path><path d="M0,44  L71.4 44 M0,37 L71.4 37" class="po-mind-topic-shape" fill="none" stroke-width="3" stroke="#3b1084"></path><g transform="matrix(1,0,0,1,6.5,12)"><g data-width="58.4" data-height="20" data-offsetx="0" transform="matrix(1,0,0,1,0,0)"><g><text text-anchor="start" align="top" anchor="start" font-size="14px" font-weight="bold" fill="rgb(59, 16, 132)" style="font-family: 思源宋体;font-size: 14px;font-weight: bold;font-style: normal;line-height: 140%;max-width: 896px;overflow-wrap: break-word;word-break: break-word;text-size-adjust: 100%;color: rgb(59, 16, 132);"><tspan x="0" y="13.999999999999996"><tspan dx="0">递归步骤</tspan></tspan></text></g></g></g></g><g class="po-mind-topic" id="topic-f672f0fd-e30b-4228-b659-e806e0cd8c98" transform="matrix(1,0,0,1,443.3,647)" opacity="1"><path d="M0,0 L146.3,0 C146.3,0 146.3,0 146.3,0                           L146.3,35 C146.3,35 146.3,35 146.3,35                           L0,35 C0,35 0,35 0,35 L0,0                           C0,0 0,0 0,0 Z" class="po-mind-topic-shape-fill" transform="matrix(1,0,0,1,2.5,3.5)" fill="rgba(0, 0, 0, 0.1)" stroke-width="4" stroke="rgba(0, 0, 0, 0.1)"></path><path d="M0,0 L146.3,0 C146.3,0 146.3,0 146.3,0                           L146.3,35 C146.3,35 146.3,35 146.3,35                           L0,35 C0,35 0,35 0,35 L0,0                           C0,0 0,0 0,0 Z" class="po-mind-topic-shape-fill" transform="matrix(1,0,0,1,1.5,1.5)" fill="#ffffff" stroke-width="0"></path><path d="M0,0 L144.8,0 L144.8,33.5 L0,33.5 L0,0 Z M7,33.5 L7,40.5 L151.8,40.5 L151.8,7 L144.8,7" class="po-mind-topic-shape" transform="matrix(1,0,0,1,1.5,1.5)" fill="none" stroke-width="3" stroke="#3b1084"></path><g transform="matrix(1,0,0,1,7.5,8.5)"><g data-width="132.3" data-height="19" data-offsetx="0" transform="matrix(1,0,0,1,0,0)"><g><text text-anchor="start" align="top" anchor="start" font-size="13px" font-weight="bold" fill="rgb(59, 16, 132)" style="font-family: 思源宋体;font-size: 13px;font-weight: bold;font-style: normal;line-height: 140%;max-width: 897px;overflow-wrap: break-word;word-break: break-word;text-size-adjust: 100%;color: rgb(59, 16, 132);"><tspan x="0" y="13"><tspan dx="0">类似于栈的入栈和出栈</tspan></tspan></text></g></g></g></g><g class="po-mind-topic" id="topic-8726bbaf-a59d-49d4-b7e2-2caf37ba478d" transform="matrix(1,0,0,1,443.3,696)" opacity="1"><path d="M0,0 L68.3,0 C68.3,0 68.3,0 68.3,0                           L68.3,35 C68.3,35 68.3,35 68.3,35                           L0,35 C0,35 0,35 0,35 L0,0                           C0,0 0,0 0,0 Z" class="po-mind-topic-shape-fill" transform="matrix(1,0,0,1,2.5,3.5)" fill="rgba(0, 0, 0, 0.1)" stroke-width="4" stroke="rgba(0, 0, 0, 0.1)"></path><path d="M0,0 L68.3,0 C68.3,0 68.3,0 68.3,0                           L68.3,35 C68.3,35 68.3,35 68.3,35                           L0,35 C0,35 0,35 0,35 L0,0                           C0,0 0,0 0,0 Z" class="po-mind-topic-shape-fill" transform="matrix(1,0,0,1,1.5,1.5)" fill="#ffffff" stroke-width="0"></path><path d="M0,0 L66.8,0 L66.8,33.5 L0,33.5 L0,0 Z M7,33.5 L7,40.5 L73.8,40.5 L73.8,7 L66.8,7" class="po-mind-topic-shape" transform="matrix(1,0,0,1,1.5,1.5)" fill="none" stroke-width="3" stroke="#3b1084"></path><g transform="matrix(1,0,0,1,7.5,8.5)"><g data-width="54.3" data-height="19" data-offsetx="0" transform="matrix(1,0,0,1,0,0)"><g><text text-anchor="start" align="top" anchor="start" font-size="13px" font-weight="bold" fill="rgb(59, 16, 132)" style="font-family: 思源宋体;font-size: 13px;font-weight: bold;font-style: normal;line-height: 140%;max-width: 897px;overflow-wrap: break-word;word-break: break-word;text-size-adjust: 100%;color: rgb(59, 16, 132);"><tspan x="0" y="13"><tspan dx="0">执行过程</tspan></tspan></text></g></g></g></g><g class="po-mind-topic" id="topic-eace223f-36bd-41a8-b93a-9491a1749b0a" transform="matrix(1,0,0,1,364.8,793)" opacity="1"><path d="M0,0 L91.5,0 C91.5,0 91.5,0 91.5,0                           L91.5,37 C91.5,37 91.5,37 91.5,37                           L0,37 C0,37 0,37 0,37 L0,0                           C0,0 0,0 0,0 Z" class="po-mind-topic-shape-fill" transform="matrix(1,0,0,1,2.5,3.5)" fill="rgba(0, 0, 0, 0.1)" stroke-width="4" stroke="rgba(0, 0, 0, 0.1)"></path><path d="M0,0 L91.5,0 C91.5,0 91.5,0 91.5,0                           L91.5,37 C91.5,37 91.5,37 91.5,37                           L0,37 C0,37 0,37 0,37 L0,0                           C0,0 0,0 0,0 Z" class="po-mind-topic-shape-fill" transform="matrix(1,0,0,1,1.5,1.5)" fill="#ffffff" stroke-width="0"></path><path d="M0,0 L90,0 L90,35.5 L0,35.5 L0,0 Z M7,35.5 L7,42.5 L97,42.5 L97,7 L90,7" class="po-mind-topic-shape" transform="matrix(1,0,0,1,1.5,1.5)" fill="none" stroke-width="3" stroke="#3b1084"></path><g transform="matrix(1,0,0,1,7.5,8.5)"><g data-width="77.5" data-height="21" data-offsetx="0" transform="matrix(1,0,0,1,0,0)"><g><text text-anchor="start" align="top" anchor="start" font-size="15px" font-weight="bold" fill="rgb(59, 16, 132)" style="font-family: 思源宋体;font-size: 15px;font-weight: bold;font-style: normal;line-height: 140%;max-width: 900px;overflow-wrap: break-word;word-break: break-word;text-size-adjust: 100%;color: rgb(59, 16, 132);"><tspan x="0" y="15"><tspan dx="0">注意的问题</tspan></tspan></text></g></g></g></g><g class="po-mind-topic" id="topic-c758dcbd-7a75-41ca-a126-6099dcd7544a" transform="matrix(1,0,0,1,488.3,745)" opacity="1"><path d="M0,0 L120.30000000000001,0 C120.30000000000001,0 120.30000000000001,0 120.30000000000001,0                           L120.30000000000001,35 C120.30000000000001,35 120.30000000000001,35 120.30000000000001,35                           L0,35 C0,35 0,35 0,35 L0,0                           C0,0 0,0 0,0 Z" class="po-mind-topic-shape-fill" transform="matrix(1,0,0,1,2.5,3.5)" fill="rgba(0, 0, 0, 0.1)" stroke-width="4" stroke="rgba(0, 0, 0, 0.1)"></path><path d="M0,0 L120.30000000000001,0 C120.30000000000001,0 120.30000000000001,0 120.30000000000001,0                           L120.30000000000001,35 C120.30000000000001,35 120.30000000000001,35 120.30000000000001,35                           L0,35 C0,35 0,35 0,35 L0,0                           C0,0 0,0 0,0 Z" class="po-mind-topic-shape-fill" transform="matrix(1,0,0,1,1.5,1.5)" fill="#ffffff" stroke-width="0"></path><path d="M0,0 L118.80000000000001,0 L118.80000000000001,33.5 L0,33.5 L0,0 Z M7,33.5 L7,40.5 L125.80000000000001,40.5 L125.80000000000001,7 L118.80000000000001,7" class="po-mind-topic-shape" transform="matrix(1,0,0,1,1.5,1.5)" fill="none" stroke-width="3" stroke="#3b1084"></path><g transform="matrix(1,0,0,1,7.5,8.5)"><g data-width="106.3" data-height="19" data-offsetx="0" transform="matrix(1,0,0,1,0,0)"><g><text text-anchor="start" align="top" anchor="start" font-size="13px" font-weight="bold" fill="rgb(59, 16, 132)" style="font-family: 思源宋体;font-size: 13px;font-weight: bold;font-style: normal;line-height: 140%;max-width: 897px;overflow-wrap: break-word;word-break: break-word;text-size-adjust: 100%;color: rgb(59, 16, 132);"><tspan x="0" y="13"><tspan dx="0">必须设置终止条件</tspan></tspan></text></g></g></g></g><g class="po-mind-topic" id="topic-d4bce19b-f62d-44c1-8870-9f6894a1f2e1" transform="matrix(1,0,0,1,488.3,794)" opacity="1"><path d="M0,0 L94.3,0 C94.3,0 94.3,0 94.3,0                           L94.3,35 C94.3,35 94.3,35 94.3,35                           L0,35 C0,35 0,35 0,35 L0,0                           C0,0 0,0 0,0 Z" class="po-mind-topic-shape-fill" transform="matrix(1,0,0,1,2.5,3.5)" fill="rgba(0, 0, 0, 0.1)" stroke-width="4" stroke="rgba(0, 0, 0, 0.1)"></path><path d="M0,0 L94.3,0 C94.3,0 94.3,0 94.3,0                           L94.3,35 C94.3,35 94.3,35 94.3,35                           L0,35 C0,35 0,35 0,35 L0,0                           C0,0 0,0 0,0 Z" class="po-mind-topic-shape-fill" transform="matrix(1,0,0,1,1.5,1.5)" fill="#ffffff" stroke-width="0"></path><path d="M0,0 L92.8,0 L92.8,33.5 L0,33.5 L0,0 Z M7,33.5 L7,40.5 L99.8,40.5 L99.8,7 L92.8,7" class="po-mind-topic-shape" transform="matrix(1,0,0,1,1.5,1.5)" fill="none" stroke-width="3" stroke="#3b1084"></path><g transform="matrix(1,0,0,1,7.5,8.5)"><g data-width="80.3" data-height="19" data-offsetx="0" transform="matrix(1,0,0,1,0,0)"><g><text text-anchor="start" align="top" anchor="start" font-size="13px" font-weight="bold" fill="rgb(59, 16, 132)" style="font-family: 思源宋体;font-size: 13px;font-weight: bold;font-style: normal;line-height: 140%;max-width: 897px;overflow-wrap: break-word;word-break: break-word;text-size-adjust: 100%;color: rgb(59, 16, 132);"><tspan x="0" y="13"><tspan dx="0">必须保证收敛</tspan></tspan></text></g></g></g></g><g class="po-mind-topic" id="topic-6b857674-65d1-42f6-969d-638e9932f712" transform="matrix(1,0,0,1,488.3,843)" opacity="1"><path d="M0,0 L263.3,0 C263.3,0 263.3,0 263.3,0                           L263.3,35 C263.3,35 263.3,35 263.3,35                           L0,35 C0,35 0,35 0,35 L0,0                           C0,0 0,0 0,0 Z" class="po-mind-topic-shape-fill" transform="matrix(1,0,0,1,2.5,3.5)" fill="rgba(0, 0, 0, 0.1)" stroke-width="4" stroke="rgba(0, 0, 0, 0.1)"></path><path d="M0,0 L263.3,0 C263.3,0 263.3,0 263.3,0                           L263.3,35 C263.3,35 263.3,35 263.3,35                           L0,35 C0,35 0,35 0,35 L0,0                           C0,0 0,0 0,0 Z" class="po-mind-topic-shape-fill" transform="matrix(1,0,0,1,1.5,1.5)" fill="#ffffff" stroke-width="0"></path><path d="M0,0 L261.8,0 L261.8,33.5 L0,33.5 L0,0 Z M7,33.5 L7,40.5 L268.8,40.5 L268.8,7 L261.8,7" class="po-mind-topic-shape" transform="matrix(1,0,0,1,1.5,1.5)" fill="none" stroke-width="3" stroke="#3b1084"></path><g transform="matrix(1,0,0,1,7.5,8.5)"><g data-width="249.3" data-height="19" data-offsetx="0" transform="matrix(1,0,0,1,0,0)"><g><text text-anchor="start" align="top" anchor="start" font-size="13px" font-weight="bold" fill="rgb(59, 16, 132)" style="font-family: 思源宋体;font-size: 13px;font-weight: bold;font-style: normal;line-height: 140%;max-width: 897px;overflow-wrap: break-word;word-break: break-word;text-size-adjust: 100%;color: rgb(59, 16, 132);"><tspan x="0" y="13"><tspan dx="0">必须保证内存和运算消耗控制在一定范围内</tspan></tspan></text></g></g></g></g></g><g class="po-mind-associative-line-label-container"></g></g><g id="wpsexport-watermark"><defs><pattern patternUnits="userSpaceOnUse" id="wpspattern_mark_0" width="300" height="300"><text x="150" y="100" fill="#0000004d" font-size="18" transform="rotate(-45, 150, 150)" style="dominant-baseline: middle; text-anchor: middle;"></text></pattern></defs><rect fill="url(#wpspattern_mark_0)" x="0" y="0" width="589.594" height="388" id="rect_mark_0" pointer-events="none"></rect></g><style>
    .connection-svg{
        outline: none;
        box-shadow: none;
        -webkit-tap-highlight-color: transparent;
    }
    .connection-line {
        cursor: pointer;
    }

    .connection-line-bg {
        cursor: pointer;
    }

    .node-add-btn {
        cursor: pointer;
    }

    .po-richtext-node-wrap ol,
    .area_box ol,
    .po-measureCustomNode ol {
        padding-left: 20px;
        margin: 0;
    }
    .po-richtext-node-wrap ol li,
    .area_box ol li,
    .po-measureCustomNode ol li {
        list-style: decimal;
    }
    .po-richtext-node-wrap ul,
    .area_box ul,
    .po-measureCustomNode ul {
        padding-left: calc(15px + 0.5em);
        list-style: none;
        margin: 0;
    }
    .po-richtext-node-wrap ul li,
    .area_box ul li,
    .po-measureCustomNode ul li {
        list-style: disc;
    }
    .po-richtext-node-wrap p,
    .po-richtext-node-wrap h1,
    .po-richtext-node-wrap h2,
    .po-richtext-node-wrap h3,
    .po-richtext-node-wrap h4,
    .po-richtext-node-wrap h5,
    .po-richtext-node-wrap h6,
    .area_box p,
    .area_box h1,
    .area_box h2,
    .area_box h3,
    .area_box h4,
    .area_box h5,
    .area_box h6,
    .po-measureCustomNode p,
    .po-measureCustomNode h1,
    .po-measureCustomNode h2,
    .po-measureCustomNode h3,
    .po-measureCustomNode h4,
    .po-measureCustomNode h5,
    .po-measureCustomNode h6 {
        margin: 0;
    }
    .po-safari-fixed {
        position: fixed;
    }
</style></svg>