<?xml version="1.0" standalone="no"?><?xml-stylesheet type="text/css" href="https://wps.processon.com/themes/default/wps/mind/icons/icons.css" ?><!DOCTYPE svg PUBLIC "-//W3C//DTD SVG 1.1//EN" "http://www.w3.org/Graphics/SVG/1.1/DTD/svg11.dtd"><svg id="SvgjsSvg1006" width="730.5" height="286" xmlns="http://www.w3.org/2000/svg" version="1.1" xmlns:xlink="http://www.w3.org/1999/xlink" xmlns:svgjs="http://svgjs.com/svgjs"><defs id="SvgjsDefs1007"><pattern patternUnits="userSpaceOnUse" id="pattern_mark_0" width="300" height="300"><text x="150" y="100" fill="rgba(229,229,229,0.8)" font-size="18" transform="rotate(-45, 150, 150)" style="dominant-baseline: middle; text-anchor: middle;"></text></pattern><pattern patternUnits="userSpaceOnUse" id="pattern_mark_1" width="300" height="300"><text x="150" y="200" fill="rgba(229,229,229,0.8)" font-size="18" transform="rotate(-45, 150, 150)" style="dominant-baseline: middle; text-anchor: middle;"></text></pattern><marker id="SvgjsMarker1027" markerWidth="14" markerHeight="10" refX="10" refY="5" viewBox="0 0 14 10" orient="auto" markerUnits="userSpaceOnUse" stroke-dasharray="0,0"><path id="SvgjsPath1028" d="M0,0 L14,5 L0,10 L0,0" fill="#3b1084" stroke="#3b1084" stroke-width="1"></path></marker><marker id="SvgjsMarker1037" markerWidth="14" markerHeight="10" refX="10" refY="5" viewBox="0 0 14 10" orient="auto" markerUnits="userSpaceOnUse" stroke-dasharray="0,0"><path id="SvgjsPath1038" d="M0,0 L14,5 L0,10 L0,0" fill="#3b1084" stroke="#3b1084" stroke-width="1"></path></marker><pattern patternUnits="userSpaceOnUse" id="wpspattern_mark_0" width="300" height="300"><text x="150" y="100" fill="#0000004d" font-size="18" transform="rotate(-45, 150, 150)" style="dominant-baseline: middle; text-anchor: middle;"></text></pattern></defs><rect id="svgbackgroundid" width="730.5" height="286" fill="transparent"></rect><rect id="SvgjsRect1009" width="730.5" height="286" fill="url(#pattern_mark_0)"></rect><rect id="SvgjsRect1010" width="730.5" height="286" fill="url(#pattern_mark_1)"></rect><g id="SvgjsG1011" transform="translate(119.5,119.75)"><path id="SvgjsPath1012" d="M 0 4Q 0 0 4 0L 96 0Q 100 0 100 4L 100 42.5Q 100 46.5 96 46.5L 4 46.5Q 0 46.5 0 42.5Z" stroke="rgba(59,16,132,1)" stroke-width="2" fill="none"></path><g id="SvgjsG1013"><text id="SvgjsText1014" font-family="思源宋体" text-anchor="middle" font-size="18px" width="80px" fill="#3b1084" font-weight="400" align="middle" lineHeight="125%" anchor="middle" family="思源宋体" size="18px" weight="400" font-style="" opacity="1" y="7.5" transform="rotate(0)"><tspan id="SvgjsTspan1015" dy="22.5" x="50"><tspan id="SvgjsTspan1016" style="">编辑器</tspan></tspan></text></g></g><g id="SvgjsG1017"><path id="SvgjsPath1018" d="M220.5 143L266 143" stroke="#3b1084" stroke-width="2" fill="none"></path></g><g id="SvgjsG1019" transform="translate(267,119.75)"><path id="SvgjsPath1020" d="M 0 4Q 0 0 4 0L 105 0Q 109 0 109 4L 109 42.5Q 109 46.5 105 46.5L 4 46.5Q 0 46.5 0 42.5Z" stroke="rgba(59,16,132,1)" stroke-width="2" fill="none"></path><g id="SvgjsG1021"><text id="SvgjsText1022" font-family="思源宋体" text-anchor="middle" font-size="18px" width="89px" fill="#3b1084" font-weight="400" align="middle" lineHeight="125%" anchor="middle" family="思源宋体" size="18px" weight="400" font-style="" opacity="1" y="7.5" transform="rotate(0)"><tspan id="SvgjsTspan1023" dy="22.5" x="54.5"><tspan id="SvgjsTspan1024" style="">.py源文件</tspan></tspan></text></g></g><g id="SvgjsG1025"><path id="SvgjsPath1026" d="M377 143L424.9 143" stroke="#3b1084" stroke-width="2" fill="none" marker-end="url(#SvgjsMarker1027)"></path></g><g id="SvgjsG1029" transform="translate(428.5,119.75)"><path id="SvgjsPath1030" d="M 0 4Q 0 0 4 0L 96 0Q 100 0 100 4L 100 42.5Q 100 46.5 96 46.5L 4 46.5Q 0 46.5 0 42.5Z" stroke="rgba(59,16,132,1)" stroke-width="2" fill="none"></path><g id="SvgjsG1031"><text id="SvgjsText1032" font-family="思源宋体" text-anchor="middle" font-size="18px" width="80px" fill="#3b1084" font-weight="400" align="middle" lineHeight="125%" anchor="middle" family="思源宋体" size="18px" weight="400" font-style="" opacity="1" y="7.5" transform="rotate(0)"><tspan id="SvgjsTspan1033" dy="22.5" x="50"><tspan id="SvgjsTspan1034" style="">解释器</tspan></tspan></text></g></g><g id="SvgjsG1035"><path id="SvgjsPath1036" d="M529.5 143L574.9 143" stroke="#3b1084" stroke-width="2" fill="none" marker-end="url(#SvgjsMarker1037)"></path></g><g id="SvgjsG1039" transform="translate(25,131.5)"><path id="SvgjsPath1040" d="M 0 0L 47 0L 47 23L 0 23Z" stroke="none" fill="none"></path><g id="SvgjsG1041"><text id="SvgjsText1042" font-family="Arial" text-anchor="middle" font-size="13px" width="47px" fill="#323232" font-weight="400" align="middle" lineHeight="125%" anchor="middle" family="Arial" size="13px" weight="400" font-style="" opacity="1" y="0.875" transform="rotate(0)"></text></g></g><g id="SvgjsG1043" transform="translate(578.5,119.75)"><path id="SvgjsPath1044" d="M 0 4Q 0 0 4 0L 96 0Q 100 0 100 4L 100 42.5Q 100 46.5 96 46.5L 4 46.5Q 0 46.5 0 42.5Z" stroke="rgba(59,16,132,1)" stroke-width="2" fill="none"></path><g id="SvgjsG1045"><text id="SvgjsText1046" font-family="思源宋体" text-anchor="middle" font-size="18px" width="80px" fill="#3b1084" font-weight="400" align="middle" lineHeight="125%" anchor="middle" family="思源宋体" size="18px" weight="400" font-style="" opacity="1" y="7.5" transform="rotate(0)"><tspan id="SvgjsTspan1047" dy="22.5" x="50"><tspan id="SvgjsTspan1048" style="">输出</tspan></tspan></text></g></g><g id="SvgjsG1049" transform="translate(114.25,25)"><path id="SvgjsPath1050" d="M 0 0L 110.5 0L 110.5 56L 0 56Z" stroke="none" fill="none"></path><g id="SvgjsG1051"><text id="SvgjsText1052" font-family="思源宋体" text-anchor="middle" font-size="15px" width="111px" fill="#3b1084" font-weight="400" align="middle" lineHeight="125%" anchor="middle" family="思源宋体" size="15px" weight="400" font-style="" opacity="1" y="6.125" transform="rotate(0)"><tspan id="SvgjsTspan1053" dy="18.75" x="55.5"><tspan id="SvgjsTspan1054" style="">使用文本编辑器</tspan></tspan><tspan id="SvgjsTspan1055" dy="18.75" x="55.5"><tspan id="SvgjsTspan1056" style="">编写程序代码</tspan></tspan></text></g></g><g id="SvgjsG1057" transform="translate(156.5,85)"><path id="SvgjsPath1058" d="M 8.58 0L 17.42 0L 17.42 14.506L 26 14.506L 13 26.375L 0 14.506L 8.58 14.506L 8.58 0Z" stroke="rgba(59,16,132,1)" stroke-width="1.5" fill-opacity="1" fill="#ffffff"></path><g id="SvgjsG1059"><text id="SvgjsText1060" font-family="&quot;Microsoft YaHei&quot;, 微软雅黑, Arial" text-anchor="middle" font-size="13px" width="37px" fill="#3b1084" font-weight="400" align="middle" lineHeight="125%" anchor="middle" family="&quot;Microsoft YaHei&quot;, 微软雅黑, Arial" size="13px" weight="400" font-style="" opacity="1" y="1.2440000000000007" transform="rotate(0)"></text></g></g><g id="SvgjsG1061" transform="translate(423.25,33)"><path id="SvgjsPath1062" d="M 0 0L 110.5 0L 110.5 40L 0 40Z" stroke="none" fill="none"></path><g id="SvgjsG1063"><text id="SvgjsText1064" font-family="思源宋体" text-anchor="middle" font-size="15px" width="111px" fill="#3b1084" font-weight="400" align="middle" lineHeight="125%" anchor="middle" family="思源宋体" size="15px" weight="400" font-style="" opacity="1" y="-1.875" transform="rotate(0)"><tspan id="SvgjsTspan1065" dy="18.75" x="55.5"><tspan id="SvgjsTspan1066" style="">启动解释器</tspan></tspan><tspan id="SvgjsTspan1067" dy="18.75" x="55.5"><tspan id="SvgjsTspan1068" style="">执行程序</tspan></tspan></text></g></g><g id="SvgjsG1069" transform="translate(465.5,85)"><path id="SvgjsPath1070" d="M 8.58 0L 17.42 0L 17.42 14.506L 26 14.506L 13 26.375L 0 14.506L 8.58 14.506L 8.58 0Z" stroke="rgba(59,16,132,1)" stroke-width="1.5" fill-opacity="1" fill="#ffffff"></path><g id="SvgjsG1071"><text id="SvgjsText1072" font-family="&quot;Microsoft YaHei&quot;, 微软雅黑, Arial" text-anchor="middle" font-size="13px" width="37px" fill="#3b1084" font-weight="400" align="middle" lineHeight="125%" anchor="middle" family="&quot;Microsoft YaHei&quot;, 微软雅黑, Arial" size="13px" weight="400" font-style="" opacity="1" y="1.2440000000000007" transform="rotate(0)"></text></g></g><g id="SvgjsG1073" transform="translate(612.5,177)"><path id="SvgjsPath1074" d="M 16 0L 32 13.05L 21.44 13.05L 21.44 29L 10.56 29L 10.56 13.05L 0 13.05L 16 0Z" stroke="rgba(59,16,132,1)" stroke-width="1.5" fill-opacity="1" fill="#ffffff"></path><g id="SvgjsG1075"><text id="SvgjsText1076" font-family="&quot;Microsoft YaHei&quot;, 微软雅黑, Arial" text-anchor="middle" font-size="13px" width="45px" fill="#3b1084" font-weight="400" align="middle" lineHeight="125%" anchor="middle" family="&quot;Microsoft YaHei&quot;, 微软雅黑, Arial" size="13px" weight="400" font-style="" opacity="1" y="5.325000000000001" transform="rotate(0)"></text></g></g><g id="SvgjsG1077" transform="translate(562.25,221)"><path id="SvgjsPath1078" d="M 0 0L 143.25 0L 143.25 40L 0 40Z" stroke="none" fill="none"></path><g id="SvgjsG1079"><text id="SvgjsText1080" font-family="思源宋体" text-anchor="middle" font-size="15px" width="144px" fill="#3b1084" font-weight="400" align="middle" lineHeight="125%" anchor="middle" family="思源宋体" size="15px" weight="400" font-style="" opacity="1" y="7.625" transform="rotate(0)"><tspan id="SvgjsTspan1081" dy="18.75" x="72"><tspan id="SvgjsTspan1082" style="">执行程序输出的结果</tspan></tspan></text></g></g><g id="SvgjsG1083"></g><rect id="SvgjsRect1084" width="730.5" height="286" fill="url(#wpspattern_mark_0)"></rect></svg>