<?xml version="1.0" standalone="no"?><?xml-stylesheet type="text/css" href="https://wps.processon.com/themes/default/wps/mind/icons/icons.css" ?><!DOCTYPE svg PUBLIC "-//W3C//DTD SVG 1.1//EN" "http://www.w3.org/Graphics/SVG/1.1/DTD/svg11.dtd"><svg xmlns="http://www.w3.org/2000/svg" xmlns:xlink="http://www.w3.org/1999/xlink" version="1.1" width="696.8999633789062" height="289" style="outline: none; background: none; top: 0px; left: 0px; display: block; z-index: 1; font-size: 12px;" id="mind-svg-con"><defs></defs><g id="svgbackgroundid"><defs transform="matrix(0.4599392725956168,0,0,0.06398051804294887,0,0)"></defs><rect width="1515.199951171875" height="4517" fill="#FFFFFF" transform="matrix(0.4599392725956168,0,0,0.06398051804294887,0,0)"></rect></g><g id="export-watermark"><defs><pattern patternUnits="userSpaceOnUse" id="pattern_mark_0" width="300" height="300"><text x="150" y="100" fill="rgb(235,235,235)" font-size="18" transform="rotate(-45, 150, 150)" style="dominant-baseline: middle; text-anchor: middle;"></text></pattern></defs><rect fill="url(#pattern_mark_0)" x="0" y="0" width="696.898" height="289" id="rect_mark_0" pointer-events="none"></rect></g><g class="po-mind-container" transform="matrix(1,0,0,1,-468.29998779296875,699.8125)"><g class="po-mind-line-container" style=""><g from="d263722c-c743-44bf-83ca-4f59a53f812b" to="0e4c6dac-2a53-4374-a4b7-3266c65fe34f" opacity="1"><path d="M620.8 -527.6875L632.8 -527.6875L632.8 -588.5625C632.8 -588.5625 632.8 -594.5625 638.8 -594.5625L660.8 -594.5625" stroke-linecap="butt" stroke-width="3" stroke="#3d707a" fill="none"></path></g><g from="d263722c-c743-44bf-83ca-4f59a53f812b" to="a0b96fe7-9237-4750-bd78-b578ce5c14b7" opacity="1"><path d="M620.8 -527.6875L632.8 -527.6875L632.8 -466.8125C632.8 -466.8125 632.8 -460.8125 638.8 -460.8125L660.8 -460.8125" stroke-linecap="butt" stroke-width="3" stroke="#3d707a" fill="none"></path></g><g from="0e4c6dac-2a53-4374-a4b7-3266c65fe34f" to="41c9663b-b6ea-4e8d-82e3-8bc346c28733" opacity="1"><path d="M790.3 -594.5625L802.3 -594.5625L802.3 -624.8125C802.3 -624.8125 802.3 -630.8125 808.3 -630.8125L830.3 -630.8125" stroke-linecap="butt" stroke-width="3" stroke="#3d707a" fill="none"></path></g><g from="0e4c6dac-2a53-4374-a4b7-3266c65fe34f" to="a19eea0d-329d-487e-805a-5a991205ee8a" opacity="1"><path d="M790.3 -594.5625L802.3 -594.5625L802.3 -564.3125C802.3 -564.3125 802.3 -558.3125 808.3 -558.3125L830.3 -558.3125" stroke-linecap="butt" stroke-width="3" stroke="#3d707a" fill="none"></path></g><g from="41c9663b-b6ea-4e8d-82e3-8bc346c28733" to="d47dddc4-282c-4161-9cf8-fa834045a8ae" opacity="1"><path d="M899.8 -630.8125L911.8 -630.8125L911.8 -630.8125C911.8 -630.8125 911.8 -630.8125 911.8 -630.8125L939.8 -630.8125" stroke-linecap="butt" stroke-width="3" stroke="#4b8f9c" fill="none"></path></g><g from="a19eea0d-329d-487e-805a-5a991205ee8a" to="3a76249e-a4f9-4a40-98e3-b8aacbad9fa0" opacity="1"><path d="M914.8 -558.3125L926.8 -558.3125L926.8 -558.3125C926.8 -558.3125 926.8 -558.3125 926.8 -558.3125L954.8 -558.3125" stroke-linecap="butt" stroke-width="3" stroke="#4b8f9c" fill="none"></path></g><g from="a0b96fe7-9237-4750-bd78-b578ce5c14b7" to="5d075b1e-c413-452b-b3b5-6985ffe63438" opacity="1"><path d="M790.3 -460.8125L802.3 -460.8125L802.3 -479.8125C802.3 -479.8125 802.3 -485.8125 808.3 -485.8125L830.3 -485.8125" stroke-linecap="butt" stroke-width="3" stroke="#4b8f9c" fill="none"></path></g><g from="a0b96fe7-9237-4750-bd78-b578ce5c14b7" to="16868f2c-e7fb-4242-b31f-39fd47e5e9ae" opacity="1"><path d="M790.3 -460.8125L802.3 -460.8125L802.3 -441.8125C802.3 -441.8125 802.3 -435.8125 808.3 -435.8125L830.3 -435.8125" stroke-linecap="butt" stroke-width="3" stroke="#4b8f9c" fill="none"></path></g></g><g class="po-mind-generalize-container"></g><g class="po-mind-associative-line-container"></g><g class="po-mind-node-container"><g class="po-mind-topic" id="topic-d263722c-c743-44bf-83ca-4f59a53f812b" transform="matrix(1,0,0,1,496.3,-550.1875)" opacity="1"><path d="M0,0 L116.5,0 C116.5,0 116.5,0 116.5,0                           L116.5,37 C116.5,37 116.5,37 116.5,37                           L0,37 C0,37 0,37 0,37 L0,0                           C0,0 0,0 0,0 Z" class="po-mind-topic-shape-fill" transform="matrix(1,0,0,1,1.5,1.5)" fill="#ffffff"></path><path d="M0,0 L115,0 L115,35.5 L0,35.5 L0,0 Z M7,35.5 L7,42.5 L122,42.5 L122,7 L115,7" class="po-mind-topic-shape" transform="matrix(1,0,0,1,1.5,1.5)" fill="none" stroke-width="3" stroke="#3d707a"></path><g transform="matrix(1,0,0,1,7.5,8.5)"><g data-width="102.5" data-height="21" data-offsetx="0" transform="matrix(1,0,0,1,0,0)"><g><text text-anchor="start" align="top" anchor="start" font-size="15px" font-weight="bold" fill="rgb(75, 143, 156)" style="font-family: 思源宋体;font-size: 15px;font-weight: bold;line-height: 140%;max-width: 900px;overflow-wrap: break-word;word-break: break-word;text-size-adjust: 100%;color: rgb(75, 143, 156);"><tspan x="0" y="15"><tspan dx="0">元组（tuple）</tspan></tspan></text></g></g></g><g><rect width="4" height="45" x="-3" y="0" resize="1" fill="none" style="cursor: ew-resize;"></rect><rect width="4" height="45" x="125.5" y="0" resize="2" fill="none" style="cursor: ew-resize;"></rect></g></g><g class="po-mind-topic" id="topic-0e4c6dac-2a53-4374-a4b7-3266c65fe34f" transform="matrix(1,0,0,1,660.8,-617.0625)" opacity="1"><path d="M0,0 L121.5,0 C121.5,0 121.5,0 121.5,0                           L121.5,37 C121.5,37 121.5,37 121.5,37                           L0,37 C0,37 0,37 0,37 L0,0                           C0,0 0,0 0,0 Z" class="po-mind-topic-shape-fill" transform="matrix(1,0,0,1,1.5,1.5)" fill="#ffffff"></path><path d="M0,0 L120,0 L120,35.5 L0,35.5 L0,0 Z M7,35.5 L7,42.5 L127,42.5 L127,7 L120,7" class="po-mind-topic-shape" transform="matrix(1,0,0,1,1.5,1.5)" fill="none" stroke-width="3" stroke="#3d707a"></path><g transform="matrix(1,0,0,1,7.5,8.5)"><g data-width="107.5" data-height="21" data-offsetx="0" transform="matrix(1,0,0,1,0,0)"><g><text text-anchor="start" align="top" anchor="start" font-size="15px" font-weight="bold" fill="rgb(75, 143, 156)" style="font-family: 思源宋体;font-size: 15px;font-weight: bold;line-height: 140%;max-width: 900px;overflow-wrap: break-word;word-break: break-word;text-size-adjust: 100%;color: rgb(75, 143, 156);"><tspan x="0" y="15"><tspan dx="0">元组对象的创建</tspan></tspan></text></g></g></g></g><g class="po-mind-topic" id="topic-41c9663b-b6ea-4e8d-82e3-8bc346c28733" transform="matrix(1,0,0,1,830.3,-653.3125)" opacity="1"><path d="M0,0 L61.5,0 C61.5,0 61.5,0 61.5,0                           L61.5,37 C61.5,37 61.5,37 61.5,37                           L0,37 C0,37 0,37 0,37 L0,0                           C0,0 0,0 0,0 Z" class="po-mind-topic-shape-fill" transform="matrix(1,0,0,1,1.5,1.5)" fill="#ffffff"></path><path d="M0,0 L60,0 L60,35.5 L0,35.5 L0,0 Z M7,35.5 L7,42.5 L67,42.5 L67,7 L60,7" class="po-mind-topic-shape" transform="matrix(1,0,0,1,1.5,1.5)" fill="none" stroke-width="3" stroke="#3d707a"></path><g transform="matrix(1,0,0,1,7.5,8.5)"><g data-width="47.5" data-height="21" data-offsetx="0" transform="matrix(1,0,0,1,0,0)"><g><text text-anchor="start" align="top" anchor="start" font-size="15px" font-weight="bold" fill="rgb(75, 143, 156)" style="font-family: 思源宋体;font-size: 15px;font-weight: bold;line-height: 140%;max-width: 900px;overflow-wrap: break-word;word-break: break-word;text-size-adjust: 100%;color: rgb(75, 143, 156);"><tspan x="0" y="15"><tspan dx="0">字面量</tspan></tspan></text></g></g></g></g><g class="po-mind-topic" id="topic-d47dddc4-282c-4161-9cf8-fa834045a8ae" transform="matrix(1,0,0,1,939.8,-674.8125)" opacity="1"><path d="M0,0 L200.4,0 C200.4,0 200.4,0 200.4,0                           L200.4,44 C200.4,44 200.4,44 200.4,44                           L0,44 C0,44 0,44 0,44 L0,0                           C0,0 0,0 0,0 Z" class="po-mind-topic-shape-fill" fill="none"></path><path d="M0,44  L200.4 44 M0,37 L200.4 37" class="po-mind-topic-shape" fill="none" stroke-width="3" stroke="#4b8f9c"></path><g transform="matrix(1,0,0,1,6.5,12)"><g data-width="187.4" data-height="20" data-offsetx="0" transform="matrix(1,0,0,1,0,0)"><g><text text-anchor="start" align="top" anchor="start" font-size="14px" font-weight="" fill="rgb(75, 143, 156)" style="font-family: 思源宋体;font-size: 14px;line-height: 140%;max-width: 896px;overflow-wrap: break-word;word-break: break-word;text-size-adjust: 100%;color: rgb(75, 143, 156);"><tspan x="0" y="13.999999999999996"><tspan dx="0">(value1,[value2,value3,···])</tspan></tspan></text></g></g></g></g><g class="po-mind-topic" id="topic-a19eea0d-329d-487e-805a-5a991205ee8a" transform="matrix(1,0,0,1,830.3,-580.8125)" opacity="1"><path d="M0,0 L76.5,0 C76.5,0 76.5,0 76.5,0                           L76.5,37 C76.5,37 76.5,37 76.5,37                           L0,37 C0,37 0,37 0,37 L0,0                           C0,0 0,0 0,0 Z" class="po-mind-topic-shape-fill" transform="matrix(1,0,0,1,1.5,1.5)" fill="#ffffff"></path><path d="M0,0 L75,0 L75,35.5 L0,35.5 L0,0 Z M7,35.5 L7,42.5 L82,42.5 L82,7 L75,7" class="po-mind-topic-shape" transform="matrix(1,0,0,1,1.5,1.5)" fill="none" stroke-width="3" stroke="#3d707a"></path><g transform="matrix(1,0,0,1,7.5,8.5)"><g data-width="62.5" data-height="21" data-offsetx="0" transform="matrix(1,0,0,1,0,0)"><g><text text-anchor="start" align="top" anchor="start" font-size="15px" font-weight="bold" fill="rgb(75, 143, 156)" style="font-family: 思源宋体;font-size: 15px;font-weight: bold;line-height: 140%;max-width: 900px;overflow-wrap: break-word;word-break: break-word;text-size-adjust: 100%;color: rgb(75, 143, 156);"><tspan x="0" y="15"><tspan dx="0">内置函数</tspan></tspan></text></g></g></g></g><g class="po-mind-topic" id="topic-3a76249e-a4f9-4a40-98e3-b8aacbad9fa0" transform="matrix(1,0,0,1,954.8,-602.3125)" opacity="1"><path d="M0,0 L133.4,0 C133.4,0 133.4,0 133.4,0                           L133.4,44 C133.4,44 133.4,44 133.4,44                           L0,44 C0,44 0,44 0,44 L0,0                           C0,0 0,0 0,0 Z" class="po-mind-topic-shape-fill" fill="none"></path><path d="M0,44  L133.4 44 M0,37 L133.4 37" class="po-mind-topic-shape" fill="none" stroke-width="3" stroke="#4b8f9c"></path><g transform="matrix(1,0,0,1,6.5,12)"><g data-width="120.4" data-height="20" data-offsetx="0" transform="matrix(1,0,0,1,0,0)"><g><text text-anchor="start" align="top" anchor="start" font-size="14px" font-weight="" fill="rgb(75, 143, 156)" style="font-family: 思源宋体;font-size: 14px;line-height: 140%;max-width: 896px;overflow-wrap: break-word;word-break: break-word;text-size-adjust: 100%;color: rgb(75, 143, 156);"><tspan x="0" y="13.999999999999996"><tspan dx="0">tuple(可迭代对象)</tspan></tspan></text></g></g></g></g><g class="po-mind-topic" id="topic-a0b96fe7-9237-4750-bd78-b578ce5c14b7" transform="matrix(1,0,0,1,660.8,-483.3125)" opacity="1"><path d="M0,0 L121.5,0 C121.5,0 121.5,0 121.5,0                           L121.5,37 C121.5,37 121.5,37 121.5,37                           L0,37 C0,37 0,37 0,37 L0,0                           C0,0 0,0 0,0 Z" class="po-mind-topic-shape-fill" transform="matrix(1,0,0,1,1.5,1.5)" fill="#ffffff"></path><path d="M0,0 L120,0 L120,35.5 L0,35.5 L0,0 Z M7,35.5 L7,42.5 L127,42.5 L127,7 L120,7" class="po-mind-topic-shape" transform="matrix(1,0,0,1,1.5,1.5)" fill="none" stroke-width="3" stroke="#3d707a"></path><g transform="matrix(1,0,0,1,7.5,8.5)"><g data-width="107.5" data-height="21" data-offsetx="0" transform="matrix(1,0,0,1,0,0)"><g><text text-anchor="start" align="top" anchor="start" font-size="15px" font-weight="bold" fill="rgb(75, 143, 156)" style="font-family: 思源宋体;font-size: 15px;font-weight: bold;line-height: 140%;max-width: 900px;overflow-wrap: break-word;word-break: break-word;text-size-adjust: 100%;color: rgb(75, 143, 156);"><tspan x="0" y="15"><tspan dx="0">元组对象的方法</tspan></tspan></text></g></g></g></g><g class="po-mind-topic" id="topic-5d075b1e-c413-452b-b3b5-6985ffe63438" transform="matrix(1,0,0,1,830.3,-529.8125)" opacity="1"><path d="M0,0 L85.4,0 C85.4,0 85.4,0 85.4,0                           L85.4,44 C85.4,44 85.4,44 85.4,44                           L0,44 C0,44 0,44 0,44 L0,0                           C0,0 0,0 0,0 Z" class="po-mind-topic-shape-fill" fill="none"></path><path d="M0,44  L85.4 44 M0,37 L85.4 37" class="po-mind-topic-shape" fill="none" stroke-width="3" stroke="#4b8f9c"></path><g transform="matrix(1,0,0,1,6.5,12)"><g data-width="72.4" data-height="20" data-offsetx="0" transform="matrix(1,0,0,1,0,0)"><g><text text-anchor="start" align="top" anchor="start" font-size="14px" font-weight="" fill="rgb(75, 143, 156)" style="font-family: 思源宋体;font-size: 14px;line-height: 140%;max-width: 896px;overflow-wrap: break-word;word-break: break-word;text-size-adjust: 100%;color: rgb(75, 143, 156);"><tspan x="0" y="13.999999999999996"><tspan dx="0">t.count(x)</tspan></tspan></text></g></g></g></g><g class="po-mind-topic" id="topic-16868f2c-e7fb-4242-b31f-39fd47e5e9ae" transform="matrix(1,0,0,1,830.3,-479.8125)" opacity="1"><path d="M0,0 L85.4,0 C85.4,0 85.4,0 85.4,0                           L85.4,44 C85.4,44 85.4,44 85.4,44                           L0,44 C0,44 0,44 0,44 L0,0                           C0,0 0,0 0,0 Z" class="po-mind-topic-shape-fill" fill="none"></path><path d="M0,44  L85.4 44 M0,37 L85.4 37" class="po-mind-topic-shape" fill="none" stroke-width="3" stroke="#4b8f9c"></path><g transform="matrix(1,0,0,1,6.5,12)"><g data-width="72.4" data-height="20" data-offsetx="0" transform="matrix(1,0,0,1,0,0)"><g><text text-anchor="start" align="top" anchor="start" font-size="14px" font-weight="" fill="rgb(75, 143, 156)" style="font-family: 思源宋体;font-size: 14px;line-height: 140%;max-width: 896px;overflow-wrap: break-word;word-break: break-word;text-size-adjust: 100%;color: rgb(75, 143, 156);"><tspan x="0" y="13.999999999999996"><tspan dx="0">t.index(x)</tspan></tspan></text></g></g></g></g></g><g class="po-mind-associative-line-label-container"></g></g><g id="wpsexport-watermark"><defs><pattern patternUnits="userSpaceOnUse" id="wpspattern_mark_0" width="300" height="300"><text x="150" y="100" fill="#0000004d" font-size="18" transform="rotate(-45, 150, 150)" style="dominant-baseline: middle; text-anchor: middle;"></text></pattern></defs><rect fill="url(#wpspattern_mark_0)" x="0" y="0" width="696.898" height="289" id="rect_mark_0" pointer-events="none"></rect></g><style>
    .connection-svg{
        outline: none;
        box-shadow: none;
        -webkit-tap-highlight-color: transparent;
    }
    .connection-line {
        cursor: pointer;
    }

    .connection-line-bg {
        cursor: pointer;
    }

    .node-add-btn {
        cursor: pointer;
    }

    .po-richtext-node-wrap ol,
    .area_box ol,
    .po-measureCustomNode ol {
        padding-left: 20px;
        margin: 0;
    }
    .po-richtext-node-wrap ol li,
    .area_box ol li,
    .po-measureCustomNode ol li {
        list-style: decimal;
    }
    .po-richtext-node-wrap ul,
    .area_box ul,
    .po-measureCustomNode ul {
        padding-left: calc(15px + 0.5em);
        list-style: none;
        margin: 0;
    }
    .po-richtext-node-wrap ul li,
    .area_box ul li,
    .po-measureCustomNode ul li {
        list-style: disc;
    }
    .po-richtext-node-wrap p,
    .po-richtext-node-wrap h1,
    .po-richtext-node-wrap h2,
    .po-richtext-node-wrap h3,
    .po-richtext-node-wrap h4,
    .po-richtext-node-wrap h5,
    .po-richtext-node-wrap h6,
    .area_box p,
    .area_box h1,
    .area_box h2,
    .area_box h3,
    .area_box h4,
    .area_box h5,
    .area_box h6,
    .po-measureCustomNode p,
    .po-measureCustomNode h1,
    .po-measureCustomNode h2,
    .po-measureCustomNode h3,
    .po-measureCustomNode h4,
    .po-measureCustomNode h5,
    .po-measureCustomNode h6 {
        margin: 0;
    }
    .po-safari-fixed {
        position: fixed;
    }
</style></svg>