<?xml version="1.0" standalone="no"?><?xml-stylesheet type="text/css" href="https://wps.processon.com/themes/default/wps/mind/icons/icons.css" ?><!DOCTYPE svg PUBLIC "-//W3C//DTD SVG 1.1//EN" "http://www.w3.org/Graphics/SVG/1.1/DTD/svg11.dtd"><svg xmlns="http://www.w3.org/2000/svg" xmlns:xlink="http://www.w3.org/1999/xlink" version="1.1" width="849.7999877929688" height="1091.5" style="outline: none; background: none; top: 0px; left: 0px; display: block; z-index: 1; font-size: 12px;" id="mind-svg-con"><defs></defs><g id="svgbackgroundid"><defs></defs><rect width="849.7999877929688" height="1091.5" fill="#FFFFFF"></rect></g><g id="export-watermark"><defs><pattern patternUnits="userSpaceOnUse" id="pattern_mark_0" width="300" height="300"><text x="150" y="100" fill="rgb(235,235,235)" font-size="18" transform="rotate(-45, 150, 150)" style="dominant-baseline: middle; text-anchor: middle;"></text></pattern></defs><rect fill="url(#pattern_mark_0)" x="0" y="0" width="849.797" height="1091.5" id="rect_mark_0" pointer-events="none"></rect></g><g class="po-mind-container" transform="matrix(1,0,0,1,156,561.5)"><g class="po-mind-line-container"><g from="root" to="1d8300c6-3a08-49f8-941a-30becaca47e9" opacity="1"><path d="M0 0L64 0L64 -431C64 -431 64 -439 72 -439L192 -439" stroke-linecap="butt" stroke-width="3" stroke="#3d707a" fill="none"></path></g><g from="65ea83bf-f02b-4029-9818-5899f6aca162" to="2c3bfae6-5b8d-4512-8081-fa96c11a9e75" opacity="1"><path d="M456.3 -234.5L468.3 -234.5L468.3 -279.5C468.3 -279.5 468.3 -285.5 474.3 -285.5L496.3 -285.5" stroke-linecap="butt" stroke-width="3" stroke="#3d707a" fill="none"></path></g><g from="65ea83bf-f02b-4029-9818-5899f6aca162" to="d263722c-c743-44bf-83ca-4f59a53f812b" opacity="1"><path d="M456.3 -234.5L468.3 -234.5L468.3 -234.5C468.3 -234.5 468.3 -234.5 468.3 -234.5L496.3 -234.5" stroke-linecap="butt" stroke-width="3" stroke="#3d707a" fill="none"></path></g><g from="65ea83bf-f02b-4029-9818-5899f6aca162" to="5a134f18-c7db-4693-a536-158c5843370d" opacity="1"><path d="M456.3 -234.5L468.3 -234.5L468.3 -189.5C468.3 -189.5 468.3 -183.5 474.3 -183.5L496.3 -183.5" stroke-linecap="butt" stroke-width="3" stroke="#3d707a" fill="none"></path></g><g from="1e5f318e-9ba0-4bd8-84aa-ec58ca430f81" to="65ea83bf-f02b-4029-9818-5899f6aca162" opacity="1"><path d="M346.8 -170.75L358.8 -170.75L358.8 -228.5C358.8 -228.5 358.8 -234.5 364.8 -234.5L386.8 -234.5" stroke-linecap="butt" stroke-width="3" stroke="#3d707a" fill="none"></path></g><g from="1d8300c6-3a08-49f8-941a-30becaca47e9" to="6b51da0f-9e70-4cc4-9cfb-51094e406933" opacity="1"><path d="M346.8 -439L358.8 -439L358.8 -509.5C358.8 -509.5 358.8 -515.5 364.8 -515.5L386.8 -515.5" stroke-linecap="butt" stroke-width="3" stroke="#3d707a" fill="none"></path></g><g from="1d8300c6-3a08-49f8-941a-30becaca47e9" to="fb7af7b9-780a-4b57-83f0-cbb21743a226" opacity="1"><path d="M346.8 -439L358.8 -439L358.8 -458.5C358.8 -458.5 358.8 -464.5 364.8 -464.5L386.8 -464.5" stroke-linecap="butt" stroke-width="3" stroke="#3d707a" fill="none"></path></g><g from="1d8300c6-3a08-49f8-941a-30becaca47e9" to="9886d6dc-146b-4f8e-b836-40bda41cddc3" opacity="1"><path d="M346.8 -439L358.8 -439L358.8 -419.5C358.8 -419.5 358.8 -413.5 364.8 -413.5L386.8 -413.5" stroke-linecap="butt" stroke-width="3" stroke="#3d707a" fill="none"></path></g><g from="1d8300c6-3a08-49f8-941a-30becaca47e9" to="6c9431e6-65c6-40c0-b1ed-f0885b0de620" opacity="1"><path d="M346.8 -439L358.8 -439L358.8 -368.5C358.8 -368.5 358.8 -362.5 364.8 -362.5L386.8 -362.5" stroke-linecap="butt" stroke-width="3" stroke="#3d707a" fill="none"></path></g><g from="1e5f318e-9ba0-4bd8-84aa-ec58ca430f81" to="a22f54a3-ead7-4d6d-aa1e-c65a19da30e5" opacity="1"><path d="M346.8 -170.75L358.8 -170.75L358.8 -113C358.8 -113 358.8 -107 364.8 -107L386.8 -107" stroke-linecap="butt" stroke-width="3" stroke="#3d707a" fill="none"></path></g><g from="root" to="1e5f318e-9ba0-4bd8-84aa-ec58ca430f81" opacity="1"><path d="M0 0L64 0L64 -162.75C64 -162.75 64 -170.75 72 -170.75L192 -170.75" stroke-linecap="butt" stroke-width="3" stroke="#3d707a" fill="none"></path></g><g from="a22f54a3-ead7-4d6d-aa1e-c65a19da30e5" to="f5397ba8-51ff-46e7-aef8-a447db4e8995" opacity="1"><path d="M441.3 -107L453.3 -107L453.3 -126.5C453.3 -126.5 453.3 -132.5 459.3 -132.5L481.3 -132.5" stroke-linecap="butt" stroke-width="3" stroke="#3d707a" fill="none"></path></g><g from="root" to="ce6718a8-054b-43a4-8419-bc17e6bc2e3a" opacity="1"><path d="M0 0L64 0L64 0C64 0 64 0 64 0L192 0" stroke-linecap="butt" stroke-width="3" stroke="#3d707a" fill="none"></path></g><g from="root" to="744d67da-a948-44c4-912d-a83c59a43a35" opacity="1"><path d="M0 0L64 0L64 99C64 99 64 107 72 107L192 107" stroke-linecap="butt" stroke-width="3" stroke="#3d707a" fill="none"></path></g><g from="root" to="c6930ea5-0c8e-4e0c-b535-228e3791a587" opacity="1"><path d="M0 0L64 0L64 206C64 206 64 214 72 214L192 214" stroke-linecap="butt" stroke-width="3" stroke="#3d707a" fill="none"></path></g><g from="root" to="4e1cfbdf-f784-47a4-9eb8-96ec3d441086" opacity="1"><path d="M0 0L64 0L64 338.5C64 338.5 64 346.5 72 346.5L192 346.5" stroke-linecap="butt" stroke-width="3" stroke="#3d707a" fill="none"></path></g><g from="root" to="522131c1-bc58-45af-88c1-be86cc7e1599" opacity="1"><path d="M0 0L64 0L64 471C64 471 64 479 72 479L192 479" stroke-linecap="butt" stroke-width="3" stroke="#3d707a" fill="none"></path></g><g from="a22f54a3-ead7-4d6d-aa1e-c65a19da30e5" to="1a95ded0-d823-4e98-b48b-fffeac01b160" opacity="1"><path d="M441.3 -107L453.3 -107L453.3 -87.5C453.3 -87.5 453.3 -81.5 459.3 -81.5L481.3 -81.5" stroke-linecap="butt" stroke-width="3" stroke="#3d707a" fill="none"></path></g><g from="744d67da-a948-44c4-912d-a83c59a43a35" to="aef5d6d6-8b8e-4628-aacc-3bc1ddd36c32" opacity="1"><path d="M346.8 107L358.8 107L358.8 87.5C358.8 87.5 358.8 81.5 364.8 81.5L386.8 81.5" stroke-linecap="butt" stroke-width="3" stroke="#3d707a" fill="none"></path></g><g from="744d67da-a948-44c4-912d-a83c59a43a35" to="95f1ea9d-413e-4bda-a24d-863313633f6a" opacity="1"><path d="M346.8 107L358.8 107L358.8 126.5C358.8 126.5 358.8 132.5 364.8 132.5L386.8 132.5" stroke-linecap="butt" stroke-width="3" stroke="#3d707a" fill="none"></path></g><g from="4e1cfbdf-f784-47a4-9eb8-96ec3d441086" to="98c9e9dc-54d6-49a5-b318-b2a8b228662c" opacity="1"><path d="M346.8 346.5L358.8 346.5L358.8 301.5C358.8 301.5 358.8 295.5 364.8 295.5L386.8 295.5" stroke-linecap="butt" stroke-width="3" stroke="#3d707a" fill="none"></path></g><g from="4e1cfbdf-f784-47a4-9eb8-96ec3d441086" to="a8dbca87-350b-4915-8572-f04f9e6a4558" opacity="1"><path d="M346.8 346.5L358.8 346.5L358.8 346.5C358.8 346.5 358.8 346.5 358.8 346.5L386.8 346.5" stroke-linecap="butt" stroke-width="3" stroke="#3d707a" fill="none"></path></g><g from="4e1cfbdf-f784-47a4-9eb8-96ec3d441086" to="41c65282-2a05-4533-bbe7-84158b976b47" opacity="1"><path d="M346.8 346.5L358.8 346.5L358.8 391.5C358.8 391.5 358.8 397.5 364.8 397.5L386.8 397.5" stroke-linecap="butt" stroke-width="3" stroke="#3d707a" fill="none"></path></g></g><g class="po-mind-generalize-container"></g><g class="po-mind-associative-line-container"></g><g class="po-mind-node-container"><g class="po-mind-topic" id="topic-root" transform="matrix(1,0,0,1,-128,-43)" opacity="1"><path d="M0,0 L246,0 C246,0 246,0 246,0                           L246,76 C246,76 246,76 246,76                           L0,76 C0,76 0,76 0,76 L0,0                           C0,0 0,0 0,0 Z" class="po-mind-topic-shape-fill" transform="matrix(1,0,0,1,2,2)" fill="#ffffff"></path><path d="M0,0 L244,0 L244,74 L0,74 L0,0 Z M8,74 L8,82 L252,82 L252,8 L244,8" class="po-mind-topic-shape" transform="matrix(1,0,0,1,2,2)" fill="none" stroke-width="4" stroke="#4b8f9c"></path><g transform="matrix(1,0,0,1,32,18)"><g data-width="184" data-height="42" data-offsetx="0" transform="matrix(1,0,0,1,0,0)"><g><text text-anchor="start" align="top" anchor="start" font-size="30px" font-weight="bold" fill="rgb(75, 143, 156)" style="font-family: 思源宋体;font-size: 30px;font-weight: bold;text-decoration: none solid rgb(67, 75, 84);line-height: 140%;max-width: 900px;overflow-wrap: break-word;word-break: break-word;text-size-adjust: 100%;color: rgb(75, 143, 156);"><tspan x="0" y="30"><tspan dx="0">内置数据类型</tspan></tspan></text></g></g></g><g><rect width="4" height="86" x="-3" y="0" resize="1" fill="none" style="cursor: ew-resize;"></rect><rect width="4" height="86" x="257" y="0" resize="2" fill="none" style="cursor: ew-resize;"></rect></g></g><g class="po-mind-topic" id="topic-1d8300c6-3a08-49f8-941a-30becaca47e9" transform="matrix(1,0,0,1,192,-466)" opacity="1"><path d="M0,0 L146.8,0 C146.8,0 146.8,0 146.8,0                           L146.8,46 C146.8,46 146.8,46 146.8,46                           L0,46 C0,46 0,46 0,46 L0,0                           C0,0 0,0 0,0 Z" class="po-mind-topic-shape-fill" transform="matrix(1,0,0,1,1.5,1.5)" fill="#ffffff"></path><path d="M0,0 L145.3,0 L145.3,44.5 L0,44.5 L0,0 Z M7,44.5 L7,51.5 L152.3,51.5 L152.3,7 L145.3,7" class="po-mind-topic-shape" transform="matrix(1,0,0,1,1.5,1.5)" fill="none" stroke-width="3" stroke="#3d707a"></path><g transform="matrix(1,0,0,1,18.5,10.5)"><g data-width="110.8" data-height="26" data-offsetx="0" transform="matrix(1,0,0,1,0,0)"><g><text text-anchor="start" align="top" anchor="start" font-size="18px" font-weight="bold" fill="rgb(75, 143, 156)" style="font-family: 思源宋体;font-size: 18px;font-weight: bold;line-height: 140%;max-width: 900px;overflow-wrap: break-word;word-break: break-word;text-size-adjust: 100%;color: rgb(75, 143, 156);"><tspan x="0" y="18"><tspan dx="0">数值数据类型</tspan></tspan></text></g></g></g></g><g class="po-mind-topic" id="topic-6b51da0f-9e70-4cc4-9cfb-51094e406933" transform="matrix(1,0,0,1,386.8,-538)" opacity="1"><path d="M0,0 L128.5,0 C128.5,0 128.5,0 128.5,0                           L128.5,37 C128.5,37 128.5,37 128.5,37                           L0,37 C0,37 0,37 0,37 L0,0                           C0,0 0,0 0,0 Z" class="po-mind-topic-shape-fill" transform="matrix(1,0,0,1,1.5,1.5)" fill="#ffffff"></path><path d="M0,0 L127,0 L127,35.5 L0,35.5 L0,0 Z M7,35.5 L7,42.5 L134,42.5 L134,7 L127,7" class="po-mind-topic-shape" transform="matrix(1,0,0,1,1.5,1.5)" fill="none" stroke-width="3" stroke="#3d707a"></path><g transform="matrix(1,0,0,1,7.5,8.5)"><g data-width="114.5" data-height="21" data-offsetx="0" transform="matrix(1,0,0,1,0,0)"><g><text text-anchor="start" align="top" anchor="start" font-size="15px" font-weight="bold" fill="rgb(75, 143, 156)" style="font-family: 思源宋体;font-size: 15px;font-weight: bold;line-height: 140%;max-width: 900px;overflow-wrap: break-word;word-break: break-word;text-size-adjust: 100%;color: rgb(75, 143, 156);"><tspan x="0" y="15"><tspan dx="0">整数类型（int）</tspan></tspan></text></g></g></g></g><g class="po-mind-topic" id="topic-fb7af7b9-780a-4b57-83f0-cbb21743a226" transform="matrix(1,0,0,1,386.8,-487)" opacity="1"><path d="M0,0 L141.5,0 C141.5,0 141.5,0 141.5,0                           L141.5,37 C141.5,37 141.5,37 141.5,37                           L0,37 C0,37 0,37 0,37 L0,0                           C0,0 0,0 0,0 Z" class="po-mind-topic-shape-fill" transform="matrix(1,0,0,1,1.5,1.5)" fill="#ffffff"></path><path d="M0,0 L140,0 L140,35.5 L0,35.5 L0,0 Z M7,35.5 L7,42.5 L147,42.5 L147,7 L140,7" class="po-mind-topic-shape" transform="matrix(1,0,0,1,1.5,1.5)" fill="none" stroke-width="3" stroke="#3d707a"></path><g transform="matrix(1,0,0,1,7.5,8.5)"><g data-width="127.5" data-height="21" data-offsetx="0" transform="matrix(1,0,0,1,0,0)"><g><text text-anchor="start" align="top" anchor="start" font-size="15px" font-weight="bold" fill="rgb(75, 143, 156)" style="font-family: 思源宋体;font-size: 15px;font-weight: bold;line-height: 140%;max-width: 900px;overflow-wrap: break-word;word-break: break-word;text-size-adjust: 100%;color: rgb(75, 143, 156);"><tspan x="0" y="15"><tspan dx="0">浮点类型（float）</tspan></tspan></text></g></g></g></g><g class="po-mind-topic" id="topic-9886d6dc-146b-4f8e-b836-40bda41cddc3" transform="matrix(1,0,0,1,386.8,-436)" opacity="1"><path d="M0,0 L140.5,0 C140.5,0 140.5,0 140.5,0                           L140.5,37 C140.5,37 140.5,37 140.5,37                           L0,37 C0,37 0,37 0,37 L0,0                           C0,0 0,0 0,0 Z" class="po-mind-topic-shape-fill" transform="matrix(1,0,0,1,1.5,1.5)" fill="#ffffff"></path><path d="M0,0 L139,0 L139,35.5 L0,35.5 L0,0 Z M7,35.5 L7,42.5 L146,42.5 L146,7 L139,7" class="po-mind-topic-shape" transform="matrix(1,0,0,1,1.5,1.5)" fill="none" stroke-width="3" stroke="#3d707a"></path><g transform="matrix(1,0,0,1,7.5,8.5)"><g data-width="126.5" data-height="21" data-offsetx="0" transform="matrix(1,0,0,1,0,0)"><g><text text-anchor="start" align="top" anchor="start" font-size="15px" font-weight="bold" fill="rgb(75, 143, 156)" style="font-family: 思源宋体;font-size: 15px;font-weight: bold;line-height: 140%;max-width: 900px;overflow-wrap: break-word;word-break: break-word;text-size-adjust: 100%;color: rgb(75, 143, 156);"><tspan x="0" y="15"><tspan dx="0">布尔类型（bool）</tspan></tspan></text></g></g></g></g><g class="po-mind-topic" id="topic-6c9431e6-65c6-40c0-b1ed-f0885b0de620" transform="matrix(1,0,0,1,386.8,-385)" opacity="1"><path d="M0,0 L172.5,0 C172.5,0 172.5,0 172.5,0                           L172.5,37 C172.5,37 172.5,37 172.5,37                           L0,37 C0,37 0,37 0,37 L0,0                           C0,0 0,0 0,0 Z" class="po-mind-topic-shape-fill" transform="matrix(1,0,0,1,1.5,1.5)" fill="#ffffff"></path><path d="M0,0 L171,0 L171,35.5 L0,35.5 L0,0 Z M7,35.5 L7,42.5 L178,42.5 L178,7 L171,7" class="po-mind-topic-shape" transform="matrix(1,0,0,1,1.5,1.5)" fill="none" stroke-width="3" stroke="#3d707a"></path><g transform="matrix(1,0,0,1,7.5,8.5)"><g data-width="158.5" data-height="21" data-offsetx="0" transform="matrix(1,0,0,1,0,0)"><g><text text-anchor="start" align="top" anchor="start" font-size="15px" font-weight="bold" fill="rgb(75, 143, 156)" style="font-family: 思源宋体;font-size: 15px;font-weight: bold;line-height: 140%;max-width: 900px;overflow-wrap: break-word;word-break: break-word;text-size-adjust: 100%;color: rgb(75, 143, 156);"><tspan x="0" y="15"><tspan dx="0">复数类型（complex）</tspan></tspan></text></g></g></g></g><g class="po-mind-topic" id="topic-1e5f318e-9ba0-4bd8-84aa-ec58ca430f81" transform="matrix(1,0,0,1,192,-197.75)" opacity="1"><path d="M0,0 L146.8,0 C146.8,0 146.8,0 146.8,0                           L146.8,46 C146.8,46 146.8,46 146.8,46                           L0,46 C0,46 0,46 0,46 L0,0                           C0,0 0,0 0,0 Z" class="po-mind-topic-shape-fill" transform="matrix(1,0,0,1,1.5,1.5)" fill="#ffffff"></path><path d="M0,0 L145.3,0 L145.3,44.5 L0,44.5 L0,0 Z M7,44.5 L7,51.5 L152.3,51.5 L152.3,7 L145.3,7" class="po-mind-topic-shape" transform="matrix(1,0,0,1,1.5,1.5)" fill="none" stroke-width="3" stroke="#3d707a"></path><g transform="matrix(1,0,0,1,18.5,10.5)"><g data-width="110.8" data-height="26" data-offsetx="0" transform="matrix(1,0,0,1,0,0)"><g><text text-anchor="start" align="top" anchor="start" font-size="18px" font-weight="bold" fill="rgb(75, 143, 156)" style="font-family: 思源宋体;font-size: 18px;font-weight: bold;line-height: 140%;max-width: 900px;overflow-wrap: break-word;word-break: break-word;text-size-adjust: 100%;color: rgb(75, 143, 156);"><tspan x="0" y="18"><tspan dx="0">序列数据类型</tspan></tspan></text></g></g></g></g><g class="po-mind-topic" id="topic-65ea83bf-f02b-4029-9818-5899f6aca162" transform="matrix(1,0,0,1,386.8,-257)" opacity="1"><path d="M0,0 L61.5,0 C61.5,0 61.5,0 61.5,0                           L61.5,37 C61.5,37 61.5,37 61.5,37                           L0,37 C0,37 0,37 0,37 L0,0                           C0,0 0,0 0,0 Z" class="po-mind-topic-shape-fill" transform="matrix(1,0,0,1,1.5,1.5)" fill="#ffffff"></path><path d="M0,0 L60,0 L60,35.5 L0,35.5 L0,0 Z M7,35.5 L7,42.5 L67,42.5 L67,7 L60,7" class="po-mind-topic-shape" transform="matrix(1,0,0,1,1.5,1.5)" fill="none" stroke-width="3" stroke="#3d707a"></path><g transform="matrix(1,0,0,1,7.5,8.5)"><g data-width="47.5" data-height="21" data-offsetx="0" transform="matrix(1,0,0,1,0,0)"><g><text text-anchor="start" align="top" anchor="start" font-size="15px" font-weight="bold" fill="rgb(75, 143, 156)" style="font-family: 思源宋体;font-size: 15px;font-weight: bold;line-height: 140%;max-width: 900px;overflow-wrap: break-word;word-break: break-word;text-size-adjust: 100%;color: rgb(75, 143, 156);"><tspan x="0" y="15"><tspan dx="0">不可变</tspan></tspan></text></g></g></g></g><g class="po-mind-topic" id="topic-2c3bfae6-5b8d-4512-8081-fa96c11a9e75" transform="matrix(1,0,0,1,496.3,-308)" opacity="1"><path d="M0,0 L112.5,0 C112.5,0 112.5,0 112.5,0                           L112.5,37 C112.5,37 112.5,37 112.5,37                           L0,37 C0,37 0,37 0,37 L0,0                           C0,0 0,0 0,0 Z" class="po-mind-topic-shape-fill" transform="matrix(1,0,0,1,1.5,1.5)" fill="#ffffff"></path><path d="M0,0 L111,0 L111,35.5 L0,35.5 L0,0 Z M7,35.5 L7,42.5 L118,42.5 L118,7 L111,7" class="po-mind-topic-shape" transform="matrix(1,0,0,1,1.5,1.5)" fill="none" stroke-width="3" stroke="#3d707a"></path><g transform="matrix(1,0,0,1,7.5,8.5)"><g data-width="98.5" data-height="21" data-offsetx="0" transform="matrix(1,0,0,1,0,0)"><g><text text-anchor="start" align="top" anchor="start" font-size="15px" font-weight="bold" fill="rgb(75, 143, 156)" style="font-family: 思源宋体;font-size: 15px;font-weight: bold;line-height: 140%;max-width: 900px;overflow-wrap: break-word;word-break: break-word;text-size-adjust: 100%;color: rgb(75, 143, 156);"><tspan x="0" y="15"><tspan dx="0">字符串（str）</tspan></tspan></text></g></g></g></g><g class="po-mind-topic" id="topic-d263722c-c743-44bf-83ca-4f59a53f812b" transform="matrix(1,0,0,1,496.3,-257)" opacity="1"><path d="M0,0 L116.5,0 C116.5,0 116.5,0 116.5,0                           L116.5,37 C116.5,37 116.5,37 116.5,37                           L0,37 C0,37 0,37 0,37 L0,0                           C0,0 0,0 0,0 Z" class="po-mind-topic-shape-fill" transform="matrix(1,0,0,1,1.5,1.5)" fill="#ffffff"></path><path d="M0,0 L115,0 L115,35.5 L0,35.5 L0,0 Z M7,35.5 L7,42.5 L122,42.5 L122,7 L115,7" class="po-mind-topic-shape" transform="matrix(1,0,0,1,1.5,1.5)" fill="none" stroke-width="3" stroke="#3d707a"></path><g transform="matrix(1,0,0,1,7.5,8.5)"><g data-width="102.5" data-height="21" data-offsetx="0" transform="matrix(1,0,0,1,0,0)"><g><text text-anchor="start" align="top" anchor="start" font-size="15px" font-weight="bold" fill="rgb(75, 143, 156)" style="font-family: 思源宋体;font-size: 15px;font-weight: bold;line-height: 140%;max-width: 900px;overflow-wrap: break-word;word-break: break-word;text-size-adjust: 100%;color: rgb(75, 143, 156);"><tspan x="0" y="15"><tspan dx="0">元组（tuple）</tspan></tspan></text></g></g></g></g><g class="po-mind-topic" id="topic-5a134f18-c7db-4693-a536-158c5843370d" transform="matrix(1,0,0,1,496.3,-206)" opacity="1"><path d="M0,0 L147.5,0 C147.5,0 147.5,0 147.5,0                           L147.5,37 C147.5,37 147.5,37 147.5,37                           L0,37 C0,37 0,37 0,37 L0,0                           C0,0 0,0 0,0 Z" class="po-mind-topic-shape-fill" transform="matrix(1,0,0,1,1.5,1.5)" fill="#ffffff"></path><path d="M0,0 L146,0 L146,35.5 L0,35.5 L0,0 Z M7,35.5 L7,42.5 L153,42.5 L153,7 L146,7" class="po-mind-topic-shape" transform="matrix(1,0,0,1,1.5,1.5)" fill="none" stroke-width="3" stroke="#3d707a"></path><g transform="matrix(1,0,0,1,7.5,8.5)"><g data-width="133.5" data-height="21" data-offsetx="0" transform="matrix(1,0,0,1,0,0)"><g><text text-anchor="start" align="top" anchor="start" font-size="15px" font-weight="bold" fill="rgb(75, 143, 156)" style="font-family: 思源宋体;font-size: 15px;font-weight: bold;line-height: 140%;max-width: 900px;overflow-wrap: break-word;word-break: break-word;text-size-adjust: 100%;color: rgb(75, 143, 156);"><tspan x="0" y="15"><tspan dx="0">字节序列（bytes）</tspan></tspan></text></g></g></g></g><g class="po-mind-topic" id="topic-a22f54a3-ead7-4d6d-aa1e-c65a19da30e5" transform="matrix(1,0,0,1,386.8,-129.5)" opacity="1"><path d="M0,0 L46.5,0 C46.5,0 46.5,0 46.5,0                           L46.5,37 C46.5,37 46.5,37 46.5,37                           L0,37 C0,37 0,37 0,37 L0,0                           C0,0 0,0 0,0 Z" class="po-mind-topic-shape-fill" transform="matrix(1,0,0,1,1.5,1.5)" fill="#ffffff"></path><path d="M0,0 L45,0 L45,35.5 L0,35.5 L0,0 Z M7,35.5 L7,42.5 L52,42.5 L52,7 L45,7" class="po-mind-topic-shape" transform="matrix(1,0,0,1,1.5,1.5)" fill="none" stroke-width="3" stroke="#3d707a"></path><g transform="matrix(1,0,0,1,7.5,8.5)"><g data-width="32.5" data-height="21" data-offsetx="0" transform="matrix(1,0,0,1,0,0)"><g><text text-anchor="start" align="top" anchor="start" font-size="15px" font-weight="bold" fill="rgb(75, 143, 156)" style="font-family: 思源宋体;font-size: 15px;font-weight: bold;line-height: 140%;max-width: 900px;overflow-wrap: break-word;word-break: break-word;text-size-adjust: 100%;color: rgb(75, 143, 156);"><tspan x="0" y="15"><tspan dx="0">可变</tspan></tspan></text></g></g></g></g><g class="po-mind-topic" id="topic-f5397ba8-51ff-46e7-aef8-a447db4e8995" transform="matrix(1,0,0,1,481.3,-155)" opacity="1"><path d="M0,0 L100.5,0 C100.5,0 100.5,0 100.5,0                           L100.5,37 C100.5,37 100.5,37 100.5,37                           L0,37 C0,37 0,37 0,37 L0,0                           C0,0 0,0 0,0 Z" class="po-mind-topic-shape-fill" transform="matrix(1,0,0,1,1.5,1.5)" fill="#ffffff"></path><path d="M0,0 L99,0 L99,35.5 L0,35.5 L0,0 Z M7,35.5 L7,42.5 L106,42.5 L106,7 L99,7" class="po-mind-topic-shape" transform="matrix(1,0,0,1,1.5,1.5)" fill="none" stroke-width="3" stroke="#3d707a"></path><g transform="matrix(1,0,0,1,7.5,8.5)"><g data-width="86.5" data-height="21" data-offsetx="0" transform="matrix(1,0,0,1,0,0)"><g><text text-anchor="start" align="top" anchor="start" font-size="15px" font-weight="bold" fill="rgb(75, 143, 156)" style="font-family: 思源宋体;font-size: 15px;font-weight: bold;line-height: 140%;max-width: 900px;overflow-wrap: break-word;word-break: break-word;text-size-adjust: 100%;color: rgb(75, 143, 156);"><tspan x="0" y="15"><tspan dx="0">列表（list）</tspan></tspan></text></g></g></g></g><g class="po-mind-topic" id="topic-1a95ded0-d823-4e98-b48b-fffeac01b160" transform="matrix(1,0,0,1,481.3,-104)" opacity="1"><path d="M0,0 L180.5,0 C180.5,0 180.5,0 180.5,0                           L180.5,37 C180.5,37 180.5,37 180.5,37                           L0,37 C0,37 0,37 0,37 L0,0                           C0,0 0,0 0,0 Z" class="po-mind-topic-shape-fill" transform="matrix(1,0,0,1,1.5,1.5)" fill="#ffffff"></path><path d="M0,0 L179,0 L179,35.5 L0,35.5 L0,0 Z M7,35.5 L7,42.5 L186,42.5 L186,7 L179,7" class="po-mind-topic-shape" transform="matrix(1,0,0,1,1.5,1.5)" fill="none" stroke-width="3" stroke="#3d707a"></path><g transform="matrix(1,0,0,1,7.5,8.5)"><g data-width="166.5" data-height="21" data-offsetx="0" transform="matrix(1,0,0,1,0,0)"><g><text text-anchor="start" align="top" anchor="start" font-size="15px" font-weight="bold" fill="rgb(75, 143, 156)" style="font-family: 思源宋体;font-size: 15px;font-weight: bold;line-height: 140%;max-width: 900px;overflow-wrap: break-word;word-break: break-word;text-size-adjust: 100%;color: rgb(75, 143, 156);"><tspan x="0" y="15"><tspan dx="0">字节数组（bytearray）</tspan></tspan></text></g></g></g></g><g class="po-mind-topic" id="topic-ce6718a8-054b-43a4-8419-bc17e6bc2e3a" transform="matrix(1,0,0,1,192,-27)" opacity="1"><path d="M0,0 L200.8,0 C200.8,0 200.8,0 200.8,0                           L200.8,46 C200.8,46 200.8,46 200.8,46                           L0,46 C0,46 0,46 0,46 L0,0                           C0,0 0,0 0,0 Z" class="po-mind-topic-shape-fill" transform="matrix(1,0,0,1,1.5,1.5)" fill="#ffffff"></path><path d="M0,0 L199.3,0 L199.3,44.5 L0,44.5 L0,0 Z M7,44.5 L7,51.5 L206.3,51.5 L206.3,7 L199.3,7" class="po-mind-topic-shape" transform="matrix(1,0,0,1,1.5,1.5)" fill="none" stroke-width="3" stroke="#3d707a"></path><g transform="matrix(1,0,0,1,18.5,10.5)"><g data-width="164.8" data-height="26" data-offsetx="0" transform="matrix(1,0,0,1,0,0)"><g><text text-anchor="start" align="top" anchor="start" font-size="18px" font-weight="bold" fill="rgb(75, 143, 156)" style="font-family: 思源宋体;font-size: 18px;font-weight: bold;line-height: 140%;max-width: 900px;overflow-wrap: break-word;word-break: break-word;text-size-adjust: 100%;color: rgb(75, 143, 156);"><tspan x="0" y="18"><tspan dx="0">序列数据类型的操作</tspan></tspan></text></g></g></g></g><g class="po-mind-topic" id="topic-744d67da-a948-44c4-912d-a83c59a43a35" transform="matrix(1,0,0,1,192,80)" opacity="1"><path d="M0,0 L146.8,0 C146.8,0 146.8,0 146.8,0                           L146.8,46 C146.8,46 146.8,46 146.8,46                           L0,46 C0,46 0,46 0,46 L0,0                           C0,0 0,0 0,0 Z" class="po-mind-topic-shape-fill" transform="matrix(1,0,0,1,1.5,1.5)" fill="#ffffff"></path><path d="M0,0 L145.3,0 L145.3,44.5 L0,44.5 L0,0 Z M7,44.5 L7,51.5 L152.3,51.5 L152.3,7 L145.3,7" class="po-mind-topic-shape" transform="matrix(1,0,0,1,1.5,1.5)" fill="none" stroke-width="3" stroke="#3d707a"></path><g transform="matrix(1,0,0,1,18.5,10.5)"><g data-width="110.8" data-height="26" data-offsetx="0" transform="matrix(1,0,0,1,0,0)"><g><text text-anchor="start" align="top" anchor="start" font-size="18px" font-weight="bold" fill="rgb(75, 143, 156)" style="font-family: 思源宋体;font-size: 18px;font-weight: bold;line-height: 140%;max-width: 900px;overflow-wrap: break-word;word-break: break-word;text-size-adjust: 100%;color: rgb(75, 143, 156);"><tspan x="0" y="18"><tspan dx="0">集合数据类型</tspan></tspan></text></g></g></g></g><g class="po-mind-topic" id="topic-aef5d6d6-8b8e-4628-aacc-3bc1ddd36c32" transform="matrix(1,0,0,1,386.8,59)" opacity="1"><path d="M0,0 L98.5,0 C98.5,0 98.5,0 98.5,0                           L98.5,37 C98.5,37 98.5,37 98.5,37                           L0,37 C0,37 0,37 0,37 L0,0                           C0,0 0,0 0,0 Z" class="po-mind-topic-shape-fill" transform="matrix(1,0,0,1,1.5,1.5)" fill="#ffffff"></path><path d="M0,0 L97,0 L97,35.5 L0,35.5 L0,0 Z M7,35.5 L7,42.5 L104,42.5 L104,7 L97,7" class="po-mind-topic-shape" transform="matrix(1,0,0,1,1.5,1.5)" fill="none" stroke-width="3" stroke="#3d707a"></path><g transform="matrix(1,0,0,1,7.5,8.5)"><g data-width="84.5" data-height="21" data-offsetx="0" transform="matrix(1,0,0,1,0,0)"><g><text text-anchor="start" align="top" anchor="start" font-size="15px" font-weight="bold" fill="rgb(75, 143, 156)" style="font-family: 思源宋体;font-size: 15px;font-weight: bold;line-height: 140%;max-width: 900px;overflow-wrap: break-word;word-break: break-word;text-size-adjust: 100%;color: rgb(75, 143, 156);"><tspan x="0" y="15"><tspan dx="0">集合（set）</tspan></tspan></text></g></g></g></g><g class="po-mind-topic" id="topic-95f1ea9d-413e-4bda-a24d-863313633f6a" transform="matrix(1,0,0,1,386.8,110)" opacity="1"><path d="M0,0 L192.5,0 C192.5,0 192.5,0 192.5,0                           L192.5,37 C192.5,37 192.5,37 192.5,37                           L0,37 C0,37 0,37 0,37 L0,0                           C0,0 0,0 0,0 Z" class="po-mind-topic-shape-fill" transform="matrix(1,0,0,1,1.5,1.5)" fill="#ffffff"></path><path d="M0,0 L191,0 L191,35.5 L0,35.5 L0,0 Z M7,35.5 L7,42.5 L198,42.5 L198,7 L191,7" class="po-mind-topic-shape" transform="matrix(1,0,0,1,1.5,1.5)" fill="none" stroke-width="3" stroke="#3d707a"></path><g transform="matrix(1,0,0,1,7.5,8.5)"><g data-width="178.5" data-height="21" data-offsetx="0" transform="matrix(1,0,0,1,0,0)"><g><text text-anchor="start" align="top" anchor="start" font-size="15px" font-weight="bold" fill="rgb(75, 143, 156)" style="font-family: 思源宋体;font-size: 15px;font-weight: bold;line-height: 140%;max-width: 900px;overflow-wrap: break-word;word-break: break-word;text-size-adjust: 100%;color: rgb(75, 143, 156);"><tspan x="0" y="15"><tspan dx="0">不可变集合（frozenset）</tspan></tspan></text></g></g></g></g><g class="po-mind-topic" id="topic-c6930ea5-0c8e-4e0c-b535-228e3791a587" transform="matrix(1,0,0,1,192,187)" opacity="1"><path d="M0,0 L146.8,0 C146.8,0 146.8,0 146.8,0                           L146.8,46 C146.8,46 146.8,46 146.8,46                           L0,46 C0,46 0,46 0,46 L0,0                           C0,0 0,0 0,0 Z" class="po-mind-topic-shape-fill" transform="matrix(1,0,0,1,1.5,1.5)" fill="#ffffff"></path><path d="M0,0 L145.3,0 L145.3,44.5 L0,44.5 L0,0 Z M7,44.5 L7,51.5 L152.3,51.5 L152.3,7 L145.3,7" class="po-mind-topic-shape" transform="matrix(1,0,0,1,1.5,1.5)" fill="none" stroke-width="3" stroke="#3d707a"></path><g transform="matrix(1,0,0,1,18.5,10.5)"><g data-width="110.8" data-height="26" data-offsetx="0" transform="matrix(1,0,0,1,0,0)"><g><text text-anchor="start" align="top" anchor="start" font-size="18px" font-weight="bold" fill="rgb(75, 143, 156)" style="font-family: 思源宋体;font-size: 18px;font-weight: bold;line-height: 140%;max-width: 900px;overflow-wrap: break-word;word-break: break-word;text-size-adjust: 100%;color: rgb(75, 143, 156);"><tspan x="0" y="18"><tspan dx="0">字典数据类型</tspan></tspan></text></g></g></g></g><g class="po-mind-topic" id="topic-4e1cfbdf-f784-47a4-9eb8-96ec3d441086" transform="matrix(1,0,0,1,192,319.5)" opacity="1"><path d="M0,0 L146.8,0 C146.8,0 146.8,0 146.8,0                           L146.8,46 C146.8,46 146.8,46 146.8,46                           L0,46 C0,46 0,46 0,46 L0,0                           C0,0 0,0 0,0 Z" class="po-mind-topic-shape-fill" transform="matrix(1,0,0,1,1.5,1.5)" fill="#ffffff"></path><path d="M0,0 L145.3,0 L145.3,44.5 L0,44.5 L0,0 Z M7,44.5 L7,51.5 L152.3,51.5 L152.3,7 L145.3,7" class="po-mind-topic-shape" transform="matrix(1,0,0,1,1.5,1.5)" fill="none" stroke-width="3" stroke="#3d707a"></path><g transform="matrix(1,0,0,1,18.5,10.5)"><g data-width="110.8" data-height="26" data-offsetx="0" transform="matrix(1,0,0,1,0,0)"><g><text text-anchor="start" align="top" anchor="start" font-size="18px" font-weight="bold" fill="rgb(75, 143, 156)" style="font-family: 思源宋体;font-size: 18px;font-weight: bold;line-height: 140%;max-width: 900px;overflow-wrap: break-word;word-break: break-word;text-size-adjust: 100%;color: rgb(75, 143, 156);"><tspan x="0" y="18"><tspan dx="0">特殊数据类型</tspan></tspan></text></g></g></g></g><g class="po-mind-topic" id="topic-98c9e9dc-54d6-49a5-b318-b2a8b228662c" transform="matrix(1,0,0,1,386.8,273)" opacity="1"><path d="M0,0 L93.5,0 C93.5,0 93.5,0 93.5,0                           L93.5,37 C93.5,37 93.5,37 93.5,37                           L0,37 C0,37 0,37 0,37 L0,0                           C0,0 0,0 0,0 Z" class="po-mind-topic-shape-fill" transform="matrix(1,0,0,1,1.5,1.5)" fill="#ffffff"></path><path d="M0,0 L92,0 L92,35.5 L0,35.5 L0,0 Z M7,35.5 L7,42.5 L99,42.5 L99,7 L92,7" class="po-mind-topic-shape" transform="matrix(1,0,0,1,1.5,1.5)" fill="none" stroke-width="3" stroke="#3d707a"></path><g transform="matrix(1,0,0,1,7.5,8.5)"><g data-width="79.5" data-height="21" data-offsetx="0" transform="matrix(1,0,0,1,0,0)"><g><text text-anchor="start" align="top" anchor="start" font-size="15px" font-weight="bold" fill="rgb(75, 143, 156)" style="font-family: 思源宋体;font-size: 15px;font-weight: bold;line-height: 140%;max-width: 900px;overflow-wrap: break-word;word-break: break-word;text-size-adjust: 100%;color: rgb(75, 143, 156);"><tspan x="0" y="15"><tspan dx="0">NoneType</tspan></tspan></text></g></g></g></g><g class="po-mind-topic" id="topic-a8dbca87-350b-4915-8572-f04f9e6a4558" transform="matrix(1,0,0,1,386.8,324)" opacity="1"><path d="M0,0 L183.5,0 C183.5,0 183.5,0 183.5,0                           L183.5,37 C183.5,37 183.5,37 183.5,37                           L0,37 C0,37 0,37 0,37 L0,0                           C0,0 0,0 0,0 Z" class="po-mind-topic-shape-fill" transform="matrix(1,0,0,1,1.5,1.5)" fill="#ffffff"></path><path d="M0,0 L182,0 L182,35.5 L0,35.5 L0,0 Z M7,35.5 L7,42.5 L189,42.5 L189,7 L182,7" class="po-mind-topic-shape" transform="matrix(1,0,0,1,1.5,1.5)" fill="none" stroke-width="3" stroke="#3d707a"></path><g transform="matrix(1,0,0,1,7.5,8.5)"><g data-width="169.5" data-height="21" data-offsetx="0" transform="matrix(1,0,0,1,0,0)"><g><text text-anchor="start" align="top" anchor="start" font-size="15px" font-weight="bold" fill="rgb(75, 143, 156)" style="font-family: 思源宋体;font-size: 15px;font-weight: bold;line-height: 140%;max-width: 900px;overflow-wrap: break-word;word-break: break-word;text-size-adjust: 100%;color: rgb(75, 143, 156);"><tspan x="0" y="15"><tspan dx="0">NotImplementedType</tspan></tspan></text></g></g></g></g><g class="po-mind-topic" id="topic-41c65282-2a05-4533-bbe7-84158b976b47" transform="matrix(1,0,0,1,386.8,375)" opacity="1"><path d="M0,0 L114.5,0 C114.5,0 114.5,0 114.5,0                           L114.5,37 C114.5,37 114.5,37 114.5,37                           L0,37 C0,37 0,37 0,37 L0,0                           C0,0 0,0 0,0 Z" class="po-mind-topic-shape-fill" transform="matrix(1,0,0,1,1.5,1.5)" fill="#ffffff"></path><path d="M0,0 L113,0 L113,35.5 L0,35.5 L0,0 Z M7,35.5 L7,42.5 L120,42.5 L120,7 L113,7" class="po-mind-topic-shape" transform="matrix(1,0,0,1,1.5,1.5)" fill="none" stroke-width="3" stroke="#3d707a"></path><g transform="matrix(1,0,0,1,7.5,8.5)"><g data-width="100.5" data-height="21" data-offsetx="0" transform="matrix(1,0,0,1,0,0)"><g><text text-anchor="start" align="top" anchor="start" font-size="15px" font-weight="bold" fill="rgb(75, 143, 156)" style="font-family: 思源宋体;font-size: 15px;font-weight: bold;line-height: 140%;max-width: 900px;overflow-wrap: break-word;word-break: break-word;text-size-adjust: 100%;color: rgb(75, 143, 156);"><tspan x="0" y="15"><tspan dx="0">EllipsisiType</tspan></tspan></text></g></g></g></g><g class="po-mind-topic" id="topic-522131c1-bc58-45af-88c1-be86cc7e1599" transform="matrix(1,0,0,1,192,452)" opacity="1"><path d="M0,0 L146.8,0 C146.8,0 146.8,0 146.8,0                           L146.8,46 C146.8,46 146.8,46 146.8,46                           L0,46 C0,46 0,46 0,46 L0,0                           C0,0 0,0 0,0 Z" class="po-mind-topic-shape-fill" transform="matrix(1,0,0,1,1.5,1.5)" fill="#ffffff"></path><path d="M0,0 L145.3,0 L145.3,44.5 L0,44.5 L0,0 Z M7,44.5 L7,51.5 L152.3,51.5 L152.3,7 L145.3,7" class="po-mind-topic-shape" transform="matrix(1,0,0,1,1.5,1.5)" fill="none" stroke-width="3" stroke="#3d707a"></path><g transform="matrix(1,0,0,1,18.5,10.5)"><g data-width="110.8" data-height="26" data-offsetx="0" transform="matrix(1,0,0,1,0,0)"><g><text text-anchor="start" align="top" anchor="start" font-size="18px" font-weight="bold" fill="rgb(75, 143, 156)" style="font-family: 思源宋体;font-size: 18px;font-weight: bold;line-height: 140%;max-width: 900px;overflow-wrap: break-word;word-break: break-word;text-size-adjust: 100%;color: rgb(75, 143, 156);"><tspan x="0" y="18"><tspan dx="0">其他数据类型</tspan></tspan></text></g></g></g></g></g><g class="po-mind-associative-line-label-container"></g></g><g id="wpsexport-watermark"><defs><pattern patternUnits="userSpaceOnUse" id="wpspattern_mark_0" width="300" height="300"><text x="150" y="100" fill="#0000004d" font-size="18" transform="rotate(-45, 150, 150)" style="dominant-baseline: middle; text-anchor: middle;"></text></pattern></defs><rect fill="url(#wpspattern_mark_0)" x="0" y="0" width="849.797" height="1091.5" id="rect_mark_0" pointer-events="none"></rect></g><style>
    .connection-svg{
        outline: none;
        box-shadow: none;
        -webkit-tap-highlight-color: transparent;
    }
    .connection-line {
        cursor: pointer;
    }

    .connection-line-bg {
        cursor: pointer;
    }

    .node-add-btn {
        cursor: pointer;
    }

    .po-richtext-node-wrap ol,
    .area_box ol,
    .po-measureCustomNode ol {
        padding-left: 20px;
        margin: 0;
    }
    .po-richtext-node-wrap ol li,
    .area_box ol li,
    .po-measureCustomNode ol li {
        list-style: decimal;
    }
    .po-richtext-node-wrap ul,
    .area_box ul,
    .po-measureCustomNode ul {
        padding-left: calc(15px + 0.5em);
        list-style: none;
        margin: 0;
    }
    .po-richtext-node-wrap ul li,
    .area_box ul li,
    .po-measureCustomNode ul li {
        list-style: disc;
    }
    .po-richtext-node-wrap p,
    .po-richtext-node-wrap h1,
    .po-richtext-node-wrap h2,
    .po-richtext-node-wrap h3,
    .po-richtext-node-wrap h4,
    .po-richtext-node-wrap h5,
    .po-richtext-node-wrap h6,
    .area_box p,
    .area_box h1,
    .area_box h2,
    .area_box h3,
    .area_box h4,
    .area_box h5,
    .area_box h6,
    .po-measureCustomNode p,
    .po-measureCustomNode h1,
    .po-measureCustomNode h2,
    .po-measureCustomNode h3,
    .po-measureCustomNode h4,
    .po-measureCustomNode h5,
    .po-measureCustomNode h6 {
        margin: 0;
    }
    .po-safari-fixed {
        position: fixed;
    }
</style></svg>