<?xml version="1.0" standalone="no"?><?xml-stylesheet type="text/css" href="https://wps.processon.com/themes/default/wps/mind/icons/icons.css" ?><!DOCTYPE svg PUBLIC "-//W3C//DTD SVG 1.1//EN" "http://www.w3.org/Graphics/SVG/1.1/DTD/svg11.dtd"><svg xmlns="http://www.w3.org/2000/svg" xmlns:xlink="http://www.w3.org/1999/xlink" version="1.1" width="993.699951171875" height="873" style="outline: none; background: none; top: 0px; left: 0px; display: block; z-index: 1; font-size: 12px;" id="mind-svg-con"><defs></defs><g id="svgbackgroundid"><defs transform="matrix(0.6558210026362097,0,0,0.12921847246891652,0,0)"></defs><rect width="1515.199951171875" height="6756" fill="#FFFFFF" transform="matrix(0.6558210026362097,0,0,0.12921847246891652,0,0)"></rect></g><g id="export-watermark"><defs><pattern patternUnits="userSpaceOnUse" id="pattern_mark_0" width="300" height="300"><text x="150" y="100" fill="rgb(235,235,235)" font-size="18" transform="rotate(-45, 150, 150)" style="dominant-baseline: middle; text-anchor: middle;"></text></pattern></defs><rect fill="url(#pattern_mark_0)" x="0" y="0" width="993.695" height="873" id="rect_mark_0" pointer-events="none"></rect></g><g class="po-mind-container" transform="matrix(1,0,0,1,-164,-1985.25)"><g class="po-mind-line-container" style=""><g from="c6930ea5-0c8e-4e0c-b535-228e3791a587" to="9ac8365e-0223-4b55-860f-619f3ddd423e" opacity="1"><path d="M346.8 2396.75L358.8 2396.75L358.8 2096.5C358.8 2096.5 358.8 2090.5 364.8 2090.5L386.8 2090.5 " stroke-linecap="butt" stroke-width="3" stroke="#3d707a" fill="none"></path></g><g from="c6930ea5-0c8e-4e0c-b535-228e3791a587" to="583e49b9-022e-4ae9-a178-46a6646128c1" opacity="1"><path d="M346.8 2396.75L358.8 2396.75L358.8 2230.25C358.8 2230.25 358.8 2224.25 364.8 2224.25L386.8 2224.25 " stroke-linecap="butt" stroke-width="3" stroke="#3d707a" fill="none"></path></g><g from="9ac8365e-0223-4b55-860f-619f3ddd423e" to="e7668e13-e345-4bfe-a987-66ba6fd873bc" opacity="1"><path d="M516.3 2090.5L528.3 2090.5L528.3 2060.25C528.3 2060.25 528.3 2054.25 534.3 2054.25L556.3 2054.25 " stroke-linecap="butt" stroke-width="3" stroke="#3d707a" fill="none"></path></g><g from="9ac8365e-0223-4b55-860f-619f3ddd423e" to="34cc7293-1499-42f4-96f4-cbfad1c73b3a" opacity="1"><path d="M516.3 2090.5L528.3 2090.5L528.3 2120.75C528.3 2120.75 528.3 2126.75 534.3 2126.75L556.3 2126.75 " stroke-linecap="butt" stroke-width="3" stroke="#3d707a" fill="none"></path></g><g from="e7668e13-e345-4bfe-a987-66ba6fd873bc" to="347e4bd1-d1d3-4113-821a-a45b9299f2af" opacity="1"><path d="M625.8 2054.25L637.8 2054.25L637.8 2054.25C637.8 2054.25 637.8 2054.25 637.8 2054.25L665.8 2054.25 " stroke-linecap="butt" stroke-width="3" stroke="#4b8f9c" fill="none"></path></g><g from="34cc7293-1499-42f4-96f4-cbfad1c73b3a" to="d1739cc6-317a-446b-af70-5fb22d69454a" opacity="1"><path d="M640.8 2126.75L652.8 2126.75L652.8 2126.75C652.8 2126.75 652.8 2126.75 652.8 2126.75L680.8 2126.75 " stroke-linecap="butt" stroke-width="3" stroke="#4b8f9c" fill="none"></path></g><g from="583e49b9-022e-4ae9-a178-46a6646128c1" to="739dbd3c-d900-4551-9cd0-0fa14d479a76" opacity="1"><path d="M516.3 2224.25L528.3 2224.25L528.3 2205.25C528.3 2205.25 528.3 2199.25 534.3 2199.25L556.3 2199.25 " stroke-linecap="butt" stroke-width="3" stroke="#4b8f9c" fill="none"></path></g><g from="583e49b9-022e-4ae9-a178-46a6646128c1" to="880be90d-4e3c-4496-8205-f3560599a50f" opacity="1"><path d="M516.3 2224.25L528.3 2224.25L528.3 2243.25C528.3 2243.25 528.3 2249.25 534.3 2249.25L556.3 2249.25 " stroke-linecap="butt" stroke-width="3" stroke="#4b8f9c" fill="none"></path></g><g from="c6930ea5-0c8e-4e0c-b535-228e3791a587" to="e13c9c62-185d-4cb5-ac55-e0631e7ad34b" opacity="1"><path d="M346.8 2396.75L358.8 2396.75L358.8 2404.5C358.8 2404.5 358.8 2410.5 364.8 2410.5L386.8 2410.5 " stroke-linecap="butt" stroke-width="3" stroke="#3d707a" fill="none"></path></g><g from="e13c9c62-185d-4cb5-ac55-e0631e7ad34b" to="cbbc6eb3-b245-4b0b-b2b5-c63b3f5cb629" opacity="1"><path d="M516.3 2410.5L528.3 2410.5L528.3 2305.25C528.3 2305.25 528.3 2299.25 534.3 2299.25L556.3 2299.25 " stroke-linecap="butt" stroke-width="3" stroke="#3d707a" fill="none"></path></g><g from="cbbc6eb3-b245-4b0b-b2b5-c63b3f5cb629" to="a17ed636-a394-4b9b-93d0-c4f8b01f389e" opacity="1"><path d="M685.8 2299.25L697.8 2299.25L697.8 2299.25C697.8 2299.25 697.8 2299.25 697.8 2299.25L725.8 2299.25 " stroke-linecap="butt" stroke-width="3" stroke="#4b8f9c" fill="none"></path></g><g from="e13c9c62-185d-4cb5-ac55-e0631e7ad34b" to="08d7251c-513b-40d9-99d8-1e2058ec4cde" opacity="1"><path d="M516.3 2410.5L528.3 2410.5L528.3 2415.75C528.3 2415.75 528.3 2421.75 534.3 2421.75L556.3 2421.75 " stroke-linecap="butt" stroke-width="3" stroke="#3d707a" fill="none"></path></g><g from="08d7251c-513b-40d9-99d8-1e2058ec4cde" to="9042d786-b6d5-4eb4-86b0-b003fbfd7439" opacity="1"><path d="M685.8 2421.75L697.8 2421.75L697.8 2377.75C697.8 2377.75 697.8 2371.75 703.8 2371.75L725.8 2371.75 " stroke-linecap="butt" stroke-width="3" stroke="#4b8f9c" fill="none"></path></g><g from="08d7251c-513b-40d9-99d8-1e2058ec4cde" to="e7fc44df-6ec8-4997-ba12-98e489739c02" opacity="1"><path d="M685.8 2421.75L697.8 2421.75L697.8 2421.75C697.8 2421.75 697.8 2421.75 697.8 2421.75L725.8 2421.75 " stroke-linecap="butt" stroke-width="3" stroke="#4b8f9c" fill="none"></path></g><g from="08d7251c-513b-40d9-99d8-1e2058ec4cde" to="12bc18bf-76fb-42d2-858c-a668d353cf8b" opacity="1"><path d="M685.8 2421.75L697.8 2421.75L697.8 2465.75C697.8 2465.75 697.8 2471.75 703.8 2471.75L725.8 2471.75 " stroke-linecap="butt" stroke-width="3" stroke="#4b8f9c" fill="none"></path></g><g from="e13c9c62-185d-4cb5-ac55-e0631e7ad34b" to="7b6a14e8-0155-4f3a-868a-a0bba29aa547" opacity="1"><path d="M516.3 2410.5L528.3 2410.5L528.3 2515.75C528.3 2515.75 528.3 2521.75 534.3 2521.75L556.3 2521.75 " stroke-linecap="butt" stroke-width="3" stroke="#3d707a" fill="none"></path></g><g from="c6930ea5-0c8e-4e0c-b535-228e3791a587" to="fffe6c7a-5311-4747-9e3c-1108feade489" opacity="1"><path d="M346.8 2396.75L358.8 2396.75L358.8 2697C358.8 2697 358.8 2703 364.8 2703L386.8 2703 " stroke-linecap="butt" stroke-width="3" stroke="#3d707a" fill="none"></path></g><g from="7b6a14e8-0155-4f3a-868a-a0bba29aa547" to="fd8a691f-4750-41a4-81a1-9062e69e668f" opacity="1"><path d="M730.8 2521.75L742.8 2521.75L742.8 2521.75C742.8 2521.75 742.8 2521.75 742.8 2521.75L770.8 2521.75 " stroke-linecap="butt" stroke-width="3" stroke="#4b8f9c" fill="none"></path></g><g from="fffe6c7a-5311-4747-9e3c-1108feade489" to="8af22ac6-f841-472d-8697-130668f398c1" opacity="1"><path d="M516.3 2703L528.3 2703L528.3 2600.25C528.3 2600.25 528.3 2594.25 534.3 2594.25L556.3 2594.25 " stroke-linecap="butt" stroke-width="3" stroke="#3d707a" fill="none"></path></g><g from="fffe6c7a-5311-4747-9e3c-1108feade489" to="a1307f5c-d076-4589-9906-898d6a7727dc" opacity="1"><path d="M516.3 2703L528.3 2703L528.3 2672.75C528.3 2672.75 528.3 2666.75 534.3 2666.75L556.3 2666.75 " stroke-linecap="butt" stroke-width="3" stroke="#3d707a" fill="none"></path></g><g from="fffe6c7a-5311-4747-9e3c-1108feade489" to="9bcc750c-91fc-412e-9a62-57801dac40ef" opacity="1"><path d="M516.3 2703L528.3 2703L528.3 2733.25C528.3 2733.25 528.3 2739.25 534.3 2739.25L556.3 2739.25 " stroke-linecap="butt" stroke-width="3" stroke="#3d707a" fill="none"></path></g><g from="fffe6c7a-5311-4747-9e3c-1108feade489" to="f13c44b4-d79a-48b8-9e00-f47fbac7d6af" opacity="1"><path d="M516.3 2703L528.3 2703L528.3 2805.75C528.3 2805.75 528.3 2811.75 534.3 2811.75L556.3 2811.75 " stroke-linecap="butt" stroke-width="3" stroke="#3d707a" fill="none"></path></g><g from="8af22ac6-f841-472d-8697-130668f398c1" to="176579c9-ebb8-4b66-a47f-7b01eab3bb89" opacity="1"><path d="M655.8 2594.25L667.8 2594.25L667.8 2594.25C667.8 2594.25 667.8 2594.25 667.8 2594.25L695.8 2594.25 " stroke-linecap="butt" stroke-width="3" stroke="#4b8f9c" fill="none"></path></g><g from="a1307f5c-d076-4589-9906-898d6a7727dc" to="6920ae21-d8ae-4d04-8b91-b32b11962736" opacity="1"><path d="M610.8 2666.75L622.8 2666.75L622.8 2666.75C622.8 2666.75 622.8 2666.75 622.8 2666.75L650.8 2666.75 " stroke-linecap="butt" stroke-width="3" stroke="#4b8f9c" fill="none"></path></g><g from="9bcc750c-91fc-412e-9a62-57801dac40ef" to="bff44a72-c9ea-409f-931d-b60a8229f38f" opacity="1"><path d="M610.8 2739.25L622.8 2739.25L622.8 2739.25C622.8 2739.25 622.8 2739.25 622.8 2739.25L650.8 2739.25 " stroke-linecap="butt" stroke-width="3" stroke="#4b8f9c" fill="none"></path></g><g from="f13c44b4-d79a-48b8-9e00-f47fbac7d6af" to="c19fca70-1e84-4528-8c59-fbd28a5f0b20" opacity="1"><path d="M610.8 2811.75L622.8 2811.75L622.8 2811.75C622.8 2811.75 622.8 2811.75 622.8 2811.75L650.8 2811.75 " stroke-linecap="butt" stroke-width="3" stroke="#4b8f9c" fill="none"></path></g></g><g class="po-mind-generalize-container"></g><g class="po-mind-associative-line-container"></g><g class="po-mind-node-container"><g class="po-mind-topic" id="topic-c6930ea5-0c8e-4e0c-b535-228e3791a587" transform="matrix(1,0,0,1,192,2369.75)" opacity="1"><path d="M0,0 L146.8,0 C146.8,0 146.8,0 146.8,0                           L146.8,46 C146.8,46 146.8,46 146.8,46                           L0,46 C0,46 0,46 0,46 L0,0                           C0,0 0,0 0,0 Z" class="po-mind-topic-shape-fill" transform="matrix(1,0,0,1,1.5,1.5)" fill="#ffffff"></path><path d="M0,0 L145.3,0 L145.3,44.5 L0,44.5 L0,0 Z M7,44.5 L7,51.5 L152.3,51.5 L152.3,7 L145.3,7" class="po-mind-topic-shape" transform="matrix(1,0,0,1,1.5,1.5)" fill="none" stroke-width="3" stroke="#3d707a"></path><g transform="matrix(1,0,0,1,18.5,10.5)"><g data-width="110.8" data-height="26" data-offsetx="0" transform="matrix(1,0,0,1,0,0)"><g><text text-anchor="start" align="top" anchor="start" font-size="18px" font-weight="bold" fill="rgb(75, 143, 156)" style="font-family: 思源宋体;font-size: 18px;font-weight: bold;line-height: 140%;max-width: 900px;overflow-wrap: break-word;word-break: break-word;text-size-adjust: 100%;color: rgb(75, 143, 156);"><tspan x="0" y="18"><tspan dx="0">字典数据类型</tspan></tspan></text></g></g></g><g><rect width="4" height="54" x="-3" y="0" resize="1" fill="none" style="cursor: ew-resize;"></rect><rect width="4" height="54" x="155.8" y="0" resize="2" fill="none" style="cursor: ew-resize;"></rect></g></g><g class="po-mind-topic" id="topic-9ac8365e-0223-4b55-860f-619f3ddd423e" transform="matrix(1,0,0,1,386.8,2068)" opacity="1"><path d="M0,0 L121.5,0 C121.5,0 121.5,0 121.5,0                           L121.5,37 C121.5,37 121.5,37 121.5,37                           L0,37 C0,37 0,37 0,37 L0,0                           C0,0 0,0 0,0 Z" class="po-mind-topic-shape-fill" transform="matrix(1,0,0,1,1.5,1.5)" fill="#ffffff"></path><path d="M0,0 L120,0 L120,35.5 L0,35.5 L0,0 Z M7,35.5 L7,42.5 L127,42.5 L127,7 L120,7" class="po-mind-topic-shape" transform="matrix(1,0,0,1,1.5,1.5)" fill="none" stroke-width="3" stroke="#3d707a"></path><g transform="matrix(1,0,0,1,7.5,8.5)"><g data-width="107.5" data-height="21" data-offsetx="0" transform="matrix(1,0,0,1,0,0)"><g><text text-anchor="start" align="top" anchor="start" font-size="15px" font-weight="bold" fill="rgb(75, 143, 156)" style="font-family: 思源宋体;font-size: 15px;font-weight: bold;line-height: 140%;max-width: 900px;overflow-wrap: break-word;word-break: break-word;text-size-adjust: 100%;color: rgb(75, 143, 156);"><tspan x="0" y="15"><tspan dx="0">字典对象的创建</tspan></tspan></text></g></g></g></g><g class="po-mind-topic" id="topic-e7668e13-e345-4bfe-a987-66ba6fd873bc" transform="matrix(1,0,0,1,556.3,2031.75)" opacity="1"><path d="M0,0 L61.5,0 C61.5,0 61.5,0 61.5,0                           L61.5,37 C61.5,37 61.5,37 61.5,37                           L0,37 C0,37 0,37 0,37 L0,0                           C0,0 0,0 0,0 Z" class="po-mind-topic-shape-fill" transform="matrix(1,0,0,1,1.5,1.5)" fill="#ffffff"></path><path d="M0,0 L60,0 L60,35.5 L0,35.5 L0,0 Z M7,35.5 L7,42.5 L67,42.5 L67,7 L60,7" class="po-mind-topic-shape" transform="matrix(1,0,0,1,1.5,1.5)" fill="none" stroke-width="3" stroke="#3d707a"></path><g transform="matrix(1,0,0,1,7.5,8.5)"><g data-width="47.5" data-height="21" data-offsetx="0" transform="matrix(1,0,0,1,0,0)"><g><text text-anchor="start" align="top" anchor="start" font-size="15px" font-weight="bold" fill="rgb(75, 143, 156)" style="font-family: 思源宋体;font-size: 15px;font-weight: bold;line-height: 140%;max-width: 900px;overflow-wrap: break-word;word-break: break-word;text-size-adjust: 100%;color: rgb(75, 143, 156);"><tspan x="0" y="15"><tspan dx="0">字面量</tspan></tspan></text></g></g></g></g><g class="po-mind-topic" id="topic-347e4bd1-d1d3-4113-821a-a45b9299f2af" transform="matrix(1,0,0,1,665.8,2010.25)" opacity="1"><path d="M0,0 L218.4,0 C218.4,0 218.4,0 218.4,0                           L218.4,44 C218.4,44 218.4,44 218.4,44                           L0,44 C0,44 0,44 0,44 L0,0                           C0,0 0,0 0,0 Z" class="po-mind-topic-shape-fill" fill="none"></path><path d="M0,44  L218.4 44 M0,37 L218.4 37" class="po-mind-topic-shape" fill="none" stroke-width="3" stroke="#4b8f9c"></path><g transform="matrix(1,0,0,1,6.5,12)"><g data-width="205.4" data-height="20" data-offsetx="0" transform="matrix(1,0,0,1,0,0)"><g><text text-anchor="start" align="top" anchor="start" font-size="14px" font-weight="" fill="rgb(75, 143, 156)" style="font-family: 思源宋体;font-size: 14px;line-height: 140%;max-width: 896px;overflow-wrap: break-word;word-break: break-word;text-size-adjust: 100%;color: rgb(75, 143, 156);"><tspan x="0" y="13.999999999999996"><tspan dx="0">{key1:value1[,key2:value,...]}</tspan></tspan></text></g></g></g></g><g class="po-mind-topic" id="topic-34cc7293-1499-42f4-96f4-cbfad1c73b3a" transform="matrix(1,0,0,1,556.3,2104.25)" opacity="1"><path d="M0,0 L76.5,0 C76.5,0 76.5,0 76.5,0                           L76.5,37 C76.5,37 76.5,37 76.5,37                           L0,37 C0,37 0,37 0,37 L0,0                           C0,0 0,0 0,0 Z" class="po-mind-topic-shape-fill" transform="matrix(1,0,0,1,1.5,1.5)" fill="#ffffff"></path><path d="M0,0 L75,0 L75,35.5 L0,35.5 L0,0 Z M7,35.5 L7,42.5 L82,42.5 L82,7 L75,7" class="po-mind-topic-shape" transform="matrix(1,0,0,1,1.5,1.5)" fill="none" stroke-width="3" stroke="#3d707a"></path><g transform="matrix(1,0,0,1,7.5,8.5)"><g data-width="62.5" data-height="21" data-offsetx="0" transform="matrix(1,0,0,1,0,0)"><g><text text-anchor="start" align="top" anchor="start" font-size="15px" font-weight="bold" fill="rgb(75, 143, 156)" style="font-family: 思源宋体;font-size: 15px;font-weight: bold;line-height: 140%;max-width: 900px;overflow-wrap: break-word;word-break: break-word;text-size-adjust: 100%;color: rgb(75, 143, 156);"><tspan x="0" y="15"><tspan dx="0">内置函数</tspan></tspan></text></g></g></g></g><g class="po-mind-topic" id="topic-d1739cc6-317a-446b-af70-5fb22d69454a" transform="matrix(1,0,0,1,680.8,2082.75)" opacity="1"><path d="M0,0 L54.4,0 C54.4,0 54.4,0 54.4,0                           L54.4,44 C54.4,44 54.4,44 54.4,44                           L0,44 C0,44 0,44 0,44 L0,0                           C0,0 0,0 0,0 Z" class="po-mind-topic-shape-fill" fill="none"></path><path d="M0,44  L54.4 44 M0,37 L54.4 37" class="po-mind-topic-shape" fill="none" stroke-width="3" stroke="#4b8f9c"></path><g transform="matrix(1,0,0,1,6.5,12)"><g data-width="41.4" data-height="20" data-offsetx="0" transform="matrix(1,0,0,1,0,0)"><g><text text-anchor="start" align="top" anchor="start" font-size="14px" font-weight="" fill="rgb(75, 143, 156)" style="font-family: 思源宋体;font-size: 14px;line-height: 140%;max-width: 896px;overflow-wrap: break-word;word-break: break-word;text-size-adjust: 100%;color: rgb(75, 143, 156);"><tspan x="0" y="13.999999999999996"><tspan dx="0">dict()</tspan></tspan></text></g></g></g></g><g class="po-mind-topic" id="topic-583e49b9-022e-4ae9-a178-46a6646128c1" transform="matrix(1,0,0,1,386.8,2201.75)" opacity="1"><path d="M0,0 L121.5,0 C121.5,0 121.5,0 121.5,0                           L121.5,37 C121.5,37 121.5,37 121.5,37                           L0,37 C0,37 0,37 0,37 L0,0                           C0,0 0,0 0,0 Z" class="po-mind-topic-shape-fill" transform="matrix(1,0,0,1,1.5,1.5)" fill="#ffffff"></path><path d="M0,0 L120,0 L120,35.5 L0,35.5 L0,0 Z M7,35.5 L7,42.5 L127,42.5 L127,7 L120,7" class="po-mind-topic-shape" transform="matrix(1,0,0,1,1.5,1.5)" fill="none" stroke-width="3" stroke="#3d707a"></path><g transform="matrix(1,0,0,1,7.5,8.5)"><g data-width="107.5" data-height="21" data-offsetx="0" transform="matrix(1,0,0,1,0,0)"><g><text text-anchor="start" align="top" anchor="start" font-size="15px" font-weight="bold" fill="rgb(75, 143, 156)" style="font-family: 思源宋体;font-size: 15px;font-weight: bold;line-height: 140%;max-width: 900px;overflow-wrap: break-word;word-break: break-word;text-size-adjust: 100%;color: rgb(75, 143, 156);"><tspan x="0" y="15"><tspan dx="0">字典解析表达式</tspan></tspan></text></g></g></g></g><g class="po-mind-topic" id="topic-739dbd3c-d900-4551-9cd0-0fa14d479a76" transform="matrix(1,0,0,1,556.3,2155.25)" opacity="1"><path d="M0,0 L366.4,0 C366.4,0 366.4,0 366.4,0                           L366.4,44 C366.4,44 366.4,44 366.4,44                           L0,44 C0,44 0,44 0,44 L0,0                           C0,0 0,0 0,0 Z" class="po-mind-topic-shape-fill" fill="none"></path><path d="M0,44  L366.4 44 M0,37 L366.4 37" class="po-mind-topic-shape" fill="none" stroke-width="3" stroke="#4b8f9c"></path><g transform="matrix(1,0,0,1,6.5,12)"><g data-width="353.4" data-height="20" data-offsetx="0" transform="matrix(1,0,0,1,0,0)"><g><text text-anchor="start" align="top" anchor="start" font-size="14px" font-weight="" fill="rgb(75, 143, 156)" style="font-family: 思源宋体;font-size: 14px;line-height: 140%;max-width: 896px;overflow-wrap: break-word;word-break: break-word;text-size-adjust: 100%;color: rgb(75, 143, 156);"><tspan x="0" y="13.999999999999996"><tspan dx="0">{k:v for k in 可迭代对象1 for v in 可迭代对象2 if 条件}</tspan></tspan></text></g></g></g></g><g class="po-mind-topic" id="topic-880be90d-4e3c-4496-8205-f3560599a50f" transform="matrix(1,0,0,1,556.3,2205.25)" opacity="1"><path d="M0,0 L576.4,0 C576.4,0 576.4,0 576.4,0                           L576.4,44 C576.4,44 576.4,44 576.4,44                           L0,44 C0,44 0,44 0,44 L0,0                           C0,0 0,0 0,0 Z" class="po-mind-topic-shape-fill" fill="none"></path><path d="M0,44  L576.4 44 M0,37 L576.4 37" class="po-mind-topic-shape" fill="none" stroke-width="3" stroke="#4b8f9c"></path><g transform="matrix(1,0,0,1,6.5,12)"><g data-width="563.4" data-height="20" data-offsetx="0" transform="matrix(1,0,0,1,0,0)"><g><text text-anchor="start" align="top" anchor="start" font-size="14px" font-weight="" fill="rgb(75, 143, 156)" style="font-family: 思源宋体;font-size: 14px;line-height: 140%;max-width: 896px;overflow-wrap: break-word;word-break: break-word;text-size-adjust: 100%;color: rgb(75, 143, 156);"><tspan x="0" y="13.999999999999996"><tspan dx="0">{key表达式:value表达式 for 变量1 in 可迭代对象1 .... for 变量n in 可迭代对象n if 条件}</tspan></tspan></text></g></g></g></g><g class="po-mind-topic" id="topic-e13c9c62-185d-4cb5-ac55-e0631e7ad34b" transform="matrix(1,0,0,1,386.8,2388)" opacity="1"><path d="M0,0 L121.5,0 C121.5,0 121.5,0 121.5,0                           L121.5,37 C121.5,37 121.5,37 121.5,37                           L0,37 C0,37 0,37 0,37 L0,0                           C0,0 0,0 0,0 Z" class="po-mind-topic-shape-fill" transform="matrix(1,0,0,1,1.5,1.5)" fill="#ffffff"></path><path d="M0,0 L120,0 L120,35.5 L0,35.5 L0,0 Z M7,35.5 L7,42.5 L127,42.5 L127,7 L120,7" class="po-mind-topic-shape" transform="matrix(1,0,0,1,1.5,1.5)" fill="none" stroke-width="3" stroke="#3d707a"></path><g transform="matrix(1,0,0,1,7.5,8.5)"><g data-width="107.5" data-height="21" data-offsetx="0" transform="matrix(1,0,0,1,0,0)"><g><text text-anchor="start" align="top" anchor="start" font-size="15px" font-weight="bold" fill="rgb(75, 143, 156)" style="font-family: 思源宋体;font-size: 15px;font-weight: bold;line-height: 140%;max-width: 900px;overflow-wrap: break-word;word-break: break-word;text-size-adjust: 100%;color: rgb(75, 143, 156);"><tspan x="0" y="15"><tspan dx="0">字典的基本操作</tspan></tspan></text></g></g></g></g><g class="po-mind-topic" id="topic-cbbc6eb3-b245-4b0b-b2b5-c63b3f5cb629" transform="matrix(1,0,0,1,556.3,2276.75)" opacity="1"><path d="M0,0 L121.5,0 C121.5,0 121.5,0 121.5,0                           L121.5,37 C121.5,37 121.5,37 121.5,37                           L0,37 C0,37 0,37 0,37 L0,0                           C0,0 0,0 0,0 Z" class="po-mind-topic-shape-fill" transform="matrix(1,0,0,1,1.5,1.5)" fill="#ffffff"></path><path d="M0,0 L120,0 L120,35.5 L0,35.5 L0,0 Z M7,35.5 L7,42.5 L127,42.5 L127,7 L120,7" class="po-mind-topic-shape" transform="matrix(1,0,0,1,1.5,1.5)" fill="none" stroke-width="3" stroke="#3d707a"></path><g transform="matrix(1,0,0,1,7.5,8.5)"><g data-width="107.5" data-height="21" data-offsetx="0" transform="matrix(1,0,0,1,0,0)"><g><text text-anchor="start" align="top" anchor="start" font-size="15px" font-weight="bold" fill="rgb(75, 143, 156)" style="font-family: 思源宋体;font-size: 15px;font-weight: bold;line-height: 140%;max-width: 900px;overflow-wrap: break-word;word-break: break-word;text-size-adjust: 100%;color: rgb(75, 143, 156);"><tspan x="0" y="15"><tspan dx="0">访问字典的键值</tspan></tspan></text></g></g></g></g><g class="po-mind-topic" id="topic-a17ed636-a394-4b9b-93d0-c4f8b01f389e" transform="matrix(1,0,0,1,725.8,2255.25)" opacity="1"><path d="M0,0 L256.4,0 C256.4,0 256.4,0 256.4,0                           L256.4,44 C256.4,44 256.4,44 256.4,44                           L0,44 C0,44 0,44 0,44 L0,0                           C0,0 0,0 0,0 Z" class="po-mind-topic-shape-fill" fill="none"></path><path d="M0,44  L256.4 44 M0,37 L256.4 37" class="po-mind-topic-shape" fill="none" stroke-width="3" stroke="#4b8f9c"></path><g transform="matrix(1,0,0,1,6.5,12)"><g data-width="243.4" data-height="20" data-offsetx="0" transform="matrix(1,0,0,1,0,0)"><g><text text-anchor="start" align="top" anchor="start" font-size="14px" font-weight="" fill="rgb(75, 143, 156)" style="font-family: 思源宋体;font-size: 14px;line-height: 140%;max-width: 896px;overflow-wrap: break-word;word-break: break-word;text-size-adjust: 100%;color: rgb(75, 143, 156);"><tspan x="0" y="13.999999999999996"><tspan dx="0">d[key]  ;  d[key] = value ; del d[key]</tspan></tspan></text></g></g></g></g><g class="po-mind-topic" id="topic-08d7251c-513b-40d9-99d8-1e2058ec4cde" transform="matrix(1,0,0,1,556.3,2399.25)" opacity="1"><path d="M0,0 L121.5,0 C121.5,0 121.5,0 121.5,0                           L121.5,37 C121.5,37 121.5,37 121.5,37                           L0,37 C0,37 0,37 0,37 L0,0                           C0,0 0,0 0,0 Z" class="po-mind-topic-shape-fill" transform="matrix(1,0,0,1,1.5,1.5)" fill="#ffffff"></path><path d="M0,0 L120,0 L120,35.5 L0,35.5 L0,0 Z M7,35.5 L7,42.5 L127,42.5 L127,7 L120,7" class="po-mind-topic-shape" transform="matrix(1,0,0,1,1.5,1.5)" fill="none" stroke-width="3" stroke="#3d707a"></path><g transform="matrix(1,0,0,1,7.5,8.5)"><g data-width="107.5" data-height="21" data-offsetx="0" transform="matrix(1,0,0,1,0,0)"><g><text text-anchor="start" align="top" anchor="start" font-size="15px" font-weight="bold" fill="rgb(75, 143, 156)" style="font-family: 思源宋体;font-size: 15px;font-weight: bold;line-height: 140%;max-width: 900px;overflow-wrap: break-word;word-break: break-word;text-size-adjust: 100%;color: rgb(75, 143, 156);"><tspan x="0" y="15"><tspan dx="0">字典的视图对象</tspan></tspan></text></g></g></g></g><g class="po-mind-topic" id="topic-9042d786-b6d5-4eb4-86b0-b003fbfd7439" transform="matrix(1,0,0,1,725.8,2327.75)" opacity="1"><path d="M0,0 L72.4,0 C72.4,0 72.4,0 72.4,0                           L72.4,44 C72.4,44 72.4,44 72.4,44                           L0,44 C0,44 0,44 0,44 L0,0                           C0,0 0,0 0,0 Z" class="po-mind-topic-shape-fill" fill="none"></path><path d="M0,44  L72.4 44 M0,37 L72.4 37" class="po-mind-topic-shape" fill="none" stroke-width="3" stroke="#4b8f9c"></path><g transform="matrix(1,0,0,1,6.5,12)"><g data-width="59.4" data-height="20" data-offsetx="0" transform="matrix(1,0,0,1,0,0)"><g><text text-anchor="start" align="top" anchor="start" font-size="14px" font-weight="" fill="rgb(75, 143, 156)" style="font-family: 思源宋体;font-size: 14px;line-height: 140%;max-width: 896px;overflow-wrap: break-word;word-break: break-word;text-size-adjust: 100%;color: rgb(75, 143, 156);"><tspan x="0" y="13.999999999999996"><tspan dx="0">d.keys()</tspan></tspan></text></g></g></g></g><g class="po-mind-topic" id="topic-e7fc44df-6ec8-4997-ba12-98e489739c02" transform="matrix(1,0,0,1,725.8,2377.75)" opacity="1"><path d="M0,0 L80.4,0 C80.4,0 80.4,0 80.4,0                           L80.4,44 C80.4,44 80.4,44 80.4,44                           L0,44 C0,44 0,44 0,44 L0,0                           C0,0 0,0 0,0 Z" class="po-mind-topic-shape-fill" fill="none"></path><path d="M0,44  L80.4 44 M0,37 L80.4 37" class="po-mind-topic-shape" fill="none" stroke-width="3" stroke="#4b8f9c"></path><g transform="matrix(1,0,0,1,6.5,12)"><g data-width="67.4" data-height="20" data-offsetx="0" transform="matrix(1,0,0,1,0,0)"><g><text text-anchor="start" align="top" anchor="start" font-size="14px" font-weight="" fill="rgb(75, 143, 156)" style="font-family: 思源宋体;font-size: 14px;line-height: 140%;max-width: 896px;overflow-wrap: break-word;word-break: break-word;text-size-adjust: 100%;color: rgb(75, 143, 156);"><tspan x="0" y="13.999999999999996"><tspan dx="0">d.items()</tspan></tspan></text></g></g></g></g><g class="po-mind-topic" id="topic-12bc18bf-76fb-42d2-858c-a668d353cf8b" transform="matrix(1,0,0,1,725.8,2427.75)" opacity="1"><path d="M0,0 L84.4,0 C84.4,0 84.4,0 84.4,0                           L84.4,44 C84.4,44 84.4,44 84.4,44                           L0,44 C0,44 0,44 0,44 L0,0                           C0,0 0,0 0,0 Z" class="po-mind-topic-shape-fill" fill="none"></path><path d="M0,44  L84.4 44 M0,37 L84.4 37" class="po-mind-topic-shape" fill="none" stroke-width="3" stroke="#4b8f9c"></path><g transform="matrix(1,0,0,1,6.5,12)"><g data-width="71.4" data-height="20" data-offsetx="0" transform="matrix(1,0,0,1,0,0)"><g><text text-anchor="start" align="top" anchor="start" font-size="14px" font-weight="" fill="rgb(75, 143, 156)" style="font-family: 思源宋体;font-size: 14px;line-height: 140%;max-width: 896px;overflow-wrap: break-word;word-break: break-word;text-size-adjust: 100%;color: rgb(75, 143, 156);"><tspan x="0" y="13.999999999999996"><tspan dx="0">d.values()</tspan></tspan></text></g></g></g></g><g class="po-mind-topic" id="topic-7b6a14e8-0155-4f3a-868a-a0bba29aa547" transform="matrix(1,0,0,1,556.3,2499.25)" opacity="1"><path d="M0,0 L166.5,0 C166.5,0 166.5,0 166.5,0                           L166.5,37 C166.5,37 166.5,37 166.5,37                           L0,37 C0,37 0,37 0,37 L0,0                           C0,0 0,0 0,0 Z" class="po-mind-topic-shape-fill" transform="matrix(1,0,0,1,1.5,1.5)" fill="#ffffff"></path><path d="M0,0 L165,0 L165,35.5 L0,35.5 L0,0 Z M7,35.5 L7,42.5 L172,42.5 L172,7 L165,7" class="po-mind-topic-shape" transform="matrix(1,0,0,1,1.5,1.5)" fill="none" stroke-width="3" stroke="#3d707a"></path><g transform="matrix(1,0,0,1,7.5,8.5)"><g data-width="152.5" data-height="21" data-offsetx="0" transform="matrix(1,0,0,1,0,0)"><g><text text-anchor="start" align="top" anchor="start" font-size="15px" font-weight="bold" fill="rgb(75, 143, 156)" style="font-family: 思源宋体;font-size: 15px;font-weight: bold;line-height: 140%;max-width: 900px;overflow-wrap: break-word;word-break: break-word;text-size-adjust: 100%;color: rgb(75, 143, 156);"><tspan x="0" y="15"><tspan dx="0">判断字典的键是否存在</tspan></tspan></text></g></g></g></g><g class="po-mind-topic" id="topic-fd8a691f-4750-41a4-81a1-9062e69e668f" transform="matrix(1,0,0,1,770.8,2477.75)" opacity="1"><path d="M0,0 L160.4,0 C160.4,0 160.4,0 160.4,0                           L160.4,44 C160.4,44 160.4,44 160.4,44                           L0,44 C0,44 0,44 0,44 L0,0                           C0,0 0,0 0,0 Z" class="po-mind-topic-shape-fill" fill="none"></path><path d="M0,44  L160.4 44 M0,37 L160.4 37" class="po-mind-topic-shape" fill="none" stroke-width="3" stroke="#4b8f9c"></path><g transform="matrix(1,0,0,1,6.5,12)"><g data-width="147.4" data-height="20" data-offsetx="0" transform="matrix(1,0,0,1,0,0)"><g><text text-anchor="start" align="top" anchor="start" font-size="14px" font-weight="" fill="rgb(75, 143, 156)" style="font-family: 思源宋体;font-size: 14px;line-height: 140%;max-width: 896px;overflow-wrap: break-word;word-break: break-word;text-size-adjust: 100%;color: rgb(75, 143, 156);"><tspan x="0" y="13.999999999999996"><tspan dx="0">k in d     ；  k not in d</tspan></tspan></text></g></g></g></g><g class="po-mind-topic" id="topic-fffe6c7a-5311-4747-9e3c-1108feade489" transform="matrix(1,0,0,1,386.8,2680.5)" opacity="1"><path d="M0,0 L121.5,0 C121.5,0 121.5,0 121.5,0                           L121.5,37 C121.5,37 121.5,37 121.5,37                           L0,37 C0,37 0,37 0,37 L0,0                           C0,0 0,0 0,0 Z" class="po-mind-topic-shape-fill" transform="matrix(1,0,0,1,1.5,1.5)" fill="#ffffff"></path><path d="M0,0 L120,0 L120,35.5 L0,35.5 L0,0 Z M7,35.5 L7,42.5 L127,42.5 L127,7 L120,7" class="po-mind-topic-shape" transform="matrix(1,0,0,1,1.5,1.5)" fill="none" stroke-width="3" stroke="#3d707a"></path><g transform="matrix(1,0,0,1,7.5,8.5)"><g data-width="107.5" data-height="21" data-offsetx="0" transform="matrix(1,0,0,1,0,0)"><g><text text-anchor="start" align="top" anchor="start" font-size="15px" font-weight="bold" fill="rgb(75, 143, 156)" style="font-family: 思源宋体;font-size: 15px;font-weight: bold;line-height: 140%;max-width: 900px;overflow-wrap: break-word;word-break: break-word;text-size-adjust: 100%;color: rgb(75, 143, 156);"><tspan x="0" y="15"><tspan dx="0">字典对象的方法</tspan></tspan></text></g></g></g></g><g class="po-mind-topic" id="topic-8af22ac6-f841-472d-8697-130668f398c1" transform="matrix(1,0,0,1,556.3,2571.75)" opacity="1"><path d="M0,0 L91.5,0 C91.5,0 91.5,0 91.5,0                           L91.5,37 C91.5,37 91.5,37 91.5,37                           L0,37 C0,37 0,37 0,37 L0,0                           C0,0 0,0 0,0 Z" class="po-mind-topic-shape-fill" transform="matrix(1,0,0,1,1.5,1.5)" fill="#ffffff"></path><path d="M0,0 L90,0 L90,35.5 L0,35.5 L0,0 Z M7,35.5 L7,42.5 L97,42.5 L97,7 L90,7" class="po-mind-topic-shape" transform="matrix(1,0,0,1,1.5,1.5)" fill="none" stroke-width="3" stroke="#3d707a"></path><g transform="matrix(1,0,0,1,7.5,8.5)"><g data-width="77.5" data-height="21" data-offsetx="0" transform="matrix(1,0,0,1,0,0)"><g><text text-anchor="start" align="top" anchor="start" font-size="15px" font-weight="bold" fill="rgb(75, 143, 156)" style="font-family: 思源宋体;font-size: 15px;font-weight: bold;line-height: 140%;max-width: 900px;overflow-wrap: break-word;word-break: break-word;text-size-adjust: 100%;color: rgb(75, 143, 156);"><tspan x="0" y="15"><tspan dx="0">清空和删除</tspan></tspan></text></g></g></g></g><g class="po-mind-topic" id="topic-176579c9-ebb8-4b66-a47f-7b01eab3bb89" transform="matrix(1,0,0,1,695.8,2550.25)" opacity="1"><path d="M0,0 L327.4,0 C327.4,0 327.4,0 327.4,0                           L327.4,44 C327.4,44 327.4,44 327.4,44                           L0,44 C0,44 0,44 0,44 L0,0                           C0,0 0,0 0,0 Z" class="po-mind-topic-shape-fill" fill="none"></path><path d="M0,44  L327.4 44 M0,37 L327.4 37" class="po-mind-topic-shape" fill="none" stroke-width="3" stroke="#4b8f9c"></path><g transform="matrix(1,0,0,1,6.5,12)"><g data-width="314.4" data-height="20" data-offsetx="0" transform="matrix(1,0,0,1,0,0)"><g><text text-anchor="start" align="top" anchor="start" font-size="14px" font-weight="" fill="rgb(75, 143, 156)" style="font-family: 思源宋体;font-size: 14px;line-height: 140%;max-width: 896px;overflow-wrap: break-word;word-break: break-word;text-size-adjust: 100%;color: rgb(75, 143, 156);"><tspan x="0" y="13.999999999999996"><tspan dx="0">d.clear() ; d.pop(k) ; d.pop(k,v) ; d.popitem()</tspan></tspan></text></g></g></g></g><g class="po-mind-topic" id="topic-a1307f5c-d076-4589-9906-898d6a7727dc" transform="matrix(1,0,0,1,556.3,2644.25)" opacity="1"><path d="M0,0 L46.5,0 C46.5,0 46.5,0 46.5,0                           L46.5,37 C46.5,37 46.5,37 46.5,37                           L0,37 C0,37 0,37 0,37 L0,0                           C0,0 0,0 0,0 Z" class="po-mind-topic-shape-fill" transform="matrix(1,0,0,1,1.5,1.5)" fill="#ffffff"></path><path d="M0,0 L45,0 L45,35.5 L0,35.5 L0,0 Z M7,35.5 L7,42.5 L52,42.5 L52,7 L45,7" class="po-mind-topic-shape" transform="matrix(1,0,0,1,1.5,1.5)" fill="none" stroke-width="3" stroke="#3d707a"></path><g transform="matrix(1,0,0,1,7.5,8.5)"><g data-width="32.5" data-height="21" data-offsetx="0" transform="matrix(1,0,0,1,0,0)"><g><text text-anchor="start" align="top" anchor="start" font-size="15px" font-weight="bold" fill="rgb(75, 143, 156)" style="font-family: 思源宋体;font-size: 15px;font-weight: bold;line-height: 140%;max-width: 900px;overflow-wrap: break-word;word-break: break-word;text-size-adjust: 100%;color: rgb(75, 143, 156);"><tspan x="0" y="15"><tspan dx="0">查找</tspan></tspan></text></g></g></g></g><g class="po-mind-topic" id="topic-6920ae21-d8ae-4d04-8b91-b32b11962736" transform="matrix(1,0,0,1,650.8,2622.75)" opacity="1"><path d="M0,0 L279.4,0 C279.4,0 279.4,0 279.4,0                           L279.4,44 C279.4,44 279.4,44 279.4,44                           L0,44 C0,44 0,44 0,44 L0,0                           C0,0 0,0 0,0 Z" class="po-mind-topic-shape-fill" fill="none"></path><path d="M0,44  L279.4 44 M0,37 L279.4 37" class="po-mind-topic-shape" fill="none" stroke-width="3" stroke="#4b8f9c"></path><g transform="matrix(1,0,0,1,6.5,12)"><g data-width="266.4" data-height="20" data-offsetx="0" transform="matrix(1,0,0,1,0,0)"><g><text text-anchor="start" align="top" anchor="start" font-size="14px" font-weight="" fill="rgb(75, 143, 156)" style="font-family: 思源宋体;font-size: 14px;line-height: 140%;max-width: 896px;overflow-wrap: break-word;word-break: break-word;text-size-adjust: 100%;color: rgb(75, 143, 156);"><tspan x="0" y="13.999999999999996"><tspan dx="0">d.get(k)  ; d.get(k,v)  ;d.setdefault(k,v)</tspan></tspan></text></g></g></g></g><g class="po-mind-topic" id="topic-9bcc750c-91fc-412e-9a62-57801dac40ef" transform="matrix(1,0,0,1,556.3,2716.75)" opacity="1"><path d="M0,0 L46.5,0 C46.5,0 46.5,0 46.5,0                           L46.5,37 C46.5,37 46.5,37 46.5,37                           L0,37 C0,37 0,37 0,37 L0,0                           C0,0 0,0 0,0 Z" class="po-mind-topic-shape-fill" transform="matrix(1,0,0,1,1.5,1.5)" fill="#ffffff"></path><path d="M0,0 L45,0 L45,35.5 L0,35.5 L0,0 Z M7,35.5 L7,42.5 L52,42.5 L52,7 L45,7" class="po-mind-topic-shape" transform="matrix(1,0,0,1,1.5,1.5)" fill="none" stroke-width="3" stroke="#3d707a"></path><g transform="matrix(1,0,0,1,7.5,8.5)"><g data-width="32.5" data-height="21" data-offsetx="0" transform="matrix(1,0,0,1,0,0)"><g><text text-anchor="start" align="top" anchor="start" font-size="15px" font-weight="bold" fill="rgb(75, 143, 156)" style="font-family: 思源宋体;font-size: 15px;font-weight: bold;line-height: 140%;max-width: 900px;overflow-wrap: break-word;word-break: break-word;text-size-adjust: 100%;color: rgb(75, 143, 156);"><tspan x="0" y="15"><tspan dx="0">拷贝</tspan></tspan></text></g></g></g></g><g class="po-mind-topic" id="topic-bff44a72-c9ea-409f-931d-b60a8229f38f" transform="matrix(1,0,0,1,650.8,2695.25)" opacity="1"><path d="M0,0 L74.4,0 C74.4,0 74.4,0 74.4,0                           L74.4,44 C74.4,44 74.4,44 74.4,44                           L0,44 C0,44 0,44 0,44 L0,0                           C0,0 0,0 0,0 Z" class="po-mind-topic-shape-fill" fill="none"></path><path d="M0,44  L74.4 44 M0,37 L74.4 37" class="po-mind-topic-shape" fill="none" stroke-width="3" stroke="#4b8f9c"></path><g transform="matrix(1,0,0,1,6.5,12)"><g data-width="61.4" data-height="20" data-offsetx="0" transform="matrix(1,0,0,1,0,0)"><g><text text-anchor="start" align="top" anchor="start" font-size="14px" font-weight="" fill="rgb(75, 143, 156)" style="font-family: 思源宋体;font-size: 14px;line-height: 140%;max-width: 896px;overflow-wrap: break-word;word-break: break-word;text-size-adjust: 100%;color: rgb(75, 143, 156);"><tspan x="0" y="13.999999999999996"><tspan dx="0">d.copy()</tspan></tspan></text></g></g></g></g><g class="po-mind-topic" id="topic-f13c44b4-d79a-48b8-9e00-f47fbac7d6af" transform="matrix(1,0,0,1,556.3,2789.25)" opacity="1"><path d="M0,0 L46.5,0 C46.5,0 46.5,0 46.5,0                           L46.5,37 C46.5,37 46.5,37 46.5,37                           L0,37 C0,37 0,37 0,37 L0,0                           C0,0 0,0 0,0 Z" class="po-mind-topic-shape-fill" transform="matrix(1,0,0,1,1.5,1.5)" fill="#ffffff"></path><path d="M0,0 L45,0 L45,35.5 L0,35.5 L0,0 Z M7,35.5 L7,42.5 L52,42.5 L52,7 L45,7" class="po-mind-topic-shape" transform="matrix(1,0,0,1,1.5,1.5)" fill="none" stroke-width="3" stroke="#3d707a"></path><g transform="matrix(1,0,0,1,7.5,8.5)"><g data-width="32.5" data-height="21" data-offsetx="0" transform="matrix(1,0,0,1,0,0)"><g><text text-anchor="start" align="top" anchor="start" font-size="15px" font-weight="bold" fill="rgb(75, 143, 156)" style="font-family: 思源宋体;font-size: 15px;font-weight: bold;line-height: 140%;max-width: 900px;overflow-wrap: break-word;word-break: break-word;text-size-adjust: 100%;color: rgb(75, 143, 156);"><tspan x="0" y="15"><tspan dx="0">更新</tspan></tspan></text></g></g></g></g><g class="po-mind-topic" id="topic-c19fca70-1e84-4528-8c59-fbd28a5f0b20" transform="matrix(1,0,0,1,650.8,2767.75)" opacity="1"><path d="M0,0 L124.4,0 C124.4,0 124.4,0 124.4,0                           L124.4,44 C124.4,44 124.4,44 124.4,44                           L0,44 C0,44 0,44 0,44 L0,0                           C0,0 0,0 0,0 Z" class="po-mind-topic-shape-fill" fill="none"></path><path d="M0,44  L124.4 44 M0,37 L124.4 37" class="po-mind-topic-shape" fill="none" stroke-width="3" stroke="#4b8f9c"></path><g transform="matrix(1,0,0,1,6.5,12)"><g data-width="111.4" data-height="20" data-offsetx="0" transform="matrix(1,0,0,1,0,0)"><g><text text-anchor="start" align="top" anchor="start" font-size="14px" font-weight="" fill="rgb(75, 143, 156)" style="font-family: 思源宋体;font-size: 14px;line-height: 140%;max-width: 896px;overflow-wrap: break-word;word-break: break-word;text-size-adjust: 100%;color: rgb(75, 143, 156);"><tspan x="0" y="13.999999999999996"><tspan dx="0">d.update(E,**F)</tspan></tspan></text></g></g></g></g></g><g class="po-mind-associative-line-label-container"></g></g><g id="wpsexport-watermark"><defs><pattern patternUnits="userSpaceOnUse" id="wpspattern_mark_0" width="300" height="300"><text x="150" y="100" fill="#0000004d" font-size="18" transform="rotate(-45, 150, 150)" style="dominant-baseline: middle; text-anchor: middle;"></text></pattern></defs><rect fill="url(#wpspattern_mark_0)" x="0" y="0" width="993.695" height="873" id="rect_mark_0" pointer-events="none"></rect></g><style>
    .connection-svg{
        outline: none;
        box-shadow: none;
        -webkit-tap-highlight-color: transparent;
    }
    .connection-line {
        cursor: pointer;
    }

    .connection-line-bg {
        cursor: pointer;
    }

    .node-add-btn {
        cursor: pointer;
    }

    .po-richtext-node-wrap ol,
    .area_box ol,
    .po-measureCustomNode ol {
        padding-left: 20px;
        margin: 0;
    }
    .po-richtext-node-wrap ol li,
    .area_box ol li,
    .po-measureCustomNode ol li {
        list-style: decimal;
    }
    .po-richtext-node-wrap ul,
    .area_box ul,
    .po-measureCustomNode ul {
        padding-left: calc(15px + 0.5em);
        list-style: none;
        margin: 0;
    }
    .po-richtext-node-wrap ul li,
    .area_box ul li,
    .po-measureCustomNode ul li {
        list-style: disc;
    }
    .po-richtext-node-wrap p,
    .po-richtext-node-wrap h1,
    .po-richtext-node-wrap h2,
    .po-richtext-node-wrap h3,
    .po-richtext-node-wrap h4,
    .po-richtext-node-wrap h5,
    .po-richtext-node-wrap h6,
    .area_box p,
    .area_box h1,
    .area_box h2,
    .area_box h3,
    .area_box h4,
    .area_box h5,
    .area_box h6,
    .po-measureCustomNode p,
    .po-measureCustomNode h1,
    .po-measureCustomNode h2,
    .po-measureCustomNode h3,
    .po-measureCustomNode h4,
    .po-measureCustomNode h5,
    .po-measureCustomNode h6 {
        margin: 0;
    }
    .po-safari-fixed {
        position: fixed;
    }
</style></svg>