<?xml version="1.0" standalone="no"?><?xml-stylesheet type="text/css" href="https://wps.processon.com/themes/default/wps/mind/icons/icons.css" ?><!DOCTYPE svg PUBLIC "-//W3C//DTD SVG 1.1//EN" "http://www.w3.org/Graphics/SVG/1.1/DTD/svg11.dtd"><svg xmlns="http://www.w3.org/2000/svg" xmlns:xlink="http://www.w3.org/1999/xlink" version="1.1" width="895.8999633789062" height="860.5" style="outline: none; background: none; top: 0px; left: 0px; display: block; z-index: 1; font-size: 12px;" id="mind-svg-con"><defs></defs><g id="svgbackgroundid"><defs transform="matrix(0.5912750740824706,0,0,0.23972698147374286,0,0)"></defs><rect width="1515.199951171875" height="3589.5" fill="#FFFFFF" transform="matrix(0.5912750740824706,0,0,0.23972698147374286,0,0)"></rect></g><g id="export-watermark"><defs><pattern patternUnits="userSpaceOnUse" id="pattern_mark_0" width="300" height="300"><text x="150" y="100" fill="rgb(235,235,235)" font-size="18" transform="rotate(-45, 150, 150)" style="dominant-baseline: middle; text-anchor: middle;"></text></pattern></defs><rect fill="url(#pattern_mark_0)" x="0" y="0" width="895.898" height="860.5" id="rect_mark_0" pointer-events="none"></rect></g><g class="po-mind-container" transform="matrix(1,0,0,1,-468.29998779296875,1602)"><g class="po-mind-line-container" style=""><g from="2c3bfae6-5b8d-4512-8081-fa96c11a9e75" to="51735c5a-5b1d-423f-a587-e939df107a6d" opacity="1"><path d="M616.8 -1148L628.8 -1148L628.8 -794C628.8 -794 628.8 -788 634.8 -788L656.8 -788" stroke-linecap="butt" stroke-width="3" stroke="#3d707a" fill="none"></path></g><g from="51735c5a-5b1d-423f-a587-e939df107a6d" to="a39e58f6-27ef-48b2-af01-c5858b6321a6" opacity="1"><path d="M741.3 -788L753.3 -788L753.3 -788C753.3 -788 753.3 -788 753.3 -788L781.3 -788" stroke-linecap="butt" stroke-width="3" stroke="#4b8f9c" fill="none"></path></g><g from="2c3bfae6-5b8d-4512-8081-fa96c11a9e75" to="0bf189c0-9188-488b-bc3f-0dd9eb093527" opacity="1"><path d="M616.8 -1148L628.8 -1148L628.8 -894C628.8 -894 628.8 -888 634.8 -888L656.8 -888" stroke-linecap="butt" stroke-width="3" stroke="#3d707a" fill="none"></path></g><g from="0bf189c0-9188-488b-bc3f-0dd9eb093527" to="975bdb19-9c92-4fd7-beed-91ac8ae65576" opacity="1"><path d="M786.3 -888L798.3 -888L798.3 -932C798.3 -932 798.3 -938 804.3 -938L826.3 -938" stroke-linecap="butt" stroke-width="3" stroke="#4b8f9c" fill="none"></path></g><g from="0bf189c0-9188-488b-bc3f-0dd9eb093527" to="e97046bf-2a9c-46de-a267-4b49b8e94ff2" opacity="1"><path d="M786.3 -888L798.3 -888L798.3 -888C798.3 -888 798.3 -888 798.3 -888L826.3 -888" stroke-linecap="butt" stroke-width="3" stroke="#4b8f9c" fill="none"></path></g><g from="0bf189c0-9188-488b-bc3f-0dd9eb093527" to="e5816533-7a9a-4439-b263-ec0672d12443" opacity="1"><path d="M786.3 -888L798.3 -888L798.3 -844C798.3 -844 798.3 -838 804.3 -838L826.3 -838" stroke-linecap="butt" stroke-width="3" stroke="#4b8f9c" fill="none"></path></g><g from="57dbbdf3-929b-41e5-9bd8-f40f21e6198d" to="cfb2003e-a19e-4356-8766-95e3a4772502" opacity="1"><path d="M801.3 -1173L813.3 -1173L813.3 -1044C813.3 -1044 813.3 -1038 819.3 -1038L841.3 -1038" stroke-linecap="butt" stroke-width="3" stroke="#3d707a" fill="none"></path></g><g from="cfb2003e-a19e-4356-8766-95e3a4772502" to="1a650b60-d4e4-4099-860d-67115b0339a7" opacity="1"><path d="M985.8 -1038L997.8 -1038L997.8 -1082C997.8 -1082 997.8 -1088 1003.8 -1088L1025.8 -1088" stroke-linecap="butt" stroke-width="3" stroke="#4b8f9c" fill="none"></path></g><g from="cfb2003e-a19e-4356-8766-95e3a4772502" to="834c178f-a793-4e0d-8045-3c018cdd022d" opacity="1"><path d="M985.8 -1038L997.8 -1038L997.8 -1038C997.8 -1038 997.8 -1038 997.8 -1038L1025.8 -1038" stroke-linecap="butt" stroke-width="3" stroke="#4b8f9c" fill="none"></path></g><g from="cfb2003e-a19e-4356-8766-95e3a4772502" to="75fc10f3-29c9-40b7-9bfe-1f90aca8ab76" opacity="1"><path d="M985.8 -1038L997.8 -1038L997.8 -994C997.8 -994 997.8 -988 1003.8 -988L1025.8 -988" stroke-linecap="butt" stroke-width="3" stroke="#4b8f9c" fill="none"></path></g><g from="2c3bfae6-5b8d-4512-8081-fa96c11a9e75" to="0a5163c5-ce96-46df-a195-44ad26293554" opacity="1"><path d="M616.8 -1148L628.8 -1148L628.8 -1502C628.8 -1502 628.8 -1508 634.8 -1508L656.8 -1508" stroke-linecap="butt" stroke-width="3" stroke="#3d707a" fill="none"></path></g><g from="2c3bfae6-5b8d-4512-8081-fa96c11a9e75" to="c3b9bf83-e63f-436d-bad8-f343a698a9df" opacity="1"><path d="M616.8 -1148L628.8 -1148L628.8 -1402C628.8 -1402 628.8 -1408 634.8 -1408L656.8 -1408" stroke-linecap="butt" stroke-width="3" stroke="#3d707a" fill="none"></path></g><g from="2c3bfae6-5b8d-4512-8081-fa96c11a9e75" to="57dbbdf3-929b-41e5-9bd8-f40f21e6198d" opacity="1"><path d="M616.8 -1148L628.8 -1148L628.8 -1167C628.8 -1167 628.8 -1173 634.8 -1173L656.8 -1173" stroke-linecap="butt" stroke-width="3" stroke="#3d707a" fill="none"></path></g><g from="57dbbdf3-929b-41e5-9bd8-f40f21e6198d" to="d80e3b59-324e-40f5-8178-e29ac15407bb" opacity="1"><path d="M801.3 -1173L813.3 -1173L813.3 -1302C813.3 -1302 813.3 -1308 819.3 -1308L841.3 -1308" stroke-linecap="butt" stroke-width="3" stroke="#3d707a" fill="none"></path></g><g from="57dbbdf3-929b-41e5-9bd8-f40f21e6198d" to="59296dd2-5f90-4a15-89d4-c3893d503704" opacity="1"><path d="M801.3 -1173L813.3 -1173L813.3 -1227C813.3 -1227 813.3 -1233 819.3 -1233L841.3 -1233" stroke-linecap="butt" stroke-width="3" stroke="#3d707a" fill="none"></path></g><g from="57dbbdf3-929b-41e5-9bd8-f40f21e6198d" to="b5ffce77-b521-49d3-bac8-e4c2abaecd82" opacity="1"><path d="M801.3 -1173L813.3 -1173L813.3 -1166.5C813.3 -1166.5 813.3 -1160.5 819.3 -1160.5L841.3 -1160.5" stroke-linecap="butt" stroke-width="3" stroke="#3d707a" fill="none"></path></g><g from="59296dd2-5f90-4a15-89d4-c3893d503704" to="70353d2b-4757-435d-9996-ee58eb06ae4a" opacity="1"><path d="M895.8 -1233L907.8 -1233L907.8 -1233C907.8 -1233 907.8 -1233 907.8 -1233L935.8 -1233" stroke-linecap="butt" stroke-width="3" stroke="#4b8f9c" fill="none"></path></g><g from="b5ffce77-b521-49d3-bac8-e4c2abaecd82" to="9bc0229b-a9f7-4638-a55f-f9e9a5d8744f" opacity="1"><path d="M895.8 -1160.5L907.8 -1160.5L907.8 -1160.5C907.8 -1160.5 907.8 -1160.5 907.8 -1160.5L935.8 -1160.5" stroke-linecap="butt" stroke-width="3" stroke="#4b8f9c" fill="none"></path></g><g from="d80e3b59-324e-40f5-8178-e29ac15407bb" to="5db38a0a-aa23-4c0f-829a-107c5f553954" opacity="1"><path d="M925.8 -1308L937.8 -1308L937.8 -1327C937.8 -1327 937.8 -1333 943.8 -1333L965.8 -1333" stroke-linecap="butt" stroke-width="3" stroke="#4b8f9c" fill="none"></path></g><g from="d80e3b59-324e-40f5-8178-e29ac15407bb" to="e2128224-f1b8-47c3-8b64-380d0ba63367" opacity="1"><path d="M925.8 -1308L937.8 -1308L937.8 -1289C937.8 -1289 937.8 -1283 943.8 -1283L965.8 -1283" stroke-linecap="butt" stroke-width="3" stroke="#4b8f9c" fill="none"></path></g><g from="0a5163c5-ce96-46df-a195-44ad26293554" to="2145d000-d92b-4403-a3a2-03c3a24e786f" opacity="1"><path d="M801.3 -1508L813.3 -1508L813.3 -1527C813.3 -1527 813.3 -1533 819.3 -1533L841.3 -1533" stroke-linecap="butt" stroke-width="3" stroke="#4b8f9c" fill="none"></path></g><g from="0a5163c5-ce96-46df-a195-44ad26293554" to="a29b86d5-5ae1-4377-be0c-50b795317b21" opacity="1"><path d="M801.3 -1508L813.3 -1508L813.3 -1489C813.3 -1489 813.3 -1483 819.3 -1483L841.3 -1483" stroke-linecap="butt" stroke-width="3" stroke="#4b8f9c" fill="none"></path></g><g from="c3b9bf83-e63f-436d-bad8-f343a698a9df" to="9e4eaf6c-9359-4727-95ca-e0c1a45ca642" opacity="1"><path d="M756.3 -1408L768.3 -1408L768.3 -1427C768.3 -1427 768.3 -1433 774.3 -1433L796.3 -1433" stroke-linecap="butt" stroke-width="3" stroke="#4b8f9c" fill="none"></path></g><g from="c3b9bf83-e63f-436d-bad8-f343a698a9df" to="b384798e-7d86-4d60-8baa-8512c799705a" opacity="1"><path d="M756.3 -1408L768.3 -1408L768.3 -1389C768.3 -1389 768.3 -1383 774.3 -1383L796.3 -1383" stroke-linecap="butt" stroke-width="3" stroke="#4b8f9c" fill="none"></path></g></g><g class="po-mind-generalize-container"></g><g class="po-mind-associative-line-container"></g><g class="po-mind-node-container"><g class="po-mind-topic" id="topic-2c3bfae6-5b8d-4512-8081-fa96c11a9e75" transform="matrix(1,0,0,1,496.3,-1170.5)" opacity="1"><path d="M0,0 L112.5,0 C112.5,0 112.5,0 112.5,0                           L112.5,37 C112.5,37 112.5,37 112.5,37                           L0,37 C0,37 0,37 0,37 L0,0                           C0,0 0,0 0,0 Z" class="po-mind-topic-shape-fill" transform="matrix(1,0,0,1,1.5,1.5)" fill="#ffffff"></path><path d="M0,0 L111,0 L111,35.5 L0,35.5 L0,0 Z M7,35.5 L7,42.5 L118,42.5 L118,7 L111,7" class="po-mind-topic-shape" transform="matrix(1,0,0,1,1.5,1.5)" fill="none" stroke-width="3" stroke="#3d707a"></path><g transform="matrix(1,0,0,1,7.5,8.5)"><g data-width="98.5" data-height="21" data-offsetx="0" transform="matrix(1,0,0,1,0,0)"><g><text text-anchor="start" align="top" anchor="start" font-size="15px" font-weight="bold" fill="rgb(75, 143, 156)" style="font-family: 思源宋体;font-size: 15px;font-weight: bold;line-height: 140%;max-width: 900px;overflow-wrap: break-word;word-break: break-word;text-size-adjust: 100%;color: rgb(75, 143, 156);"><tspan x="0" y="15"><tspan dx="0">字符串（str）</tspan></tspan></text></g></g></g><g><rect width="4" height="45" x="-3" y="0" resize="1" fill="none" style="cursor: ew-resize;"></rect><rect width="4" height="45" x="121.5" y="0" resize="2" fill="none" style="cursor: ew-resize;"></rect></g></g><g class="po-mind-topic" id="topic-0a5163c5-ce96-46df-a195-44ad26293554" transform="matrix(1,0,0,1,656.8,-1530.5)" opacity="1"><path d="M0,0 L136.5,0 C136.5,0 136.5,0 136.5,0                           L136.5,37 C136.5,37 136.5,37 136.5,37                           L0,37 C0,37 0,37 0,37 L0,0                           C0,0 0,0 0,0 Z" class="po-mind-topic-shape-fill" transform="matrix(1,0,0,1,1.5,1.5)" fill="#ffffff"></path><path d="M0,0 L135,0 L135,35.5 L0,35.5 L0,0 Z M7,35.5 L7,42.5 L142,42.5 L142,7 L135,7" class="po-mind-topic-shape" transform="matrix(1,0,0,1,1.5,1.5)" fill="none" stroke-width="3" stroke="#3d707a"></path><g transform="matrix(1,0,0,1,7.5,8.5)"><g data-width="122.5" data-height="21" data-offsetx="0" transform="matrix(1,0,0,1,0,0)"><g><text text-anchor="start" align="top" anchor="start" font-size="15px" font-weight="bold" fill="rgb(75, 143, 156)" style="font-family: 思源宋体;font-size: 15px;font-weight: bold;line-height: 140%;max-width: 900px;overflow-wrap: break-word;word-break: break-word;text-size-adjust: 100%;color: rgb(75, 143, 156);"><tspan x="0" y="15"><tspan dx="0">创建字符串的方法</tspan></tspan></text></g></g></g></g><g class="po-mind-topic" id="topic-2145d000-d92b-4403-a3a2-03c3a24e786f" transform="matrix(1,0,0,1,841.3,-1577)" opacity="1"><path d="M0,0 L99.4,0 C99.4,0 99.4,0 99.4,0                           L99.4,44 C99.4,44 99.4,44 99.4,44                           L0,44 C0,44 0,44 0,44 L0,0                           C0,0 0,0 0,0 Z" class="po-mind-topic-shape-fill" fill="none"></path><path d="M0,44  L99.4 44 M0,37 L99.4 37" class="po-mind-topic-shape" fill="none" stroke-width="3" stroke="#4b8f9c"></path><g transform="matrix(1,0,0,1,6.5,12)"><g data-width="86.4" data-height="20" data-offsetx="0" transform="matrix(1,0,0,1,0,0)"><g><text text-anchor="start" align="top" anchor="start" font-size="14px" font-weight="" fill="rgb(75, 143, 156)" style="font-family: 思源宋体;font-size: 14px;line-height: 140%;max-width: 896px;overflow-wrap: break-word;word-break: break-word;text-size-adjust: 100%;color: rgb(75, 143, 156);"><tspan x="0" y="13.999999999999996"><tspan dx="0">字符串字面量</tspan></tspan></text></g></g></g></g><g class="po-mind-topic" id="topic-a29b86d5-5ae1-4377-be0c-50b795317b21" transform="matrix(1,0,0,1,841.3,-1527)" opacity="1"><path d="M0,0 L158.4,0 C158.4,0 158.4,0 158.4,0                           L158.4,44 C158.4,44 158.4,44 158.4,44                           L0,44 C0,44 0,44 0,44 L0,0                           C0,0 0,0 0,0 Z" class="po-mind-topic-shape-fill" fill="none"></path><path d="M0,44  L158.4 44 M0,37 L158.4 37" class="po-mind-topic-shape" fill="none" stroke-width="3" stroke="#4b8f9c"></path><g transform="matrix(1,0,0,1,6.5,12)"><g data-width="145.4" data-height="20" data-offsetx="0" transform="matrix(1,0,0,1,0,0)"><g><text text-anchor="start" align="top" anchor="start" font-size="14px" font-weight="" fill="rgb(75, 143, 156)" style="font-family: 思源宋体;font-size: 14px;line-height: 140%;max-width: 896px;overflow-wrap: break-word;word-break: break-word;text-size-adjust: 100%;color: rgb(75, 143, 156);"><tspan x="0" y="13.999999999999996"><tspan dx="0">内置函数str()、repr()</tspan></tspan></text></g></g></g></g><g class="po-mind-topic" id="topic-c3b9bf83-e63f-436d-bad8-f343a698a9df" transform="matrix(1,0,0,1,656.8,-1430.5)" opacity="1"><path d="M0,0 L91.5,0 C91.5,0 91.5,0 91.5,0                           L91.5,37 C91.5,37 91.5,37 91.5,37                           L0,37 C0,37 0,37 0,37 L0,0                           C0,0 0,0 0,0 Z" class="po-mind-topic-shape-fill" transform="matrix(1,0,0,1,1.5,1.5)" fill="#ffffff"></path><path d="M0,0 L90,0 L90,35.5 L0,35.5 L0,0 Z M7,35.5 L7,42.5 L97,42.5 L97,7 L90,7" class="po-mind-topic-shape" transform="matrix(1,0,0,1,1.5,1.5)" fill="none" stroke-width="3" stroke="#3d707a"></path><g transform="matrix(1,0,0,1,7.5,8.5)"><g data-width="77.5" data-height="21" data-offsetx="0" transform="matrix(1,0,0,1,0,0)"><g><text text-anchor="start" align="top" anchor="start" font-size="15px" font-weight="bold" fill="rgb(75, 143, 156)" style="font-family: 思源宋体;font-size: 15px;font-weight: bold;line-height: 140%;max-width: 900px;overflow-wrap: break-word;word-break: break-word;text-size-adjust: 100%;color: rgb(75, 143, 156);"><tspan x="0" y="15"><tspan dx="0">字符串编码</tspan></tspan></text></g></g></g></g><g class="po-mind-topic" id="topic-9e4eaf6c-9359-4727-95ca-e0c1a45ca642" transform="matrix(1,0,0,1,796.3,-1477)" opacity="1"><path d="M0,0 L51.4,0 C51.4,0 51.4,0 51.4,0                           L51.4,44 C51.4,44 51.4,44 51.4,44                           L0,44 C0,44 0,44 0,44 L0,0                           C0,0 0,0 0,0 Z" class="po-mind-topic-shape-fill" fill="none"></path><path d="M0,44  L51.4 44 M0,37 L51.4 37" class="po-mind-topic-shape" fill="none" stroke-width="3" stroke="#4b8f9c"></path><g transform="matrix(1,0,0,1,6.5,12)"><g data-width="38.4" data-height="20" data-offsetx="0" transform="matrix(1,0,0,1,0,0)"><g><text text-anchor="start" align="top" anchor="start" font-size="14px" font-weight="" fill="rgb(75, 143, 156)" style="font-family: 思源宋体;font-size: 14px;line-height: 140%;max-width: 896px;overflow-wrap: break-word;word-break: break-word;text-size-adjust: 100%;color: rgb(75, 143, 156);"><tspan x="0" y="13.999999999999996"><tspan dx="0">chr()</tspan></tspan></text></g></g></g></g><g class="po-mind-topic" id="topic-b384798e-7d86-4d60-8baa-8512c799705a" transform="matrix(1,0,0,1,796.3,-1427)" opacity="1"><path d="M0,0 L51.4,0 C51.4,0 51.4,0 51.4,0                           L51.4,44 C51.4,44 51.4,44 51.4,44                           L0,44 C0,44 0,44 0,44 L0,0                           C0,0 0,0 0,0 Z" class="po-mind-topic-shape-fill" fill="none"></path><path d="M0,44  L51.4 44 M0,37 L51.4 37" class="po-mind-topic-shape" fill="none" stroke-width="3" stroke="#4b8f9c"></path><g transform="matrix(1,0,0,1,6.5,12)"><g data-width="38.4" data-height="20" data-offsetx="0" transform="matrix(1,0,0,1,0,0)"><g><text text-anchor="start" align="top" anchor="start" font-size="14px" font-weight="" fill="rgb(75, 143, 156)" style="font-family: 思源宋体;font-size: 14px;line-height: 140%;max-width: 896px;overflow-wrap: break-word;word-break: break-word;text-size-adjust: 100%;color: rgb(75, 143, 156);"><tspan x="0" y="13.999999999999996"><tspan dx="0">ord()</tspan></tspan></text></g></g></g></g><g class="po-mind-topic" id="topic-57dbbdf3-929b-41e5-9bd8-f40f21e6198d" transform="matrix(1,0,0,1,656.8,-1195.5)" opacity="1"><path d="M0,0 L136.5,0 C136.5,0 136.5,0 136.5,0                           L136.5,37 C136.5,37 136.5,37 136.5,37                           L0,37 C0,37 0,37 0,37 L0,0                           C0,0 0,0 0,0 Z" class="po-mind-topic-shape-fill" transform="matrix(1,0,0,1,1.5,1.5)" fill="#ffffff"></path><path d="M0,0 L135,0 L135,35.5 L0,35.5 L0,0 Z M7,35.5 L7,42.5 L142,42.5 L142,7 L135,7" class="po-mind-topic-shape" transform="matrix(1,0,0,1,1.5,1.5)" fill="none" stroke-width="3" stroke="#3d707a"></path><g transform="matrix(1,0,0,1,7.5,8.5)"><g data-width="122.5" data-height="21" data-offsetx="0" transform="matrix(1,0,0,1,0,0)"><g><text text-anchor="start" align="top" anchor="start" font-size="15px" font-weight="bold" fill="rgb(75, 143, 156)" style="font-family: 思源宋体;font-size: 15px;font-weight: bold;line-height: 140%;max-width: 900px;overflow-wrap: break-word;word-break: break-word;text-size-adjust: 100%;color: rgb(75, 143, 156);"><tspan x="0" y="15"><tspan dx="0">字符串对象的方法</tspan></tspan></text></g></g></g></g><g class="po-mind-topic" id="topic-d80e3b59-324e-40f5-8178-e29ac15407bb" transform="matrix(1,0,0,1,841.3,-1330.5)" opacity="1"><path d="M0,0 L76.5,0 C76.5,0 76.5,0 76.5,0                           L76.5,37 C76.5,37 76.5,37 76.5,37                           L0,37 C0,37 0,37 0,37 L0,0                           C0,0 0,0 0,0 Z" class="po-mind-topic-shape-fill" transform="matrix(1,0,0,1,1.5,1.5)" fill="#ffffff"></path><path d="M0,0 L75,0 L75,35.5 L0,35.5 L0,0 Z M7,35.5 L7,42.5 L82,42.5 L82,7 L75,7" class="po-mind-topic-shape" transform="matrix(1,0,0,1,1.5,1.5)" fill="none" stroke-width="3" stroke="#3d707a"></path><g transform="matrix(1,0,0,1,7.5,8.5)"><g data-width="62.5" data-height="21" data-offsetx="0" transform="matrix(1,0,0,1,0,0)"><g><text text-anchor="start" align="top" anchor="start" font-size="15px" font-weight="bold" fill="rgb(75, 143, 156)" style="font-family: 思源宋体;font-size: 15px;font-weight: bold;line-height: 140%;max-width: 900px;overflow-wrap: break-word;word-break: break-word;text-size-adjust: 100%;color: rgb(75, 143, 156);"><tspan x="0" y="15"><tspan dx="0">判断方法</tspan></tspan></text></g></g></g></g><g class="po-mind-topic" id="topic-5db38a0a-aa23-4c0f-829a-107c5f553954" transform="matrix(1,0,0,1,965.8,-1377)" opacity="1"><path d="M0,0 L232.4,0 C232.4,0 232.4,0 232.4,0                           L232.4,44 C232.4,44 232.4,44 232.4,44                           L0,44 C0,44 0,44 0,44 L0,0                           C0,0 0,0 0,0 Z" class="po-mind-topic-shape-fill" fill="none"></path><path d="M0,44  L232.4 44 M0,37 L232.4 37" class="po-mind-topic-shape" fill="none" stroke-width="3" stroke="#4b8f9c"></path><g transform="matrix(1,0,0,1,6.5,12)"><g data-width="219.4" data-height="20" data-offsetx="0" transform="matrix(1,0,0,1,0,0)"><g><text text-anchor="start" align="top" anchor="start" font-size="14px" font-weight="" fill="rgb(75, 143, 156)" style="font-family: 思源宋体;font-size: 14px;line-height: 140%;max-width: 896px;overflow-wrap: break-word;word-break: break-word;text-size-adjust: 100%;color: rgb(75, 143, 156);"><tspan x="0" y="13.999999999999996"><tspan dx="0">s.isdigit  s.isalpha()  s.alnum() </tspan></tspan></text></g></g></g></g><g class="po-mind-topic" id="topic-e2128224-f1b8-47c3-8b64-380d0ba63367" transform="matrix(1,0,0,1,965.8,-1327)" opacity="1"><path d="M0,0 L245.4,0 C245.4,0 245.4,0 245.4,0                           L245.4,44 C245.4,44 245.4,44 245.4,44                           L0,44 C0,44 0,44 0,44 L0,0                           C0,0 0,0 0,0 Z" class="po-mind-topic-shape-fill" fill="none"></path><path d="M0,44  L245.4 44 M0,37 L245.4 37" class="po-mind-topic-shape" fill="none" stroke-width="3" stroke="#4b8f9c"></path><g transform="matrix(1,0,0,1,6.5,12)"><g data-width="232.4" data-height="20" data-offsetx="0" transform="matrix(1,0,0,1,0,0)"><g><text text-anchor="start" align="top" anchor="start" font-size="14px" font-weight="" fill="rgb(75, 143, 156)" style="font-family: 思源宋体;font-size: 14px;line-height: 140%;max-width: 896px;overflow-wrap: break-word;word-break: break-word;text-size-adjust: 100%;color: rgb(75, 143, 156);"><tspan x="0" y="13.999999999999996"><tspan dx="0">s.islower()  s.isupper()  s.istitle()</tspan></tspan></text></g></g></g></g><g class="po-mind-topic" id="topic-59296dd2-5f90-4a15-89d4-c3893d503704" transform="matrix(1,0,0,1,841.3,-1255.5)" opacity="1"><path d="M0,0 L46.5,0 C46.5,0 46.5,0 46.5,0                           L46.5,37 C46.5,37 46.5,37 46.5,37                           L0,37 C0,37 0,37 0,37 L0,0                           C0,0 0,0 0,0 Z" class="po-mind-topic-shape-fill" transform="matrix(1,0,0,1,1.5,1.5)" fill="#ffffff"></path><path d="M0,0 L45,0 L45,35.5 L0,35.5 L0,0 Z M7,35.5 L7,42.5 L52,42.5 L52,7 L45,7" class="po-mind-topic-shape" transform="matrix(1,0,0,1,1.5,1.5)" fill="none" stroke-width="3" stroke="#3d707a"></path><g transform="matrix(1,0,0,1,7.5,8.5)"><g data-width="32.5" data-height="21" data-offsetx="0" transform="matrix(1,0,0,1,0,0)"><g><text text-anchor="start" align="top" anchor="start" font-size="15px" font-weight="bold" fill="rgb(75, 143, 156)" style="font-family: 思源宋体;font-size: 15px;font-weight: bold;line-height: 140%;max-width: 900px;overflow-wrap: break-word;word-break: break-word;text-size-adjust: 100%;color: rgb(75, 143, 156);"><tspan x="0" y="15"><tspan dx="0">转换</tspan></tspan></text></g></g></g></g><g class="po-mind-topic" id="topic-70353d2b-4757-435d-9996-ee58eb06ae4a" transform="matrix(1,0,0,1,935.8,-1277)" opacity="1"><path d="M0,0 L403.4,0 C403.4,0 403.4,0 403.4,0                           L403.4,44 C403.4,44 403.4,44 403.4,44                           L0,44 C0,44 0,44 0,44 L0,0                           C0,0 0,0 0,0 Z" class="po-mind-topic-shape-fill" fill="none"></path><path d="M0,44  L403.4 44 M0,37 L403.4 37" class="po-mind-topic-shape" fill="none" stroke-width="3" stroke="#4b8f9c"></path><g transform="matrix(1,0,0,1,6.5,12)"><g data-width="390.4" data-height="20" data-offsetx="0" transform="matrix(1,0,0,1,0,0)"><g><text text-anchor="start" align="top" anchor="start" font-size="14px" font-weight="" fill="rgb(75, 143, 156)" style="font-family: 思源宋体;font-size: 14px;line-height: 140%;max-width: 896px;overflow-wrap: break-word;word-break: break-word;text-size-adjust: 100%;color: rgb(75, 143, 156);"><tspan x="0" y="13.999999999999996"><tspan dx="0">s.lower()  s.upper()  s.title()  s.swapcase()  s.capitalize()</tspan></tspan></text></g></g></g></g><g class="po-mind-topic" id="topic-b5ffce77-b521-49d3-bac8-e4c2abaecd82" transform="matrix(1,0,0,1,841.3,-1183)" opacity="1"><path d="M0,0 L46.5,0 C46.5,0 46.5,0 46.5,0                           L46.5,37 C46.5,37 46.5,37 46.5,37                           L0,37 C0,37 0,37 0,37 L0,0                           C0,0 0,0 0,0 Z" class="po-mind-topic-shape-fill" transform="matrix(1,0,0,1,1.5,1.5)" fill="#ffffff"></path><path d="M0,0 L45,0 L45,35.5 L0,35.5 L0,0 Z M7,35.5 L7,42.5 L52,42.5 L52,7 L45,7" class="po-mind-topic-shape" transform="matrix(1,0,0,1,1.5,1.5)" fill="none" stroke-width="3" stroke="#3d707a"></path><g transform="matrix(1,0,0,1,7.5,8.5)"><g data-width="32.5" data-height="21" data-offsetx="0" transform="matrix(1,0,0,1,0,0)"><g><text text-anchor="start" align="top" anchor="start" font-size="15px" font-weight="bold" fill="rgb(75, 143, 156)" style="font-family: 思源宋体;font-size: 15px;font-weight: bold;line-height: 140%;max-width: 900px;overflow-wrap: break-word;word-break: break-word;text-size-adjust: 100%;color: rgb(75, 143, 156);"><tspan x="0" y="15"><tspan dx="0">填充</tspan></tspan></text></g></g></g></g><g class="po-mind-topic" id="topic-9bc0229b-a9f7-4638-a55f-f9e9a5d8744f" transform="matrix(1,0,0,1,935.8,-1204.5)" opacity="1"><path d="M0,0 L167.4,0 C167.4,0 167.4,0 167.4,0                           L167.4,44 C167.4,44 167.4,44 167.4,44                           L0,44 C0,44 0,44 0,44 L0,0                           C0,0 0,0 0,0 Z" class="po-mind-topic-shape-fill" fill="none"></path><path d="M0,44  L167.4 44 M0,37 L167.4 37" class="po-mind-topic-shape" fill="none" stroke-width="3" stroke="#4b8f9c"></path><g transform="matrix(1,0,0,1,6.5,12)"><g data-width="154.4" data-height="20" data-offsetx="0" transform="matrix(1,0,0,1,0,0)"><g><text text-anchor="start" align="top" anchor="start" font-size="14px" font-weight="" fill="rgb(75, 143, 156)" style="font-family: 思源宋体;font-size: 14px;line-height: 140%;max-width: 896px;overflow-wrap: break-word;word-break: break-word;text-size-adjust: 100%;color: rgb(75, 143, 156);"><tspan x="0" y="13.999999999999996"><tspan dx="0">strip  zfill  center just</tspan></tspan></text></g></g></g></g><g class="po-mind-topic" id="topic-cfb2003e-a19e-4356-8766-95e3a4772502" transform="matrix(1,0,0,1,841.3,-1060.5)" opacity="1"><path d="M0,0 L136.5,0 C136.5,0 136.5,0 136.5,0                           L136.5,37 C136.5,37 136.5,37 136.5,37                           L0,37 C0,37 0,37 0,37 L0,0                           C0,0 0,0 0,0 Z" class="po-mind-topic-shape-fill" transform="matrix(1,0,0,1,1.5,1.5)" fill="#ffffff"></path><path d="M0,0 L135,0 L135,35.5 L0,35.5 L0,0 Z M7,35.5 L7,42.5 L142,42.5 L142,7 L135,7" class="po-mind-topic-shape" transform="matrix(1,0,0,1,1.5,1.5)" fill="none" stroke-width="3" stroke="#3d707a"></path><g transform="matrix(1,0,0,1,7.5,8.5)"><g data-width="122.5" data-height="21" data-offsetx="0" transform="matrix(1,0,0,1,0,0)"><g><text text-anchor="start" align="top" anchor="start" font-size="15px" font-weight="bold" fill="rgb(75, 143, 156)" style="font-family: 思源宋体;font-size: 15px;font-weight: bold;line-height: 140%;max-width: 900px;overflow-wrap: break-word;word-break: break-word;text-size-adjust: 100%;color: rgb(75, 143, 156);"><tspan x="0" y="15"><tspan dx="0">测试、查找和替换</tspan></tspan></text></g></g></g></g><g class="po-mind-topic" id="topic-1a650b60-d4e4-4099-860d-67115b0339a7" transform="matrix(1,0,0,1,1025.8,-1132)" opacity="1"><path d="M0,0 L146.4,0 C146.4,0 146.4,0 146.4,0                           L146.4,44 C146.4,44 146.4,44 146.4,44                           L0,44 C0,44 0,44 0,44 L0,0                           C0,0 0,0 0,0 Z" class="po-mind-topic-shape-fill" fill="none"></path><path d="M0,44  L146.4 44 M0,37 L146.4 37" class="po-mind-topic-shape" fill="none" stroke-width="3" stroke="#4b8f9c"></path><g transform="matrix(1,0,0,1,6.5,12)"><g data-width="133.4" data-height="20" data-offsetx="0" transform="matrix(1,0,0,1,0,0)"><g><text text-anchor="start" align="top" anchor="start" font-size="14px" font-weight="" fill="rgb(75, 143, 156)" style="font-family: 思源宋体;font-size: 14px;line-height: 140%;max-width: 896px;overflow-wrap: break-word;word-break: break-word;text-size-adjust: 100%;color: rgb(75, 143, 156);"><tspan x="0" y="13.999999999999996"><tspan dx="0">endwith  startwith</tspan></tspan></text></g></g></g></g><g class="po-mind-topic" id="topic-834c178f-a793-4e0d-8045-3c018cdd022d" transform="matrix(1,0,0,1,1025.8,-1082)" opacity="1"><path d="M0,0 L147.4,0 C147.4,0 147.4,0 147.4,0                           L147.4,44 C147.4,44 147.4,44 147.4,44                           L0,44 C0,44 0,44 0,44 L0,0                           C0,0 0,0 0,0 Z" class="po-mind-topic-shape-fill" fill="none"></path><path d="M0,44  L147.4 44 M0,37 L147.4 37" class="po-mind-topic-shape" fill="none" stroke-width="3" stroke="#4b8f9c"></path><g transform="matrix(1,0,0,1,6.5,12)"><g data-width="134.4" data-height="20" data-offsetx="0" transform="matrix(1,0,0,1,0,0)"><g><text text-anchor="start" align="top" anchor="start" font-size="14px" font-weight="" fill="rgb(75, 143, 156)" style="font-family: 思源宋体;font-size: 14px;line-height: 140%;max-width: 896px;overflow-wrap: break-word;word-break: break-word;text-size-adjust: 100%;color: rgb(75, 143, 156);"><tspan x="0" y="13.999999999999996"><tspan dx="0">count  find  index  </tspan></tspan></text></g></g></g></g><g class="po-mind-topic" id="topic-75fc10f3-29c9-40b7-9bfe-1f90aca8ab76" transform="matrix(1,0,0,1,1025.8,-1032)" opacity="1"><path d="M0,0 L68.4,0 C68.4,0 68.4,0 68.4,0                           L68.4,44 C68.4,44 68.4,44 68.4,44                           L0,44 C0,44 0,44 0,44 L0,0                           C0,0 0,0 0,0 Z" class="po-mind-topic-shape-fill" fill="none"></path><path d="M0,44  L68.4 44 M0,37 L68.4 37" class="po-mind-topic-shape" fill="none" stroke-width="3" stroke="#4b8f9c"></path><g transform="matrix(1,0,0,1,6.5,12)"><g data-width="55.4" data-height="20" data-offsetx="0" transform="matrix(1,0,0,1,0,0)"><g><text text-anchor="start" align="top" anchor="start" font-size="14px" font-weight="" fill="rgb(75, 143, 156)" style="font-family: 思源宋体;font-size: 14px;line-height: 140%;max-width: 896px;overflow-wrap: break-word;word-break: break-word;text-size-adjust: 100%;color: rgb(75, 143, 156);"><tspan x="0" y="13.999999999999996"><tspan dx="0">replace</tspan></tspan></text></g></g></g></g><g class="po-mind-topic" id="topic-0bf189c0-9188-488b-bc3f-0dd9eb093527" transform="matrix(1,0,0,1,656.8,-910.5)" opacity="1"><path d="M0,0 L121.5,0 C121.5,0 121.5,0 121.5,0                           L121.5,37 C121.5,37 121.5,37 121.5,37                           L0,37 C0,37 0,37 0,37 L0,0                           C0,0 0,0 0,0 Z" class="po-mind-topic-shape-fill" transform="matrix(1,0,0,1,1.5,1.5)" fill="#ffffff"></path><path d="M0,0 L120,0 L120,35.5 L0,35.5 L0,0 Z M7,35.5 L7,42.5 L127,42.5 L127,7 L120,7" class="po-mind-topic-shape" transform="matrix(1,0,0,1,1.5,1.5)" fill="none" stroke-width="3" stroke="#3d707a"></path><g transform="matrix(1,0,0,1,7.5,8.5)"><g data-width="107.5" data-height="21" data-offsetx="0" transform="matrix(1,0,0,1,0,0)"><g><text text-anchor="start" align="top" anchor="start" font-size="15px" font-weight="bold" fill="rgb(75, 143, 156)" style="font-family: 思源宋体;font-size: 15px;font-weight: bold;line-height: 140%;max-width: 900px;overflow-wrap: break-word;word-break: break-word;text-size-adjust: 100%;color: rgb(75, 143, 156);"><tspan x="0" y="15"><tspan dx="0">字符串的格式化</tspan></tspan></text></g></g></g></g><g class="po-mind-topic" id="topic-975bdb19-9c92-4fd7-beed-91ac8ae65576" transform="matrix(1,0,0,1,826.3,-982)" opacity="1"><path d="M0,0 L33,0 C33,0 33,0 33,0                           L33,44 C33,44 33,44 33,44                           L0,44 C0,44 0,44 0,44 L0,0                           C0,0 0,0 0,0 Z" class="po-mind-topic-shape-fill" fill="none"></path><path d="M0,44  L33 44 M0,37 L33 37" class="po-mind-topic-shape" fill="none" stroke-width="3" stroke="#4b8f9c"></path><g transform="matrix(1,0,0,1,6.5,12)"><g data-width="20" data-height="20" data-offsetx="0" transform="matrix(1,0,0,1,0,0)"><g><text text-anchor="start" align="top" anchor="start" font-size="14px" font-weight="" fill="rgb(75, 143, 156)" style="font-family: 思源宋体;font-size: 14px;line-height: 140%;max-width: 896px;overflow-wrap: break-word;word-break: break-word;text-size-adjust: 100%;color: rgb(75, 143, 156);"><tspan x="0" y="13.999999999999996"><tspan dx="0">%</tspan></tspan></text></g></g></g></g><g class="po-mind-topic" id="topic-e97046bf-2a9c-46de-a267-4b49b8e94ff2" transform="matrix(1,0,0,1,826.3,-932)" opacity="1"><path d="M0,0 L64.4,0 C64.4,0 64.4,0 64.4,0                           L64.4,44 C64.4,44 64.4,44 64.4,44                           L0,44 C0,44 0,44 0,44 L0,0                           C0,0 0,0 0,0 Z" class="po-mind-topic-shape-fill" fill="none"></path><path d="M0,44  L64.4 44 M0,37 L64.4 37" class="po-mind-topic-shape" fill="none" stroke-width="3" stroke="#4b8f9c"></path><g transform="matrix(1,0,0,1,6.5,12)"><g data-width="51.4" data-height="20" data-offsetx="0" transform="matrix(1,0,0,1,0,0)"><g><text text-anchor="start" align="top" anchor="start" font-size="14px" font-weight="" fill="rgb(75, 143, 156)" style="font-family: 思源宋体;font-size: 14px;line-height: 140%;max-width: 896px;overflow-wrap: break-word;word-break: break-word;text-size-adjust: 100%;color: rgb(75, 143, 156);"><tspan x="0" y="13.999999999999996"><tspan dx="0">format</tspan></tspan></text></g></g></g></g><g class="po-mind-topic" id="topic-e5816533-7a9a-4439-b263-ec0672d12443" transform="matrix(1,0,0,1,826.3,-882)" opacity="1"><path d="M0,0 L68.4,0 C68.4,0 68.4,0 68.4,0                           L68.4,44 C68.4,44 68.4,44 68.4,44                           L0,44 C0,44 0,44 0,44 L0,0                           C0,0 0,0 0,0 Z" class="po-mind-topic-shape-fill" fill="none"></path><path d="M0,44  L68.4 44 M0,37 L68.4 37" class="po-mind-topic-shape" fill="none" stroke-width="3" stroke="#4b8f9c"></path><g transform="matrix(1,0,0,1,6.5,12)"><g data-width="55.4" data-height="20" data-offsetx="0" transform="matrix(1,0,0,1,0,0)"><g><text text-anchor="start" align="top" anchor="start" font-size="14px" font-weight="" fill="rgb(75, 143, 156)" style="font-family: 思源宋体;font-size: 14px;line-height: 140%;max-width: 896px;overflow-wrap: break-word;word-break: break-word;text-size-adjust: 100%;color: rgb(75, 143, 156);"><tspan x="0" y="13.999999999999996"><tspan dx="0">f-string</tspan></tspan></text></g></g></g></g><g class="po-mind-topic" id="topic-51735c5a-5b1d-423f-a587-e939df107a6d" transform="matrix(1,0,0,1,656.8,-810.5)" opacity="1"><path d="M0,0 L76.5,0 C76.5,0 76.5,0 76.5,0                           L76.5,37 C76.5,37 76.5,37 76.5,37                           L0,37 C0,37 0,37 0,37 L0,0                           C0,0 0,0 0,0 Z" class="po-mind-topic-shape-fill" transform="matrix(1,0,0,1,1.5,1.5)" fill="#ffffff"></path><path d="M0,0 L75,0 L75,35.5 L0,35.5 L0,0 Z M7,35.5 L7,42.5 L82,42.5 L82,7 L75,7" class="po-mind-topic-shape" transform="matrix(1,0,0,1,1.5,1.5)" fill="none" stroke-width="3" stroke="#3d707a"></path><g transform="matrix(1,0,0,1,7.5,8.5)"><g data-width="62.5" data-height="21" data-offsetx="0" transform="matrix(1,0,0,1,0,0)"><g><text text-anchor="start" align="top" anchor="start" font-size="15px" font-weight="bold" fill="rgb(75, 143, 156)" style="font-family: 思源宋体;font-size: 15px;font-weight: bold;line-height: 140%;max-width: 900px;overflow-wrap: break-word;word-break: break-word;text-size-adjust: 100%;color: rgb(75, 143, 156);"><tspan x="0" y="15"><tspan dx="0">转义字符</tspan></tspan></text></g></g></g></g><g class="po-mind-topic" id="topic-a39e58f6-27ef-48b2-af01-c5858b6321a6" transform="matrix(1,0,0,1,781.3,-832)" opacity="1"><path d="M0,0 L55.4,0 C55.4,0 55.4,0 55.4,0                           L55.4,44 C55.4,44 55.4,44 55.4,44                           L0,44 C0,44 0,44 0,44 L0,0                           C0,0 0,0 0,0 Z" class="po-mind-topic-shape-fill" fill="none"></path><path d="M0,44  L55.4 44 M0,37 L55.4 37" class="po-mind-topic-shape" fill="none" stroke-width="3" stroke="#4b8f9c"></path><g transform="matrix(1,0,0,1,6.5,12)"><g data-width="42.4" data-height="20" data-offsetx="0" transform="matrix(1,0,0,1,0,0)"><g><text text-anchor="start" align="top" anchor="start" font-size="14px" font-weight="" fill="rgb(75, 143, 156)" style="font-family: 思源宋体;font-size: 14px;line-height: 140%;max-width: 896px;overflow-wrap: break-word;word-break: break-word;text-size-adjust: 100%;color: rgb(75, 143, 156);"><tspan x="0" y="13.999999999999996"><tspan dx="0">\t   \n </tspan></tspan></text></g></g></g></g></g><g class="po-mind-associative-line-label-container"></g></g><g id="wpsexport-watermark"><defs><pattern patternUnits="userSpaceOnUse" id="wpspattern_mark_0" width="300" height="300"><text x="150" y="100" fill="#0000004d" font-size="18" transform="rotate(-45, 150, 150)" style="dominant-baseline: middle; text-anchor: middle;"></text></pattern></defs><rect fill="url(#wpspattern_mark_0)" x="0" y="0" width="895.898" height="860.5" id="rect_mark_0" pointer-events="none"></rect></g><style>
    .connection-svg{
        outline: none;
        box-shadow: none;
        -webkit-tap-highlight-color: transparent;
    }
    .connection-line {
        cursor: pointer;
    }

    .connection-line-bg {
        cursor: pointer;
    }

    .node-add-btn {
        cursor: pointer;
    }

    .po-richtext-node-wrap ol,
    .area_box ol,
    .po-measureCustomNode ol {
        padding-left: 20px;
        margin: 0;
    }
    .po-richtext-node-wrap ol li,
    .area_box ol li,
    .po-measureCustomNode ol li {
        list-style: decimal;
    }
    .po-richtext-node-wrap ul,
    .area_box ul,
    .po-measureCustomNode ul {
        padding-left: calc(15px + 0.5em);
        list-style: none;
        margin: 0;
    }
    .po-richtext-node-wrap ul li,
    .area_box ul li,
    .po-measureCustomNode ul li {
        list-style: disc;
    }
    .po-richtext-node-wrap p,
    .po-richtext-node-wrap h1,
    .po-richtext-node-wrap h2,
    .po-richtext-node-wrap h3,
    .po-richtext-node-wrap h4,
    .po-richtext-node-wrap h5,
    .po-richtext-node-wrap h6,
    .area_box p,
    .area_box h1,
    .area_box h2,
    .area_box h3,
    .area_box h4,
    .area_box h5,
    .area_box h6,
    .po-measureCustomNode p,
    .po-measureCustomNode h1,
    .po-measureCustomNode h2,
    .po-measureCustomNode h3,
    .po-measureCustomNode h4,
    .po-measureCustomNode h5,
    .po-measureCustomNode h6 {
        margin: 0;
    }
    .po-safari-fixed {
        position: fixed;
    }
</style></svg>