<?xml version="1.0" standalone="no"?><?xml-stylesheet type="text/css" href="https://wps.processon.com/themes/default/wps/mind/icons/icons.css" ?><!DOCTYPE svg PUBLIC "-//W3C//DTD SVG 1.1//EN" "http://www.w3.org/Graphics/SVG/1.1/DTD/svg11.dtd"><svg xmlns="http://www.w3.org/2000/svg" xmlns:xlink="http://www.w3.org/1999/xlink" version="1.1" width="692.699951171875" height="806.5" style="outline: none; background: none; top: 0px; left: 0px; display: block; z-index: 1; font-size: 12px;" id="mind-svg-con"><defs></defs><g id="svgbackgroundid"><defs transform="matrix(0.6874069512123325,0,0,0.4495540691192865,0,0)"></defs><rect width="1007.699951171875" height="1794" fill="#FFFFFF" transform="matrix(0.6874069512123325,0,0,0.4495540691192865,0,0)"></rect></g><g id="export-watermark"><defs><pattern patternUnits="userSpaceOnUse" id="pattern_mark_0" width="300" height="300"><text x="150" y="100" fill="rgb(235,235,235)" font-size="18" transform="rotate(-45, 150, 150)" style="dominant-baseline: middle; text-anchor: middle;"></text></pattern></defs><rect fill="url(#pattern_mark_0)" x="0" y="0" width="692.695" height="806.5" id="rect_mark_0" pointer-events="none"></rect></g><g class="po-mind-container" transform="matrix(1,0,0,1,-164,400.25)"><g class="po-mind-line-container" style=""><g from="21fbe73a-f49a-4e7e-8a54-89afd9bbac72" to="de2d0702-5979-4d5c-bfe6-af388c9c5bb2" opacity="1"><path d="M525.3 -331.25L537.3 -331.25L537.3 -331.25C537.3 -331.25 537.3 -331.25 537.3 -331.25L565.3 -331.25" stroke-linecap="butt" stroke-width="3" stroke="#4b8f9c" fill="none"></path></g><g from="d6cdcb8a-2355-4648-92d4-a35a9d211066" to="27cbeb2a-dbc7-43aa-bafc-997fda4ee280" opacity="1"><path d="M525.3 -258.75L537.3 -258.75L537.3 -258.75C537.3 -258.75 537.3 -258.75 537.3 -258.75L565.3 -258.75" stroke-linecap="butt" stroke-width="3" stroke="#4b8f9c" fill="none"></path></g><g from="ce6718a8-054b-43a4-8419-bc17e6bc2e3a" to="21fbe73a-f49a-4e7e-8a54-89afd9bbac72" opacity="1"><path d="M400.8 0L412.8 0L412.8 -325.25C412.8 -325.25 412.8 -331.25 418.8 -331.25L440.8 -331.25" stroke-linecap="butt" stroke-width="3" stroke="#3d707a" fill="none"></path></g><g from="ce6718a8-054b-43a4-8419-bc17e6bc2e3a" to="d6cdcb8a-2355-4648-92d4-a35a9d211066" opacity="1"><path d="M400.8 0L412.8 0L412.8 -252.75C412.8 -252.75 412.8 -258.75 418.8 -258.75L440.8 -258.75" stroke-linecap="butt" stroke-width="3" stroke="#3d707a" fill="none"></path></g><g from="ce6718a8-054b-43a4-8419-bc17e6bc2e3a" to="931e8eee-cd5e-4eec-bb1e-6ab7b97dacc3" opacity="1"><path d="M400.8 0L412.8 0L412.8 -180.25C412.8 -180.25 412.8 -186.25 418.8 -186.25L440.8 -186.25" stroke-linecap="butt" stroke-width="3" stroke="#3d707a" fill="none"></path></g><g from="ce6718a8-054b-43a4-8419-bc17e6bc2e3a" to="e5bf9b76-814f-4bd0-9e0c-a226971d65f6" opacity="1"><path d="M400.8 0L412.8 0L412.8 -82.75C412.8 -82.75 412.8 -88.75 418.8 -88.75L440.8 -88.75" stroke-linecap="butt" stroke-width="3" stroke="#3d707a" fill="none"></path></g><g from="ce6718a8-054b-43a4-8419-bc17e6bc2e3a" to="4f9be5e8-eab1-4dd5-a501-0bb1fad9edcd" opacity="1"><path d="M400.8 0L412.8 0L412.8 30.25C412.8 30.25 412.8 36.25 418.8 36.25L440.8 36.25" stroke-linecap="butt" stroke-width="3" stroke="#3d707a" fill="none"></path></g><g from="ce6718a8-054b-43a4-8419-bc17e6bc2e3a" to="a6a1c16a-7d8a-4321-b793-4472b362b849" opacity="1"><path d="M400.8 0L412.8 0L412.8 130.25C412.8 130.25 412.8 136.25 418.8 136.25L440.8 136.25" stroke-linecap="butt" stroke-width="3" stroke="#3d707a" fill="none"></path></g><g from="ce6718a8-054b-43a4-8419-bc17e6bc2e3a" to="604dea9c-a57c-4c85-b88d-486a84c23c8d" opacity="1"><path d="M400.8 0L412.8 0L412.8 202.75C412.8 202.75 412.8 208.75 418.8 208.75L440.8 208.75" stroke-linecap="butt" stroke-width="3" stroke="#3d707a" fill="none"></path></g><g from="ce6718a8-054b-43a4-8419-bc17e6bc2e3a" to="97938109-2f05-4d45-988f-65cb65c0a06a" opacity="1"><path d="M400.8 0L412.8 0L412.8 325.25C412.8 325.25 412.8 331.25 418.8 331.25L440.8 331.25" stroke-linecap="butt" stroke-width="3" stroke="#3d707a" fill="none"></path></g><g from="931e8eee-cd5e-4eec-bb1e-6ab7b97dacc3" to="3c00af60-fc18-4d77-b1e2-eeae101523ec" opacity="1"><path d="M525.3 -186.25L537.3 -186.25L537.3 -186.25C537.3 -186.25 537.3 -186.25 537.3 -186.25L565.3 -186.25" stroke-linecap="butt" stroke-width="3" stroke="#4b8f9c" fill="none"></path></g><g from="e5bf9b76-814f-4bd0-9e0c-a226971d65f6" to="9a72f6c9-6a63-4c51-8db8-2df3cfbae1c2" opacity="1"><path d="M585.3 -88.75L597.3 -88.75L597.3 -107.75C597.3 -107.75 597.3 -113.75 603.3 -113.75L625.3 -113.75" stroke-linecap="butt" stroke-width="3" stroke="#4b8f9c" fill="none"></path></g><g from="e5bf9b76-814f-4bd0-9e0c-a226971d65f6" to="6423d102-47ed-43ef-bc6d-acd104c25203" opacity="1"><path d="M585.3 -88.75L597.3 -88.75L597.3 -69.75C597.3 -69.75 597.3 -63.75 603.3 -63.75L625.3 -63.75" stroke-linecap="butt" stroke-width="3" stroke="#4b8f9c" fill="none"></path></g><g from="4f9be5e8-eab1-4dd5-a501-0bb1fad9edcd" to="cc8fc920-e518-4f2e-8c40-9793c289326a" opacity="1"><path d="M555.3 36.25L567.3 36.25L567.3 -7.75C567.3 -7.75 567.3 -13.75 573.3 -13.75L595.3 -13.75" stroke-linecap="butt" stroke-width="3" stroke="#4b8f9c" fill="none"></path></g><g from="4f9be5e8-eab1-4dd5-a501-0bb1fad9edcd" to="bc927f31-bac4-4b0e-b0cc-e519c816e6ee" opacity="1"><path d="M555.3 36.25L567.3 36.25L567.3 36.25C567.3 36.25 567.3 36.25 567.3 36.25L595.3 36.25" stroke-linecap="butt" stroke-width="3" stroke="#4b8f9c" fill="none"></path></g><g from="4f9be5e8-eab1-4dd5-a501-0bb1fad9edcd" to="f3f89ad4-511b-460b-9d65-a8d5a448e9ab" opacity="1"><path d="M555.3 36.25L567.3 36.25L567.3 80.25C567.3 80.25 567.3 86.25 573.3 86.25L595.3 86.25" stroke-linecap="butt" stroke-width="3" stroke="#4b8f9c" fill="none"></path></g><g from="a6a1c16a-7d8a-4321-b793-4472b362b849" to="8aede309-121d-4c19-9043-2370d6f09350" opacity="1"><path d="M555.3 136.25L567.3 136.25L567.3 136.25C567.3 136.25 567.3 136.25 567.3 136.25L595.3 136.25" stroke-linecap="butt" stroke-width="3" stroke="#4b8f9c" fill="none"></path></g><g from="604dea9c-a57c-4c85-b88d-486a84c23c8d" to="a230b5e7-015c-4ed8-b115-8a75c2d17d62" opacity="1"><path d="M525.3 208.75L537.3 208.75L537.3 208.75C537.3 208.75 537.3 208.75 537.3 208.75L565.3 208.75" stroke-linecap="butt" stroke-width="3" stroke="#4b8f9c" fill="none"></path></g><g from="97938109-2f05-4d45-988f-65cb65c0a06a" to="f8e0e430-9b8d-41a1-8892-8b928304d63e" opacity="1"><path d="M525.3 331.25L537.3 331.25L537.3 287.25C537.3 287.25 537.3 281.25 543.3 281.25L565.3 281.25" stroke-linecap="butt" stroke-width="3" stroke="#4b8f9c" fill="none"></path></g><g from="97938109-2f05-4d45-988f-65cb65c0a06a" to="201ca082-cf55-46a4-98fb-7843463544ae" opacity="1"><path d="M525.3 331.25L537.3 331.25L537.3 331.25C537.3 331.25 537.3 331.25 537.3 331.25L565.3 331.25" stroke-linecap="butt" stroke-width="3" stroke="#4b8f9c" fill="none"></path></g><g from="97938109-2f05-4d45-988f-65cb65c0a06a" to="f70383ca-06ea-45e2-8f34-74504b6f4cd5" opacity="1"><path d="M525.3 331.25L537.3 331.25L537.3 375.25C537.3 375.25 537.3 381.25 543.3 381.25L565.3 381.25" stroke-linecap="butt" stroke-width="3" stroke="#4b8f9c" fill="none"></path></g></g><g class="po-mind-generalize-container"></g><g class="po-mind-associative-line-container"></g><g class="po-mind-node-container"><g class="po-mind-topic" id="topic-ce6718a8-054b-43a4-8419-bc17e6bc2e3a" transform="matrix(1,0,0,1,192,-27)" opacity="1"><path d="M0,0 L200.8,0 C200.8,0 200.8,0 200.8,0                           L200.8,46 C200.8,46 200.8,46 200.8,46                           L0,46 C0,46 0,46 0,46 L0,0                           C0,0 0,0 0,0 Z" class="po-mind-topic-shape-fill" transform="matrix(1,0,0,1,1.5,1.5)" fill="#ffffff"></path><path d="M0,0 L199.3,0 L199.3,44.5 L0,44.5 L0,0 Z M7,44.5 L7,51.5 L206.3,51.5 L206.3,7 L199.3,7" class="po-mind-topic-shape" transform="matrix(1,0,0,1,1.5,1.5)" fill="none" stroke-width="3" stroke="#3d707a"></path><g transform="matrix(1,0,0,1,18.5,10.5)"><g data-width="164.8" data-height="26" data-offsetx="0" transform="matrix(1,0,0,1,0,0)"><g><text text-anchor="start" align="top" anchor="start" font-size="18px" font-weight="bold" fill="rgb(75, 143, 156)" style="font-family: 思源宋体;font-size: 18px;font-weight: bold;line-height: 140%;max-width: 900px;overflow-wrap: break-word;word-break: break-word;text-size-adjust: 100%;color: rgb(75, 143, 156);"><tspan x="0" y="18"><tspan dx="0">序列数据类型的操作</tspan></tspan></text></g></g></g><g><rect width="4" height="54" x="-3" y="0" resize="1" fill="none" style="cursor: ew-resize;"></rect><rect width="4" height="54" x="209.8" y="0" resize="2" fill="none" style="cursor: ew-resize;"></rect></g></g><g class="po-mind-topic" id="topic-21fbe73a-f49a-4e7e-8a54-89afd9bbac72" transform="matrix(1,0,0,1,440.8,-353.75)" opacity="1"><path d="M0,0 L76.5,0 C76.5,0 76.5,0 76.5,0                           L76.5,37 C76.5,37 76.5,37 76.5,37                           L0,37 C0,37 0,37 0,37 L0,0                           C0,0 0,0 0,0 Z" class="po-mind-topic-shape-fill" transform="matrix(1,0,0,1,1.5,1.5)" fill="#ffffff"></path><path d="M0,0 L75,0 L75,35.5 L0,35.5 L0,0 Z M7,35.5 L7,42.5 L82,42.5 L82,7 L75,7" class="po-mind-topic-shape" transform="matrix(1,0,0,1,1.5,1.5)" fill="none" stroke-width="3" stroke="#3d707a"></path><g transform="matrix(1,0,0,1,7.5,8.5)"><g data-width="62.5" data-height="21" data-offsetx="0" transform="matrix(1,0,0,1,0,0)"><g><text text-anchor="start" align="top" anchor="start" font-size="15px" font-weight="bold" fill="rgb(75, 143, 156)" style="font-family: 思源宋体;font-size: 15px;font-weight: bold;line-height: 140%;max-width: 900px;overflow-wrap: break-word;word-break: break-word;text-size-adjust: 100%;color: rgb(75, 143, 156);"><tspan x="0" y="15"><tspan dx="0">基本操作</tspan></tspan></text></g></g></g></g><g class="po-mind-topic" id="topic-de2d0702-5979-4d5c-bfe6-af388c9c5bb2" transform="matrix(1,0,0,1,565.3,-375.25)" opacity="1"><path d="M0,0 L185.4,0 C185.4,0 185.4,0 185.4,0                           L185.4,44 C185.4,44 185.4,44 185.4,44                           L0,44 C0,44 0,44 0,44 L0,0                           C0,0 0,0 0,0 Z" class="po-mind-topic-shape-fill" fill="none"></path><path d="M0,44  L185.4 44 M0,37 L185.4 37" class="po-mind-topic-shape" fill="none" stroke-width="3" stroke="#4b8f9c"></path><g transform="matrix(1,0,0,1,6.5,12)"><g data-width="172.4" data-height="20" data-offsetx="0" transform="matrix(1,0,0,1,0,0)"><g><text text-anchor="start" align="top" anchor="start" font-size="14px" font-weight="" fill="rgb(75, 143, 156)" style="font-family: 思源宋体;font-size: 14px;line-height: 140%;max-width: 896px;overflow-wrap: break-word;word-break: break-word;text-size-adjust: 100%;color: rgb(75, 143, 156);"><tspan x="0" y="13.999999999999996"><tspan dx="0">len(),max(),min(),sum()</tspan></tspan></text></g></g></g></g><g class="po-mind-topic" id="topic-d6cdcb8a-2355-4648-92d4-a35a9d211066" transform="matrix(1,0,0,1,440.8,-281.25)" opacity="1"><path d="M0,0 L76.5,0 C76.5,0 76.5,0 76.5,0                           L76.5,37 C76.5,37 76.5,37 76.5,37                           L0,37 C0,37 0,37 0,37 L0,0                           C0,0 0,0 0,0 Z" class="po-mind-topic-shape-fill" transform="matrix(1,0,0,1,1.5,1.5)" fill="#ffffff"></path><path d="M0,0 L75,0 L75,35.5 L0,35.5 L0,0 Z M7,35.5 L7,42.5 L82,42.5 L82,7 L75,7" class="po-mind-topic-shape" transform="matrix(1,0,0,1,1.5,1.5)" fill="none" stroke-width="3" stroke="#3d707a"></path><g transform="matrix(1,0,0,1,7.5,8.5)"><g data-width="62.5" data-height="21" data-offsetx="0" transform="matrix(1,0,0,1,0,0)"><g><text text-anchor="start" align="top" anchor="start" font-size="15px" font-weight="bold" fill="rgb(75, 143, 156)" style="font-family: 思源宋体;font-size: 15px;font-weight: bold;line-height: 140%;max-width: 900px;overflow-wrap: break-word;word-break: break-word;text-size-adjust: 100%;color: rgb(75, 143, 156);"><tspan x="0" y="15"><tspan dx="0">索引访问</tspan></tspan></text></g></g></g></g><g class="po-mind-topic" id="topic-27cbeb2a-dbc7-43aa-bafc-997fda4ee280" transform="matrix(1,0,0,1,565.3,-302.75)" opacity="1"><path d="M0,0 L38.4,0 C38.4,0 38.4,0 38.4,0                           L38.4,44 C38.4,44 38.4,44 38.4,44                           L0,44 C0,44 0,44 0,44 L0,0                           C0,0 0,0 0,0 Z" class="po-mind-topic-shape-fill" fill="none"></path><path d="M0,44  L38.4 44 M0,37 L38.4 37" class="po-mind-topic-shape" fill="none" stroke-width="3" stroke="#4b8f9c"></path><g transform="matrix(1,0,0,1,6.5,12)"><g data-width="25.4" data-height="20" data-offsetx="0" transform="matrix(1,0,0,1,0,0)"><g><text text-anchor="start" align="top" anchor="start" font-size="14px" font-weight="" fill="rgb(75, 143, 156)" style="font-family: 思源宋体;font-size: 14px;line-height: 140%;max-width: 896px;overflow-wrap: break-word;word-break: break-word;text-size-adjust: 100%;color: rgb(75, 143, 156);"><tspan x="0" y="13.999999999999996"><tspan dx="0">s[i]</tspan></tspan></text></g></g></g></g><g class="po-mind-topic" id="topic-931e8eee-cd5e-4eec-bb1e-6ab7b97dacc3" transform="matrix(1,0,0,1,440.8,-208.75)" opacity="1"><path d="M0,0 L76.5,0 C76.5,0 76.5,0 76.5,0                           L76.5,37 C76.5,37 76.5,37 76.5,37                           L0,37 C0,37 0,37 0,37 L0,0                           C0,0 0,0 0,0 Z" class="po-mind-topic-shape-fill" transform="matrix(1,0,0,1,1.5,1.5)" fill="#ffffff"></path><path d="M0,0 L75,0 L75,35.5 L0,35.5 L0,0 Z M7,35.5 L7,42.5 L82,42.5 L82,7 L75,7" class="po-mind-topic-shape" transform="matrix(1,0,0,1,1.5,1.5)" fill="none" stroke-width="3" stroke="#3d707a"></path><g transform="matrix(1,0,0,1,7.5,8.5)"><g data-width="62.5" data-height="21" data-offsetx="0" transform="matrix(1,0,0,1,0,0)"><g><text text-anchor="start" align="top" anchor="start" font-size="15px" font-weight="bold" fill="rgb(75, 143, 156)" style="font-family: 思源宋体;font-size: 15px;font-weight: bold;line-height: 140%;max-width: 900px;overflow-wrap: break-word;word-break: break-word;text-size-adjust: 100%;color: rgb(75, 143, 156);"><tspan x="0" y="15"><tspan dx="0">切片操作</tspan></tspan></text></g></g></g></g><g class="po-mind-topic" id="topic-3c00af60-fc18-4d77-b1e2-eeae101523ec" transform="matrix(1,0,0,1,565.3,-230.25)" opacity="1"><path d="M0,0 L96.4,0 C96.4,0 96.4,0 96.4,0                           L96.4,44 C96.4,44 96.4,44 96.4,44                           L0,44 C0,44 0,44 0,44 L0,0                           C0,0 0,0 0,0 Z" class="po-mind-topic-shape-fill" fill="none"></path><path d="M0,44  L96.4 44 M0,37 L96.4 37" class="po-mind-topic-shape" fill="none" stroke-width="3" stroke="#4b8f9c"></path><g transform="matrix(1,0,0,1,6.5,12)"><g data-width="83.4" data-height="20" data-offsetx="0" transform="matrix(1,0,0,1,0,0)"><g><text text-anchor="start" align="top" anchor="start" font-size="14px" font-weight="" fill="rgb(75, 143, 156)" style="font-family: 思源宋体;font-size: 14px;line-height: 140%;max-width: 896px;overflow-wrap: break-word;word-break: break-word;text-size-adjust: 100%;color: rgb(75, 143, 156);"><tspan x="0" y="13.999999999999996"><tspan dx="0">s[i:j],s[i:j:k]</tspan></tspan></text></g></g></g></g><g class="po-mind-topic" id="topic-e5bf9b76-814f-4bd0-9e0c-a226971d65f6" transform="matrix(1,0,0,1,440.8,-111.25)" opacity="1"><path d="M0,0 L136.5,0 C136.5,0 136.5,0 136.5,0                           L136.5,37 C136.5,37 136.5,37 136.5,37                           L0,37 C0,37 0,37 0,37 L0,0                           C0,0 0,0 0,0 Z" class="po-mind-topic-shape-fill" transform="matrix(1,0,0,1,1.5,1.5)" fill="#ffffff"></path><path d="M0,0 L135,0 L135,35.5 L0,35.5 L0,0 Z M7,35.5 L7,42.5 L142,42.5 L142,7 L135,7" class="po-mind-topic-shape" transform="matrix(1,0,0,1,1.5,1.5)" fill="none" stroke-width="3" stroke="#3d707a"></path><g transform="matrix(1,0,0,1,7.5,8.5)"><g data-width="122.5" data-height="21" data-offsetx="0" transform="matrix(1,0,0,1,0,0)"><g><text text-anchor="start" align="top" anchor="start" font-size="15px" font-weight="bold" fill="rgb(75, 143, 156)" style="font-family: 思源宋体;font-size: 15px;font-weight: bold;line-height: 140%;max-width: 900px;overflow-wrap: break-word;word-break: break-word;text-size-adjust: 100%;color: rgb(75, 143, 156);"><tspan x="0" y="15"><tspan dx="0">序列的连接和重复</tspan></tspan></text></g></g></g></g><g class="po-mind-topic" id="topic-9a72f6c9-6a63-4c51-8db8-2df3cfbae1c2" transform="matrix(1,0,0,1,625.3,-157.75)" opacity="1"><path d="M0,0 L54.4,0 C54.4,0 54.4,0 54.4,0                           L54.4,44 C54.4,44 54.4,44 54.4,44                           L0,44 C0,44 0,44 0,44 L0,0                           C0,0 0,0 0,0 Z" class="po-mind-topic-shape-fill" fill="none"></path><path d="M0,44  L54.4 44 M0,37 L54.4 37" class="po-mind-topic-shape" fill="none" stroke-width="3" stroke="#4b8f9c"></path><g transform="matrix(1,0,0,1,6.5,12)"><g data-width="41.4" data-height="20" data-offsetx="0" transform="matrix(1,0,0,1,0,0)"><g><text text-anchor="start" align="top" anchor="start" font-size="14px" font-weight="" fill="rgb(75, 143, 156)" style="font-family: 思源宋体;font-size: 14px;line-height: 140%;max-width: 896px;overflow-wrap: break-word;word-break: break-word;text-size-adjust: 100%;color: rgb(75, 143, 156);"><tspan x="0" y="13.999999999999996"><tspan dx="0">s1+s2</tspan></tspan></text></g></g></g></g><g class="po-mind-topic" id="topic-6423d102-47ed-43ef-bc6d-acd104c25203" transform="matrix(1,0,0,1,625.3,-107.75)" opacity="1"><path d="M0,0 L74.4,0 C74.4,0 74.4,0 74.4,0                           L74.4,44 C74.4,44 74.4,44 74.4,44                           L0,44 C0,44 0,44 0,44 L0,0                           C0,0 0,0 0,0 Z" class="po-mind-topic-shape-fill" fill="none"></path><path d="M0,44  L74.4 44 M0,37 L74.4 37" class="po-mind-topic-shape" fill="none" stroke-width="3" stroke="#4b8f9c"></path><g transform="matrix(1,0,0,1,6.5,12)"><g data-width="61.4" data-height="20" data-offsetx="0" transform="matrix(1,0,0,1,0,0)"><g><text text-anchor="start" align="top" anchor="start" font-size="14px" font-weight="" fill="rgb(75, 143, 156)" style="font-family: 思源宋体;font-size: 14px;line-height: 140%;max-width: 896px;overflow-wrap: break-word;word-break: break-word;text-size-adjust: 100%;color: rgb(75, 143, 156);"><tspan x="0" y="13.999999999999996"><tspan dx="0">s1*n,n*s</tspan></tspan></text></g></g></g></g><g class="po-mind-topic" id="topic-4f9be5e8-eab1-4dd5-a501-0bb1fad9edcd" transform="matrix(1,0,0,1,440.8,13.75)" opacity="1"><path d="M0,0 L106.5,0 C106.5,0 106.5,0 106.5,0                           L106.5,37 C106.5,37 106.5,37 106.5,37                           L0,37 C0,37 0,37 0,37 L0,0                           C0,0 0,0 0,0 Z" class="po-mind-topic-shape-fill" transform="matrix(1,0,0,1,1.5,1.5)" fill="#ffffff"></path><path d="M0,0 L105,0 L105,35.5 L0,35.5 L0,0 Z M7,35.5 L7,42.5 L112,42.5 L112,7 L105,7" class="po-mind-topic-shape" transform="matrix(1,0,0,1,1.5,1.5)" fill="none" stroke-width="3" stroke="#3d707a"></path><g transform="matrix(1,0,0,1,7.5,8.5)"><g data-width="92.5" data-height="21" data-offsetx="0" transform="matrix(1,0,0,1,0,0)"><g><text text-anchor="start" align="top" anchor="start" font-size="15px" font-weight="bold" fill="rgb(75, 143, 156)" style="font-family: 思源宋体;font-size: 15px;font-weight: bold;line-height: 140%;max-width: 900px;overflow-wrap: break-word;word-break: break-word;text-size-adjust: 100%;color: rgb(75, 143, 156);"><tspan x="0" y="15"><tspan dx="0">成员关系操作</tspan></tspan></text></g></g></g></g><g class="po-mind-topic" id="topic-cc8fc920-e518-4f2e-8c40-9793c289326a" transform="matrix(1,0,0,1,595.3,-57.75)" opacity="1"><path d="M0,0 L121.4,0 C121.4,0 121.4,0 121.4,0                           L121.4,44 C121.4,44 121.4,44 121.4,44                           L0,44 C0,44 0,44 0,44 L0,0                           C0,0 0,0 0,0 Z" class="po-mind-topic-shape-fill" fill="none"></path><path d="M0,44  L121.4 44 M0,37 L121.4 37" class="po-mind-topic-shape" fill="none" stroke-width="3" stroke="#4b8f9c"></path><g transform="matrix(1,0,0,1,6.5,12)"><g data-width="108.4" data-height="20" data-offsetx="0" transform="matrix(1,0,0,1,0,0)"><g><text text-anchor="start" align="top" anchor="start" font-size="14px" font-weight="" fill="rgb(75, 143, 156)" style="font-family: 思源宋体;font-size: 14px;line-height: 140%;max-width: 896px;overflow-wrap: break-word;word-break: break-word;text-size-adjust: 100%;color: rgb(75, 143, 156);"><tspan x="0" y="13.999999999999996"><tspan dx="0">x in s,x not in s</tspan></tspan></text></g></g></g></g><g class="po-mind-topic" id="topic-bc927f31-bac4-4b0e-b0cc-e519c816e6ee" transform="matrix(1,0,0,1,595.3,-7.75)" opacity="1"><path d="M0,0 L174.4,0 C174.4,0 174.4,0 174.4,0                           L174.4,44 C174.4,44 174.4,44 174.4,44                           L0,44 C0,44 0,44 0,44 L0,0                           C0,0 0,0 0,0 Z" class="po-mind-topic-shape-fill" fill="none"></path><path d="M0,44  L174.4 44 M0,37 L174.4 37" class="po-mind-topic-shape" fill="none" stroke-width="3" stroke="#4b8f9c"></path><g transform="matrix(1,0,0,1,6.5,12)"><g data-width="161.4" data-height="20" data-offsetx="0" transform="matrix(1,0,0,1,0,0)"><g><text text-anchor="start" align="top" anchor="start" font-size="14px" font-weight="" fill="rgb(75, 143, 156)" style="font-family: 思源宋体;font-size: 14px;line-height: 140%;max-width: 896px;overflow-wrap: break-word;word-break: break-word;text-size-adjust: 100%;color: rgb(75, 143, 156);"><tspan x="0" y="13.999999999999996"><tspan dx="0">s.count(x[,start[,end]])</tspan></tspan></text></g></g></g></g><g class="po-mind-topic" id="topic-f3f89ad4-511b-460b-9d65-a8d5a448e9ab" transform="matrix(1,0,0,1,595.3,42.25)" opacity="1"><path d="M0,0 L173.4,0 C173.4,0 173.4,0 173.4,0                           L173.4,44 C173.4,44 173.4,44 173.4,44                           L0,44 C0,44 0,44 0,44 L0,0                           C0,0 0,0 0,0 Z" class="po-mind-topic-shape-fill" fill="none"></path><path d="M0,44  L173.4 44 M0,37 L173.4 37" class="po-mind-topic-shape" fill="none" stroke-width="3" stroke="#4b8f9c"></path><g transform="matrix(1,0,0,1,6.5,12)"><g data-width="160.4" data-height="20" data-offsetx="0" transform="matrix(1,0,0,1,0,0)"><g><text text-anchor="start" align="top" anchor="start" font-size="14px" font-weight="" fill="rgb(75, 143, 156)" style="font-family: 思源宋体;font-size: 14px;line-height: 140%;max-width: 896px;overflow-wrap: break-word;word-break: break-word;text-size-adjust: 100%;color: rgb(75, 143, 156);"><tspan x="0" y="13.999999999999996"><tspan dx="0">s.index(x[,start[,end]])</tspan></tspan></text></g></g></g></g><g class="po-mind-topic" id="topic-a6a1c16a-7d8a-4321-b793-4472b362b849" transform="matrix(1,0,0,1,440.8,113.75)" opacity="1"><path d="M0,0 L106.5,0 C106.5,0 106.5,0 106.5,0                           L106.5,37 C106.5,37 106.5,37 106.5,37                           L0,37 C0,37 0,37 0,37 L0,0                           C0,0 0,0 0,0 Z" class="po-mind-topic-shape-fill" transform="matrix(1,0,0,1,1.5,1.5)" fill="#ffffff"></path><path d="M0,0 L105,0 L105,35.5 L0,35.5 L0,0 Z M7,35.5 L7,42.5 L112,42.5 L112,7 L105,7" class="po-mind-topic-shape" transform="matrix(1,0,0,1,1.5,1.5)" fill="none" stroke-width="3" stroke="#3d707a"></path><g transform="matrix(1,0,0,1,7.5,8.5)"><g data-width="92.5" data-height="21" data-offsetx="0" transform="matrix(1,0,0,1,0,0)"><g><text text-anchor="start" align="top" anchor="start" font-size="15px" font-weight="bold" fill="rgb(75, 143, 156)" style="font-family: 思源宋体;font-size: 15px;font-weight: bold;line-height: 140%;max-width: 900px;overflow-wrap: break-word;word-break: break-word;text-size-adjust: 100%;color: rgb(75, 143, 156);"><tspan x="0" y="15"><tspan dx="0">比较关系操作</tspan></tspan></text></g></g></g></g><g class="po-mind-topic" id="topic-8aede309-121d-4c19-9043-2370d6f09350" transform="matrix(1,0,0,1,595.3,92.25)" opacity="1"><path d="M0,0 L184.4,0 C184.4,0 184.4,0 184.4,0                           L184.4,44 C184.4,44 184.4,44 184.4,44                           L0,44 C0,44 0,44 0,44 L0,0                           C0,0 0,0 0,0 Z" class="po-mind-topic-shape-fill" fill="none"></path><path d="M0,44  L184.4 44 M0,37 L184.4 37" class="po-mind-topic-shape" fill="none" stroke-width="3" stroke="#4b8f9c"></path><g transform="matrix(1,0,0,1,6.5,12)"><g data-width="171.4" data-height="20" data-offsetx="0" transform="matrix(1,0,0,1,0,0)"><g><text text-anchor="start" align="top" anchor="start" font-size="14px" font-weight="" fill="rgb(75, 143, 156)" style="font-family: 思源宋体;font-size: 14px;line-height: 140%;max-width: 896px;overflow-wrap: break-word;word-break: break-word;text-size-adjust: 100%;color: rgb(75, 143, 156);"><tspan x="0" y="13.999999999999996"><tspan dx="0">&gt; 、&gt;=、 &lt;、 &lt;=、 !=、 ==</tspan></tspan></text></g></g></g></g><g class="po-mind-topic" id="topic-604dea9c-a57c-4c85-b88d-486a84c23c8d" transform="matrix(1,0,0,1,440.8,186.25)" opacity="1"><path d="M0,0 L76.5,0 C76.5,0 76.5,0 76.5,0                           L76.5,37 C76.5,37 76.5,37 76.5,37                           L0,37 C0,37 0,37 0,37 L0,0                           C0,0 0,0 0,0 Z" class="po-mind-topic-shape-fill" transform="matrix(1,0,0,1,1.5,1.5)" fill="#ffffff"></path><path d="M0,0 L75,0 L75,35.5 L0,35.5 L0,0 Z M7,35.5 L7,42.5 L82,42.5 L82,7 L75,7" class="po-mind-topic-shape" transform="matrix(1,0,0,1,1.5,1.5)" fill="none" stroke-width="3" stroke="#3d707a"></path><g transform="matrix(1,0,0,1,7.5,8.5)"><g data-width="62.5" data-height="21" data-offsetx="0" transform="matrix(1,0,0,1,0,0)"><g><text text-anchor="start" align="top" anchor="start" font-size="15px" font-weight="bold" fill="rgb(75, 143, 156)" style="font-family: 思源宋体;font-size: 15px;font-weight: bold;line-height: 140%;max-width: 900px;overflow-wrap: break-word;word-break: break-word;text-size-adjust: 100%;color: rgb(75, 143, 156);"><tspan x="0" y="15"><tspan dx="0">排序操作</tspan></tspan></text></g></g></g></g><g class="po-mind-topic" id="topic-a230b5e7-015c-4ed8-b115-8a75c2d17d62" transform="matrix(1,0,0,1,565.3,164.75)" opacity="1"><path d="M0,0 L266.4,0 C266.4,0 266.4,0 266.4,0                           L266.4,44 C266.4,44 266.4,44 266.4,44                           L0,44 C0,44 0,44 0,44 L0,0                           C0,0 0,0 0,0 Z" class="po-mind-topic-shape-fill" fill="none"></path><path d="M0,44  L266.4 44 M0,37 L266.4 37" class="po-mind-topic-shape" fill="none" stroke-width="3" stroke="#4b8f9c"></path><g transform="matrix(1,0,0,1,6.5,12)"><g data-width="253.4" data-height="20" data-offsetx="0" transform="matrix(1,0,0,1,0,0)"><g><text text-anchor="start" align="top" anchor="start" font-size="14px" font-weight="" fill="rgb(75, 143, 156)" style="font-family: 思源宋体;font-size: 14px;line-height: 140%;max-width: 896px;overflow-wrap: break-word;word-break: break-word;text-size-adjust: 100%;color: rgb(75, 143, 156);"><tspan x="0" y="13.999999999999996"><tspan dx="0">sorted(s,key = None,reverse = True)</tspan></tspan></text></g></g></g></g><g class="po-mind-topic" id="topic-97938109-2f05-4d45-988f-65cb65c0a06a" transform="matrix(1,0,0,1,440.8,308.75)" opacity="1"><path d="M0,0 L76.5,0 C76.5,0 76.5,0 76.5,0                           L76.5,37 C76.5,37 76.5,37 76.5,37                           L0,37 C0,37 0,37 0,37 L0,0                           C0,0 0,0 0,0 Z" class="po-mind-topic-shape-fill" transform="matrix(1,0,0,1,1.5,1.5)" fill="#ffffff"></path><path d="M0,0 L75,0 L75,35.5 L0,35.5 L0,0 Z M7,35.5 L7,42.5 L82,42.5 L82,7 L75,7" class="po-mind-topic-shape" transform="matrix(1,0,0,1,1.5,1.5)" fill="none" stroke-width="3" stroke="#3d707a"></path><g transform="matrix(1,0,0,1,7.5,8.5)"><g data-width="62.5" data-height="21" data-offsetx="0" transform="matrix(1,0,0,1,0,0)"><g><text text-anchor="start" align="top" anchor="start" font-size="15px" font-weight="bold" fill="rgb(75, 143, 156)" style="font-family: 思源宋体;font-size: 15px;font-weight: bold;line-height: 140%;max-width: 900px;overflow-wrap: break-word;word-break: break-word;text-size-adjust: 100%;color: rgb(75, 143, 156);"><tspan x="0" y="15"><tspan dx="0">拆分操作</tspan></tspan></text></g></g></g></g><g class="po-mind-topic" id="topic-f8e0e430-9b8d-41a1-8892-8b928304d63e" transform="matrix(1,0,0,1,565.3,237.25)" opacity="1"><path d="M0,0 L211.4,0 C211.4,0 211.4,0 211.4,0                           L211.4,44 C211.4,44 211.4,44 211.4,44                           L0,44 C0,44 0,44 0,44 L0,0                           C0,0 0,0 0,0 Z" class="po-mind-topic-shape-fill" fill="none"></path><path d="M0,44  L211.4 44 M0,37 L211.4 37" class="po-mind-topic-shape" fill="none" stroke-width="3" stroke="#4b8f9c"></path><g transform="matrix(1,0,0,1,6.5,12)"><g data-width="198.4" data-height="20" data-offsetx="0" transform="matrix(1,0,0,1,0,0)"><g><text text-anchor="start" align="top" anchor="start" font-size="14px" font-weight="" fill="rgb(75, 143, 156)" style="font-family: 思源宋体;font-size: 14px;line-height: 140%;max-width: 896px;overflow-wrap: break-word;word-break: break-word;text-size-adjust: 100%;color: rgb(75, 143, 156);"><tspan x="0" y="13.999999999999996"><tspan dx="0">变量1,变量2,……,变量n = 序列</tspan></tspan></text></g></g></g></g><g class="po-mind-topic" id="topic-201ca082-cf55-46a4-98fb-7843463544ae" transform="matrix(1,0,0,1,565.3,287.25)" opacity="1"><path d="M0,0 L202.4,0 C202.4,0 202.4,0 202.4,0                           L202.4,44 C202.4,44 202.4,44 202.4,44                           L0,44 C0,44 0,44 0,44 L0,0                           C0,0 0,0 0,0 Z" class="po-mind-topic-shape-fill" fill="none"></path><path d="M0,44  L202.4 44 M0,37 L202.4 37" class="po-mind-topic-shape" fill="none" stroke-width="3" stroke="#4b8f9c"></path><g transform="matrix(1,0,0,1,6.5,12)"><g data-width="189.4" data-height="20" data-offsetx="0" transform="matrix(1,0,0,1,0,0)"><g><text text-anchor="start" align="top" anchor="start" font-size="14px" font-weight="" fill="rgb(75, 143, 156)" style="font-family: 思源宋体;font-size: 14px;line-height: 140%;max-width: 896px;overflow-wrap: break-word;word-break: break-word;text-size-adjust: 100%;color: rgb(75, 143, 156);"><tspan x="0" y="13.999999999999996"><tspan dx="0">变量1,*元组变量,变量2 = 序列</tspan></tspan></text></g></g></g></g><g class="po-mind-topic" id="topic-f70383ca-06ea-45e2-8f34-74504b6f4cd5" transform="matrix(1,0,0,1,565.3,337.25)" opacity="1"><path d="M0,0 L114.4,0 C114.4,0 114.4,0 114.4,0                           L114.4,44 C114.4,44 114.4,44 114.4,44                           L0,44 C0,44 0,44 0,44 L0,0                           C0,0 0,0 0,0 Z" class="po-mind-topic-shape-fill" fill="none"></path><path d="M0,44  L114.4 44 M0,37 L114.4 37" class="po-mind-topic-shape" fill="none" stroke-width="3" stroke="#4b8f9c"></path><g transform="matrix(1,0,0,1,6.5,12)"><g data-width="101.4" data-height="20" data-offsetx="0" transform="matrix(1,0,0,1,0,0)"><g><text text-anchor="start" align="top" anchor="start" font-size="14px" font-weight="" fill="rgb(75, 143, 156)" style="font-family: 思源宋体;font-size: 14px;line-height: 140%;max-width: 896px;overflow-wrap: break-word;word-break: break-word;text-size-adjust: 100%;color: rgb(75, 143, 156);"><tspan x="0" y="13.999999999999996"><tspan dx="0">_,变量1,_=序列</tspan></tspan></text></g></g></g></g></g><g class="po-mind-associative-line-label-container"></g></g><g id="wpsexport-watermark"><defs><pattern patternUnits="userSpaceOnUse" id="wpspattern_mark_0" width="300" height="300"><text x="150" y="100" fill="#0000004d" font-size="18" transform="rotate(-45, 150, 150)" style="dominant-baseline: middle; text-anchor: middle;"></text></pattern></defs><rect fill="url(#wpspattern_mark_0)" x="0" y="0" width="692.695" height="806.5" id="rect_mark_0" pointer-events="none"></rect></g><style>
    .connection-svg{
        outline: none;
        box-shadow: none;
        -webkit-tap-highlight-color: transparent;
    }
    .connection-line {
        cursor: pointer;
    }

    .connection-line-bg {
        cursor: pointer;
    }

    .node-add-btn {
        cursor: pointer;
    }

    .po-richtext-node-wrap ol,
    .area_box ol,
    .po-measureCustomNode ol {
        padding-left: 20px;
        margin: 0;
    }
    .po-richtext-node-wrap ol li,
    .area_box ol li,
    .po-measureCustomNode ol li {
        list-style: decimal;
    }
    .po-richtext-node-wrap ul,
    .area_box ul,
    .po-measureCustomNode ul {
        padding-left: calc(15px + 0.5em);
        list-style: none;
        margin: 0;
    }
    .po-richtext-node-wrap ul li,
    .area_box ul li,
    .po-measureCustomNode ul li {
        list-style: disc;
    }
    .po-richtext-node-wrap p,
    .po-richtext-node-wrap h1,
    .po-richtext-node-wrap h2,
    .po-richtext-node-wrap h3,
    .po-richtext-node-wrap h4,
    .po-richtext-node-wrap h5,
    .po-richtext-node-wrap h6,
    .area_box p,
    .area_box h1,
    .area_box h2,
    .area_box h3,
    .area_box h4,
    .area_box h5,
    .area_box h6,
    .po-measureCustomNode p,
    .po-measureCustomNode h1,
    .po-measureCustomNode h2,
    .po-measureCustomNode h3,
    .po-measureCustomNode h4,
    .po-measureCustomNode h5,
    .po-measureCustomNode h6 {
        margin: 0;
    }
    .po-safari-fixed {
        position: fixed;
    }
</style></svg>