<?xml version="1.0" standalone="no"?><?xml-stylesheet type="text/css" href="https://wps.processon.com/themes/default/wps/mind/icons/icons.css" ?><!DOCTYPE svg PUBLIC "-//W3C//DTD SVG 1.1//EN" "http://www.w3.org/Graphics/SVG/1.1/DTD/svg11.dtd"><svg xmlns="http://www.w3.org/2000/svg" xmlns:xlink="http://www.w3.org/1999/xlink" version="1.1" width="718.199951171875" height="980" style="outline: none; background: none; top: 0px; left: 0px; display: block; z-index: 1; font-size: 12px;" id="mind-svg-con"><defs></defs><g id="svgbackgroundid"><defs transform="matrix(0.4739968151506407,0,0,0.2266944251677076,0,0)"></defs><rect width="1515.199951171875" height="4323" fill="#FFFFFF" transform="matrix(0.4739968151506407,0,0,0.2266944251677076,0,0)"></rect></g><g id="export-watermark"><defs><pattern patternUnits="userSpaceOnUse" id="pattern_mark_0" width="300" height="300"><text x="150" y="100" fill="rgb(235,235,235)" font-size="18" transform="rotate(-45, 150, 150)" style="dominant-baseline: middle; text-anchor: middle;"></text></pattern></defs><rect fill="url(#pattern_mark_0)" x="0" y="0" width="718.195" height="980" id="rect_mark_0" pointer-events="none"></rect></g><g class="po-mind-container" transform="matrix(1,0,0,1,-164,2382.3125)"><g class="po-mind-line-container" style=""><g from="1d8300c6-3a08-49f8-941a-30becaca47e9" to="6b51da0f-9e70-4cc4-9cfb-51094e406933" opacity="1"><path d="M346.8 -1889.6875L358.8 -1889.6875L358.8 -2234.8125C358.8 -2234.8125 358.8 -2240.8125 364.8 -2240.8125L386.8 -2240.8125" stroke-linecap="butt" stroke-width="3" stroke="#3d707a" fill="none"></path></g><g from="1d8300c6-3a08-49f8-941a-30becaca47e9" to="fb7af7b9-780a-4b57-83f0-cbb21743a226" opacity="1"><path d="M346.8 -1889.6875L358.8 -1889.6875L358.8 -1978.5625C358.8 -1978.5625 358.8 -1984.5625 364.8 -1984.5625L386.8 -1984.5625" stroke-linecap="butt" stroke-width="3" stroke="#3d707a" fill="none"></path></g><g from="1d8300c6-3a08-49f8-941a-30becaca47e9" to="9886d6dc-146b-4f8e-b836-40bda41cddc3" opacity="1"><path d="M346.8 -1889.6875L358.8 -1889.6875L358.8 -1741.3125C358.8 -1741.3125 358.8 -1735.3125 364.8 -1735.3125L386.8 -1735.3125" stroke-linecap="butt" stroke-width="3" stroke="#3d707a" fill="none"></path></g><g from="1d8300c6-3a08-49f8-941a-30becaca47e9" to="6c9431e6-65c6-40c0-b1ed-f0885b0de620" opacity="1"><path d="M346.8 -1889.6875L358.8 -1889.6875L358.8 -1544.5625C358.8 -1544.5625 358.8 -1538.5625 364.8 -1538.5625L386.8 -1538.5625" stroke-linecap="butt" stroke-width="3" stroke="#3d707a" fill="none"></path></g><g from="fb7af7b9-780a-4b57-83f0-cbb21743a226" to="f85132f1-8259-4f67-b24c-10e8f3f16e98" opacity="1"><path d="M536.3 -1984.5625L548.3 -1984.5625L548.3 -1904.3125C548.3 -1904.3125 548.3 -1898.3125 554.3 -1898.3125L576.3 -1898.3125" stroke-linecap="butt" stroke-width="3" stroke="#3d707a" fill="none"></path></g><g from="9886d6dc-146b-4f8e-b836-40bda41cddc3" to="b2deaf94-50e4-46a2-9542-592a9e6ce668" opacity="1"><path d="M535.3 -1735.3125L547.3 -1735.3125L547.3 -1792.3125C547.3 -1792.3125 547.3 -1798.3125 553.3 -1798.3125L575.3 -1798.3125" stroke-linecap="butt" stroke-width="3" stroke="#3d707a" fill="none"></path></g><g from="9886d6dc-146b-4f8e-b836-40bda41cddc3" to="8392dd20-a6bd-48b7-959b-9478ef1d9008" opacity="1"><path d="M535.3 -1735.3125L547.3 -1735.3125L547.3 -1729.3125C547.3 -1729.3125 547.3 -1723.3125 553.3 -1723.3125L575.3 -1723.3125" stroke-linecap="butt" stroke-width="3" stroke="#3d707a" fill="none"></path></g><g from="9886d6dc-146b-4f8e-b836-40bda41cddc3" to="fab145f5-94fa-475e-8499-0a0540cfc369" opacity="1"><path d="M535.3 -1735.3125L547.3 -1735.3125L547.3 -1678.3125C547.3 -1678.3125 547.3 -1672.3125 553.3 -1672.3125L575.3 -1672.3125" stroke-linecap="butt" stroke-width="3" stroke="#3d707a" fill="none"></path></g><g from="6c9431e6-65c6-40c0-b1ed-f0885b0de620" to="391533e5-0b6f-4f4f-98b4-952f14417a26" opacity="1"><path d="M567.3 -1538.5625L579.3 -1538.5625L579.3 -1593.8125C579.3 -1593.8125 579.3 -1599.8125 585.3 -1599.8125L607.3 -1599.8125" stroke-linecap="butt" stroke-width="3" stroke="#3d707a" fill="none"></path></g><g from="6c9431e6-65c6-40c0-b1ed-f0885b0de620" to="8ddce048-c415-4bc3-b6d4-dd824e24d73c" opacity="1"><path d="M567.3 -1538.5625L579.3 -1538.5625L579.3 -1483.3125C579.3 -1483.3125 579.3 -1477.3125 585.3 -1477.3125L607.3 -1477.3125" stroke-linecap="butt" stroke-width="3" stroke="#3d707a" fill="none"></path></g><g from="f85132f1-8259-4f67-b24c-10e8f3f16e98" to="7d865228-07a4-4b51-9168-0e9df1b88065" opacity="1"><path d="M630.8 -1898.3125L642.8 -1898.3125L642.8 -1917.3125C642.8 -1917.3125 642.8 -1923.3125 648.8 -1923.3125L670.8 -1923.3125" stroke-linecap="butt" stroke-width="3" stroke="#4b8f9c" fill="none"></path></g><g from="f85132f1-8259-4f67-b24c-10e8f3f16e98" to="0fcefed4-5c0c-4a77-9ae8-9ade0782ab3f" opacity="1"><path d="M630.8 -1898.3125L642.8 -1898.3125L642.8 -1879.3125C642.8 -1879.3125 642.8 -1873.3125 648.8 -1873.3125L670.8 -1873.3125" stroke-linecap="butt" stroke-width="3" stroke="#4b8f9c" fill="none"></path></g><g from="b2deaf94-50e4-46a2-9542-592a9e6ce668" to="9699a7f9-014b-4536-9297-08ecdfc0cbfb" opacity="1"><path d="M644.8 -1798.3125L656.8 -1798.3125L656.8 -1817.3125C656.8 -1817.3125 656.8 -1823.3125 662.8 -1823.3125L684.8 -1823.3125" stroke-linecap="butt" stroke-width="3" stroke="#4b8f9c" fill="none"></path></g><g from="b2deaf94-50e4-46a2-9542-592a9e6ce668" to="ae846ef7-baf0-499c-935a-131a28ce5a7f" opacity="1"><path d="M644.8 -1798.3125L656.8 -1798.3125L656.8 -1779.3125C656.8 -1779.3125 656.8 -1773.3125 662.8 -1773.3125L684.8 -1773.3125" stroke-linecap="butt" stroke-width="3" stroke="#4b8f9c" fill="none"></path></g><g from="8392dd20-a6bd-48b7-959b-9478ef1d9008" to="e2288ab6-9e93-425d-9eb5-8ee845f61170" opacity="1"><path d="M629.8 -1723.3125L641.8 -1723.3125L641.8 -1723.3125C641.8 -1723.3125 641.8 -1723.3125 641.8 -1723.3125L669.8 -1723.3125" stroke-linecap="butt" stroke-width="3" stroke="#4b8f9c" fill="none"></path></g><g from="391533e5-0b6f-4f4f-98b4-952f14417a26" to="76616562-4164-416d-bdd4-64a6ebb37fb9" opacity="1"><path d="M661.8 -1599.8125L673.8 -1599.8125L673.8 -1599.8125C673.8 -1599.8125 673.8 -1599.8125 673.8 -1599.8125L701.8 -1599.8125" stroke-linecap="butt" stroke-width="3" stroke="#4b8f9c" fill="none"></path></g><g from="8ddce048-c415-4bc3-b6d4-dd824e24d73c" to="6992a500-e180-4511-b7e3-73513e2e99d8" opacity="1"><path d="M661.8 -1477.3125L673.8 -1477.3125L673.8 -1521.3125C673.8 -1521.3125 673.8 -1527.3125 679.8 -1527.3125L701.8 -1527.3125" stroke-linecap="butt" stroke-width="3" stroke="#4b8f9c" fill="none"></path></g><g from="8ddce048-c415-4bc3-b6d4-dd824e24d73c" to="dc733e84-ce73-40dd-9f82-24595eeac332" opacity="1"><path d="M661.8 -1477.3125L673.8 -1477.3125L673.8 -1477.3125C673.8 -1477.3125 673.8 -1477.3125 673.8 -1477.3125L701.8 -1477.3125" stroke-linecap="butt" stroke-width="3" stroke="#4b8f9c" fill="none"></path></g><g from="8ddce048-c415-4bc3-b6d4-dd824e24d73c" to="4f870219-12e0-452d-817e-dc8ec38e7d4d" opacity="1"><path d="M661.8 -1477.3125L673.8 -1477.3125L673.8 -1433.3125C673.8 -1433.3125 673.8 -1427.3125 679.8 -1427.3125L701.8 -1427.3125" stroke-linecap="butt" stroke-width="3" stroke="#4b8f9c" fill="none"></path></g><g from="6b51da0f-9e70-4cc4-9cfb-51094e406933" to="84248ba2-2f2c-4117-a732-247ef5c5eeb4" opacity="1"><path d="M523.3 -2240.8125L535.3 -2240.8125L535.3 -2307.3125C535.3 -2307.3125 535.3 -2313.3125 541.3 -2313.3125L563.3 -2313.3125" stroke-linecap="butt" stroke-width="3" stroke="#3d707a" fill="none"></path></g><g from="6b51da0f-9e70-4cc4-9cfb-51094e406933" to="98fb8211-afb0-42c3-a063-abeace8663a8" opacity="1"><path d="M523.3 -2240.8125L535.3 -2240.8125L535.3 -2240.8125C535.3 -2240.8125 535.3 -2240.8125 535.3 -2240.8125L563.3 -2240.8125" stroke-linecap="butt" stroke-width="3" stroke="#3d707a" fill="none"></path></g><g from="6b51da0f-9e70-4cc4-9cfb-51094e406933" to="7109a015-20f2-48f6-8ce8-ced0a284385c" opacity="1"><path d="M523.3 -2240.8125L535.3 -2240.8125L535.3 -2174.3125C535.3 -2174.3125 535.3 -2168.3125 541.3 -2168.3125L563.3 -2168.3125" stroke-linecap="butt" stroke-width="3" stroke="#3d707a" fill="none"></path></g><g from="84248ba2-2f2c-4117-a732-247ef5c5eeb4" to="fa8f6d79-0fc9-43a4-a744-7e921257e582" opacity="1"><path d="M617.8 -2313.3125L629.8 -2313.3125L629.8 -2313.3125C629.8 -2313.3125 629.8 -2313.3125 629.8 -2313.3125L657.8 -2313.3125" stroke-linecap="butt" stroke-width="3" stroke="#4b8f9c" fill="none"></path></g><g from="98fb8211-afb0-42c3-a063-abeace8663a8" to="12bbc7bc-07a0-4b41-84a3-4c9f12cde338" opacity="1"><path d="M639.8 -2240.8125L651.8 -2240.8125L651.8 -2240.8125C651.8 -2240.8125 651.8 -2240.8125 651.8 -2240.8125L679.8 -2240.8125" stroke-linecap="butt" stroke-width="3" stroke="#4b8f9c" fill="none"></path></g><g from="7109a015-20f2-48f6-8ce8-ced0a284385c" to="863ea117-eb98-4f28-84ce-0bf6b1407c21" opacity="1"><path d="M617.8 -2168.3125L629.8 -2168.3125L629.8 -2168.3125C629.8 -2168.3125 629.8 -2168.3125 629.8 -2168.3125L657.8 -2168.3125" stroke-linecap="butt" stroke-width="3" stroke="#4b8f9c" fill="none"></path></g><g from="fb7af7b9-780a-4b57-83f0-cbb21743a226" to="9e0e55fb-8d75-4db4-9080-bbfd53646abe" opacity="1"><path d="M536.3 -1984.5625L548.3 -1984.5625L548.3 -2064.8125C548.3 -2064.8125 548.3 -2070.8125 554.3 -2070.8125L576.3 -2070.8125" stroke-linecap="butt" stroke-width="3" stroke="#3d707a" fill="none"></path></g><g from="fb7af7b9-780a-4b57-83f0-cbb21743a226" to="f6487227-0e0c-4752-854b-c4b05a5f6cd2" opacity="1"><path d="M536.3 -1984.5625L548.3 -1984.5625L548.3 -1989.8125C548.3 -1989.8125 548.3 -1995.8125 554.3 -1995.8125L576.3 -1995.8125" stroke-linecap="butt" stroke-width="3" stroke="#3d707a" fill="none"></path></g><g from="9e0e55fb-8d75-4db4-9080-bbfd53646abe" to="aa0f2286-7795-428b-b41f-7b8664ad5e89" opacity="1"><path d="M645.8 -2070.8125L657.8 -2070.8125L657.8 -2089.8125C657.8 -2089.8125 657.8 -2095.8125 663.8 -2095.8125L685.8 -2095.8125" stroke-linecap="butt" stroke-width="3" stroke="#4b8f9c" fill="none"></path></g><g from="9e0e55fb-8d75-4db4-9080-bbfd53646abe" to="77da29d5-806a-4d3a-bd78-abd94cb9534f" opacity="1"><path d="M645.8 -2070.8125L657.8 -2070.8125L657.8 -2051.8125C657.8 -2051.8125 657.8 -2045.8125 663.8 -2045.8125L685.8 -2045.8125" stroke-linecap="butt" stroke-width="3" stroke="#4b8f9c" fill="none"></path></g><g from="f6487227-0e0c-4752-854b-c4b05a5f6cd2" to="7bf7dc6b-5de6-4055-9f4e-7e9bc8459858" opacity="1"><path d="M630.8 -1995.8125L642.8 -1995.8125L642.8 -1995.8125C642.8 -1995.8125 642.8 -1995.8125 642.8 -1995.8125L670.8 -1995.8125" stroke-linecap="butt" stroke-width="3" stroke="#4b8f9c" fill="none"></path></g></g><g class="po-mind-generalize-container"></g><g class="po-mind-associative-line-container"></g><g class="po-mind-node-container"><g class="po-mind-topic" id="topic-1d8300c6-3a08-49f8-941a-30becaca47e9" transform="matrix(1,0,0,1,192,-1916.6875)" opacity="1"><path d="M0,0 L146.8,0 C146.8,0 146.8,0 146.8,0                           L146.8,46 C146.8,46 146.8,46 146.8,46                           L0,46 C0,46 0,46 0,46 L0,0                           C0,0 0,0 0,0 Z" class="po-mind-topic-shape-fill" transform="matrix(1,0,0,1,1.5,1.5)" fill="#ffffff"></path><path d="M0,0 L145.3,0 L145.3,44.5 L0,44.5 L0,0 Z M7,44.5 L7,51.5 L152.3,51.5 L152.3,7 L145.3,7" class="po-mind-topic-shape" transform="matrix(1,0,0,1,1.5,1.5)" fill="none" stroke-width="3" stroke="#3d707a"></path><g transform="matrix(1,0,0,1,18.5,10.5)"><g data-width="110.8" data-height="26" data-offsetx="0" transform="matrix(1,0,0,1,0,0)"><g><text text-anchor="start" align="top" anchor="start" font-size="18px" font-weight="bold" fill="rgb(75, 143, 156)" style="font-family: 思源宋体;font-size: 18px;font-weight: bold;line-height: 140%;max-width: 900px;overflow-wrap: break-word;word-break: break-word;text-size-adjust: 100%;color: rgb(75, 143, 156);"><tspan x="0" y="18"><tspan dx="0">数值数据类型</tspan></tspan></text></g></g></g><g><rect width="4" height="54" x="-3" y="0" resize="1" fill="none" style="cursor: ew-resize;"></rect><rect width="4" height="54" x="155.8" y="0" resize="2" fill="none" style="cursor: ew-resize;"></rect></g></g><g class="po-mind-topic" id="topic-6b51da0f-9e70-4cc4-9cfb-51094e406933" transform="matrix(1,0,0,1,386.8,-2263.3125)" opacity="1"><path d="M0,0 L128.5,0 C128.5,0 128.5,0 128.5,0                           L128.5,37 C128.5,37 128.5,37 128.5,37                           L0,37 C0,37 0,37 0,37 L0,0                           C0,0 0,0 0,0 Z" class="po-mind-topic-shape-fill" transform="matrix(1,0,0,1,1.5,1.5)" fill="#ffffff"></path><path d="M0,0 L127,0 L127,35.5 L0,35.5 L0,0 Z M7,35.5 L7,42.5 L134,42.5 L134,7 L127,7" class="po-mind-topic-shape" transform="matrix(1,0,0,1,1.5,1.5)" fill="none" stroke-width="3" stroke="#3d707a"></path><g transform="matrix(1,0,0,1,7.5,8.5)"><g data-width="114.5" data-height="21" data-offsetx="0" transform="matrix(1,0,0,1,0,0)"><g><text text-anchor="start" align="top" anchor="start" font-size="15px" font-weight="bold" fill="rgb(75, 143, 156)" style="font-family: 思源宋体;font-size: 15px;font-weight: bold;line-height: 140%;max-width: 900px;overflow-wrap: break-word;word-break: break-word;text-size-adjust: 100%;color: rgb(75, 143, 156);"><tspan x="0" y="15"><tspan dx="0">整数类型（int）</tspan></tspan></text></g></g></g></g><g class="po-mind-topic" id="topic-84248ba2-2f2c-4117-a732-247ef5c5eeb4" transform="matrix(1,0,0,1,563.3,-2335.8125)" opacity="1"><path d="M0,0 L46.5,0 C46.5,0 46.5,0 46.5,0                           L46.5,37 C46.5,37 46.5,37 46.5,37                           L0,37 C0,37 0,37 0,37 L0,0                           C0,0 0,0 0,0 Z" class="po-mind-topic-shape-fill" transform="matrix(1,0,0,1,1.5,1.5)" fill="#ffffff"></path><path d="M0,0 L45,0 L45,35.5 L0,35.5 L0,0 Z M7,35.5 L7,42.5 L52,42.5 L52,7 L45,7" class="po-mind-topic-shape" transform="matrix(1,0,0,1,1.5,1.5)" fill="none" stroke-width="3" stroke="#3d707a"></path><g transform="matrix(1,0,0,1,7.5,8.5)"><g data-width="32.5" data-height="21" data-offsetx="0" transform="matrix(1,0,0,1,0,0)"><g><text text-anchor="start" align="top" anchor="start" font-size="15px" font-weight="bold" fill="rgb(75, 143, 156)" style="font-family: 思源宋体;font-size: 15px;font-weight: bold;line-height: 140%;max-width: 900px;overflow-wrap: break-word;word-break: break-word;text-size-adjust: 100%;color: rgb(75, 143, 156);"><tspan x="0" y="15"><tspan dx="0">进制</tspan></tspan></text></g></g></g></g><g class="po-mind-topic" id="topic-fa8f6d79-0fc9-43a4-a744-7e921257e582" transform="matrix(1,0,0,1,657.8,-2357.3125)" opacity="1"><path d="M0,0 L94.4,0 C94.4,0 94.4,0 94.4,0                           L94.4,44 C94.4,44 94.4,44 94.4,44                           L0,44 C0,44 0,44 0,44 L0,0                           C0,0 0,0 0,0 Z" class="po-mind-topic-shape-fill" fill="none"></path><path d="M0,44  L94.4 44 M0,37 L94.4 37" class="po-mind-topic-shape" fill="none" stroke-width="3" stroke="#4b8f9c"></path><g transform="matrix(1,0,0,1,6.5,12)"><g data-width="81.4" data-height="20" data-offsetx="0" transform="matrix(1,0,0,1,0,0)"><g><text text-anchor="start" align="top" anchor="start" font-size="14px" font-weight="" fill="rgb(75, 143, 156)" style="font-family: 思源宋体;font-size: 14px;line-height: 140%;max-width: 896px;overflow-wrap: break-word;word-break: break-word;text-size-adjust: 100%;color: rgb(75, 143, 156);"><tspan x="0" y="13.999999999999996"><tspan dx="0">0b、0x、0o</tspan></tspan></text></g></g></g></g><g class="po-mind-topic" id="topic-98fb8211-afb0-42c3-a063-abeace8663a8" transform="matrix(1,0,0,1,563.3,-2263.3125)" opacity="1"><path d="M0,0 L68.5,0 C68.5,0 68.5,0 68.5,0                           L68.5,37 C68.5,37 68.5,37 68.5,37                           L0,37 C0,37 0,37 0,37 L0,0                           C0,0 0,0 0,0 Z" class="po-mind-topic-shape-fill" transform="matrix(1,0,0,1,1.5,1.5)" fill="#ffffff"></path><path d="M0,0 L67,0 L67,35.5 L0,35.5 L0,0 Z M7,35.5 L7,42.5 L74,42.5 L74,7 L67,7" class="po-mind-topic-shape" transform="matrix(1,0,0,1,1.5,1.5)" fill="none" stroke-width="3" stroke="#3d707a"></path><g transform="matrix(1,0,0,1,7.5,8.5)"><g data-width="54.5" data-height="21" data-offsetx="0" transform="matrix(1,0,0,1,0,0)"><g><text text-anchor="start" align="top" anchor="start" font-size="15px" font-weight="bold" fill="rgb(75, 143, 156)" style="font-family: 思源宋体;font-size: 15px;font-weight: bold;line-height: 140%;max-width: 900px;overflow-wrap: break-word;word-break: break-word;text-size-adjust: 100%;color: rgb(75, 143, 156);"><tspan x="0" y="15"><tspan dx="0">int对象</tspan></tspan></text></g></g></g></g><g class="po-mind-topic" id="topic-12bbc7bc-07a0-4b41-84a3-4c9f12cde338" transform="matrix(1,0,0,1,679.8,-2284.8125)" opacity="1"><path d="M0,0 L116.4,0 C116.4,0 116.4,0 116.4,0                           L116.4,44 C116.4,44 116.4,44 116.4,44                           L0,44 C0,44 0,44 0,44 L0,0                           C0,0 0,0 0,0 Z" class="po-mind-topic-shape-fill" fill="none"></path><path d="M0,44  L116.4 44 M0,37 L116.4 37" class="po-mind-topic-shape" fill="none" stroke-width="3" stroke="#4b8f9c"></path><g transform="matrix(1,0,0,1,6.5,12)"><g data-width="103.4" data-height="20" data-offsetx="0" transform="matrix(1,0,0,1,0,0)"><g><text text-anchor="start" align="top" anchor="start" font-size="14px" font-weight="" fill="rgb(75, 143, 156)" style="font-family: 思源宋体;font-size: 14px;line-height: 140%;max-width: 896px;overflow-wrap: break-word;word-break: break-word;text-size-adjust: 100%;color: rgb(75, 143, 156);"><tspan x="0" y="13.999999999999996"><tspan dx="0">int(x,base = n)</tspan></tspan></text></g></g></g></g><g class="po-mind-topic" id="topic-7109a015-20f2-48f6-8ce8-ced0a284385c" transform="matrix(1,0,0,1,563.3,-2190.8125)" opacity="1"><path d="M0,0 L46.5,0 C46.5,0 46.5,0 46.5,0                           L46.5,37 C46.5,37 46.5,37 46.5,37                           L0,37 C0,37 0,37 0,37 L0,0                           C0,0 0,0 0,0 Z" class="po-mind-topic-shape-fill" transform="matrix(1,0,0,1,1.5,1.5)" fill="#ffffff"></path><path d="M0,0 L45,0 L45,35.5 L0,35.5 L0,0 Z M7,35.5 L7,42.5 L52,42.5 L52,7 L45,7" class="po-mind-topic-shape" transform="matrix(1,0,0,1,1.5,1.5)" fill="none" stroke-width="3" stroke="#3d707a"></path><g transform="matrix(1,0,0,1,7.5,8.5)"><g data-width="32.5" data-height="21" data-offsetx="0" transform="matrix(1,0,0,1,0,0)"><g><text text-anchor="start" align="top" anchor="start" font-size="15px" font-weight="bold" fill="rgb(75, 143, 156)" style="font-family: 思源宋体;font-size: 15px;font-weight: bold;line-height: 140%;max-width: 900px;overflow-wrap: break-word;word-break: break-word;text-size-adjust: 100%;color: rgb(75, 143, 156);"><tspan x="0" y="15"><tspan dx="0">方法</tspan></tspan></text></g></g></g></g><g class="po-mind-topic" id="topic-863ea117-eb98-4f28-84ce-0bf6b1407c21" transform="matrix(1,0,0,1,657.8,-2212.3125)" opacity="1"><path d="M0,0 L110.4,0 C110.4,0 110.4,0 110.4,0                           L110.4,44 C110.4,44 110.4,44 110.4,44                           L0,44 C0,44 0,44 0,44 L0,0                           C0,0 0,0 0,0 Z" class="po-mind-topic-shape-fill" fill="none"></path><path d="M0,44  L110.4 44 M0,37 L110.4 37" class="po-mind-topic-shape" fill="none" stroke-width="3" stroke="#4b8f9c"></path><g transform="matrix(1,0,0,1,6.5,12)"><g data-width="97.4" data-height="20" data-offsetx="0" transform="matrix(1,0,0,1,0,0)"><g><text text-anchor="start" align="top" anchor="start" font-size="14px" font-weight="" fill="rgb(75, 143, 156)" style="font-family: 思源宋体;font-size: 14px;line-height: 140%;max-width: 896px;overflow-wrap: break-word;word-break: break-word;text-size-adjust: 100%;color: rgb(75, 143, 156);"><tspan x="0" y="13.999999999999996"><tspan dx="0">i.bit_length()</tspan></tspan></text></g></g></g></g><g class="po-mind-topic" id="topic-fb7af7b9-780a-4b57-83f0-cbb21743a226" transform="matrix(1,0,0,1,386.8,-2007.0625)" opacity="1"><path d="M0,0 L141.5,0 C141.5,0 141.5,0 141.5,0                           L141.5,37 C141.5,37 141.5,37 141.5,37                           L0,37 C0,37 0,37 0,37 L0,0                           C0,0 0,0 0,0 Z" class="po-mind-topic-shape-fill" transform="matrix(1,0,0,1,1.5,1.5)" fill="#ffffff"></path><path d="M0,0 L140,0 L140,35.5 L0,35.5 L0,0 Z M7,35.5 L7,42.5 L147,42.5 L147,7 L140,7" class="po-mind-topic-shape" transform="matrix(1,0,0,1,1.5,1.5)" fill="none" stroke-width="3" stroke="#3d707a"></path><g transform="matrix(1,0,0,1,7.5,8.5)"><g data-width="127.5" data-height="21" data-offsetx="0" transform="matrix(1,0,0,1,0,0)"><g><text text-anchor="start" align="top" anchor="start" font-size="15px" font-weight="bold" fill="rgb(75, 143, 156)" style="font-family: 思源宋体;font-size: 15px;font-weight: bold;line-height: 140%;max-width: 900px;overflow-wrap: break-word;word-break: break-word;text-size-adjust: 100%;color: rgb(75, 143, 156);"><tspan x="0" y="15"><tspan dx="0">浮点类型（float）</tspan></tspan></text></g></g></g></g><g class="po-mind-topic" id="topic-9e0e55fb-8d75-4db4-9080-bbfd53646abe" transform="matrix(1,0,0,1,576.3,-2093.3125)" opacity="1"><path d="M0,0 L61.5,0 C61.5,0 61.5,0 61.5,0                           L61.5,37 C61.5,37 61.5,37 61.5,37                           L0,37 C0,37 0,37 0,37 L0,0                           C0,0 0,0 0,0 Z" class="po-mind-topic-shape-fill" transform="matrix(1,0,0,1,1.5,1.5)" fill="#ffffff"></path><path d="M0,0 L60,0 L60,35.5 L0,35.5 L0,0 Z M7,35.5 L7,42.5 L67,42.5 L67,7 L60,7" class="po-mind-topic-shape" transform="matrix(1,0,0,1,1.5,1.5)" fill="none" stroke-width="3" stroke="#3d707a"></path><g transform="matrix(1,0,0,1,7.5,8.5)"><g data-width="47.5" data-height="21" data-offsetx="0" transform="matrix(1,0,0,1,0,0)"><g><text text-anchor="start" align="top" anchor="start" font-size="15px" font-weight="bold" fill="rgb(75, 143, 156)" style="font-family: 思源宋体;font-size: 15px;font-weight: bold;line-height: 140%;max-width: 900px;overflow-wrap: break-word;word-break: break-word;text-size-adjust: 100%;color: rgb(75, 143, 156);"><tspan x="0" y="15"><tspan dx="0">字面量</tspan></tspan></text></g></g></g></g><g class="po-mind-topic" id="topic-aa0f2286-7795-428b-b41f-7b8664ad5e89" transform="matrix(1,0,0,1,685.8,-2139.8125)" opacity="1"><path d="M0,0 L108.4,0 C108.4,0 108.4,0 108.4,0                           L108.4,44 C108.4,44 108.4,44 108.4,44                           L0,44 C0,44 0,44 0,44 L0,0                           C0,0 0,0 0,0 Z" class="po-mind-topic-shape-fill" fill="none"></path><path d="M0,44  L108.4 44 M0,37 L108.4 37" class="po-mind-topic-shape" fill="none" stroke-width="3" stroke="#4b8f9c"></path><g transform="matrix(1,0,0,1,6.5,12)"><g data-width="95.4" data-height="20" data-offsetx="0" transform="matrix(1,0,0,1,0,0)"><g><text text-anchor="start" align="top" anchor="start" font-size="14px" font-weight="" fill="rgb(75, 143, 156)" style="font-family: 思源宋体;font-size: 14px;line-height: 140%;max-width: 896px;overflow-wrap: break-word;word-break: break-word;text-size-adjust: 100%;color: rgb(75, 143, 156);"><tspan x="0" y="13.999999999999996"><tspan dx="0">前后为0的省略</tspan></tspan></text></g></g></g></g><g class="po-mind-topic" id="topic-77da29d5-806a-4d3a-bd78-abd94cb9534f" transform="matrix(1,0,0,1,685.8,-2089.8125)" opacity="1"><path d="M0,0 L85.4,0 C85.4,0 85.4,0 85.4,0                           L85.4,44 C85.4,44 85.4,44 85.4,44                           L0,44 C0,44 0,44 0,44 L0,0                           C0,0 0,0 0,0 Z" class="po-mind-topic-shape-fill" fill="none"></path><path d="M0,44  L85.4 44 M0,37 L85.4 37" class="po-mind-topic-shape" fill="none" stroke-width="3" stroke="#4b8f9c"></path><g transform="matrix(1,0,0,1,6.5,12)"><g data-width="72.4" data-height="20" data-offsetx="0" transform="matrix(1,0,0,1,0,0)"><g><text text-anchor="start" align="top" anchor="start" font-size="14px" font-weight="" fill="rgb(75, 143, 156)" style="font-family: 思源宋体;font-size: 14px;line-height: 140%;max-width: 896px;overflow-wrap: break-word;word-break: break-word;text-size-adjust: 100%;color: rgb(75, 143, 156);"><tspan x="0" y="13.999999999999996"><tspan dx="0">科学计数法</tspan></tspan></text></g></g></g></g><g class="po-mind-topic" id="topic-f6487227-0e0c-4752-854b-c4b05a5f6cd2" transform="matrix(1,0,0,1,576.3,-2018.3125)" opacity="1"><path d="M0,0 L46.5,0 C46.5,0 46.5,0 46.5,0                           L46.5,37 C46.5,37 46.5,37 46.5,37                           L0,37 C0,37 0,37 0,37 L0,0                           C0,0 0,0 0,0 Z" class="po-mind-topic-shape-fill" transform="matrix(1,0,0,1,1.5,1.5)" fill="#ffffff"></path><path d="M0,0 L45,0 L45,35.5 L0,35.5 L0,0 Z M7,35.5 L7,42.5 L52,42.5 L52,7 L45,7" class="po-mind-topic-shape" transform="matrix(1,0,0,1,1.5,1.5)" fill="none" stroke-width="3" stroke="#3d707a"></path><g transform="matrix(1,0,0,1,7.5,8.5)"><g data-width="32.5" data-height="21" data-offsetx="0" transform="matrix(1,0,0,1,0,0)"><g><text text-anchor="start" align="top" anchor="start" font-size="15px" font-weight="bold" fill="rgb(75, 143, 156)" style="font-family: 思源宋体;font-size: 15px;font-weight: bold;line-height: 140%;max-width: 900px;overflow-wrap: break-word;word-break: break-word;text-size-adjust: 100%;color: rgb(75, 143, 156);"><tspan x="0" y="15"><tspan dx="0">对象</tspan></tspan></text></g></g></g></g><g class="po-mind-topic" id="topic-7bf7dc6b-5de6-4055-9f4e-7e9bc8459858" transform="matrix(1,0,0,1,670.8,-2039.8125)" opacity="1"><path d="M0,0 L67.4,0 C67.4,0 67.4,0 67.4,0                           L67.4,44 C67.4,44 67.4,44 67.4,44                           L0,44 C0,44 0,44 0,44 L0,0                           C0,0 0,0 0,0 Z" class="po-mind-topic-shape-fill" fill="none"></path><path d="M0,44  L67.4 44 M0,37 L67.4 37" class="po-mind-topic-shape" fill="none" stroke-width="3" stroke="#4b8f9c"></path><g transform="matrix(1,0,0,1,6.5,12)"><g data-width="54.4" data-height="20" data-offsetx="0" transform="matrix(1,0,0,1,0,0)"><g><text text-anchor="start" align="top" anchor="start" font-size="14px" font-weight="" fill="rgb(75, 143, 156)" style="font-family: 思源宋体;font-size: 14px;line-height: 140%;max-width: 896px;overflow-wrap: break-word;word-break: break-word;text-size-adjust: 100%;color: rgb(75, 143, 156);"><tspan x="0" y="13.999999999999996"><tspan dx="0">float(x)</tspan></tspan></text></g></g></g></g><g class="po-mind-topic" id="topic-f85132f1-8259-4f67-b24c-10e8f3f16e98" transform="matrix(1,0,0,1,576.3,-1920.8125)" opacity="1"><path d="M0,0 L46.5,0 C46.5,0 46.5,0 46.5,0                           L46.5,37 C46.5,37 46.5,37 46.5,37                           L0,37 C0,37 0,37 0,37 L0,0                           C0,0 0,0 0,0 Z" class="po-mind-topic-shape-fill" transform="matrix(1,0,0,1,1.5,1.5)" fill="#ffffff"></path><path d="M0,0 L45,0 L45,35.5 L0,35.5 L0,0 Z M7,35.5 L7,42.5 L52,42.5 L52,7 L45,7" class="po-mind-topic-shape" transform="matrix(1,0,0,1,1.5,1.5)" fill="none" stroke-width="3" stroke="#3d707a"></path><g transform="matrix(1,0,0,1,7.5,8.5)"><g data-width="32.5" data-height="21" data-offsetx="0" transform="matrix(1,0,0,1,0,0)"><g><text text-anchor="start" align="top" anchor="start" font-size="15px" font-weight="bold" fill="rgb(75, 143, 156)" style="font-family: 思源宋体;font-size: 15px;font-weight: bold;line-height: 140%;max-width: 900px;overflow-wrap: break-word;word-break: break-word;text-size-adjust: 100%;color: rgb(75, 143, 156);"><tspan x="0" y="15"><tspan dx="0">方法</tspan></tspan></text></g></g></g></g><g class="po-mind-topic" id="topic-7d865228-07a4-4b51-9168-0e9df1b88065" transform="matrix(1,0,0,1,670.8,-1967.3125)" opacity="1"><path d="M0,0 L154.4,0 C154.4,0 154.4,0 154.4,0                           L154.4,44 C154.4,44 154.4,44 154.4,44                           L0,44 C0,44 0,44 0,44 L0,0                           C0,0 0,0 0,0 Z" class="po-mind-topic-shape-fill" fill="none"></path><path d="M0,44  L154.4 44 M0,37 L154.4 37" class="po-mind-topic-shape" fill="none" stroke-width="3" stroke="#4b8f9c"></path><g transform="matrix(1,0,0,1,6.5,12)"><g data-width="141.4" data-height="20" data-offsetx="0" transform="matrix(1,0,0,1,0,0)"><g><text text-anchor="start" align="top" anchor="start" font-size="14px" font-weight="" fill="rgb(75, 143, 156)" style="font-family: 思源宋体;font-size: 14px;line-height: 140%;max-width: 896px;overflow-wrap: break-word;word-break: break-word;text-size-adjust: 100%;color: rgb(75, 143, 156);"><tspan x="0" y="13.999999999999996"><tspan dx="0">x.as_integer_ratio()</tspan></tspan></text></g></g></g></g><g class="po-mind-topic" id="topic-0fcefed4-5c0c-4a77-9ae8-9ade0782ab3f" transform="matrix(1,0,0,1,670.8,-1917.3125)" opacity="1"><path d="M0,0 L110.4,0 C110.4,0 110.4,0 110.4,0                           L110.4,44 C110.4,44 110.4,44 110.4,44                           L0,44 C0,44 0,44 0,44 L0,0                           C0,0 0,0 0,0 Z" class="po-mind-topic-shape-fill" fill="none"></path><path d="M0,44  L110.4 44 M0,37 L110.4 37" class="po-mind-topic-shape" fill="none" stroke-width="3" stroke="#4b8f9c"></path><g transform="matrix(1,0,0,1,6.5,12)"><g data-width="97.4" data-height="20" data-offsetx="0" transform="matrix(1,0,0,1,0,0)"><g><text text-anchor="start" align="top" anchor="start" font-size="14px" font-weight="" fill="rgb(75, 143, 156)" style="font-family: 思源宋体;font-size: 14px;line-height: 140%;max-width: 896px;overflow-wrap: break-word;word-break: break-word;text-size-adjust: 100%;color: rgb(75, 143, 156);"><tspan x="0" y="13.999999999999996"><tspan dx="0">x.is_integer()</tspan></tspan></text></g></g></g></g><g class="po-mind-topic" id="topic-9886d6dc-146b-4f8e-b836-40bda41cddc3" transform="matrix(1,0,0,1,386.8,-1757.8125)" opacity="1"><path d="M0,0 L140.5,0 C140.5,0 140.5,0 140.5,0                           L140.5,37 C140.5,37 140.5,37 140.5,37                           L0,37 C0,37 0,37 0,37 L0,0                           C0,0 0,0 0,0 Z" class="po-mind-topic-shape-fill" transform="matrix(1,0,0,1,1.5,1.5)" fill="#ffffff"></path><path d="M0,0 L139,0 L139,35.5 L0,35.5 L0,0 Z M7,35.5 L7,42.5 L146,42.5 L146,7 L139,7" class="po-mind-topic-shape" transform="matrix(1,0,0,1,1.5,1.5)" fill="none" stroke-width="3" stroke="#3d707a"></path><g transform="matrix(1,0,0,1,7.5,8.5)"><g data-width="126.5" data-height="21" data-offsetx="0" transform="matrix(1,0,0,1,0,0)"><g><text text-anchor="start" align="top" anchor="start" font-size="15px" font-weight="bold" fill="rgb(75, 143, 156)" style="font-family: 思源宋体;font-size: 15px;font-weight: bold;line-height: 140%;max-width: 900px;overflow-wrap: break-word;word-break: break-word;text-size-adjust: 100%;color: rgb(75, 143, 156);"><tspan x="0" y="15"><tspan dx="0">布尔类型（bool）</tspan></tspan></text></g></g></g></g><g class="po-mind-topic" id="topic-b2deaf94-50e4-46a2-9542-592a9e6ce668" transform="matrix(1,0,0,1,575.3,-1820.8125)" opacity="1"><path d="M0,0 L61.5,0 C61.5,0 61.5,0 61.5,0                           L61.5,37 C61.5,37 61.5,37 61.5,37                           L0,37 C0,37 0,37 0,37 L0,0                           C0,0 0,0 0,0 Z" class="po-mind-topic-shape-fill" transform="matrix(1,0,0,1,1.5,1.5)" fill="#ffffff"></path><path d="M0,0 L60,0 L60,35.5 L0,35.5 L0,0 Z M7,35.5 L7,42.5 L67,42.5 L67,7 L60,7" class="po-mind-topic-shape" transform="matrix(1,0,0,1,1.5,1.5)" fill="none" stroke-width="3" stroke="#3d707a"></path><g transform="matrix(1,0,0,1,7.5,8.5)"><g data-width="47.5" data-height="21" data-offsetx="0" transform="matrix(1,0,0,1,0,0)"><g><text text-anchor="start" align="top" anchor="start" font-size="15px" font-weight="bold" fill="rgb(75, 143, 156)" style="font-family: 思源宋体;font-size: 15px;font-weight: bold;line-height: 140%;max-width: 900px;overflow-wrap: break-word;word-break: break-word;text-size-adjust: 100%;color: rgb(75, 143, 156);"><tspan x="0" y="15"><tspan dx="0">字面量</tspan></tspan></text></g></g></g></g><g class="po-mind-topic" id="topic-9699a7f9-014b-4536-9297-08ecdfc0cbfb" transform="matrix(1,0,0,1,684.8,-1867.3125)" opacity="1"><path d="M0,0 L49.4,0 C49.4,0 49.4,0 49.4,0                           L49.4,44 C49.4,44 49.4,44 49.4,44                           L0,44 C0,44 0,44 0,44 L0,0                           C0,0 0,0 0,0 Z" class="po-mind-topic-shape-fill" fill="none"></path><path d="M0,44  L49.4 44 M0,37 L49.4 37" class="po-mind-topic-shape" fill="none" stroke-width="3" stroke="#4b8f9c"></path><g transform="matrix(1,0,0,1,6.5,12)"><g data-width="36.4" data-height="20" data-offsetx="0" transform="matrix(1,0,0,1,0,0)"><g><text text-anchor="start" align="top" anchor="start" font-size="14px" font-weight="" fill="rgb(75, 143, 156)" style="font-family: 思源宋体;font-size: 14px;line-height: 140%;max-width: 896px;overflow-wrap: break-word;word-break: break-word;text-size-adjust: 100%;color: rgb(75, 143, 156);"><tspan x="0" y="13.999999999999996"><tspan dx="0">True</tspan></tspan></text></g></g></g></g><g class="po-mind-topic" id="topic-ae846ef7-baf0-499c-935a-131a28ce5a7f" transform="matrix(1,0,0,1,684.8,-1817.3125)" opacity="1"><path d="M0,0 L52.4,0 C52.4,0 52.4,0 52.4,0                           L52.4,44 C52.4,44 52.4,44 52.4,44                           L0,44 C0,44 0,44 0,44 L0,0                           C0,0 0,0 0,0 Z" class="po-mind-topic-shape-fill" fill="none"></path><path d="M0,44  L52.4 44 M0,37 L52.4 37" class="po-mind-topic-shape" fill="none" stroke-width="3" stroke="#4b8f9c"></path><g transform="matrix(1,0,0,1,6.5,12)"><g data-width="39.4" data-height="20" data-offsetx="0" transform="matrix(1,0,0,1,0,0)"><g><text text-anchor="start" align="top" anchor="start" font-size="14px" font-weight="" fill="rgb(75, 143, 156)" style="font-family: 思源宋体;font-size: 14px;line-height: 140%;max-width: 896px;overflow-wrap: break-word;word-break: break-word;text-size-adjust: 100%;color: rgb(75, 143, 156);"><tspan x="0" y="13.999999999999996"><tspan dx="0">False</tspan></tspan></text></g></g></g></g><g class="po-mind-topic" id="topic-8392dd20-a6bd-48b7-959b-9478ef1d9008" transform="matrix(1,0,0,1,575.3,-1745.8125)" opacity="1"><path d="M0,0 L46.5,0 C46.5,0 46.5,0 46.5,0                           L46.5,37 C46.5,37 46.5,37 46.5,37                           L0,37 C0,37 0,37 0,37 L0,0                           C0,0 0,0 0,0 Z" class="po-mind-topic-shape-fill" transform="matrix(1,0,0,1,1.5,1.5)" fill="#ffffff"></path><path d="M0,0 L45,0 L45,35.5 L0,35.5 L0,0 Z M7,35.5 L7,42.5 L52,42.5 L52,7 L45,7" class="po-mind-topic-shape" transform="matrix(1,0,0,1,1.5,1.5)" fill="none" stroke-width="3" stroke="#3d707a"></path><g transform="matrix(1,0,0,1,7.5,8.5)"><g data-width="32.5" data-height="21" data-offsetx="0" transform="matrix(1,0,0,1,0,0)"><g><text text-anchor="start" align="top" anchor="start" font-size="15px" font-weight="bold" fill="rgb(75, 143, 156)" style="font-family: 思源宋体;font-size: 15px;font-weight: bold;line-height: 140%;max-width: 900px;overflow-wrap: break-word;word-break: break-word;text-size-adjust: 100%;color: rgb(75, 143, 156);"><tspan x="0" y="15"><tspan dx="0">对象</tspan></tspan></text></g></g></g></g><g class="po-mind-topic" id="topic-e2288ab6-9e93-425d-9eb5-8ee845f61170" transform="matrix(1,0,0,1,669.8,-1767.3125)" opacity="1"><path d="M0,0 L66.4,0 C66.4,0 66.4,0 66.4,0                           L66.4,44 C66.4,44 66.4,44 66.4,44                           L0,44 C0,44 0,44 0,44 L0,0                           C0,0 0,0 0,0 Z" class="po-mind-topic-shape-fill" fill="none"></path><path d="M0,44  L66.4 44 M0,37 L66.4 37" class="po-mind-topic-shape" fill="none" stroke-width="3" stroke="#4b8f9c"></path><g transform="matrix(1,0,0,1,6.5,12)"><g data-width="53.4" data-height="20" data-offsetx="0" transform="matrix(1,0,0,1,0,0)"><g><text text-anchor="start" align="top" anchor="start" font-size="14px" font-weight="" fill="rgb(75, 143, 156)" style="font-family: 思源宋体;font-size: 14px;line-height: 140%;max-width: 896px;overflow-wrap: break-word;word-break: break-word;text-size-adjust: 100%;color: rgb(75, 143, 156);"><tspan x="0" y="13.999999999999996"><tspan dx="0">bool(x)</tspan></tspan></text></g></g></g></g><g class="po-mind-topic" id="topic-fab145f5-94fa-475e-8499-0a0540cfc369" transform="matrix(1,0,0,1,575.3,-1694.8125)" opacity="1"><path d="M0,0 L211.5,0 C211.5,0 211.5,0 211.5,0                           L211.5,37 C211.5,37 211.5,37 211.5,37                           L0,37 C0,37 0,37 0,37 L0,0                           C0,0 0,0 0,0 Z" class="po-mind-topic-shape-fill" transform="matrix(1,0,0,1,1.5,1.5)" fill="#ffffff"></path><path d="M0,0 L210,0 L210,35.5 L0,35.5 L0,0 Z M7,35.5 L7,42.5 L217,42.5 L217,7 L210,7" class="po-mind-topic-shape" transform="matrix(1,0,0,1,1.5,1.5)" fill="none" stroke-width="3" stroke="#3d707a"></path><g transform="matrix(1,0,0,1,7.5,8.5)"><g data-width="197.5" data-height="21" data-offsetx="0" transform="matrix(1,0,0,1,0,0)"><g><text text-anchor="start" align="top" anchor="start" font-size="15px" font-weight="bold" fill="rgb(75, 143, 156)" style="font-family: 思源宋体;font-size: 15px;font-weight: bold;line-height: 140%;max-width: 900px;overflow-wrap: break-word;word-break: break-word;text-size-adjust: 100%;color: rgb(75, 143, 156);"><tspan x="0" y="15"><tspan dx="0">空的为False，非空的为True</tspan></tspan></text></g></g></g></g><g class="po-mind-topic" id="topic-6c9431e6-65c6-40c0-b1ed-f0885b0de620" transform="matrix(1,0,0,1,386.8,-1561.0625)" opacity="1"><path d="M0,0 L172.5,0 C172.5,0 172.5,0 172.5,0                           L172.5,37 C172.5,37 172.5,37 172.5,37                           L0,37 C0,37 0,37 0,37 L0,0                           C0,0 0,0 0,0 Z" class="po-mind-topic-shape-fill" transform="matrix(1,0,0,1,1.5,1.5)" fill="#ffffff"></path><path d="M0,0 L171,0 L171,35.5 L0,35.5 L0,0 Z M7,35.5 L7,42.5 L178,42.5 L178,7 L171,7" class="po-mind-topic-shape" transform="matrix(1,0,0,1,1.5,1.5)" fill="none" stroke-width="3" stroke="#3d707a"></path><g transform="matrix(1,0,0,1,7.5,8.5)"><g data-width="158.5" data-height="21" data-offsetx="0" transform="matrix(1,0,0,1,0,0)"><g><text text-anchor="start" align="top" anchor="start" font-size="15px" font-weight="bold" fill="rgb(75, 143, 156)" style="font-family: 思源宋体;font-size: 15px;font-weight: bold;line-height: 140%;max-width: 900px;overflow-wrap: break-word;word-break: break-word;text-size-adjust: 100%;color: rgb(75, 143, 156);"><tspan x="0" y="15"><tspan dx="0">复数类型（complex）</tspan></tspan></text></g></g></g></g><g class="po-mind-topic" id="topic-391533e5-0b6f-4f4f-98b4-952f14417a26" transform="matrix(1,0,0,1,607.3,-1622.3125)" opacity="1"><path d="M0,0 L46.5,0 C46.5,0 46.5,0 46.5,0                           L46.5,37 C46.5,37 46.5,37 46.5,37                           L0,37 C0,37 0,37 0,37 L0,0                           C0,0 0,0 0,0 Z" class="po-mind-topic-shape-fill" transform="matrix(1,0,0,1,1.5,1.5)" fill="#ffffff"></path><path d="M0,0 L45,0 L45,35.5 L0,35.5 L0,0 Z M7,35.5 L7,42.5 L52,42.5 L52,7 L45,7" class="po-mind-topic-shape" transform="matrix(1,0,0,1,1.5,1.5)" fill="none" stroke-width="3" stroke="#3d707a"></path><g transform="matrix(1,0,0,1,7.5,8.5)"><g data-width="32.5" data-height="21" data-offsetx="0" transform="matrix(1,0,0,1,0,0)"><g><text text-anchor="start" align="top" anchor="start" font-size="15px" font-weight="bold" fill="rgb(75, 143, 156)" style="font-family: 思源宋体;font-size: 15px;font-weight: bold;line-height: 140%;max-width: 900px;overflow-wrap: break-word;word-break: break-word;text-size-adjust: 100%;color: rgb(75, 143, 156);"><tspan x="0" y="15"><tspan dx="0">对象</tspan></tspan></text></g></g></g></g><g class="po-mind-topic" id="topic-76616562-4164-416d-bdd4-64a6ebb37fb9" transform="matrix(1,0,0,1,701.8,-1643.8125)" opacity="1"><path d="M0,0 L155.4,0 C155.4,0 155.4,0 155.4,0                           L155.4,44 C155.4,44 155.4,44 155.4,44                           L0,44 C0,44 0,44 0,44 L0,0                           C0,0 0,0 0,0 Z" class="po-mind-topic-shape-fill" fill="none"></path><path d="M0,44  L155.4 44 M0,37 L155.4 37" class="po-mind-topic-shape" fill="none" stroke-width="3" stroke="#4b8f9c"></path><g transform="matrix(1,0,0,1,6.5,12)"><g data-width="142.4" data-height="20" data-offsetx="0" transform="matrix(1,0,0,1,0,0)"><g><text text-anchor="start" align="top" anchor="start" font-size="14px" font-weight="" fill="rgb(75, 143, 156)" style="font-family: 思源宋体;font-size: 14px;line-height: 140%;max-width: 896px;overflow-wrap: break-word;word-break: break-word;text-size-adjust: 100%;color: rgb(75, 143, 156);"><tspan x="0" y="13.999999999999996"><tspan dx="0">complex(real,imag)</tspan></tspan></text></g></g></g></g><g class="po-mind-topic" id="topic-8ddce048-c415-4bc3-b6d4-dd824e24d73c" transform="matrix(1,0,0,1,607.3,-1499.8125)" opacity="1"><path d="M0,0 L46.5,0 C46.5,0 46.5,0 46.5,0                           L46.5,37 C46.5,37 46.5,37 46.5,37                           L0,37 C0,37 0,37 0,37 L0,0                           C0,0 0,0 0,0 Z" class="po-mind-topic-shape-fill" transform="matrix(1,0,0,1,1.5,1.5)" fill="#ffffff"></path><path d="M0,0 L45,0 L45,35.5 L0,35.5 L0,0 Z M7,35.5 L7,42.5 L52,42.5 L52,7 L45,7" class="po-mind-topic-shape" transform="matrix(1,0,0,1,1.5,1.5)" fill="none" stroke-width="3" stroke="#3d707a"></path><g transform="matrix(1,0,0,1,7.5,8.5)"><g data-width="32.5" data-height="21" data-offsetx="0" transform="matrix(1,0,0,1,0,0)"><g><text text-anchor="start" align="top" anchor="start" font-size="15px" font-weight="bold" fill="rgb(75, 143, 156)" style="font-family: 思源宋体;font-size: 15px;font-weight: bold;line-height: 140%;max-width: 900px;overflow-wrap: break-word;word-break: break-word;text-size-adjust: 100%;color: rgb(75, 143, 156);"><tspan x="0" y="15"><tspan dx="0">方法</tspan></tspan></text></g></g></g></g><g class="po-mind-topic" id="topic-6992a500-e180-4511-b7e3-73513e2e99d8" transform="matrix(1,0,0,1,701.8,-1571.3125)" opacity="1"><path d="M0,0 L67.4,0 C67.4,0 67.4,0 67.4,0                           L67.4,44 C67.4,44 67.4,44 67.4,44                           L0,44 C0,44 0,44 0,44 L0,0                           C0,0 0,0 0,0 Z" class="po-mind-topic-shape-fill" fill="none"></path><path d="M0,44  L67.4 44 M0,37 L67.4 37" class="po-mind-topic-shape" fill="none" stroke-width="3" stroke="#4b8f9c"></path><g transform="matrix(1,0,0,1,6.5,12)"><g data-width="54.4" data-height="20" data-offsetx="0" transform="matrix(1,0,0,1,0,0)"><g><text text-anchor="start" align="top" anchor="start" font-size="14px" font-weight="" fill="rgb(75, 143, 156)" style="font-family: 思源宋体;font-size: 14px;line-height: 140%;max-width: 896px;overflow-wrap: break-word;word-break: break-word;text-size-adjust: 100%;color: rgb(75, 143, 156);"><tspan x="0" y="13.999999999999996"><tspan dx="0">c.real()</tspan></tspan></text></g></g></g></g><g class="po-mind-topic" id="topic-dc733e84-ce73-40dd-9f82-24595eeac332" transform="matrix(1,0,0,1,701.8,-1521.3125)" opacity="1"><path d="M0,0 L74.4,0 C74.4,0 74.4,0 74.4,0                           L74.4,44 C74.4,44 74.4,44 74.4,44                           L0,44 C0,44 0,44 0,44 L0,0                           C0,0 0,0 0,0 Z" class="po-mind-topic-shape-fill" fill="none"></path><path d="M0,44  L74.4 44 M0,37 L74.4 37" class="po-mind-topic-shape" fill="none" stroke-width="3" stroke="#4b8f9c"></path><g transform="matrix(1,0,0,1,6.5,12)"><g data-width="61.4" data-height="20" data-offsetx="0" transform="matrix(1,0,0,1,0,0)"><g><text text-anchor="start" align="top" anchor="start" font-size="14px" font-weight="" fill="rgb(75, 143, 156)" style="font-family: 思源宋体;font-size: 14px;line-height: 140%;max-width: 896px;overflow-wrap: break-word;word-break: break-word;text-size-adjust: 100%;color: rgb(75, 143, 156);"><tspan x="0" y="13.999999999999996"><tspan dx="0">c.imag()</tspan></tspan></text></g></g></g></g><g class="po-mind-topic" id="topic-4f870219-12e0-452d-817e-dc8ec38e7d4d" transform="matrix(1,0,0,1,701.8,-1471.3125)" opacity="1"><path d="M0,0 L109.4,0 C109.4,0 109.4,0 109.4,0                           L109.4,44 C109.4,44 109.4,44 109.4,44                           L0,44 C0,44 0,44 0,44 L0,0                           C0,0 0,0 0,0 Z" class="po-mind-topic-shape-fill" fill="none"></path><path d="M0,44  L109.4 44 M0,37 L109.4 37" class="po-mind-topic-shape" fill="none" stroke-width="3" stroke="#4b8f9c"></path><g transform="matrix(1,0,0,1,6.5,12)"><g data-width="96.4" data-height="20" data-offsetx="0" transform="matrix(1,0,0,1,0,0)"><g><text text-anchor="start" align="top" anchor="start" font-size="14px" font-weight="" fill="rgb(75, 143, 156)" style="font-family: 思源宋体;font-size: 14px;line-height: 140%;max-width: 896px;overflow-wrap: break-word;word-break: break-word;text-size-adjust: 100%;color: rgb(75, 143, 156);"><tspan x="0" y="13.999999999999996"><tspan dx="0">c.conjugate()</tspan></tspan></text></g></g></g></g></g><g class="po-mind-associative-line-label-container"></g></g><g id="wpsexport-watermark"><defs><pattern patternUnits="userSpaceOnUse" id="wpspattern_mark_0" width="300" height="300"><text x="150" y="100" fill="#0000004d" font-size="18" transform="rotate(-45, 150, 150)" style="dominant-baseline: middle; text-anchor: middle;"></text></pattern></defs><rect fill="url(#wpspattern_mark_0)" x="0" y="0" width="718.195" height="980" id="rect_mark_0" pointer-events="none"></rect></g><style>
    .connection-svg{
        outline: none;
        box-shadow: none;
        -webkit-tap-highlight-color: transparent;
    }
    .connection-line {
        cursor: pointer;
    }

    .connection-line-bg {
        cursor: pointer;
    }

    .node-add-btn {
        cursor: pointer;
    }

    .po-richtext-node-wrap ol,
    .area_box ol,
    .po-measureCustomNode ol {
        padding-left: 20px;
        margin: 0;
    }
    .po-richtext-node-wrap ol li,
    .area_box ol li,
    .po-measureCustomNode ol li {
        list-style: decimal;
    }
    .po-richtext-node-wrap ul,
    .area_box ul,
    .po-measureCustomNode ul {
        padding-left: calc(15px + 0.5em);
        list-style: none;
        margin: 0;
    }
    .po-richtext-node-wrap ul li,
    .area_box ul li,
    .po-measureCustomNode ul li {
        list-style: disc;
    }
    .po-richtext-node-wrap p,
    .po-richtext-node-wrap h1,
    .po-richtext-node-wrap h2,
    .po-richtext-node-wrap h3,
    .po-richtext-node-wrap h4,
    .po-richtext-node-wrap h5,
    .po-richtext-node-wrap h6,
    .area_box p,
    .area_box h1,
    .area_box h2,
    .area_box h3,
    .area_box h4,
    .area_box h5,
    .area_box h6,
    .po-measureCustomNode p,
    .po-measureCustomNode h1,
    .po-measureCustomNode h2,
    .po-measureCustomNode h3,
    .po-measureCustomNode h4,
    .po-measureCustomNode h5,
    .po-measureCustomNode h6 {
        margin: 0;
    }
    .po-safari-fixed {
        position: fixed;
    }
</style></svg>